<?xml version="1.0" encoding="utf-8"?>
<!-- Generator: Adobe Illustrator 25.2.1, SVG Export Plug-In . SVG Version: 6.00 Build 0)  -->
<svg version="1.1" xmlns="http://www.w3.org/2000/svg" xmlns:xlink="http://www.w3.org/1999/xlink" x="0px" y="0px"
	 viewBox="0 0 1164.6 213.5" style="enable-background:new 0 0 1164.6 213.5;" xml:space="preserve">
<style type="text/css">
	.st0{fill:#F1C40F;}
	.st1{fill:none;stroke:#80D6FF;stroke-width:5;stroke-linecap:round;stroke-miterlimit:10;}
	.st2{fill:#29ABE2;stroke:#80D6FF;stroke-width:5;stroke-linecap:round;stroke-miterlimit:10;}
	.st3{fill:#80D6FF;stroke:#80D6FF;stroke-width:5;stroke-linecap:round;stroke-miterlimit:10;}
	.st4{font-family:'OpenSans-Regular';}
	.st5{font-size:18.0377px;}
	.st6{fill:none;stroke:#F9D878;stroke-width:5;stroke-linecap:round;stroke-miterlimit:10;}
	.st7{fill:#F9D878;stroke:#F9D878;stroke-width:5;stroke-linecap:round;stroke-miterlimit:10;}
	.st8{fill:none;stroke:#29ABE2;stroke-width:5;stroke-linecap:round;stroke-miterlimit:10;}
	.st9{fill:none;stroke:#A1DE93;stroke-width:5;stroke-linecap:round;stroke-miterlimit:10;}
	.st10{fill:#39B54A;stroke:#A1DE93;stroke-width:5;stroke-linecap:round;stroke-miterlimit:10;}
	.st11{fill:#A1DE93;stroke:#A1DE93;stroke-width:5;stroke-linecap:round;stroke-miterlimit:10;}
	.st12{font-size:15.0314px;}
</style>
<g id="图层_1">
	<g>
		<path class="st0" d="M348.9,10.6c14,0,25.3,11.4,25.3,25.3v139.5c0,14-11.4,25.3-25.3,25.3H40.2c-14,0-25.3-11.4-25.3-25.3V35.9
			c0-14,11.4-25.3,25.3-25.3H348.9 M348.9,9.6H40.2c-14.5,0-26.3,11.8-26.3,26.3v139.5c0,14.5,11.8,26.3,26.3,26.3h308.7
			c14.5,0,26.3-11.8,26.3-26.3V35.9C375.3,21.4,363.5,9.6,348.9,9.6L348.9,9.6z"/>
	</g>
	<g>
		<path class="st0" d="M735.2,10.6c14,0,25.3,11.4,25.3,25.3v139.5c0,14-11.4,25.3-25.3,25.3H426.4c-14,0-25.3-11.4-25.3-25.3V35.9
			c0-14,11.4-25.3,25.3-25.3H735.2 M735.2,9.6H426.4c-14.5,0-26.3,11.8-26.3,26.3v139.5c0,14.5,11.8,26.3,26.3,26.3h308.7
			c14.5,0,26.3-11.8,26.3-26.3V35.9C761.5,21.4,749.7,9.6,735.2,9.6L735.2,9.6z"/>
	</g>
	<g>
		<path class="st0" d="M1121.4,10.6c14,0,25.3,11.4,25.3,25.3v139.5c0,14-11.4,25.3-25.3,25.3H812.6c-14,0-25.3-11.4-25.3-25.3V35.9
			c0-14,11.4-25.3,25.3-25.3H1121.4 M1121.4,9.6H812.6c-14.5,0-26.3,11.8-26.3,26.3v139.5c0,14.5,11.8,26.3,26.3,26.3h308.7
			c14.5,0,26.3-11.8,26.3-26.3V35.9C1147.7,21.4,1135.9,9.6,1121.4,9.6L1121.4,9.6z"/>
	</g>
</g>
<g id="图层_2">
	<g>
		<g>
			<line class="st1" x1="102.6" y1="116.5" x2="140.5" y2="116.5"/>
			<polyline class="st1" points="102.6,116.5 102.6,78.7 135.1,78.7 			"/>
			<polyline class="st1" points="124.2,67.8 135.1,78.7 124.2,89.5 			"/>
		</g>
		<g>
			<line class="st2" x1="140.5" y1="116.5" x2="183.8" y2="116.5"/>
		</g>
		<g>
			<line class="st1" x1="248.7" y1="116.5" x2="292" y2="116.5"/>
			<line class="st1" x1="255.5" y1="101.2" x2="288" y2="101.2"/>
			<line class="st1" x1="270.3" y1="101.2" x2="270.3" y2="116.5"/>
		</g>
		<g>
			<path class="st3" d="M189.2,104v25c0,2.1,1.7,3.7,3.7,3.7h32.6c1,0,1.9-0.4,2.6-1.1l12.5-12.5c1.5-1.5,1.5-3.8,0-5.3l-12.5-12.5
				c-0.7-0.7-1.6-1.1-2.6-1.1h-32.6C190.8,100.3,189.2,102,189.2,104z"/>
			<line class="st3" x1="183.8" y1="116.5" x2="189.2" y2="116.5"/>
			<line class="st2" x1="248.7" y1="116.5" x2="243.3" y2="116.5"/>
		</g>
	</g>
	<text transform="matrix(1 0 0 1 97.1798 143.6022)" class="st4 st5">P70a</text>
	<text transform="matrix(1 0 0 1 196.254 121.9567)" class="st4 st5">σ28</text>
	<g>
		<line class="st6" x1="495.8" y1="117.2" x2="533.7" y2="117.2"/>
		<polyline class="st6" points="495.8,117.2 495.8,79.3 528.3,79.3 		"/>
		<polyline class="st6" points="517.4,68.5 528.3,79.3 517.4,90.1 		"/>
	</g>
	<g>
		<line class="st7" x1="533.7" y1="117.2" x2="577" y2="117.2"/>
	</g>
	<g>
		<line class="st7" x1="641.9" y1="117.2" x2="685.2" y2="117.2"/>
		<line class="st7" x1="647.9" y1="102" x2="680.4" y2="102"/>
		<line class="st7" x1="663.5" y1="102" x2="663.5" y2="117.2"/>
	</g>
	<g>
		<path class="st7" d="M582.4,103.7v26.9c0,1.5,1.2,2.8,2.8,2.8h33.9c0.7,0,1.4-0.3,2-0.8l13.4-13.4c1.1-1.1,1.1-2.9,0-3.9
			l-13.4-13.4c-0.5-0.5-1.2-0.8-2-0.8h-33.9C583.6,100.9,582.4,102.2,582.4,103.7z"/>
		<line class="st7" x1="577" y1="117.2" x2="582.4" y2="117.2"/>
		<line class="st7" x1="641.9" y1="117.2" x2="636.5" y2="117.2"/>
	</g>
	<text transform="matrix(1 0 0 1 490.3813 144.8311)" class="st4 st5">P28a</text>
	<text transform="matrix(1 0 0 1 587.7846 122.5899)" class="st4 st5">tetR</text>
	<path class="st8" d="M672,122.7"/>
	<path class="st8" d="M604,122.7"/>
	<path class="st8" d="M604,122.7"/>
	<g>
		<g>
			<line class="st9" x1="878.3" y1="115.8" x2="916.2" y2="115.8"/>
			<polyline class="st9" points="878.3,115.8 878.3,77.9 910.8,77.9 			"/>
			<polyline class="st9" points="900,67.1 910.8,77.9 900,88.7 			"/>
		</g>
		<g>
			<line class="st10" x1="916.2" y1="115.8" x2="959.5" y2="115.8"/>
		</g>
		<g>
			<line class="st9" x1="1024.4" y1="115.8" x2="1067.7" y2="115.8"/>
			<line class="st9" x1="1029.7" y1="100.4" x2="1062.2" y2="100.4"/>
			<line class="st9" x1="1046.1" y1="100.4" x2="1046.1" y2="115.8"/>
		</g>
		<g>
			<path class="st11" d="M964.9,103.6V128c0,2.2,1.8,4,4,4h32.2c1.1,0,2.1-0.4,2.8-1.2l12.2-12.2c1.6-1.6,1.6-4.1,0-5.7l-12.2-12.2
				c-0.8-0.8-1.8-1.2-2.8-1.2h-32.2C966.7,99.5,964.9,101.3,964.9,103.6z"/>
			<line class="st11" x1="959.5" y1="115.8" x2="964.9" y2="115.8"/>
			<line class="st10" x1="1024.4" y1="115.8" x2="1019" y2="115.8"/>
		</g>
	</g>
	<text transform="matrix(1 0 0 1 964.9207 121.1887)" class="st4 st12">deGFP</text>
	<text transform="matrix(1 0 0 1 874.1055 143.6021)" class="st4 st5">P28a-tetO</text>
	<path class="st3" d="M139,115.2c0-10.5,8.5-18.9,18.9-18.9s18.9,8.5,18.9,18.9"/>
	<path class="st7" d="M533.7,117.2c0-10.5,8.5-18.9,18.9-18.9c10.5,0,18.9,8.5,18.9,18.9"/>
	<path class="st11" d="M910.8,115.2c0-10.5,8.5-18.9,18.9-18.9c10.5,0,18.9,8.5,18.9,18.9"/>
</g>
</svg>
