<?xml version="1.0" encoding="utf-8"?>
<!-- Generator: Adobe Illustrator 25.2.1, SVG Export Plug-In . SVG Version: 6.00 Build 0)  -->
<svg version="1.1" xmlns="http://www.w3.org/2000/svg" xmlns:xlink="http://www.w3.org/1999/xlink" x="0px" y="0px"
	 viewBox="0 0 1366 745" style="enable-background:new 0 0 1366 745;" xml:space="preserve">
<style type="text/css">
	.st0{fill:none;stroke:#F4D03F;stroke-miterlimit:10;}
	.st1{fill:#A7E8ED;}
	.st2{fill:#C4E3E6;}
	.st3{fill:#A3C3E1;stroke:#C4C1E0;stroke-miterlimit:10;}
	.st4{fill:#F7E6D6;}
	.st5{fill:none;}
	.st6{fill:#255887;}
	.st7{fill:#F9D878;}
	.st8{fill:none;stroke:#000000;stroke-miterlimit:10;}
	.st9{fill:#B0CE94;}
</style>
<symbol  id="剪切" viewBox="-27.8 -32 55.5 64">
	<path d="M16.3-9c-2.4,0-4.7-0.8-6.5-2L5.8-6.4c2.9,1.1,6,2.8,7.7,5.1c4,5.3,13.2,18,14,21.5c0.8,3.5-1.2,11.8-1.2,11.8L0,0.6
		L-26.4,32c0,0-2-8.2-1.2-11.8c0.8-3.5,10-16.2,14-21.5c1.8-2.3,4.8-4,7.7-5.1L-9.8-11c-1.9,1.3-4.1,2-6.5,2
		c-6.4,0-11.5-5.1-11.5-11.5c0-6.3,5.1-11.5,11.5-11.5c6.4,0,11.5,5.2,11.5,11.5c0,2.2-0.6,4.2-1.6,5.9l5.2,6.2c0,0,0.4,0.1,1.2,0.2
		c0.7-0.2,1.2-0.2,1.2-0.2l5.2-6.2c-1-1.7-1.6-3.7-1.6-5.9C4.8-26.8,9.9-32,16.3-32c6.4,0,11.5,5.2,11.5,11.5
		C27.8-14.1,22.6-9,16.3-9z M-16.3-26c-3,0-5.5,2.5-5.5,5.5s2.5,5.5,5.5,5.5s5.5-2.5,5.5-5.5S-13.2-26-16.3-26z M16.3-26
		c-3,0-5.5,2.5-5.5,5.5s2.5,5.5,5.5,5.5c3,0,5.5-2.5,5.5-5.5S19.3-26,16.3-26z"/>
</symbol>
<g id="图层_2">
	<path class="st0" d="M1337.2,745H27.3C12.2,745,0,732.8,0,717.7V27.3C0,12.2,12.2,0,27.3,0h1309.9c15.1,0,27.3,12.2,27.3,27.3
		v690.4C1364.5,732.8,1352.3,745,1337.2,745z"/>
</g>
<g id="图层_1">
	<path class="st1" d="M904.1,358.1"/>
	<path class="st2" d="M987.2,317.3c-83,422.3-768.4,169.7-544.3-31.9c64.5-58.1,185.9,7.6,191-9.3C705.2,43.8,999.6,86,987.6,317.4"
		/>
</g>
<g id="图层_3">
	<polygon class="st3" points="1363.8,379.9 817.2,378.6 782.1,343.5 551.3,344.8 510.8,381.3 0.6,381.3 0,360.3 500.1,360.8 
		539.2,323.2 795.1,323.2 830.2,360.8 1364.5,360.3 	"/>
	<g>
		<g>
			<path d="M569.4,356.5h-8.7c-0.1,0.7-0.4,2.5-0.5,3c0.8-0.5,2-0.9,3.7-0.9c4.4,0,6.9,3,6.9,7c0,4.4-2.7,7.9-8.7,7.9
				c-5.2,0-8.2-2.6-8.6-6.4h6.1c0.3,1.2,1,2.1,2.5,2.1c1.7,0,2.4-1.4,2.4-3.3c0-2-0.6-3.2-2.5-3.2c-1.5,0-2.1,0.7-2.5,1.7L554,364
				c0.5-2.6,1.5-9.2,1.8-12.2h14.5L569.4,356.5z"/>
			<path d="M573.2,359.6c0.8-2.9,1.3-6.5,1.4-10h5.8c-0.2,3.2-1.2,7.2-2.8,10H573.2z"/>
		</g>
	</g>
</g>
<g id="图层_3_x5F_复制">
	<polygon class="st3" points="1363.8,404.2 817.2,405.6 782.1,440.6 551.3,439.3 510.8,402.9 0.6,402.9 0,423.8 500.1,423.3 
		539.2,460.9 795.1,460.9 830.2,423.3 1364.5,423.8 	"/>
</g>
<g id="图层_5">
	<ellipse class="st4" cx="765.9" cy="450.8" rx="16.9" ry="10.8"/>
	<line class="st5" x1="805.7" y1="255.1" x2="904.3" y2="252.4"/>
	<g>
		<g>
			<path d="M592.8,271.1c-0.5,3.1-2.5,6.3-8.3,6.3c-6,0-8.6-3.9-8.6-8.8c0-5.1,3.2-9.1,8.8-9.1c6.4,0,8,4.3,8.1,6.4h-6
				c-0.2-1.2-0.7-2.1-2.1-2.1c-1.6,0-2.4,1.5-2.4,4.6c0,3.5,0.9,4.8,2.4,4.8c1.3,0,1.8-1,2.1-2.1H592.8z"/>
			<path d="M595.4,264.8c0-1.6,0-3.4,0-4.9h6.2c0.1,0.5,0.2,2,0.2,2.8c0.7-1.6,2.3-3.1,5.2-3.2v5.8c-3.6-0.2-5.2,0.7-5.2,4.6v7h-6.3
				V264.8z"/>
			<path d="M616.2,268.5v8.4h-6.3v-22.3h11.1c5.3,0,7.8,2.8,7.8,6.2c0,3.1-1.8,4.7-3.3,5.3c1.4,0.5,2.9,2,2.9,5.8v0.9
				c0,1.4,0,3.2,0.3,4.2h-6.2c-0.4-1-0.5-2.6-0.5-4.9v-0.6c0-1.9-0.5-3-3.3-3H616.2z M616.2,264h3c2.2,0,3-0.9,3-2.4
				c0-1.5-0.9-2.4-2.9-2.4h-3.1V264z"/>
			<path d="M632.2,276.9v-22.3h7.8c2.3,5,5.7,11.8,6.7,14.6h0.1c-0.2-2.3-0.3-6.3-0.3-9.8v-4.7h6v22.3H645c-1.9-4-5.9-12.4-7-15.4
				H638c0.2,2.1,0.2,6.4,0.2,10.3v5H632.2z"/>
			<path d="M662.6,272.6l-1.3,4.3h-6.4l7.1-22.3h8.5l7.3,22.3H671l-1.4-4.3H662.6z M668.5,267.8c-1-3.5-1.9-6.6-2.4-8.8H666
				c-0.5,2.4-1.4,5.6-2.3,8.8H668.5z"/>
		</g>
	</g>
	<g>
		<g>
			<path d="M376.7,270.1c-0.8,4.7-4.2,7.8-10.4,7.8c-7.3,0-10.8-4.9-10.8-11.4c0-6.3,3.5-11.7,11.2-11.7c6.6,0,9.5,3.8,10,7.7h-6.5
				c-0.3-1.6-1.2-3.1-3.6-3.1c-3.2,0-4.3,3-4.3,6.9c0,3.5,0.9,7,4.3,7c2.6,0,3.3-1.9,3.6-3.1H376.7z"/>
			<path d="M395.3,272.4c0,1.9,0.1,4.5,0.2,5h-5.8c-0.1-0.3-0.2-1.2-0.3-1.6c-0.8,1.1-2.1,2-4.8,2c-3.8,0-5.9-2.4-5.9-5.4
				c0-4,3.2-5.7,8.4-5.7c0.6,0,1.5,0,2.1,0v-0.9c0-1.1-0.4-1.9-1.9-1.9c-1.4,0-1.8,0.7-2,1.8h-5.8c0.2-2.8,1.9-5.6,7.9-5.6
				c5.6,0,7.8,2.2,7.8,6.3V272.4z M389.2,269.9c-0.3,0-0.9,0-1.4,0c-2.2,0-2.9,0.8-2.9,2c0,1,0.6,1.8,1.8,1.8c2.1,0,2.4-1.5,2.4-3.3
				V269.9z"/>
			<path d="M403.8,272.2c0.3,1.1,1.2,1.7,2.5,1.7c1.2,0,1.8-0.4,1.8-1.2c0-0.8-0.7-1.1-3-1.6c-5.9-1.3-6.7-3.2-6.7-5.6
				c0-2.5,1.7-5.4,7.5-5.4c5.5,0,7.5,2.8,7.7,5.2H408c-0.1-0.6-0.5-1.5-2.2-1.5c-1.1,0-1.5,0.5-1.5,1c0,0.7,0.6,1,3.3,1.6
				c5.4,1.2,6.6,3.1,6.6,5.8c0,3-2.2,5.7-8,5.7c-5.5,0-7.9-2.7-8.2-5.7H403.8z"/>
			<path d="M422.6,271.9c0.3,1,0.8,1.7,2.2,1.7c2.2,0,2.5-2.7,2.6-5c-0.9,1-2.5,1.5-4.2,1.5c-4.3,0-7-2.8-7-6.8
				c0-4.4,3.1-7.6,8.6-7.6c6.5,0,8.9,4.7,8.9,10.2c0,6-1.8,12-9,12c-5.8,0-7.8-3.4-8.2-6H422.6z M422.5,262.9c0,1.8,0.8,3,2.4,3
				c1.6,0,2.3-1.1,2.3-2.9c0-1.6-0.5-3-2.4-3C423.3,259.9,422.5,261.1,422.5,262.9z"/>
		</g>
	</g>
	<g>
		<g>
			<path d="M823.6,473.8H834c5,0,8.4,2.8,8.4,7.2c0,5-3.8,7.3-8.6,7.3h-3.7v7.8h-6.5V473.8z M830.1,483.6h2.7c1.8,0,3.2-0.8,3.2-2.6
				c0-1.9-1.3-2.7-3.1-2.7h-2.7V483.6z"/>
			<path d="M851.3,491.7l-1.3,4.3h-6.4l7.1-22.3h8.5l7.3,22.3h-6.8l-1.4-4.3H851.3z M857.2,486.9c-1-3.5-1.9-6.6-2.4-8.8h-0.1
				c-0.5,2.4-1.4,5.6-2.3,8.8H857.2z"/>
			<path d="M887.6,488.8c0-3.5,0.1-8,0.2-10.6h-0.2c-0.9,4.8-2.4,11.4-4.1,17.9h-5.2c-1.3-6.3-2.7-12.9-3.6-17.9h-0.2
				c0.2,2.6,0.3,7,0.3,10.8v7.1H869v-22.3h9.4c1.1,4.5,2.4,11.1,2.9,14.4h0.1c0.6-3.6,2.1-9.5,3.4-14.4h9.1v22.3h-6.3V488.8z"/>
		</g>
	</g>
</g>
<g id="图层_9">
	
		<use xlink:href="#剪切"  width="55.5" height="64" x="-27.8" y="-32" transform="matrix(-0.2315 -0.1667 0.2308 -0.3206 731.8856 461.6053)" style="overflow:visible;"/>
	
		<use xlink:href="#剪切"  width="55.5" height="64" x="-27.8" y="-32" transform="matrix(0.2432 -0.149 0.2063 0.3368 721.2715 322.6421)" style="overflow:visible;"/>
</g>
<g id="图层_10">
	<g>
		<g>
			<path class="st6" d="M42.3,706.3l-2,6h-2.6l6.5-19.1h3l6.5,19.1h-2.6l-2-6H42.3z M48.6,704.3l-1.9-5.5c-0.4-1.2-0.7-2.4-1-3.5
				h-0.1c-0.3,1.1-0.6,2.3-0.9,3.5l-1.9,5.5H48.6z"/>
			<path class="st6" d="M55.9,710.8c0-1,0.7-1.8,1.7-1.8c1,0,1.7,0.7,1.7,1.8c0,1-0.7,1.8-1.7,1.8C56.6,712.6,55.9,711.8,55.9,710.8
				z"/>
			<path class="st6" d="M67.5,712.3v-1.5l2-1.9c4.7-4.5,6.8-6.9,6.9-9.7c0-1.9-0.9-3.6-3.6-3.6c-1.7,0-3.1,0.9-3.9,1.6l-0.8-1.7
				c1.3-1.1,3.1-1.9,5.2-1.9c4,0,5.6,2.7,5.6,5.3c0,3.4-2.5,6.2-6.3,9.9l-1.5,1.4v0.1h8.3v2.1H67.5z"/>
			<path class="st6" d="M88.7,703.7v1.8h-7v-1.8H88.7z"/>
			<path class="st6" d="M91.6,703c0-1.7,0-3.2-0.1-4.5h2.2l0.1,2.3h0.1c1-1.7,2.6-2.6,4.9-2.6c3.3,0,5.8,2.8,5.8,7
				c0,4.9-3,7.4-6.2,7.4c-1.8,0-3.4-0.8-4.2-2.2h-0.1v7.5h-2.5V703z M94.1,706.7c0,0.4,0,0.7,0.1,1c0.4,1.7,2,2.9,3.7,2.9
				c2.6,0,4.2-2.2,4.2-5.3c0-2.7-1.4-5.1-4.1-5.1c-1.7,0-3.3,1.2-3.8,3.1c-0.1,0.3-0.2,0.7-0.2,1V706.7z"/>
			<path class="st6" d="M115.3,712.3l-0.2-1.7H115c-0.8,1.1-2.2,2-4.2,2c-2.8,0-4.2-2-4.2-3.9c0-3.3,2.9-5.1,8.2-5.1v-0.3
				c0-1.1-0.3-3.2-3.1-3.2c-1.3,0-2.6,0.4-3.6,1l-0.6-1.7c1.1-0.7,2.8-1.2,4.5-1.2c4.2,0,5.2,2.9,5.2,5.6v5.1c0,1.2,0.1,2.3,0.2,3.3
				H115.3z M114.9,705.3c-2.7-0.1-5.8,0.4-5.8,3.1c0,1.6,1.1,2.4,2.3,2.4c1.8,0,2.9-1.1,3.3-2.3c0.1-0.3,0.1-0.5,0.1-0.8V705.3z"/>
			<path class="st6" d="M121.4,702.8c0-1.6,0-3-0.1-4.3h2.2l0.1,2.7h0.1c0.6-1.8,2.2-3,3.8-3c0.3,0,0.5,0,0.7,0.1v2.3
				c-0.3-0.1-0.5-0.1-0.8-0.1c-1.8,0-3,1.3-3.3,3.2c-0.1,0.3-0.1,0.8-0.1,1.2v7.3h-2.5V702.8z"/>
			<path class="st6" d="M133.6,694.6v3.9h3.6v1.9h-3.6v7.4c0,1.7,0.5,2.7,1.9,2.7c0.6,0,1.1-0.1,1.4-0.2l0.1,1.9
				c-0.5,0.2-1.3,0.3-2.2,0.3c-1.1,0-2.1-0.4-2.7-1.1c-0.7-0.8-1-2-1-3.6v-7.5h-2.1v-1.9h2.1v-3.3L133.6,694.6z"/>
			<path class="st6" d="M157.9,698.6c-0.1,1-0.1,2.1-0.1,3.8v8c0,3.2-0.6,5.1-2,6.3c-1.3,1.2-3.3,1.6-5,1.6c-1.7,0-3.5-0.4-4.6-1.1
				l0.6-1.9c0.9,0.6,2.3,1.1,4,1.1c2.5,0,4.4-1.3,4.4-4.8v-1.5h-0.1c-0.7,1.3-2.2,2.3-4.4,2.3c-3.4,0-5.8-2.9-5.8-6.7
				c0-4.6,3-7.3,6.2-7.3c2.4,0,3.7,1.2,4.3,2.4h0.1l0.1-2.1H157.9z M155.3,704c0-0.4,0-0.8-0.1-1.1c-0.5-1.5-1.7-2.7-3.5-2.7
				c-2.4,0-4.1,2-4.1,5.2c0,2.7,1.4,4.9,4.1,4.9c1.5,0,2.9-1,3.5-2.6c0.1-0.4,0.2-0.9,0.2-1.3V704z"/>
			<path class="st6" d="M173.3,708.5c0,1.4,0,2.7,0.1,3.8h-2.2l-0.1-2.2H171c-0.6,1.1-2.1,2.6-4.5,2.6c-2.1,0-4.7-1.2-4.7-6v-8h2.5
				v7.6c0,2.6,0.8,4.4,3.1,4.4c1.7,0,2.8-1.2,3.3-2.3c0.1-0.4,0.2-0.8,0.2-1.3v-8.4h2.5V708.5z"/>
			<path class="st6" d="M180.3,694.7c0,0.8-0.6,1.5-1.6,1.5c-0.9,0-1.5-0.7-1.5-1.5c0-0.9,0.6-1.6,1.6-1.6
				C179.7,693.1,180.3,693.8,180.3,694.7z M177.5,712.3v-13.7h2.5v13.7H177.5z"/>
			<path class="st6" d="M196,692.2v16.6c0,1.2,0,2.6,0.1,3.5h-2.2l-0.1-2.4h-0.1c-0.8,1.5-2.4,2.7-4.7,2.7c-3.3,0-5.9-2.8-5.9-7
				c0-4.6,2.8-7.4,6.2-7.4c2.1,0,3.5,1,4.1,2.1h0.1v-8.2H196z M193.5,704.2c0-0.3,0-0.7-0.1-1.1c-0.4-1.6-1.7-2.9-3.6-2.9
				c-2.6,0-4.1,2.3-4.1,5.3c0,2.8,1.4,5.1,4.1,5.1c1.7,0,3.2-1.1,3.6-3c0.1-0.3,0.1-0.7,0.1-1.1V704.2z"/>
			<path class="st6" d="M201.5,705.9c0,3.4,2.2,4.8,4.7,4.8c1.8,0,2.9-0.3,3.8-0.7l0.4,1.8c-0.9,0.4-2.4,0.9-4.6,0.9
				c-4.2,0-6.7-2.8-6.7-6.9c0-4.2,2.4-7.4,6.5-7.4c4.5,0,5.6,3.9,5.6,6.4c0,0.5,0,0.9-0.1,1.2H201.5z M208.8,704.1
				c0-1.6-0.6-4-3.4-4c-2.5,0-3.6,2.3-3.8,4H208.8z"/>
			<path class="st6" d="M220.4,693.4c1.3-0.3,3-0.4,4.7-0.4c2.6,0,4.3,0.5,5.5,1.6c0.9,0.8,1.5,2.1,1.5,3.6c0,2.5-1.6,4.2-3.6,4.9
				v0.1c1.5,0.5,2.3,1.9,2.8,3.9c0.6,2.7,1.1,4.5,1.5,5.2h-2.6c-0.3-0.6-0.7-2.2-1.3-4.6c-0.6-2.6-1.6-3.6-3.8-3.7h-2.3v8.3h-2.5
				V693.4z M222.8,702.1h2.5c2.6,0,4.3-1.4,4.3-3.6c0-2.5-1.8-3.6-4.4-3.6c-1.2,0-2,0.1-2.4,0.2V702.1z"/>
			<path class="st6" d="M235.6,712.3v-19.1h2.7l6.1,9.7c1.4,2.2,2.5,4.2,3.4,6.2l0.1,0c-0.2-2.6-0.3-4.9-0.3-7.8v-8h2.3v19.1h-2.5
				l-6.1-9.7c-1.3-2.1-2.6-4.3-3.6-6.4l-0.1,0c0.1,2.4,0.2,4.7,0.2,7.9v8.2H235.6z"/>
			<path class="st6" d="M257.4,706.3l-2,6h-2.6l6.5-19.1h3l6.5,19.1h-2.6l-2-6H257.4z M263.7,704.3l-1.9-5.5c-0.4-1.2-0.7-2.4-1-3.5
				h-0.1c-0.3,1.1-0.6,2.3-0.9,3.5l-1.9,5.5H263.7z"/>
		</g>
	</g>
</g>
<g id="图层_6">
	<path class="st5" d="M904.3,252.4"/>
	<path class="st7" d="M906.4,254.5c-7.9-3.3-15-11.2-17.4-15.7c-0.7-1.2-1-2.6-1-4c0-2.6,0.4-5,0.9-7.5c1.1-5.6,2.5-12.6-2.1-20.3
		c-9.3-15.6-35.2-20.5-53.3-10.1l-0.5,0.3l-0.5,0.4c-5.5,4.1-22,16.7-20,33.1c1.4,11.5,11.2,21.1,30,29.3c0.3,0.1,0.6,0.3,0.8,0.4
		c13.9,7.8,28.5,29.8,31.5,43.4c0.8,3.4-0.7,7-3.7,8.9c-1,0.6-2.1,1.3-3.3,1.7c-5.1,2-12.9-0.3-19.2-5.6l-84-80.2
		c-3.5-3.3-8.9-3.2-12.2,0.3l-0.1,0.1l0.9-0.9c-3.4,3.5-5,10.9-1.5,14.3l84,80.3l0.3,0.3c8.3,7.2,18.3,11.1,27.6,11.1
		c3.9,0,7.6-0.7,11.1-2.1c9.7-3.9,19.4-12.7,19.4-23.6c0-20.6-22-54-42.8-65l-0.7-0.3c-17.3-7.4-19.3-13-19.5-14.6
		c-0.2-1.3,0.2-6,11.5-14.8c0.5-0.4,1-0.7,1.5-1c4.5-2.2,10-2.8,15.5-1.8c5,0.9,9.3,3.2,10.9,5.9c0.8,1.3,0.7,2.3-0.2,7
		c-0.8,3.9-1.7,8.7-1.1,14.8c1.1,11.1,14.2,26.3,28.3,32.8c0.4,0.2,0.8,0.3,1.3,0.5c20.3,6.2,23.1,4.9,26.6-1.5
		c0-0.1,0.1-0.1,0.1-0.2l0,0c0.2-1.3,0.1-2.7-0.5-3.9c-1.1-2.2-3-3.9-5.4-4.7L906.4,254.5z"/>
</g>
<g id="图层_8">
	<g>
		<g>
			<path d="M941.1,275.3c0.3-2.7,2-6.2,8.2-6.2c5.3,0,7.8,2.8,7.8,5.9c0,2.5-1.5,3.7-2.8,4.3v0.1c1.3,0.5,3.6,1.7,3.6,5
				c0,3.4-2.3,6.8-8.7,6.8c-6.8,0-8.4-4-8.6-6.5h5.9c0.2,1.2,0.9,2.3,2.6,2.3c1.6,0,2.4-1.1,2.4-2.7c0-1.8-0.8-2.7-3-2.7h-1.9v-4.2
				h1.8c2,0,2.6-0.6,2.6-2.1c0-1.2-0.6-2-2-2c-1.6,0-2.1,0.9-2.2,2H941.1z"/>
			<path d="M960.2,277.4c0.8-2.9,1.3-6.5,1.4-10h5.8c-0.2,3.2-1.2,7.2-2.8,10H960.2z"/>
		</g>
	</g>
	<g>
		<g>
			<path d="M556.5,213.8h2.4v-4.4h6.2v4.4h3v4.3h-3v7.3c0,1.1,0.3,1.4,1.7,1.4c0.2,0,0.5,0,0.9,0v3.9c-1,0.3-2.6,0.4-3.7,0.4
				c-4,0-5.1-2-5.1-5.2v-7.8h-2.4V213.8z"/>
			<path d="M570.8,218.7c0-1.6,0-3.4,0-4.9h6.2c0.1,0.5,0.2,2,0.2,2.8c0.7-1.6,2.3-3.1,5.2-3.2v5.8c-3.6-0.2-5.2,0.7-5.2,4.6v7h-6.3
				V218.7z"/>
			<path d="M600.4,225.7c0,1.9,0.1,4.5,0.2,5h-5.8c-0.1-0.3-0.2-1.2-0.3-1.6c-0.8,1.1-2.1,2-4.8,2c-3.8,0-5.9-2.4-5.9-5.4
				c0-4,3.2-5.7,8.4-5.7c0.6,0,1.5,0,2.1,0v-0.9c0-1.1-0.4-1.9-1.9-1.9c-1.4,0-1.8,0.7-2,1.8h-5.8c0.2-2.8,1.9-5.6,7.9-5.6
				c5.6,0,7.8,2.2,7.8,6.3V225.7z M594.3,223.2c-0.3,0-0.9,0-1.4,0c-2.2,0-2.9,0.8-2.9,2c0,1,0.6,1.8,1.8,1.8c2.1,0,2.4-1.5,2.4-3.3
				V223.2z"/>
			<path d="M620.2,224.9c-0.5,3.1-2.5,6.3-8.3,6.3c-6,0-8.6-3.9-8.6-8.8c0-5.1,3.2-9.1,8.8-9.1c6.4,0,8,4.3,8.1,6.4h-6
				c-0.2-1.2-0.7-2.1-2.1-2.1c-1.6,0-2.4,1.5-2.4,4.6c0,3.5,0.9,4.8,2.4,4.8c1.3,0,1.8-1,2.1-2.1H620.2z"/>
			<path d="M622.8,218.7c0-1.6,0-3.4,0-4.9h6.2c0.1,0.5,0.2,2,0.2,2.8c0.7-1.6,2.3-3.1,5.2-3.2v5.8c-3.6-0.2-5.2,0.7-5.2,4.6v7h-6.3
				V218.7z"/>
			<path d="M643.6,222.4v8.4h-6.3v-22.3h11.1c5.3,0,7.8,2.8,7.8,6.2c0,3.1-1.8,4.7-3.3,5.3c1.4,0.5,2.9,2,2.9,5.8v0.9
				c0,1.4,0,3.2,0.3,4.2h-6.2c-0.4-1-0.5-2.6-0.5-4.9v-0.6c0-1.9-0.5-3-3.3-3H643.6z M643.6,217.8h3c2.2,0,3-0.9,3-2.4
				c0-1.5-0.9-2.4-2.9-2.4h-3.1V217.8z"/>
			<path d="M659.6,230.8v-22.3h7.8c2.3,5,5.7,11.8,6.7,14.6h0.1c-0.2-2.3-0.3-6.3-0.3-9.8v-4.7h6v22.3h-7.5c-1.9-4-5.9-12.4-7-15.4
				h-0.1c0.2,2.1,0.2,6.4,0.2,10.3v5H659.6z"/>
			<path d="M690,226.4l-1.3,4.3h-6.4l7.1-22.3h8.5l7.3,22.3h-6.8l-1.4-4.3H690z M695.9,221.6c-1-3.5-1.9-6.6-2.4-8.8h-0.1
				c-0.5,2.4-1.4,5.6-2.3,8.8H695.9z"/>
		</g>
	</g>
	<polyline class="st8" points="715.3,216.9 737.6,220.6 745,223.8 	"/>
	<polyline class="st8" points="689.7,257.4 708.8,257.4 715.3,262.7 	"/>
	<polyline class="st8" points="774.6,469.2 783.7,479.8 812.5,479.8 	"/>
</g>
<g id="图层_7">
	<path class="st9" d="M792.2,332c-5.3-8.2-57.2-54.2-65-62.2c-9.1-8.2,4.1-22.3,12.9-13.8c0,0,54.5,50.9,54.5,50.9
		c1,1,2,1.9,2.9,2.7c34.8,28.6,2.6,63.1-43.8,60.2c0,0-154.6,0-154.6,0c-5.2,0-9.4-4.2-9.4-9.4c0-5.2,4.2-9.4,9.4-9.4
		c19.7-1.3,168.8,3.6,183.6-4c3.5-2,6.7-5.3,9.4-8.1V332z"/>
</g>
</svg>
