<?xml version="1.0" encoding="utf-8"?>
<!-- Generator: Adobe Illustrator 25.2.1, SVG Export Plug-In . SVG Version: 6.00 Build 0)  -->
<svg version="1.1" xmlns="http://www.w3.org/2000/svg" xmlns:xlink="http://www.w3.org/1999/xlink" x="0px" y="0px"
	 viewBox="0 0 1366 745" style="enable-background:new 0 0 1366 745;" xml:space="preserve">
<style type="text/css">
	.st0{fill:none;stroke:#F4D03F;stroke-miterlimit:10;}
	.st1{fill:#A7E8ED;}
	.st2{fill:#C4E3E6;}
	.st3{fill:#A3C3E1;}
	.st4{fill:#F7E6D6;}
	.st5{fill:none;}
	.st6{fill:none;stroke:#000000;stroke-miterlimit:10;}
	.st7{fill:#255887;}
	.st8{fill:#B0CE94;}
	.st9{fill:#F9D878;}
</style>
<symbol  id="剪切" viewBox="-27.8 -32 55.5 64">
	<path d="M16.3-9c-2.4,0-4.7-0.8-6.5-2L5.8-6.4c2.9,1.1,6,2.8,7.7,5.1c4,5.3,13.2,18,14,21.5c0.8,3.5-1.2,11.8-1.2,11.8L0,0.6
		L-26.4,32c0,0-2-8.2-1.2-11.8c0.8-3.5,10-16.2,14-21.5c1.8-2.3,4.8-4,7.7-5.1L-9.8-11c-1.9,1.3-4.1,2-6.5,2
		c-6.4,0-11.5-5.1-11.5-11.5c0-6.3,5.1-11.5,11.5-11.5c6.4,0,11.5,5.2,11.5,11.5c0,2.2-0.6,4.2-1.6,5.9l5.2,6.2c0,0,0.4,0.1,1.2,0.2
		c0.7-0.2,1.2-0.2,1.2-0.2l5.2-6.2c-1-1.7-1.6-3.7-1.6-5.9C4.8-26.8,9.9-32,16.3-32c6.4,0,11.5,5.2,11.5,11.5
		C27.8-14.1,22.6-9,16.3-9z M-16.3-26c-3,0-5.5,2.5-5.5,5.5s2.5,5.5,5.5,5.5s5.5-2.5,5.5-5.5S-13.2-26-16.3-26z M16.3-26
		c-3,0-5.5,2.5-5.5,5.5s2.5,5.5,5.5,5.5c3,0,5.5-2.5,5.5-5.5S19.3-26,16.3-26z"/>
</symbol>
<g id="图层_2">
	<path class="st0" d="M1338.7,745.8H27.3C12.2,745.8,0,733.6,0,718.5V27.3C0,12.2,12.2,0,27.3,0h1311.4c15.1,0,27.3,12.2,27.3,27.3
		v691.3C1366,733.6,1353.8,745.8,1338.7,745.8z"/>
</g>
<g id="图层_1">
	<path class="st1" d="M905.1,358.5"/>
	<path class="st2" d="M988.3,319.1C903.9,739.2,206.7,488,434.7,287.4c65.6-57.8,189,7.5,194.3-9.2C701.5,47,1000.9,89,988.7,319.2"
		/>
</g>
<g id="图层_3">
	<polygon class="st3" points="1365.3,380.3 818.1,379 783,343.8 551.9,345.2 511.4,381.7 0.6,381.7 0,360.7 500.6,361.2 
		539.8,323.6 796,323.6 831.2,361.2 1366,360.7 	"/>
	<g>
		<g>
			<path d="M578.4,356h-8.5c-0.1,1.1-0.5,3.2-0.6,4.1c0.8-0.7,2-1.1,3.8-1.1c4.2,0,6.6,3,6.6,7.1c0,4.1-2.3,7.9-8,7.9
				c-4.2,0-7.3-2.2-7.8-6h4.6c0.4,1.5,1.4,2.4,3.3,2.4c2.2,0,3.3-1.6,3.3-4c0-2.2-0.8-3.8-3.3-3.8c-2,0-2.8,0.9-3.3,2.1l-4.2-0.5
				c0.6-2.7,1.5-9,1.8-12h13L578.4,356z"/>
			<path d="M582.1,359.5c0.9-3.1,1.5-7,1.5-9.6h4.9c-0.2,3.1-1.3,7-2.7,9.6H582.1z"/>
		</g>
	</g>
</g>
<g id="图层_3_x5F_复制">
	<polygon class="st3" points="1365.3,404.7 818.1,406 783,441.1 551.9,439.8 511.4,403.3 0.6,403.3 0,424.2 500.6,423.8 
		539.8,461.4 796,461.4 831.2,423.8 1366,424.2 	"/>
</g>
<g id="图层_5">
	<ellipse class="st4" cx="766.8" cy="451.3" rx="16.9" ry="10.8"/>
	<line class="st5" x1="806.6" y1="255.3" x2="905.2" y2="252.6"/>
	<g>
		<g>
			<path d="M608.3,282.2c-0.5,3.1-2.5,6.3-8.4,6.3c-6,0-8.6-3.9-8.6-8.8c0-5.1,3.2-9.1,8.8-9.1c6.4,0,8,4.3,8.1,6.4h-6
				c-0.2-1.2-0.7-2.1-2.1-2.1c-1.6,0-2.4,1.5-2.4,4.6c0,3.5,0.9,4.8,2.4,4.8c1.3,0,1.8-1,2.1-2.1H608.3z"/>
			<path d="M610.9,275.9c0-1.6,0-3.4,0-4.9h6.2c0.1,0.5,0.2,2,0.2,2.8c0.7-1.6,2.3-3.2,5.2-3.2v5.8c-3.6-0.2-5.2,0.7-5.2,4.6v7h-6.3
				V275.9z"/>
			<path d="M631.7,279.6v8.4h-6.4v-22.3h11.1c5.3,0,7.8,2.8,7.8,6.2c0,3.1-1.8,4.7-3.4,5.3c1.4,0.5,2.9,2,2.9,5.8v0.9
				c0,1.4,0,3.2,0.3,4.2h-6.2c-0.4-1-0.5-2.6-0.5-4.9v-0.6c0-1.9-0.5-3-3.3-3H631.7z M631.7,275.1h3c2.2,0,3-0.9,3-2.4
				c0-1.5-0.9-2.4-2.9-2.4h-3.1V275.1z"/>
			<path d="M647.8,288.1v-22.3h7.8c2.3,5,5.8,11.8,6.7,14.6h0.1c-0.2-2.3-0.3-6.3-0.3-9.8v-4.8h6v22.3h-7.5c-1.9-4-5.9-12.4-7-15.4
				h-0.1c0.2,2.1,0.2,6.4,0.2,10.4v5H647.8z"/>
			<path d="M678.2,283.7l-1.3,4.3h-6.4l7.1-22.3h8.5l7.3,22.3h-6.8l-1.4-4.3H678.2z M684.1,278.9c-1-3.5-1.9-6.6-2.4-8.8h-0.1
				c-0.5,2.4-1.4,5.6-2.3,8.8H684.1z"/>
		</g>
	</g>
	<g>
		<g>
			<path d="M360.9,273.1c-0.8,4.7-4.2,7.8-10.4,7.8c-7.3,0-10.8-4.9-10.8-11.4c0-6.3,3.5-11.7,11.2-11.7c6.6,0,9.6,3.8,10,7.7h-6.5
				c-0.3-1.6-1.2-3.1-3.6-3.1c-3.2,0-4.3,3-4.3,6.9c0,3.5,0.9,7,4.3,7c2.6,0,3.3-1.9,3.6-3.2H360.9z"/>
			<path d="M379.5,275.4c0,1.9,0.1,4.5,0.2,5h-5.8c-0.1-0.3-0.2-1.2-0.3-1.6c-0.8,1.1-2.1,2-4.8,2c-3.8,0-5.9-2.4-5.9-5.4
				c0-4,3.2-5.7,8.4-5.7c0.6,0,1.5,0,2.1,0v-0.9c0-1.1-0.4-1.9-1.9-1.9c-1.4,0-1.8,0.7-2,1.8h-5.8c0.2-2.8,1.9-5.6,8-5.6
				c5.6,0,7.8,2.2,7.8,6.3V275.4z M373.4,272.9c-0.3,0-0.9,0-1.4,0c-2.2,0-2.9,0.8-2.9,2c0,1,0.6,1.8,1.9,1.8c2.1,0,2.4-1.5,2.4-3.3
				V272.9z"/>
			<path d="M388,275.2c0.3,1.1,1.2,1.7,2.6,1.7c1.2,0,1.8-0.4,1.8-1.2c0-0.8-0.7-1.1-3-1.6c-5.9-1.3-6.7-3.2-6.7-5.6
				c0-2.5,1.7-5.4,7.5-5.4c5.5,0,7.5,2.8,7.7,5.2h-5.7c-0.1-0.6-0.5-1.5-2.2-1.5c-1.1,0-1.5,0.5-1.5,1c0,0.7,0.6,1,3.3,1.6
				c5.4,1.2,6.6,3.1,6.6,5.8c0,3-2.2,5.7-8,5.7c-5.5,0-7.9-2.7-8.2-5.7H388z"/>
			<path d="M406.8,274.9c0.3,1,0.8,1.7,2.2,1.7c2.2,0,2.5-2.7,2.6-5c-0.9,1-2.5,1.5-4.2,1.5c-4.3,0-7-2.8-7-6.8
				c0-4.4,3.1-7.6,8.6-7.6c6.5,0,8.9,4.7,8.9,10.2c0,6-1.8,12-9,12c-5.8,0-7.8-3.4-8.2-6H406.8z M406.8,265.9c0,1.8,0.8,3,2.4,3
				c1.6,0,2.3-1.1,2.3-2.9c0-1.6-0.5-3-2.4-3C407.5,262.9,406.8,264.1,406.8,265.9z"/>
		</g>
	</g>
	<g>
		<g>
			<path d="M824.6,474.3h10.3c5,0,8.4,2.8,8.4,7.2c0,5-3.9,7.3-8.6,7.3H831v7.8h-6.5V474.3z M831,484.2h2.7c1.8,0,3.2-0.8,3.2-2.6
				c0-1.9-1.3-2.7-3.1-2.7H831V484.2z"/>
			<path d="M852.3,492.3l-1.3,4.3h-6.4l7.1-22.3h8.5l7.3,22.3h-6.8l-1.4-4.3H852.3z M858.1,487.4c-1-3.5-1.9-6.6-2.4-8.8h-0.1
				c-0.5,2.4-1.4,5.6-2.3,8.8H858.1z"/>
			<path d="M888.6,489.3c0-3.5,0.1-8,0.2-10.6h-0.2c-0.9,4.8-2.4,11.4-4.1,17.9h-5.2c-1.3-6.3-2.7-13-3.6-17.9h-0.2
				c0.2,2.6,0.3,7,0.3,10.8v7.1H870v-22.3h9.4c1.1,4.5,2.4,11.1,2.9,14.4h0.1c0.6-3.6,2.1-9.5,3.4-14.4h9.2v22.3h-6.3V489.3z"/>
		</g>
	</g>
	<g>
		<g>
			<path d="M482.8,192.5V169h6.3v23.5H482.8z"/>
			<path d="M492.7,169h6.3v4.4h-6.3V169z M492.7,175.5h6.3v17h-6.3V175.5z"/>
			<path d="M502.6,179.9c0-1.5,0-3.1,0-4.4h6.2c0.1,0.4,0.2,1.4,0.2,1.9c0.7-1,2.1-2.3,4.8-2.3c3.4,0,5.6,2.3,5.6,6.5v11H513v-10.2
				c0-1.6-0.5-2.6-1.9-2.6c-1.3,0-2.1,0.7-2.1,3.1v9.7h-6.3V179.9z"/>
			<path d="M529.2,182c1-1.6,2.6-3.9,4.4-6.5h7.1l-5.4,6.4c0.6,1.3,5.3,9.4,5.8,10.6h-7.1c-0.1-0.4-3-6.3-3.1-6.6l-1.8,1.8v4.8h-6.3
				V169h6.3V182z"/>
			<path d="M548.1,185.3c0,1.7,0.7,3.4,2.5,3.4c1.5,0,1.9-0.6,2.2-1.5h6.2c-0.6,2.3-2.5,5.8-8.6,5.8c-6.4,0-8.8-4.3-8.8-8.8
				c0-5.1,2.7-9.1,8.9-9.1c6.6,0,8.6,4.5,8.6,8.7c0,0.6,0,1-0.1,1.5H548.1z M552.9,182c0-1.6-0.5-2.9-2.3-2.9
				c-1.7,0-2.3,1.2-2.4,2.9H552.9z"/>
			<path d="M562,180.4c0-1.6,0-3.4,0-4.9h6.2c0.1,0.5,0.2,2,0.2,2.8c0.7-1.6,2.3-3.2,5.2-3.2v5.8c-3.6-0.2-5.2,0.7-5.2,4.6v7H562
				V180.4z"/>
			<path d="M583.2,192.5V169h6.3v23.5H583.2z"/>
			<path d="M610.5,184c0,5.3-3.3,8.9-9.1,8.9c-6,0-9-4-9-8.9c0-5.1,3.1-9,9.2-9C607.1,175.1,610.5,178.8,610.5,184z M598.8,184
				c0,3.2,1,4.7,2.6,4.7c1.7,0,2.6-1.4,2.6-4.6c0-3.5-0.9-4.7-2.6-4.7C599.8,179.4,598.8,180.5,598.8,184z"/>
			<path d="M630.7,184c0,5.3-3.3,8.9-9.1,8.9c-6,0-9-4-9-8.9c0-5.1,3.1-9,9.2-9C627.3,175.1,630.7,178.8,630.7,184z M619,184
				c0,3.2,1,4.7,2.6,4.7c1.7,0,2.6-1.4,2.6-4.6c0-3.5-0.9-4.7-2.6-4.7C620,179.4,619,180.5,619,184z"/>
			<path d="M639.8,191.3v7.4h-6.3v-18.6c0-1.5,0-3.4,0-4.6h6.1c0.1,0.4,0.2,1.4,0.2,1.9c0.7-1,2-2.3,4.8-2.3c3.6,0,6.7,3,6.7,8.5
				c0,6.3-3.5,9.3-7.5,9.3C641.6,192.9,640.4,192.2,639.8,191.3z M644.8,183.9c0-3.1-1-4.3-2.6-4.3c-2,0-2.6,1.4-2.6,4.5
				c0,2.9,0.6,4.5,2.5,4.5C643.9,188.5,644.8,187.1,644.8,183.9z"/>
		</g>
	</g>
	<polyline class="st6" points="656.6,180.6 683,180.6 691.6,189.1 	"/>
</g>
<g id="图层_9">
	
		<use xlink:href="#剪切"  width="55.5" height="64" x="-27.8" y="-32" transform="matrix(-0.2317 -0.1668 0.231 -0.3209 732.6926 462.1143)" style="overflow:visible;"/>
	
		<use xlink:href="#剪切"  width="55.5" height="64" x="-27.8" y="-32" transform="matrix(0.2435 -0.1491 0.2065 0.3372 722.0668 322.9979)" style="overflow:visible;"/>
</g>
<g id="图层_10">
	<g>
		<g>
			<path class="st7" d="M39.2,694.2c1.1-0.2,2.8-0.4,4.5-0.4c2.5,0,4.1,0.4,5.3,1.4c1,0.8,1.6,1.9,1.6,3.4c0,1.8-1.2,3.5-3.2,4.2
				v0.1c1.8,0.4,3.9,1.9,3.9,4.8c0,1.6-0.6,2.9-1.6,3.8c-1.3,1.2-3.5,1.8-6.6,1.8c-1.7,0-3-0.1-3.8-0.2V694.2z M41.7,702H44
				c2.6,0,4.1-1.4,4.1-3.2c0-2.2-1.7-3.1-4.2-3.1c-1.1,0-1.8,0.1-2.2,0.2V702z M41.7,711.2c0.5,0.1,1.2,0.1,2.1,0.1
				c2.6,0,4.9-0.9,4.9-3.7c0-2.6-2.3-3.7-4.9-3.7h-2.1V711.2z"/>
			<path class="st7" d="M53.9,711.6c0-1,0.7-1.8,1.7-1.8c1,0,1.7,0.7,1.7,1.8c0,1-0.7,1.8-1.7,1.8C54.6,713.4,53.9,712.6,53.9,711.6
				z"/>
			<path class="st7" d="M66.2,710.1c1.1,0.7,2.7,1.2,4.4,1.2c2.5,0,4-1.3,4-3.3c0-1.8-1-2.8-3.6-3.8c-3.1-1.1-5.1-2.7-5.1-5.4
				c0-3,2.5-5.2,6.2-5.2c1.9,0,3.4,0.5,4.2,0.9l-0.7,2c-0.6-0.4-1.9-0.9-3.6-0.9c-2.6,0-3.6,1.6-3.6,2.9c0,1.8,1.2,2.7,3.8,3.7
				c3.2,1.3,4.9,2.8,4.9,5.6c0,2.9-2.2,5.5-6.7,5.5c-1.8,0-3.9-0.6-4.9-1.2L66.2,710.1z"/>
			<path class="st7" d="M83.2,695.5c0,0.8-0.6,1.6-1.6,1.6c-0.9,0-1.5-0.7-1.5-1.6c0-0.9,0.6-1.6,1.6-1.6
				C82.6,693.9,83.2,694.6,83.2,695.5z M80.4,713.1v-13.7h2.5v13.7H80.4z"/>
			<path class="st7" d="M87.1,703c0-1.4,0-2.6-0.1-3.7h2.2l0.1,2.3h0.1c0.7-1.3,2.3-2.6,4.5-2.6c1.9,0,4.8,1.1,4.8,5.8v8.2h-2.5
				v-7.9c0-2.2-0.8-4.1-3.2-4.1c-1.6,0-2.9,1.2-3.4,2.6c-0.1,0.3-0.2,0.7-0.2,1.2v8.3h-2.5V703z"/>
			<path class="st7" d="M114.6,699.3c-0.1,1-0.1,2.1-0.1,3.8v8c0,3.2-0.6,5.1-2,6.3c-1.3,1.2-3.3,1.6-5,1.6c-1.7,0-3.5-0.4-4.6-1.1
				l0.6-1.9c0.9,0.6,2.3,1.1,4,1.1c2.5,0,4.4-1.3,4.4-4.8v-1.5H112c-0.8,1.3-2.2,2.3-4.4,2.3c-3.4,0-5.9-2.9-5.9-6.7
				c0-4.7,3-7.3,6.2-7.3c2.4,0,3.7,1.2,4.3,2.4h0.1l0.1-2.1H114.6z M112,704.7c0-0.4,0-0.8-0.1-1.1c-0.5-1.5-1.7-2.7-3.5-2.7
				c-2.4,0-4.1,2-4.1,5.2c0,2.7,1.4,4.9,4.1,4.9c1.5,0,2.9-1,3.5-2.6c0.1-0.4,0.2-0.9,0.2-1.3V704.7z"/>
			<path class="st7" d="M118.7,692.9h2.5v20.2h-2.5V692.9z"/>
			<path class="st7" d="M126.8,706.7c0,3.4,2.2,4.8,4.7,4.8c1.8,0,2.9-0.3,3.8-0.7l0.4,1.8c-0.9,0.4-2.4,0.9-4.6,0.9
				c-4.2,0-6.8-2.8-6.8-6.9c0-4.2,2.5-7.4,6.5-7.4c4.5,0,5.6,3.9,5.6,6.5c0,0.5,0,0.9-0.1,1.2H126.8z M134.1,704.9
				c0-1.6-0.6-4-3.4-4c-2.5,0-3.6,2.3-3.8,4H134.1z"/>
			<path class="st7" d="M157.4,699.3c-0.1,1-0.1,2.1-0.1,3.8v8c0,3.2-0.6,5.1-2,6.3c-1.3,1.2-3.3,1.6-5,1.6c-1.7,0-3.5-0.4-4.6-1.1
				l0.6-1.9c0.9,0.6,2.3,1.1,4,1.1c2.5,0,4.4-1.3,4.4-4.8v-1.5h-0.1c-0.8,1.3-2.2,2.3-4.4,2.3c-3.4,0-5.9-2.9-5.9-6.7
				c0-4.7,3-7.3,6.2-7.3c2.4,0,3.7,1.2,4.3,2.4h0.1l0.1-2.1H157.4z M154.8,704.7c0-0.4,0-0.8-0.1-1.1c-0.5-1.5-1.7-2.7-3.5-2.7
				c-2.4,0-4.1,2-4.1,5.2c0,2.7,1.4,4.9,4.1,4.9c1.5,0,2.9-1,3.5-2.6c0.1-0.4,0.2-0.9,0.2-1.3V704.7z"/>
			<path class="st7" d="M172.9,709.3c0,1.4,0,2.7,0.1,3.8h-2.2l-0.1-2.2h-0.1c-0.6,1.1-2.1,2.6-4.5,2.6c-2.1,0-4.7-1.2-4.7-6v-8h2.5
				v7.6c0,2.6,0.8,4.4,3.1,4.4c1.7,0,2.8-1.2,3.3-2.3c0.1-0.4,0.2-0.8,0.2-1.3v-8.4h2.5V709.3z"/>
			<path class="st7" d="M179.9,695.5c0,0.8-0.6,1.6-1.6,1.6c-0.9,0-1.5-0.7-1.5-1.6c0-0.9,0.6-1.6,1.6-1.6
				C179.3,693.9,179.9,694.6,179.9,695.5z M177.1,713.1v-13.7h2.5v13.7H177.1z"/>
			<path class="st7" d="M195.6,692.9v16.6c0,1.2,0,2.6,0.1,3.5h-2.2l-0.1-2.4h-0.1c-0.8,1.5-2.4,2.7-4.7,2.7c-3.3,0-5.9-2.8-5.9-7
				c0-4.6,2.8-7.4,6.2-7.4c2.1,0,3.5,1,4.1,2.1h0.1v-8.2H195.6z M193.1,704.9c0-0.3,0-0.7-0.1-1.1c-0.4-1.6-1.7-2.9-3.6-2.9
				c-2.6,0-4.1,2.3-4.1,5.3c0,2.8,1.4,5.1,4.1,5.1c1.7,0,3.2-1.1,3.6-3c0.1-0.3,0.1-0.7,0.1-1.1V704.9z"/>
			<path class="st7" d="M201.1,706.7c0,3.4,2.2,4.8,4.7,4.8c1.8,0,2.9-0.3,3.8-0.7l0.4,1.8c-0.9,0.4-2.4,0.9-4.6,0.9
				c-4.2,0-6.8-2.8-6.8-6.9c0-4.2,2.5-7.4,6.5-7.4c4.5,0,5.6,3.9,5.6,6.5c0,0.5,0,0.9-0.1,1.2H201.1z M208.4,704.9
				c0-1.6-0.6-4-3.4-4c-2.5,0-3.6,2.3-3.8,4H208.4z"/>
			<path class="st7" d="M220,694.2c1.3-0.3,3.1-0.4,4.8-0.4c2.6,0,4.4,0.5,5.5,1.6c0.9,0.8,1.5,2.1,1.5,3.6c0,2.5-1.6,4.2-3.6,4.9
				v0.1c1.5,0.5,2.3,1.9,2.8,3.9c0.6,2.7,1.1,4.5,1.5,5.2h-2.6c-0.3-0.6-0.7-2.2-1.3-4.6c-0.6-2.6-1.6-3.6-3.8-3.7h-2.3v8.3H220
				V694.2z M222.5,702.9h2.5c2.6,0,4.3-1.4,4.3-3.6c0-2.5-1.8-3.6-4.4-3.6c-1.2,0-2,0.1-2.4,0.2V702.9z"/>
			<path class="st7" d="M235.3,713.1v-19.1h2.7l6.1,9.7c1.4,2.2,2.5,4.3,3.4,6.2l0.1,0c-0.2-2.6-0.3-4.9-0.3-7.8v-8h2.3v19.1h-2.5
				l-6.1-9.7c-1.3-2.1-2.6-4.3-3.6-6.4l-0.1,0c0.1,2.4,0.2,4.7,0.2,7.9v8.2H235.3z"/>
			<path class="st7" d="M257.1,707.1l-2,6h-2.6l6.5-19.1h3l6.5,19.1h-2.6l-2-6H257.1z M263.4,705.1l-1.9-5.5c-0.4-1.3-0.7-2.4-1-3.5
				h-0.1c-0.3,1.1-0.6,2.3-0.9,3.5l-1.9,5.5H263.4z"/>
		</g>
	</g>
</g>
<g id="图层_7">
	<path class="st8" d="M793.1,332.4c-5.3-8.2-57.3-54.3-65.1-62.3c-9.1-8.2,4.1-22.4,12.9-13.8c0,0,54.6,51,54.6,51
		c1,1,2,1.9,2.9,2.7c34.9,28.6,2.6,63.1-43.8,60.2c0,0-154.7,0-154.7,0c-5.2,0-9.5-4.2-9.5-9.5c0-5.2,4.2-9.5,9.5-9.5
		c19.7-1.3,169,3.6,183.8-4.1c3.5-2,6.7-5.3,9.5-8.1V332.4z"/>
	<g id="图层_6">
		<path class="st5" d="M905.2,252.6"/>
		<path class="st9" d="M907.4,254.8c-7.9-3.3-15-11.2-17.5-15.7c-0.7-1.2-1-2.6-1-4c0-2.6,0.4-5,0.9-7.5c1.1-5.6,2.5-12.6-2.1-20.3
			c-9.3-15.6-35.3-20.5-53.4-10.1l-0.5,0.3l-0.5,0.4c-5.5,4.1-22.1,16.8-20.1,33.2c1.4,11.5,11.2,21.1,30,29.3
			c0.3,0.1,0.6,0.3,0.9,0.4c13.9,7.9,28.5,29.8,31.5,43.4c0.8,3.4-0.7,7-3.7,8.9c-1,0.6-2.1,1.3-3.3,1.7c-5.1,2-13-0.3-19.2-5.6
			l-84.1-80.3c-3.5-3.3-8.9-3.2-12.2,0.3l-0.1,0.1l0.9-0.9c-3.4,3.5-5,10.9-1.5,14.3l84.1,80.4l0.3,0.3c8.3,7.2,18.3,11.1,27.7,11.1
			c3.9,0,7.6-0.7,11.1-2.1c9.7-3.9,19.5-12.7,19.5-23.6c0-20.6-22-54.1-42.9-65.1l-0.7-0.3c-17.4-7.4-19.3-13.1-19.5-14.6
			c-0.2-1.3,0.2-6,11.5-14.8c0.5-0.4,1-0.7,1.6-1c4.5-2.2,10-2.8,15.5-1.8c5,0.9,9.3,3.3,10.9,5.9c0.8,1.3,0.7,2.3-0.2,7
			c-0.8,3.9-1.7,8.8-1.1,14.8c1.1,11.1,14.2,26.3,28.3,32.8c0.4,0.2,0.8,0.4,1.3,0.5c20.4,6.2,23.1,4.9,26.6-1.5
			c0-0.1,0.1-0.1,0.1-0.2l0,0c0.2-1.3,0.1-2.7-0.5-3.9c-1.1-2.2-3-3.9-5.4-4.7L907.4,254.8z"/>
		<line class="st5" x1="735.7" y1="180.9" x2="731.4" y2="279.5"/>
		<path class="st5" d="M731.4,279.5"/>
		<path class="st9" d="M739.2,222.1c0,0.1,0,0.1,0,0.2c-0.1,3.4,8.8,18.7,12.1,19.6c0.4,0.1,0.8,0.3,1.4,0.6
			c0.4-0.6,0.9-1.2,1.5-1.6c-0.3-0.4-0.6-0.9-0.9-1.3c-1.6-2.2,3.6-0.8,6.2-1.7c1.1-0.4-2.7-4.3-2.2-4c0.2,0.1,0.6,0.2,1.2,0.3
			c3,0.6,5.4-1.4,5.4-4.4c0-2.4,0.2-2.3-0.4-2.7c-1.7-1.3-3.9-3.6-2.7-5.4c0,0,0,0,0,0c2.4-20.1-2.7-33.6-11.9-40.6
			c-13.1-10.1-32.9-1.7-39.3,0.9l-0.6,0.2l-0.5,0.3c-18.1,10.3-27.1,35.2-18.3,51.1c4.3,7.9,11,10.3,16.5,12.2c2.4,0.9,4.8,1.7,7,3
			c1.2,0.7,2.2,1.7,2.9,2.9c0.3,0.6,0.7,1.2,1,1.9c1.1,2.3,4.2,10.6,6.7,11.2c0.9,2,6.8,4.1,4.1,3.1c0,0,4,0.9,5.4,0.9
			c1.4,0,6.8-4.1,6.8-6.8v-2.3c0-2.1-0.5-4.1-1.4-5.9c-1.4-3-3.6-7.4-4.6-9.4c-2.2-4.5-4.9-8.3-7.9-10.5c-4.9-3.6-10-4.8-13.7-6.2
			c-4.5-1.6-5.4-2.1-6.1-3.4c-1.5-2.7-1.3-7.6,0.4-12.4c1.4-3.7,3.5-7.1,6.2-9.7c2-2,4.5-3.4,7.1-4.4c11.6-4.1,15.4-2.3,16.4-1.5
			c1.2,0.9,4.7,6.5,2.4,24.9C739.2,221.6,739.2,221.8,739.2,222.1z"/>
	</g>
	<g id="图层_8">
		<g>
			<g>
				<path d="M942.1,275.6c0.3-2.7,2-6.2,8.2-6.2c5.3,0,7.8,2.8,7.8,5.9c0,2.5-1.5,3.7-2.8,4.3v0.1c1.3,0.5,3.6,1.7,3.6,5
					c0,3.4-2.3,6.8-8.7,6.8c-6.8,0-8.4-4-8.6-6.5h5.9c0.2,1.2,0.9,2.3,2.6,2.3c1.6,0,2.4-1.1,2.4-2.7c0-1.8-0.8-2.7-3-2.7h-1.9v-4.2
					h1.8c2,0,2.6-0.6,2.6-2.1c0-1.2-0.6-2-2-2c-1.6,0-2.1,0.9-2.2,2H942.1z"/>
				<path d="M961.2,277.7c0.8-2.9,1.3-6.5,1.4-10h5.8c-0.2,3.2-1.2,7.2-2.8,10H961.2z"/>
			</g>
		</g>
		<g>
			<g>
				<path d="M942,327.5h2.4v-4.4h6.3v4.4h3v4.3h-3v7.3c0,1.1,0.3,1.5,1.7,1.5c0.2,0,0.5,0,0.9,0v3.9c-1,0.3-2.6,0.4-3.7,0.4
					c-4,0-5.1-2-5.1-5.2v-7.8H942V327.5z"/>
				<path d="M956.3,332.4c0-1.6,0-3.4,0-4.9h6.2c0.1,0.5,0.2,2,0.2,2.8c0.7-1.6,2.3-3.2,5.2-3.2v5.8c-3.6-0.2-5.2,0.7-5.2,4.6v7
					h-6.3V332.4z"/>
				<path d="M985.9,339.5c0,1.9,0.1,4.5,0.2,5h-5.8c-0.1-0.3-0.2-1.2-0.3-1.6c-0.8,1.1-2.1,2-4.8,2c-3.8,0-5.9-2.4-5.9-5.4
					c0-4,3.2-5.7,8.4-5.7c0.6,0,1.5,0,2.1,0v-0.9c0-1.1-0.4-1.9-1.9-1.9c-1.4,0-1.8,0.7-2,1.8h-5.8c0.2-2.8,1.9-5.6,8-5.6
					c5.6,0,7.8,2.2,7.8,6.3V339.5z M979.9,337c-0.3,0-0.9,0-1.4,0c-2.2,0-2.9,0.8-2.9,2c0,1,0.6,1.8,1.9,1.8c2.1,0,2.4-1.5,2.4-3.3
					V337z"/>
				<path d="M1005.8,338.6c-0.5,3.1-2.5,6.3-8.4,6.3c-6,0-8.6-3.9-8.6-8.8c0-5.1,3.2-9.1,8.8-9.1c6.4,0,8,4.3,8.1,6.4h-6
					c-0.2-1.2-0.7-2.1-2.1-2.1c-1.6,0-2.4,1.5-2.4,4.6c0,3.5,0.9,4.8,2.4,4.8c1.3,0,1.8-1,2.1-2.1H1005.8z"/>
				<path d="M1008.4,332.4c0-1.6,0-3.4,0-4.9h6.2c0.1,0.5,0.2,2,0.2,2.8c0.7-1.6,2.3-3.2,5.2-3.2v5.8c-3.6-0.2-5.2,0.7-5.2,4.6v7
					h-6.3V332.4z"/>
				<path d="M1029.2,336.1v8.4h-6.4v-22.3h11.1c5.3,0,7.8,2.8,7.8,6.2c0,3.1-1.8,4.7-3.4,5.3c1.4,0.5,2.9,2,2.9,5.8v0.9
					c0,1.4,0,3.2,0.3,4.2h-6.2c-0.4-1-0.5-2.6-0.5-4.9v-0.6c0-1.9-0.5-3-3.3-3H1029.2z M1029.2,331.5h3c2.2,0,3-0.9,3-2.4
					c0-1.5-0.9-2.4-2.9-2.4h-3.1V331.5z"/>
				<path d="M1045.3,344.5v-22.3h7.8c2.3,5,5.8,11.8,6.7,14.6h0.1c-0.2-2.3-0.3-6.3-0.3-9.8v-4.8h6v22.3h-7.5
					c-1.9-4-5.9-12.4-7-15.4h-0.1c0.2,2.1,0.2,6.4,0.2,10.4v5H1045.3z"/>
				<path d="M1075.7,340.2l-1.3,4.3h-6.4l7.1-22.3h8.5l7.3,22.3h-6.8l-1.4-4.3H1075.7z M1081.5,335.3c-1-3.5-1.9-6.6-2.4-8.8h-0.1
					c-0.5,2.4-1.4,5.6-2.3,8.8H1081.5z"/>
			</g>
		</g>
		<polyline class="st6" points="925.5,334.4 903.2,334.4 899.2,326.3 		"/>
		<polyline class="st6" points="701.2,281.6 720.4,281.6 726.9,276.3 		"/>
		<polyline class="st6" points="775.5,469.7 784.5,480.3 813.4,480.3 		"/>
	</g>
</g>
</svg>
