<?xml version="1.0" encoding="utf-8"?>
<!-- Generator: Adobe Illustrator 25.2.1, SVG Export Plug-In . SVG Version: 6.00 Build 0)  -->
<svg version="1.1" xmlns="http://www.w3.org/2000/svg" xmlns:xlink="http://www.w3.org/1999/xlink" x="0px" y="0px"
	 viewBox="0 0 1152.5 589.3" style="enable-background:new 0 0 1152.5 589.3;" xml:space="preserve">
<style type="text/css">
	.st0{fill:#C4E3E6;}
	.st1{fill:#B3B3B3;stroke:#CCCCCC;stroke-width:5;stroke-miterlimit:10;}
	.st2{fill:#7BBF49;}
	.st3{fill:#CCCCCC;}
	.st4{fill:none;stroke:#F9D878;stroke-width:8;stroke-miterlimit:10;}
	.st5{fill:none;stroke:#8CC666;stroke-width:8;stroke-miterlimit:10;}
	.st6{fill:#CFCECF;}
	.st7{fill:none;stroke:#86BECD;stroke-width:8;stroke-miterlimit:10;}
	.st8{fill:url(#SVGID_1_);stroke:#C2CFD8;stroke-width:8;stroke-miterlimit:10;}
	.st9{fill:none;stroke:#C2CFD8;stroke-width:8;stroke-miterlimit:10;}
	.st10{fill:none;stroke:#000000;stroke-miterlimit:10;}
	.st11{fill:none;}
	.st12{font-family:'Times-Roman';}
	.st13{font-size:12px;}
	.st14{fill:#EFCCB0;}
	.st15{fill:none;stroke:#CCCCCC;stroke-width:8;stroke-miterlimit:10;}
	.st16{fill:none;stroke:#CFCECF;stroke-width:8;stroke-miterlimit:10;}
	.st17{fill:none;stroke:#F8B500;stroke-miterlimit:10;}
	.st18{fill:none;stroke:#A3C3E1;stroke-width:8;stroke-miterlimit:10;}
	.st19{fill:#7D8DFF;stroke:#86BECD;stroke-width:8;stroke-miterlimit:10;}
	.st20{fill:url(#SVGID_2_);stroke:#C2CFD8;stroke-width:8;stroke-miterlimit:10;}
	.st21{opacity:0.8;}
	.st22{fill:#F5C142;}
	.st23{fill:none;stroke:#F5C142;stroke-width:8;stroke-miterlimit:10;}
	.st24{fill:#5C71FF;}
</style>
<g id="图层_1">
	<path class="st0" d="M342.2,294.4c-16-1.2-32,2.9-45.1,11.8c-4.1,2.8-8.1,5.8-11.5,9c-9.9,9.3-22.5,15.6-36.3,17.8
		c-56,9-97.8,45.1-97.8,88.2c0,49.9,55.9,90.4,124.9,90.4s124.9-40.5,124.9-90.4l0.1-9.2c0-6.8-1.6-13.6-4.8-19.7
		c-0.1-0.2-0.2-0.3-0.2-0.5c-7.1-13.4-6.6-29.2,1.4-42.2c0.4-0.7,0.7-1.1,0.7-1.2l0,0c8.7-17.9-5.9-37.8-24.5-46.5
		C363.4,297.2,351.5,294.3,342.2,294.4"/>
	<g>
		<line class="st1" x1="188.9" y1="352.1" x2="215.3" y2="352.1"/>
		<line class="st1" x1="188.9" y1="340.5" x2="215.3" y2="340.5"/>
		<line class="st1" x1="188.9" y1="329" x2="215.3" y2="329"/>
		<line class="st1" x1="188.9" y1="317.3" x2="215.3" y2="317.3"/>
		<line class="st1" x1="188.9" y1="305.8" x2="215.3" y2="305.8"/>
		<line class="st1" x1="188.9" y1="294.2" x2="215.3" y2="294.2"/>
	</g>
	<line class="st1" x1="188.9" y1="176.2" x2="215.3" y2="176.2"/>
	<line class="st1" x1="188.9" y1="164.6" x2="215.3" y2="164.6"/>
	<line class="st1" x1="188.9" y1="153.1" x2="215.3" y2="153.1"/>
	<line class="st1" x1="188.9" y1="141.4" x2="215.3" y2="141.4"/>
	<line class="st1" x1="188.9" y1="129.9" x2="215.3" y2="129.9"/>
	<line class="st1" x1="188.9" y1="363.3" x2="215.3" y2="363.3"/>
	<line class="st1" x1="188.9" y1="374.8" x2="215.3" y2="374.8"/>
	<line class="st1" x1="188.9" y1="118.4" x2="215.3" y2="118.4"/>
	<line class="st1" x1="188.9" y1="386.3" x2="215.3" y2="386.3"/>
	<g>
		<g>
			<g>
				<rect x="184.9" y="283.8" class="st2" width="8" height="111.8"/>
			</g>
		</g>
	</g>
	<path class="st3" d="M192.9,288.2h-8v-7.2c0-0.8-0.7-1.6-1.6-1.7c-18.1-3.1-31.7-21.3-31.7-42.3c0-20.2,12.5-37.8,29.7-41.8
		c2.1-0.5,3.6-2.4,3.6-4.6v-6.1h8v6.1c0,6-4,11.1-9.8,12.5c-13.6,3.2-23.6,17.5-23.6,33.9c0,17.1,10.8,31.8,25.1,34.2
		c4.8,0.8,8.3,4.9,8.3,9.7V288.2z"/>
	<line class="st4" x1="230.6" y1="403" x2="369.1" y2="403"/>
	<path class="st5" d="M215.3,288.2v104.1c0,5.9,4.8,10.6,10.6,10.6h4.7"/>
	<path class="st6" d="M219.3,288.2h-8v-6c0-5.3,3.8-9.9,9.1-10.9c14.5-2.8,25.1-16.9,25.1-33.6c0-16.2-10.2-30.2-24.2-33.4
		c-5.9-1.3-10-6.3-10-12.1v-7.9h8v7.9c0,2,1.6,3.8,3.8,4.3c17.6,4,30.4,21.3,30.4,41.2c0,20.5-13.3,37.9-31.5,41.4
		c-1.5,0.3-2.6,1.6-2.6,3V288.2z"/>
	<line class="st7" x1="215.3" y1="108" x2="215.3" y2="184.4"/>
	<linearGradient id="SVGID_1_" gradientUnits="userSpaceOnUse" x1="188.8702" y1="108.3068" x2="188.8702" y2="108.3068">
		<stop  offset="0" style="stop-color:#6BC5D2"/>
		<stop  offset="8.319743e-03" style="stop-color:#6AC5D1"/>
		<stop  offset="0.2099" style="stop-color:#4EC6C6"/>
		<stop  offset="0.388" style="stop-color:#3EC6BF"/>
		<stop  offset="0.523" style="stop-color:#38C6BD"/>
		<stop  offset="0.7241" style="stop-color:#3AC6BD"/>
		<stop  offset="0.7965" style="stop-color:#41C7BF"/>
		<stop  offset="0.8482" style="stop-color:#4CC7C1"/>
		<stop  offset="0.8899" style="stop-color:#5DC8C4"/>
		<stop  offset="0.9257" style="stop-color:#73CAC9"/>
		<stop  offset="0.9573" style="stop-color:#8FCCCE"/>
		<stop  offset="0.9852" style="stop-color:#AECED4"/>
		<stop  offset="1" style="stop-color:#C2CFD8"/>
	</linearGradient>
	<path class="st8" d="M188.9,108.3"/>
	<path class="st9" d="M188.9,72.9"/>
	<path class="st10" d="M215.3,413.4v7c0,3.6,2.9,6.5,6.1,6.5h142.1c3.3,0,5.7-2.4,5.7-5.3v-8.2"/>
	<line class="st10" x1="292.2" y1="426.9" x2="292.2" y2="437.9"/>
	<rect x="214.7" y="437.3" class="st11" width="155" height="12.8"/>
	<text transform="matrix(1 0 0 1 254.7036 447.3075)" class="st12 st13">Spacer released</text>
	<path class="st14" d="M482.5,414.9h-99.7c-3.6,0-6.5-2.9-6.5-6.5v-10.9c0-3.6,2.9-6.5,6.5-6.5h99.7c3.6,0,6.5,2.9,6.5,6.5v10.9
		C489,412,486.1,414.9,482.5,414.9z"/>
	<rect x="355.1" y="396.5" class="st11" width="155" height="12.8"/>
	<text transform="matrix(1 0 0 1 401.9153 406.5167)" class="st12 st13">SCAFFOLD</text>
	<g>
		<g>
			<line class="st7" x1="188.9" y1="108" x2="188.9" y2="184.4"/>
		</g>
	</g>
	<line class="st15" x1="188.9" y1="72.9" x2="188.9" y2="108"/>
	<line class="st15" x1="188.9" y1="395.9" x2="188.9" y2="430.9"/>
	<line class="st16" x1="756.8" y1="74.6" x2="756.8" y2="109.6"/>
	<path class="st6" d="M787.8,290h-8v-6.1c0-5.4,3.8-10,9.1-11.1c14.5-2.8,25.1-17.2,25.1-34.2c0-16.4-10.2-30.7-24.2-34
		c-5.9-1.4-10-6.4-10-12.3v-8h8v8c0,2,1.6,3.8,3.8,4.3c17.6,4.1,30.4,21.7,30.4,41.9c0,20.9-13.3,38.6-31.5,42.2
		c-1.5,0.3-2.6,1.6-2.6,3.1V290z"/>
</g>
<g id="图层_2">
	<line class="st1" x1="756.9" y1="176.2" x2="783.2" y2="176.2"/>
	<line class="st1" x1="756.9" y1="164.6" x2="783.2" y2="164.6"/>
	<line class="st1" x1="756.9" y1="153.1" x2="783.2" y2="153.1"/>
	<line class="st1" x1="756.9" y1="141.4" x2="783.2" y2="141.4"/>
	<line class="st1" x1="756.9" y1="129.9" x2="783.2" y2="129.9"/>
	<line class="st1" x1="756.9" y1="118.4" x2="783.2" y2="118.4"/>
	<path class="st17" d="M538.2,563.3h-492c-9.6,0-17.3-7.8-17.3-17.3V42.5c0-9.6,7.8-17.3,17.3-17.3h492c9.6,0,17.3,7.8,17.3,17.3
		v503.4C555.5,555.5,547.7,563.3,538.2,563.3z"/>
	<path class="st0" d="M910.1,294.4c-16-1.2-32,2.9-45.1,11.8c-4.1,2.8-8.1,5.8-11.5,9c-9.9,9.3-22.5,15.6-36.3,17.8
		c-56,9-97.8,45.1-97.8,88.2c0,49.9,55.9,90.4,124.9,90.4s124.9-40.5,124.9-90.4l0.1-9.2c0-6.8-1.6-13.6-4.8-19.7
		c-0.1-0.2-0.2-0.3-0.2-0.5c-7.1-13.4-6.6-29.2,1.4-42.2c0.4-0.7,0.7-1.1,0.7-1.2l0,0c8.7-17.9-5.9-37.8-24.5-46.5
		C931.3,297.2,919.5,294.3,910.1,294.4"/>
	<line class="st1" x1="720" y1="434.9" x2="720" y2="461.2"/>
	<line class="st1" x1="731.6" y1="434.9" x2="731.6" y2="461.2"/>
	<line class="st1" x1="743.1" y1="434.9" x2="743.1" y2="461.2"/>
	<line class="st1" x1="754.8" y1="434.9" x2="754.8" y2="461.2"/>
	<line class="st1" x1="766.3" y1="434.9" x2="766.3" y2="461.2"/>
	<line class="st1" x1="777.9" y1="434.9" x2="777.9" y2="461.2"/>
	<line class="st1" x1="684.5" y1="434.9" x2="684.5" y2="461.2"/>
	<line class="st1" x1="696" y1="434.9" x2="696" y2="461.2"/>
	<line class="st1" x1="707.5" y1="434.9" x2="707.5" y2="461.2"/>
	<line class="st1" x1="790.2" y1="434.9" x2="790.2" y2="461.2"/>
	<g>
		<line class="st1" x1="756.9" y1="352.1" x2="783.2" y2="352.1"/>
		<line class="st1" x1="756.9" y1="340.5" x2="783.2" y2="340.5"/>
		<line class="st1" x1="756.9" y1="329" x2="783.2" y2="329"/>
		<line class="st1" x1="756.9" y1="317.3" x2="783.2" y2="317.3"/>
		<line class="st1" x1="756.9" y1="305.8" x2="783.2" y2="305.8"/>
		<line class="st1" x1="756.9" y1="294.2" x2="783.2" y2="294.2"/>
	</g>
	<line class="st18" x1="677.4" y1="432.5" x2="799.8" y2="432.5"/>
	<line class="st1" x1="756.9" y1="363.3" x2="783.2" y2="363.3"/>
	<line class="st1" x1="756.9" y1="374.8" x2="783.2" y2="374.8"/>
	<line class="st1" x1="756.9" y1="386.3" x2="783.2" y2="386.3"/>
	<g>
		<g>
			<rect x="752.9" y="288.2" class="st2" width="8" height="130.7"/>
		</g>
	</g>
	<g>
		<g>
			<line class="st1" x1="872.6" y1="404.8" x2="872.6" y2="431.1"/>
			<line class="st1" x1="884.2" y1="404.8" x2="884.2" y2="431.1"/>
			<line class="st1" x1="895.7" y1="404.8" x2="895.7" y2="431.1"/>
			<line class="st1" x1="907.4" y1="404.8" x2="907.4" y2="431.1"/>
			<line class="st1" x1="918.9" y1="404.8" x2="918.9" y2="431.1"/>
			<line class="st1" x1="930.5" y1="404.8" x2="930.5" y2="431.1"/>
		</g>
		<line class="st1" x1="813.9" y1="404.8" x2="813.9" y2="431.1"/>
		<line class="st1" x1="825.4" y1="404.8" x2="825.4" y2="431.1"/>
		<line class="st1" x1="837.1" y1="404.8" x2="837.1" y2="431.1"/>
		<line class="st1" x1="848.6" y1="404.8" x2="848.6" y2="431.1"/>
		<line class="st1" x1="860.2" y1="404.8" x2="860.2" y2="431.1"/>
	</g>
	<path class="st6" d="M760.8,288.2h-8V281c0-0.8-0.7-1.5-1.6-1.7c-18.1-3.1-31.7-21-31.7-41.6c0-19.8,12.5-37.2,29.7-41.2
		c2.1-0.5,3.6-2.4,3.6-4.5v-7.6h8v7.6c0,5.9-4,11-9.8,12.3c-13.6,3.2-23.6,17.2-23.6,33.4c0,16.8,10.8,31.3,25.1,33.7
		c4.8,0.8,8.3,4.8,8.3,9.6V288.2z"/>
	<line class="st19" x1="783.2" y1="108" x2="783.2" y2="184.4"/>
	<linearGradient id="SVGID_2_" gradientUnits="userSpaceOnUse" x1="756.8448" y1="108.3068" x2="756.8448" y2="108.3068">
		<stop  offset="0" style="stop-color:#6BC5D2"/>
		<stop  offset="8.319743e-03" style="stop-color:#6AC5D1"/>
		<stop  offset="0.2099" style="stop-color:#4EC6C6"/>
		<stop  offset="0.388" style="stop-color:#3EC6BF"/>
		<stop  offset="0.523" style="stop-color:#38C6BD"/>
		<stop  offset="0.7241" style="stop-color:#3AC6BD"/>
		<stop  offset="0.7965" style="stop-color:#41C7BF"/>
		<stop  offset="0.8482" style="stop-color:#4CC7C1"/>
		<stop  offset="0.8899" style="stop-color:#5DC8C4"/>
		<stop  offset="0.9257" style="stop-color:#73CAC9"/>
		<stop  offset="0.9573" style="stop-color:#8FCCCE"/>
		<stop  offset="0.9852" style="stop-color:#AECED4"/>
		<stop  offset="1" style="stop-color:#C2CFD8"/>
	</linearGradient>
	<path class="st20" d="M756.8,108.3"/>
	<path class="st9" d="M756.8,72.9"/>
	<path class="st10" d="M937.1,392.2v-5.5c0-2.9-2.7-5.2-5.6-5.2H801.6c-3.1,0-5.2,1.9-5.2,4.2v6.5"/>
	<line class="st10" x1="866.7" y1="381.5" x2="866.7" y2="370.4"/>
	<rect x="789.2" y="356.9" class="st11" width="155" height="12.8"/>
	<text transform="matrix(1 0 0 1 829.2643 366.8285)" class="st12 st13">Spacer released</text>
	<path class="st14" d="M1050.4,414.9h-99.7c-3.6,0-6.5-2.9-6.5-6.5v-10.9c0-3.6,2.9-6.5,6.5-6.5h99.7c3.6,0,6.5,2.9,6.5,6.5v10.9
		C1056.9,412,1054,414.9,1050.4,414.9z"/>
	<g>
		<line class="st1" x1="1001" y1="434.9" x2="1001" y2="461.2"/>
		<line class="st1" x1="1012.6" y1="434.9" x2="1012.6" y2="461.2"/>
		<line class="st1" x1="1024.1" y1="434.9" x2="1024.1" y2="461.2"/>
		<line class="st1" x1="1035.8" y1="434.9" x2="1035.8" y2="461.2"/>
		<line class="st1" x1="1047.3" y1="434.9" x2="1047.3" y2="461.2"/>
		<line class="st1" x1="1058.9" y1="434.9" x2="1058.9" y2="461.2"/>
	</g>
	<line class="st1" x1="942.3" y1="434.9" x2="942.3" y2="461.2"/>
	<line class="st1" x1="953.8" y1="434.9" x2="953.8" y2="461.2"/>
	<line class="st1" x1="965.5" y1="434.9" x2="965.5" y2="461.2"/>
	<line class="st1" x1="977" y1="434.9" x2="977" y2="461.2"/>
	<line class="st1" x1="988.6" y1="434.9" x2="988.6" y2="461.2"/>
	<rect x="923.1" y="396.5" class="st11" width="155" height="12.8"/>
	<text transform="matrix(1 0 0 1 969.89 406.5167)" class="st12 st13">SCAFFOLD</text>
	<path class="st17" d="M1106.1,563.3h-492c-9.6,0-17.3-7.8-17.3-17.3V42.5c0-9.6,7.8-17.3,17.3-17.3h492c9.6,0,17.3,7.8,17.3,17.3
		v503.4C1123.5,555.5,1115.7,563.3,1106.1,563.3z"/>
	<line class="st1" x1="1071.2" y1="434.9" x2="1071.2" y2="461.2"/>
	<line class="st18" x1="1077.7" y1="463.6" x2="677.4" y2="463.6"/>
	<line class="st18" x1="937.1" y1="432.5" x2="1077.7" y2="432.5"/>
	<g>
		<g>
			<line class="st7" x1="756.8" y1="108" x2="756.8" y2="184.4"/>
		</g>
	</g>
</g>
<g id="图层_3">
	<g>
		<g class="st21">
			<path class="st22" d="M756.8,186.1"/>
			<path class="st23" d="M756.8,186.1"/>
		</g>
		<g>
			<path class="st24" d="M756.8,186.1"/>
			<path class="st7" d="M756.8,186.1"/>
		</g>
	</g>
	<line class="st4" x1="799.8" y1="404.8" x2="938.3" y2="404.8"/>
	<path class="st5" d="M784.5,290v104.1c0,5.9,4.8,10.6,10.6,10.6h4.7"/>
	<line class="st4" x1="799.8" y1="432.5" x2="938.3" y2="432.5"/>
</g>
</svg>
