<?xml version="1.0" encoding="utf-8"?>
<svg version="1.1" xmlns="http://www.w3.org/2000/svg" xmlns:xlink="http://www.w3.org/1999/xlink" x="0px" y="0px"
	 viewBox="0 0 1252.3 455.9" style="enable-background:new 0 0 1252.3 455.9;" xml:space="preserve">
<style type="text/css">
	.st0{fill:url(#SVGID_1_);}
	.st1{fill:#808080;}
	.st2{fill:#F9D878;}
	.st3{font-family:'OpenSans-Regular';}
	.st4{font-size:17.2307px;}
	.st5{fill:#F2997C;}
	.st6{fill:#B0CE94;}
	.st7{fill:#A3C3E1;}
	.st8{font-family:'OpenSans-Bold';}
	.st9{font-size:21px;}
	.st10{fill:none;stroke:#231815;stroke-width:7.7586;stroke-miterlimit:10;}
	.st11{fill:none;stroke:#444444;stroke-miterlimit:10;}
	.st12{fill:#7FFF00;}
	.st13{clip-path:url(#SVGID_5_);}
	.st14{clip-path:url(#SVGID_7_);}
	.st15{clip-path:url(#SVGID_9_);}
	.st16{clip-path:url(#SVGID_13_);}
	.st17{clip-path:url(#SVGID_15_);}
	.st18{clip-path:url(#SVGID_17_);}
	.st19{clip-path:url(#SVGID_21_);}
	.st20{clip-path:url(#SVGID_23_);}
	.st21{clip-path:url(#SVGID_25_);}
	.st22{clip-path:url(#SVGID_29_);}
	.st23{clip-path:url(#SVGID_31_);}
	.st24{clip-path:url(#SVGID_33_);}
	.st25{clip-path:url(#SVGID_37_);}
	.st26{clip-path:url(#SVGID_39_);}
	.st27{clip-path:url(#SVGID_41_);}
	.st28{clip-path:url(#SVGID_45_);}
	.st29{clip-path:url(#SVGID_47_);}
	.st30{clip-path:url(#SVGID_49_);}
	.st31{clip-path:url(#SVGID_53_);}
	.st32{clip-path:url(#SVGID_55_);}
	.st33{clip-path:url(#SVGID_57_);}
	.st34{clip-path:url(#SVGID_61_);}
	.st35{clip-path:url(#SVGID_63_);}
	.st36{clip-path:url(#SVGID_65_);}
	.st37{clip-path:url(#SVGID_69_);}
	.st38{clip-path:url(#SVGID_71_);}
	.st39{clip-path:url(#SVGID_73_);}
	.st40{clip-path:url(#SVGID_77_);fill:none;}
	.st41{opacity:0.5;fill:none;stroke:#FDDB92;stroke-width:2;stroke-linecap:round;stroke-linejoin:round;stroke-miterlimit:10;}
	.st42{fill:#BEE9FE;}
	.st43{fill:#C0ADD3;}
	.st44{fill:#FFFFFF;}
	.st45{font-size:22.1538px;}
	.st46{fill:none;stroke:#7DCACA;stroke-width:5;stroke-miterlimit:10;}
	.st47{fill:none;stroke:#3BB4C1;stroke-width:5;stroke-miterlimit:10;}
	.st48{fill-rule:evenodd;clip-rule:evenodd;fill:#C2D8FF;}
	.st49{fill:none;stroke:#8FAADC;stroke-miterlimit:8;}
	.st50{opacity:0.502;fill-rule:evenodd;clip-rule:evenodd;fill:#C2D8FF;}
	.st51{fill-rule:evenodd;clip-rule:evenodd;fill:#BADEE9;}
	.st52{fill:none;stroke:#9DC3E6;stroke-miterlimit:8;}
	.st53{opacity:0.502;fill-rule:evenodd;clip-rule:evenodd;fill:#B9DBBC;}
	.st54{fill:none;stroke:#A9D18E;stroke-miterlimit:8;}
	.st55{fill:none;stroke:#CFCECF;stroke-width:5;stroke-miterlimit:10;}
	.st56{stroke:#444444;stroke-miterlimit:10;}
	.st57{fill:none;stroke:#000000;stroke-miterlimit:10;}
</style>
<g id="图层_1">
	<linearGradient id="SVGID_1_" gradientUnits="userSpaceOnUse" x1="153.3543" y1="229.4921" x2="283.651" y2="229.4921">
		<stop  offset="0" style="stop-color:#A9FF7F;stop-opacity:0.8"/>
		<stop  offset="1" style="stop-color:#FFFFFF;stop-opacity:5.000000e-02"/>
	</linearGradient>
	<polygon class="st0" points="170.9,323.5 153.4,341.3 283.7,380.9 283.7,78.1 	"/>
	<path class="st1" d="M677.8,275.1h-33.9c-0.6,0-1.1-0.5-1.1-1.1v-6.7c0-0.6,0.5-1.1,1.1-1.1h33.9c0.6,0,1.1,0.5,1.1,1.1v6.7
		C678.9,274.6,678.4,275.1,677.8,275.1z"/>
	<path class="st2" d="M660.8,244c-5,0-9.4-4-11.8-6.7c-0.6-0.7-1.8-0.3-1.8,0.7v27.1c0,0.6,0.5,1,1,1h25c0.6,0,1-0.5,1-1v-27.1
		c0-0.9-1.1-1.4-1.8-0.7C670.3,240,665.9,244,660.8,244z"/>
	<text transform="matrix(1.0173 0 0 1 654.4597 261.7722)" class="st3 st4">U</text>
	<path class="st1" d="M722.8,275.1h-33.7c-0.7,0-1.2-0.5-1.2-1.2v-6.5c0-0.7,0.5-1.2,1.2-1.2h33.7c0.7,0,1.2,0.5,1.2,1.2v6.5
		C723.9,274.5,723.4,275.1,722.8,275.1z"/>
	<path class="st5" d="M703.8,236.5l-9.8,6.4c-1.1,0.7-1.7,1.9-1.7,3.2v16.3c0,2.1,1.7,3.8,3.8,3.8h19.5c2.1,0,3.8-1.7,3.8-3.8v-16.3
		c0-1.3-0.6-2.5-1.7-3.2l-9.8-6.4C706.7,235.7,705.1,235.7,703.8,236.5z"/>
	<text transform="matrix(1.0173 0 0 1 700.3835 261.7722)" class="st3 st4">C</text>
	<path class="st1" d="M767.8,275.1h-33.6c-0.7,0-1.2-0.6-1.2-1.2v-6.4c0-0.7,0.6-1.2,1.2-1.2h33.6c0.7,0,1.2,0.6,1.2,1.2v6.4
		C769,274.5,768.5,275.1,767.8,275.1z"/>
	<path class="st6" d="M749.7,243.2l-8.7-5.7c-1.5-1-3.6,0.1-3.6,1.9v24.5c0,1.3,1,2.3,2.3,2.3h22.4c1.3,0,2.3-1,2.3-2.3v-24.5
		c0-1.8-2-2.9-3.6-1.9l-8.7,5.7C751.5,243.7,750.5,243.7,749.7,243.2z"/>
	<text transform="matrix(1.0173 0 0 1 744.6052 261.7722)" class="st3 st4">G</text>
	<path class="st1" d="M812.9,275.1h-33.7c-0.7,0-1.2-0.5-1.2-1.2v-6.5c0-0.7,0.5-1.2,1.2-1.2h33.7c0.7,0,1.2,0.5,1.2,1.2v6.5
		C814.1,274.5,813.6,275.1,812.9,275.1z"/>
	<path class="st7" d="M796.1,235.2c-7.5,0-13.5,4-13.5,8.9v22.2h27V244C809.6,239.2,803.5,235.2,796.1,235.2z"/>
	<text transform="matrix(1.0173 0 0 1 790.5125 261.7722)" class="st3 st4">A</text>
	<ellipse class="st5" cx="704.8" cy="358.7" rx="13.5" ry="13.3"/>
	<ellipse class="st7" cx="793.8" cy="358.7" rx="13.5" ry="13.3"/>
	<ellipse class="st2" cx="658.6" cy="358.7" rx="13.5" ry="13.3"/>
	<ellipse class="st6" cx="749.3" cy="358.7" rx="13.5" ry="13.3"/>
	<text transform="matrix(1.0173 0 0 1 677.8121 208.0814)" class="st3 st4">Nucleotides</text>
	<text transform="matrix(1.0173 0 0 1 675.8274 316.5171)" class="st3 st4">Amino Acids</text>
	<text transform="matrix(1.0173 0 0 1 697.4951 112.5788)" class="st3 st4">Energy</text>
	<text transform="matrix(1.0173 0 0 1 377.197 275.0637)" class="st3 st4">Ribosome</text>
	<text transform="matrix(1.0173 0 0 1 374.4911 120.5009)" class="st3 st4">Polymerase</text>
	<text transform="matrix(1.0173 0 0 1 1001.3392 116.7134)" class="st3 st4">Circular</text>
	<text transform="matrix(1.0173 0 0 1 1010.3176 275.235)" class="st3 st4">Linear</text>
	<text transform="matrix(1.0173 0 0 1 632.0093 57.469)" class="st8 st9">Reaction Mixture</text>
	<text transform="matrix(1.0173 0 0 1 955.7452 59.849)" class="st8 st9">DNA Template</text>
	<path class="st10" d="M458.1,98.9"/>
	<path class="st11" d="M184.6,128.8c0.2,6.2-2,9.4-7.4,10.9c0,2.5,0.6,5.2-0.2,7.4c-0.7,1.7-3.1,2.7-4.8,4c-0.3-0.3-0.7-0.5-1-0.8
		c0,1.2,0,2.4,0,3.7c0,18.5-0.4,37,0.1,55.5c0.4,15.5-1.9,30.6-4.4,45.7c-3.2,19.8-6,39.6-9.2,59.4c-1.3,7.8-2.6,15.7-4.8,23.3
		c-2.6,8.8-7.3,11.4-16.3,10.1c-3.8-0.5-8.4-2.2-9.6-6c-2-6.5-2.7-13.2-3.8-20c-4.4-26.6-8.6-53.2-12.6-79.9
		c-1.2-8.3-2-16.7-2.2-25.1c-0.3-18.7-0.1-37.4-0.1-56.2c0-3.4,0-6.9,0-10.4c-2.8-0.7-6.9,0.9-7.2-4.1c-5.5,0-10.7,0.1-16-0.1
		c-1.4,0-2.8-0.9-4-1.7c-4.3-2.9-3.9-9.3,0.7-11.6c0.9-0.5,1.8-1,2.8-1.1c7.9-1.2,15.8-3.1,23.8-3.2c24.7-0.3,49.3,0.1,74,0.2
		C183,128.8,183.7,128.8,184.6,128.8z M110,150.5c0,0.6-0.1,1.3-0.1,2c0,22.2-0.1,44.4-0.1,66.5c0,1.7,0.1,3.4,0.4,5.1
		c2.3,16.3,4.7,32.6,7.1,48.9c2.5,16.8,5,33.5,7.5,50.3c0.3,1.9,0.8,3.1,2.9,3.2c5.9,0.2,11.9,1.2,17.8,0.9
		c8.7-0.4,8.7-0.8,10.3-10.2c0.2-1,0.3-1.9,0.5-2.9c3.1-21.3,6.2-42.5,9.2-63.8c1.5-10.9,3.7-21.7,4-32.7
		c0.6-21.2,0.2-42.4,0.2-63.6c0-1.3,0-2.6,0-3.8C149.7,150.5,130.1,150.5,110,150.5z M139.4,139.3c-11,0-22.1,0.1-33.1-0.1
		c-2.7,0-3.8,0.8-3.4,3.6c0.1,0.8,0.1,1.6,0,2.4c-0.3,2.8,0.9,3.6,3.5,3.6c21.9-0.1,43.9-0.1,65.8,0c4.5,0,3.5-2.9,3.7-5.6
		c0.2-2.9-0.7-4.1-3.8-4C161.3,139.4,150.4,139.3,139.4,139.3z M183.2,130.6c-0.4-0.1-0.6-0.2-0.8-0.2c-25.9-0.2-51.8-0.5-77.7-0.6
		c-5.8,0-5.8,0.3-5.6,6.1c0,0.6,0.1,1.1,0.2,2c1.4,0,2.6,0,3.8,0c24.2,0,48.4,0,72.6,0C180.9,137.8,182.5,136.3,183.2,130.6z
		 M136.5,179.1c-0.6,0.1-1.1,0.2-1.6,0.3c-1,0.2-0.7,0.4,0.8,0.5c0.5,0,1.1,0,1.7,0c8.9,0,17.8,0,26.6,0c0.5,0,1.1,0,1.5,0
		c0.6-0.1,1.3-0.1,1.5-0.2c0.2-0.1-0.3-0.2-0.6-0.3c-0.4-0.1-1-0.2-1.6-0.3C155.4,179.1,145.8,179.1,136.5,179.1z M126.5,328.4
		c-1.3,7.7,4.4,16.9,11.2,17.8c8.8,1.2,14.4-5,15.7-17.6c-4.5,0.2-8.9,0.7-13.4,0.6C135.5,329.2,131,328.7,126.5,328.4z M97.3,131.6
		c-4.6,0.6-8.7,1-12.8,1.8c-2.6,0.5-4.9,2-5,5.3c0,3.4,2.2,5.5,5.2,5.9c4.5,0.6,9.1,0.5,13.7,0.5c0.8,0,1.6-1,2.4-1.6
		c-0.9-0.3-1.8-0.8-2.8-0.8c-4-0.1-8.1,0.1-12.1-0.1c-2-0.1-4-0.9-4.1-3.7c-0.1-2.8,2-3.3,4-3.8c1.1-0.3,2.2-0.1,3.4-0.1
		c2.7,0,5.4,0,8.2,0C97.4,133.8,97.3,133,97.3,131.6z M101.4,141c0-0.5,0.1-0.9,0.1-1.4c-1.2-0.2-2.4-0.3-3.3-0.4
		c-0.7-1-1.2-2.5-1.8-2.5c-3.8-0.1-7.6,0-11.4,0.3c-0.6,0-1.7,1.2-1.7,1.7c0.1,0.8,1,2.2,1.6,2.2C90.4,141,95.9,141,101.4,141z
		 M136.5,195.7c-0.6,0.1-1.1,0.2-1.6,0.3c-1,0.2-0.7,0.4,0.8,0.5c0.5,0,1.1,0,1.7,0c8.9,0,17.8,0,26.6,0c0.5,0,1.1,0,1.5,0
		c0.6-0.1,1.3-0.1,1.5-0.2c0.2-0.1-0.3-0.2-0.6-0.3c-0.4-0.1-1-0.2-1.6-0.3C155.4,195.7,145.8,195.7,136.5,195.7z M136.5,213.4
		c-0.6,0.1-1.1,0.2-1.6,0.3c-1,0.2-0.7,0.4,0.8,0.5c0.5,0,1.1,0,1.7,0c8.9,0,17.8,0,26.6,0c0.5,0,1.1,0,1.5,0
		c0.6-0.1,1.3-0.1,1.5-0.2c0.2-0.1-0.3-0.2-0.6-0.3c-0.4-0.1-1-0.2-1.6-0.3C155.4,213.4,145.8,213.4,136.5,213.4z"/>
	<path class="st12" d="M126.5,328.4c4.5,0.3,9,0.8,13.4,0.9c4.5,0,8.9-0.4,13.4-0.6c-1.3,12.6-6.8,18.8-15.7,17.6
		C130.9,345.3,125.2,336.1,126.5,328.4z"/>
	<g>
		<g>
			<defs>
				<polyline id="SVGID_2_" points="1463.6,316.8 1463.6,455.9 1041.1,455.9 1041.1,316.8 				"/>
			</defs>
			<clipPath id="SVGID_3_">
				<use xlink:href="#SVGID_2_"  style="overflow:visible;"/>
			</clipPath>
		</g>
		<g>
			<defs>
				<polyline id="SVGID_4_" points="1041.1,316.8 1041.1,455.9 1041.1,455.9 1463.6,455.9 1463.6,316.8 				"/>
			</defs>
			<clipPath id="SVGID_5_">
				<use xlink:href="#SVGID_4_"  style="overflow:visible;"/>
			</clipPath>
			<g class="st13">
				<defs>
					<polyline id="SVGID_6_" points="1041.1,316.8 1041.1,455.9 1041.1,455.9 1463.6,455.9 1463.6,316.8 					"/>
				</defs>
				<clipPath id="SVGID_7_">
					<use xlink:href="#SVGID_6_"  style="overflow:visible;"/>
				</clipPath>
				<g class="st14">
					<defs>
						<polyline id="SVGID_8_" points="1041.1,316.8 1041.1,455.9 1041.1,455.9 1463.6,455.9 1463.6,316.8 						"/>
					</defs>
					<clipPath id="SVGID_9_">
						<use xlink:href="#SVGID_8_"  style="overflow:visible;"/>
					</clipPath>
					<g class="st15">
						<defs>
							<polyline id="SVGID_10_" points="1463.6,316.8 1463.6,455.9 1041.1,455.9 1041.1,316.8 							"/>
						</defs>
						<clipPath id="SVGID_11_">
							<use xlink:href="#SVGID_10_"  style="overflow:visible;"/>
						</clipPath>
					</g>
					<g class="st15">
						<defs>
							<polyline id="SVGID_12_" points="1041.1,316.8 1041.1,455.9 1041.1,455.9 1463.6,455.9 1463.6,316.8 							"/>
						</defs>
						<clipPath id="SVGID_13_">
							<use xlink:href="#SVGID_12_"  style="overflow:visible;"/>
						</clipPath>
						<g class="st16">
							<defs>
								<polyline id="SVGID_14_" points="1041.1,316.8 1041.1,455.9 1041.1,455.9 1463.6,455.9 1463.6,316.8 								"/>
							</defs>
							<clipPath id="SVGID_15_">
								<use xlink:href="#SVGID_14_"  style="overflow:visible;"/>
							</clipPath>
							<g class="st17">
								<defs>
									<polyline id="SVGID_16_" points="1041.1,316.8 1041.1,455.9 1041.1,455.9 1463.6,455.9 1463.6,316.8 									"/>
								</defs>
								<clipPath id="SVGID_17_">
									<use xlink:href="#SVGID_16_"  style="overflow:visible;"/>
								</clipPath>
								<g class="st18">
									<defs>
										<polyline id="SVGID_18_" points="1463.6,316.8 1463.6,455.9 1041.1,455.9 1041.1,316.8 										"/>
									</defs>
									<clipPath id="SVGID_19_">
										<use xlink:href="#SVGID_18_"  style="overflow:visible;"/>
									</clipPath>
								</g>
								<g class="st18">
									<defs>
										<polyline id="SVGID_20_" points="1041.1,316.8 1041.1,455.9 1041.1,455.9 1463.6,455.9 1463.6,316.8 										"/>
									</defs>
									<clipPath id="SVGID_21_">
										<use xlink:href="#SVGID_20_"  style="overflow:visible;"/>
									</clipPath>
									<g class="st19">
										<defs>
											<polyline id="SVGID_22_" points="1041.1,316.8 1041.1,455.9 1041.1,455.9 1463.6,455.9 1463.6,316.8 											"/>
										</defs>
										<clipPath id="SVGID_23_">
											<use xlink:href="#SVGID_22_"  style="overflow:visible;"/>
										</clipPath>
										<g class="st20">
											<defs>
												<polyline id="SVGID_24_" points="1041.1,316.8 1041.1,455.9 1041.1,455.9 1463.6,455.9 1463.6,316.8 												"/>
											</defs>
											<clipPath id="SVGID_25_">
												<use xlink:href="#SVGID_24_"  style="overflow:visible;"/>
											</clipPath>
											<g class="st21">
												<defs>
													<polyline id="SVGID_26_" points="1463.6,316.8 1463.6,455.9 1041.1,455.9 1041.1,316.8 													"/>
												</defs>
												<clipPath id="SVGID_27_">
													<use xlink:href="#SVGID_26_"  style="overflow:visible;"/>
												</clipPath>
											</g>
											<g class="st21">
												<defs>
													<polyline id="SVGID_28_" points="1041.1,316.8 1041.1,455.9 1041.1,455.9 1463.6,455.9 1463.6,316.8 													"/>
												</defs>
												<clipPath id="SVGID_29_">
													<use xlink:href="#SVGID_28_"  style="overflow:visible;"/>
												</clipPath>
												<g class="st22">
													<defs>
														<polyline id="SVGID_30_" points="1041.1,316.8 1041.1,455.9 1041.1,455.9 1463.6,455.9 1463.6,316.8 														
															"/>
													</defs>
													<clipPath id="SVGID_31_">
														<use xlink:href="#SVGID_30_"  style="overflow:visible;"/>
													</clipPath>
													<g class="st23">
														<defs>
															<polyline id="SVGID_32_" points="1041.1,316.8 1041.1,455.9 1041.1,455.9 1463.6,455.9 1463.6,316.8 															
																"/>
														</defs>
														<clipPath id="SVGID_33_">
															<use xlink:href="#SVGID_32_"  style="overflow:visible;"/>
														</clipPath>
														<g class="st24">
															<defs>
																<polyline id="SVGID_34_" points="1463.6,316.8 1463.6,455.9 1041.1,455.9 1041.1,316.8 																"/>
															</defs>
															<clipPath id="SVGID_35_">
																<use xlink:href="#SVGID_34_"  style="overflow:visible;"/>
															</clipPath>
														</g>
														<g class="st24">
															<defs>
																<polyline id="SVGID_36_" points="1041.1,316.8 1041.1,455.9 1041.1,455.9 1463.6,455.9 1463.6,316.8 
																																	"/>
															</defs>
															<clipPath id="SVGID_37_">
																<use xlink:href="#SVGID_36_"  style="overflow:visible;"/>
															</clipPath>
															<g class="st25">
																<defs>
																	<polyline id="SVGID_38_" points="1041.1,316.8 1041.1,455.9 1041.1,455.9 1463.6,455.9 1463.6,316.8 
																																			"/>
																</defs>
																<clipPath id="SVGID_39_">
																	<use xlink:href="#SVGID_38_"  style="overflow:visible;"/>
																</clipPath>
																<g class="st26">
																	<defs>
																		<polyline id="SVGID_40_" points="1041.1,316.8 1041.1,455.9 1041.1,455.9 1463.6,455.9 1463.6,316.8 
																																					"/>
																	</defs>
																	<clipPath id="SVGID_41_">
																		<use xlink:href="#SVGID_40_"  style="overflow:visible;"/>
																	</clipPath>
																	<g class="st27">
																		<defs>
																			<polyline id="SVGID_42_" points="1463.6,316.8 1463.6,455.9 1041.1,455.9 1041.1,316.8 																			"/>
																		</defs>
																		<clipPath id="SVGID_43_">
																			<use xlink:href="#SVGID_42_"  style="overflow:visible;"/>
																		</clipPath>
																	</g>
																	<g class="st27">
																		<defs>
																			<polyline id="SVGID_44_" points="1041.1,316.8 1041.1,455.9 1041.1,455.9 1463.6,455.9 1463.6,316.8 
																																							"/>
																		</defs>
																		<clipPath id="SVGID_45_">
																			<use xlink:href="#SVGID_44_"  style="overflow:visible;"/>
																		</clipPath>
																		<g class="st28">
																			<defs>
																				<polyline id="SVGID_46_" points="1041.1,316.8 1041.1,455.9 1041.1,455.9 1463.6,455.9 1463.6,316.8 
																																									"/>
																			</defs>
																			<clipPath id="SVGID_47_">
																				<use xlink:href="#SVGID_46_"  style="overflow:visible;"/>
																			</clipPath>
																			<g class="st29">
																				<defs>
																					<polyline id="SVGID_48_" points="1041.1,316.8 1041.1,455.9 1041.1,455.9 1463.6,455.9 1463.6,316.8 
																																											"/>
																				</defs>
																				<clipPath id="SVGID_49_">
																					<use xlink:href="#SVGID_48_"  style="overflow:visible;"/>
																				</clipPath>
																				<g class="st30">
																					<defs>
																						<polyline id="SVGID_50_" points="1463.6,316.8 1463.6,455.9 1041.1,455.9 1041.1,316.8 
																																													"/>
																					</defs>
																					<clipPath id="SVGID_51_">
																						<use xlink:href="#SVGID_50_"  style="overflow:visible;"/>
																					</clipPath>
																				</g>
																				<g class="st30">
																					<defs>
																						<polyline id="SVGID_52_" points="1041.1,316.8 1041.1,455.9 1041.1,455.9 1463.6,455.9 1463.6,316.8 
																																													"/>
																					</defs>
																					<clipPath id="SVGID_53_">
																						<use xlink:href="#SVGID_52_"  style="overflow:visible;"/>
																					</clipPath>
																					<g class="st31">
																						<defs>
																							<polyline id="SVGID_54_" points="1041.1,316.8 1041.1,455.9 1041.1,455.9 1463.6,455.9 1463.6,316.8 
																																															"/>
																						</defs>
																						<clipPath id="SVGID_55_">
																							<use xlink:href="#SVGID_54_"  style="overflow:visible;"/>
																						</clipPath>
																						<g class="st32">
																							<defs>
																								<polyline id="SVGID_56_" points="1041.1,316.8 1041.1,455.9 1041.1,455.9 1463.6,455.9 1463.6,316.8 
																																																	"/>
																							</defs>
																							<clipPath id="SVGID_57_">
																								<use xlink:href="#SVGID_56_"  style="overflow:visible;"/>
																							</clipPath>
																							<g class="st33">
																								<defs>
																									<polyline id="SVGID_58_" points="1463.6,316.8 1463.6,455.9 1041.1,455.9 1041.1,316.8 
																																																			"/>
																								</defs>
																								<clipPath id="SVGID_59_">
																									<use xlink:href="#SVGID_58_"  style="overflow:visible;"/>
																								</clipPath>
																							</g>
																							<g class="st33">
																								<defs>
																									<polyline id="SVGID_60_" points="1041.1,316.8 1041.1,455.9 1041.1,455.9 1463.6,455.9 1463.6,316.8 
																																																			"/>
																								</defs>
																								<clipPath id="SVGID_61_">
																									<use xlink:href="#SVGID_60_"  style="overflow:visible;"/>
																								</clipPath>
																								<g class="st34">
																									<defs>
																										<polyline id="SVGID_62_" points="1041.1,316.8 1041.1,455.9 1041.1,455.9 1463.6,455.9 1463.6,316.8 
																																																					"/>
																									</defs>
																									<clipPath id="SVGID_63_">
																										<use xlink:href="#SVGID_62_"  style="overflow:visible;"/>
																									</clipPath>
																									<g class="st35">
																										<defs>
																											<polyline id="SVGID_64_" points="1041.1,316.8 1041.1,455.9 1041.1,455.9 1463.6,455.9 1463.6,316.8 
																																																							"/>
																										</defs>
																										<clipPath id="SVGID_65_">
																											<use xlink:href="#SVGID_64_"  style="overflow:visible;"/>
																										</clipPath>
																										<g class="st36">
																											<defs>
																												<polyline id="SVGID_66_" points="1463.6,316.8 1463.6,455.9 1041.1,455.9 1041.1,316.8 
																																																									"/>
																											</defs>
																											<clipPath id="SVGID_67_">
																												<use xlink:href="#SVGID_66_"  style="overflow:visible;"/>
																											</clipPath>
																										</g>
																										<g class="st36">
																											<defs>
																												<polyline id="SVGID_68_" points="1041.1,316.8 1041.1,455.9 1041.1,455.9 1463.6,455.9 1463.6,316.8 
																																																									"/>
																											</defs>
																											<clipPath id="SVGID_69_">
																												<use xlink:href="#SVGID_68_"  style="overflow:visible;"/>
																											</clipPath>
																											<g class="st37">
																												<defs>
																													<polyline id="SVGID_70_" points="1041.1,316.8 1041.1,455.9 1041.1,455.9 1463.6,455.9 1463.6,316.8 
																																																											"/>
																												</defs>
																												<clipPath id="SVGID_71_">
																													<use xlink:href="#SVGID_70_"  style="overflow:visible;"/>
																												</clipPath>
																												<g class="st38">
																													<defs>
																														<polyline id="SVGID_72_" points="1041.1,316.8 1041.1,455.9 1041.1,455.9 1463.6,455.9 1463.6,316.8 
																																																													"/>
																													</defs>
																													<clipPath id="SVGID_73_">
																														<use xlink:href="#SVGID_72_"  style="overflow:visible;"/>
																													</clipPath>
																													<g class="st39">
																														<defs>
																															<polyline id="SVGID_74_" points="1463.6,316.8 1463.6,455.9 1041.1,455.9 1041.1,316.8 
																																																															"/>
																														</defs>
																														<clipPath id="SVGID_75_">
																															<use xlink:href="#SVGID_74_"  style="overflow:visible;"/>
																														</clipPath>
																													</g>
																													<g class="st39">
																														<defs>
																															<polyline id="SVGID_76_" points="1041.1,316.8 1041.1,455.9 1041.1,455.9 1463.6,455.9 
																																1463.6,316.8 																															"/>
																														</defs>
																														<clipPath id="SVGID_77_">
																															<use xlink:href="#SVGID_76_"  style="overflow:visible;"/>
																														</clipPath>
																														<polyline class="st40" points="1041.1,316.8 1041.1,455.9 1041.1,455.9 1463.6,455.9 1463.6,316.8 
																																																													"/>
																													</g>
																												</g>
																											</g>
																										</g>
																									</g>
																								</g>
																							</g>
																						</g>
																					</g>
																				</g>
																			</g>
																		</g>
																	</g>
																</g>
															</g>
														</g>
													</g>
												</g>
											</g>
										</g>
									</g>
								</g>
							</g>
						</g>
					</g>
				</g>
			</g>
		</g>
	</g>
	<path class="st41" d="M1157.6,397.9H908.2c-6.4,0-11.5-5.2-11.5-11.5V83.6c0-6.4,5.2-11.5,11.5-11.5h249.4
		c6.4,0,11.5,5.2,11.5,11.5v302.7C1169.1,392.7,1163.9,397.9,1157.6,397.9z"/>
	<path class="st41" d="M542.7,397.9H293.4c-6.4,0-11.5-5.2-11.5-11.5V83.6c0-6.4,5.2-11.5,11.5-11.5h249.4c6.4,0,11.5,5.2,11.5,11.5
		v302.7C554.3,392.7,549.1,397.9,542.7,397.9z"/>
	<path class="st41" d="M850.9,397.9H601.5c-6.4,0-11.5-5.2-11.5-11.5V83.6c0-6.4,5.2-11.5,11.5-11.5h249.4c6.4,0,11.5,5.2,11.5,11.5
		v302.7C862.4,392.7,857.2,397.9,850.9,397.9z"/>
	<path class="st42" d="M205.8-40.3"/>
	<path class="st43" d="M771.3,171.9h-91.7c-4.5,0-8.2-3.7-8.2-8.2v-23.1c0-4.5,3.7-8.2,8.2-8.2h91.7c4.5,0,8.2,3.7,8.2,8.2v23.1
		C779.5,168.2,775.9,171.9,771.3,171.9z"/>
	<g>
		<text transform="matrix(1.0173 0 0 1 704.0858 159.4137)" class="st44 st8 st45">ATP</text>
	</g>
	<path class="st46" d="M1010.1,333.6h74.8"/>
	<path class="st47" d="M1010.1,333.6"/>
	<circle class="st46" cx="1032.9" cy="185.8" r="39.7"/>
	<text transform="matrix(1 0 0 1 336.5202 57.8461)" class="st8 st9">The Cell Extract</text>
	<path class="st48" d="M420.1,187.1c-4.9,1.5-11.6,2.4-16.3,2.4c-4.7,0-8.9-2.7-11.8-2.4s-5.7,1.2-5.9,4.2c-0.2,3,1.8,9.3,4.4,13.8
		c2.7,4.6,7.8,10.4,11.5,13.7c3.7,3.3,7.5,5.7,10.8,6c3.3,0.2,8-2,9.2-4.5c1.1-2.5-2-4.9,0.3-7.6c2.3-2.7,8.2-2.5,11-3.9
		c2.7-1.4,2.4-3.5,5.3-4.6s4.2,1.1,6.7-0.4s3.1-2.6,3.6-7.9c0.5-5.3,0.2-11.4-2.4-14c-2.6-2.6-8.7-2.5-13.3-1.3
		C427.6,182.2,425,185.7,420.1,187.1z"/>
	<g>
		<defs>
			<rect id="SVGID_78_" x="386" y="179.3" width="63.5" height="46"/>
		</defs>
		<clipPath id="SVGID_79_">
			<use xlink:href="#SVGID_78_"  style="overflow:visible;"/>
		</clipPath>
	</g>
	<path class="st49" d="M420.1,187.1c-4.9,1.5-11.6,2.4-16.3,2.4c-4.7,0-8.9-2.7-11.8-2.4s-5.7,1.2-5.9,4.2s1.8,9.3,4.4,13.8
		c2.7,4.6,7.8,10.4,11.5,13.7c3.7,3.3,7.5,5.7,10.8,6c3.3,0.2,8-2,9.2-4.5c1.1-2.5-2-4.9,0.3-7.6c2.3-2.7,8.2-2.5,11-3.9
		c2.7-1.4,2.4-3.5,5.3-4.6c2.9-1.1,4.2,1.1,6.7-0.4c2.4-1.5,3.1-2.6,3.6-7.9c0.5-5.3,0.2-11.4-2.4-14c-2.6-2.6-8.7-2.5-13.3-1.3
		C427.6,182.2,425,185.7,420.1,187.1z"/>
	<path class="st50" d="M442.3,146.8c-2.9-1-11.2-0.2-15,1c-3.8,1.3-7.8,2.4-7.7,6.6c0.1,4.2,7.2,4.7,6.5,5.4
		c-0.7,0.8-5.8-1.8-10.8-0.9c-5,0.9-14.3,2.8-19.2,6.3c-4.8,3.5-9.2,10.3-9.9,14.8s2.7,6.7,7.4,5.6s6.4-4.1,9.4-4.8
		c3-0.7,7-0.1,8.4,0.8c1.4,0.9,0.6,2.9,0.2,4.7s-3.9,4.2-2.9,5.9c1.5,4.1,5,3,7.3,3c2.3,0.1,3.8-2.1,6.3-2.6
		c2.5-0.6,5.7,1.2,8.9-0.9c4.2-2.8,2.6-6.5,5.3-7.9c2.7-1.3,7.2,1.2,10.8-0.2c2.5-1,3.2-4.3,2.5-7.1c-0.7-2.7-2.3-5.4-6.6-9.4
		c-2.6-2.4-8-3.7-8.6-5.4c-0.6-1.7,1.1-4.5,5-4.8c3.3-0.4,3.8,0.2,5.2-3.1C446.1,150.5,445.2,147.8,442.3,146.8z"/>
	<g>
		<defs>
			<rect id="SVGID_80_" x="385.5" y="146.3" width="65" height="49.5"/>
		</defs>
		<clipPath id="SVGID_81_">
			<use xlink:href="#SVGID_80_"  style="overflow:visible;"/>
		</clipPath>
	</g>
	<path class="st49" d="M442.3,146.8c-2.9-1-11.2-0.2-15,1c-3.8,1.3-7.8,2.4-7.7,6.6c0.1,4.2,7.2,4.7,6.5,5.4
		c-0.7,0.8-5.8-1.8-10.8-0.9c-5,0.9-14.3,2.8-19.2,6.3c-4.8,3.5-9.2,10.3-9.9,14.8s2.7,6.7,7.4,5.6s6.4-4.1,9.4-4.8
		c3-0.7,7-0.1,8.4,0.8c1.4,0.9,0.6,2.9,0.2,4.7s-3.9,4.2-2.9,5.9c1.5,4.1,5,3,7.3,3c2.3,0.1,3.8-2.1,6.3-2.6
		c2.5-0.6,5.7,1.2,8.9-0.9c4.2-2.8,2.6-6.5,5.3-7.9c2.7-1.3,7.2,1.2,10.8-0.2c2.5-1,3.2-4.3,2.5-7.1c-0.7-2.7-2.3-5.4-6.6-9.4
		c-2.6-2.4-8-3.7-8.6-5.4c-0.6-1.7,1.1-4.5,5-4.8c3.3-0.4,3.8,0.2,5.2-3.1C446.1,150.5,445.2,147.8,442.3,146.8z"/>
	<path class="st51" d="M398.5,328.4c-6.7,0.3-10.6,1.6-11.8,7.9c-0.6,4.7,1.9,5.1,2.5,7.3c0.6,2.2,0.1,2.9,0.9,6
		c1,2.6,3.1,4.5,6.3,5.9c3.2,1.4,8.3,2.3,13,2.3s11.4-1,15.1-2c3.7-1,4.8-3.4,7.2-4c4.7-0.6,7,1.2,9.5,0.9c2.5-0.3,4.4-1,5.8-2.7
		s2.6-4.6,2.5-7.1s-1-6.3-2.9-7.9c-1.9-1.6-5.4-1.7-8.7-1.8c-3.3-0.1-7.4,1.4-11.1,1.2C420.3,333.7,405.2,328.1,398.5,328.4z"/>
	<path class="st52" d="M398.5,328.4c-6.7,0.3-10.6,1.6-11.8,7.9c-0.6,4.7,1.9,5.1,2.5,7.3c0.6,2.2,0.1,2.9,0.9,6
		c1,2.6,3.1,4.5,6.3,5.9c3.2,1.4,8.3,2.3,13,2.3s11.4-1,15.1-2c3.7-1,4.8-3.4,7.2-4c4.7-0.6,7,1.2,9.5,0.9c2.5-0.3,4.4-1,5.8-2.7
		s2.6-4.6,2.5-7.1s-1-6.3-2.9-7.9c-1.9-1.6-5.4-1.7-8.7-1.8c-3.3-0.1-7.4,1.4-11.1,1.2C420.3,333.7,405.2,328.1,398.5,328.4z"/>
	<path class="st53" d="M413.4,306.6c-3.9,2-6.7,6.5-9.9,8.5c-3.2,2-6.1,2.8-9.4,3.5c-3.3,0.7-6.3,4.1-7.2,6.8
		c-0.9,2.7-0.1,7.4,1.9,9.1s7,0.1,9.8,1.2c2.8,1.1,4.3,4.5,7,5.4c2.7,0.9,6.7,0.8,9.5,0.2s4.6-3.3,7.4-3.8s6.2,2,9.8,1.2
		c3.6-0.8,9.3-3.2,11.7-5.8c2.4-2.6,2.9-5.3,2.5-9.6c-0.4-4.3-4.4-4.7-4.2-7.3c0.2-2.6-1.4-5.5-3.9-7.9s-7-4.7-11.2-4.9
		C423,303.2,417.4,304.7,413.4,306.6z"/>
	<path class="st54" d="M413.4,306.6c-3.9,2-6.7,6.5-9.9,8.5c-3.2,2-6.1,2.8-9.4,3.5c-3.3,0.7-6.3,4.1-7.2,6.8
		c-0.9,2.7-0.1,7.4,1.9,9.1c1.9,1.7,7,0.1,9.8,1.2c2.8,1.1,4.3,4.5,7,5.4c2.7,0.9,6.7,0.8,9.5,0.2c2.8-0.6,4.6-3.3,7.4-3.8
		s6.2,2,9.8,1.2s9.3-3.2,11.7-5.8c2.4-2.6,2.9-5.3,2.5-9.6c-0.4-4.3-4.4-4.7-4.2-7.3c0.2-2.6-1.4-5.5-3.9-7.9s-7-4.7-11.2-4.9
		S417.4,304.7,413.4,306.6z"/>
	<line class="st55" x1="1010.1" y1="333.6" x2="982.8" y2="333.6"/>
</g>
<g id="图层_2">
	<path class="st56" d="M175.7,137.8"/>
	<path class="st56" d="M182.4,130.3"/>
	<path class="st57" d="M257.9,0"/>
</g>
</svg>
