<?xml version="1.0" encoding="utf-8"?>
<!-- Generator: Adobe Illustrator 25.2.1, SVG Export Plug-In . SVG Version: 6.00 Build 0)  -->
<svg version="1.1" id="图层_1" xmlns="http://www.w3.org/2000/svg" xmlns:xlink="http://www.w3.org/1999/xlink" x="0px" y="0px"
	 viewBox="0 0 388.9 213.5" style="enable-background:new 0 0 388.9 213.5;" xml:space="preserve">
<style type="text/css">
	.st0{fill:#F1C40F;}
	.st1{fill:none;stroke:#F9D878;stroke-width:5;stroke-linecap:round;stroke-miterlimit:10;}
	.st2{fill:#F9D878;stroke:#F9D878;stroke-width:5;stroke-linecap:round;stroke-miterlimit:10;}
	.st3{font-family:'OpenSans-Regular';}
	.st4{font-size:18.0377px;}
	.st5{fill:none;stroke:#29ABE2;stroke-width:5;stroke-linecap:round;stroke-miterlimit:10;}
</style>
<g>
	<path class="st0" d="M348.3,10.6c14,0,25.3,11.4,25.3,25.3v139.5c0,14-11.4,25.3-25.3,25.3H39.5c-14,0-25.3-11.4-25.3-25.3V35.9
		c0-14,11.4-25.3,25.3-25.3L348.3,10.6 M348.3,9.6H39.5C25,9.6,13.2,21.4,13.2,35.9v139.5c0,14.5,11.8,26.3,26.3,26.3h308.7
		c14.5,0,26.3-11.8,26.3-26.3V35.9C374.6,21.4,362.8,9.6,348.3,9.6L348.3,9.6z"/>
</g>
<g>
	<line class="st1" x1="108.9" y1="117.2" x2="146.8" y2="117.2"/>
	<polyline class="st1" points="108.9,117.2 108.9,79.3 141.4,79.3 	"/>
	<polyline class="st1" points="130.5,68.5 141.4,79.3 130.5,90.1 	"/>
</g>
<g>
	<line class="st1" x1="146.8" y1="117.2" x2="190.1" y2="117.2"/>
</g>
<g>
	<line class="st1" x1="255" y1="117.2" x2="298.3" y2="117.2"/>
	<line class="st1" x1="261" y1="102" x2="293.5" y2="102"/>
	<line class="st1" x1="276.6" y1="102" x2="276.6" y2="117.2"/>
</g>
<g>
	<path class="st2" d="M195.5,103.7v26.9c0,1.5,1.2,2.8,2.8,2.8h33.9c0.7,0,1.4-0.3,2-0.8l13.4-13.4c1.1-1.1,1.1-2.9,0-3.9
		l-13.4-13.4c-0.5-0.5-1.2-0.8-2-0.8h-33.9C196.7,100.9,195.5,102.2,195.5,103.7z"/>
	<line class="st1" x1="190.1" y1="117.2" x2="195.5" y2="117.2"/>
	<line class="st1" x1="255" y1="117.2" x2="249.6" y2="117.2"/>
</g>
<text transform="matrix(1 0 0 1 103.5301 144.8311)" class="st3 st4">P28a</text>
<text transform="matrix(1 0 0 1 200.9334 122.5899)" class="st3 st4">tetR</text>
<path class="st5" d="M285.1,122.7"/>
<path class="st5" d="M217.1,122.7"/>
<path class="st5" d="M217.1,122.7"/>
<path class="st2" d="M146.8,117.2c0-10.5,8.5-18.9,18.9-18.9c10.5,0,18.9,8.5,18.9,18.9"/>
</svg>
