<?xml version="1.0" encoding="utf-8"?>
<!-- Generator: Adobe Illustrator 25.2.1, SVG Export Plug-In . SVG Version: 6.00 Build 0)  -->
<svg version="1.1" id="图层_1" xmlns="http://www.w3.org/2000/svg" xmlns:xlink="http://www.w3.org/1999/xlink" x="0px" y="0px"
	 viewBox="0 0 2802.7 747.9" style="enable-background:new 0 0 2802.7 747.9;" xml:space="preserve">
<style type="text/css">
	.st0{fill:none;stroke:#F4D03F;stroke-miterlimit:10;}
	.st1{fill:#A7E8ED;}
	.st2{fill:#C4E3E6;}
	.st3{fill:#A3C3E1;}
	.st4{fill:#F7E6D6;}
	.st5{fill:none;}
	.st6{fill:none;stroke:#000000;stroke-miterlimit:10;}
	.st7{fill:#255887;}
	.st8{fill:#B0CE94;}
	.st9{fill:#F9D878;}
	.st10{fill:#A3C3E1;stroke:#C4C1E0;stroke-miterlimit:10;}
</style>
<symbol  id="剪切" viewBox="-27.8 -32 55.6 64">
	<path d="M16.3-9c-2.4,0-4.7-0.8-6.5-2l-4,4.6c2.9,1.1,6,2.8,7.7,5.1c4,5.3,13.2,18,14,21.5S26.3,32,26.3,32L0,0.6L-26.4,32
		c0,0-2-8.2-1.2-11.8c0.8-3.5,10-16.2,14-21.5c1.8-2.3,4.8-4,7.7-5.1L-9.8-11c-1.9,1.3-4.1,2-6.5,2c-6.4,0-11.5-5.1-11.5-11.5
		c0-6.3,5.1-11.5,11.5-11.5s11.5,5.2,11.5,11.5c0,2.2-0.6,4.2-1.6,5.9l5.2,6.2c0,0,0.4,0.1,1.2,0.2c0.7-0.2,1.2-0.2,1.2-0.2l5.2-6.2
		c-1-1.7-1.6-3.7-1.6-5.9C4.8-26.8,9.9-32,16.3-32s11.5,5.2,11.5,11.5C27.8-14.1,22.6-9,16.3-9z M-16.3-26c-3,0-5.5,2.5-5.5,5.5
		s2.5,5.5,5.5,5.5s5.5-2.5,5.5-5.5S-13.2-26-16.3-26z M16.3-26c-3,0-5.5,2.5-5.5,5.5s2.5,5.5,5.5,5.5s5.5-2.5,5.5-5.5
		S19.3-26,16.3-26z"/>
</symbol>
<g id="图层_2_1_">
	<path class="st0" d="M2775.4,747.9H1464c-15.1,0-27.3-12.2-27.3-27.3V29.4c0-15.1,12.2-27.3,27.3-27.3h1311.4
		c15.1,0,27.3,12.2,27.3,27.3v691.3C2802.7,735.7,2790.5,747.9,2775.4,747.9z"/>
</g>
<g id="图层_1_1_">
	<path class="st1" d="M2341.8,360.6"/>
	<path class="st2" d="M2425,321.2c-84.4,420.1-781.6,168.9-553.6-31.7c65.6-57.8,189,7.5,194.3-9.2c72.5-231.2,371.9-189.2,359.7,41
		"/>
</g>
<g id="图层_3">
	<polygon class="st3" points="2802,382.4 2254.8,381.1 2219.7,345.9 1988.6,347.3 1948.1,383.8 1437.3,383.8 1436.7,362.8 
		1937.3,363.3 1976.5,325.7 2232.7,325.7 2267.9,363.3 2802.7,362.8 	"/>
	<g>
		<g>
			<path d="M2015.1,358.1h-8.5c-0.1,1.1-0.5,3.2-0.6,4.1c0.8-0.7,2-1.1,3.8-1.1c4.2,0,6.6,3,6.6,7.1s-2.3,7.9-8,7.9
				c-4.2,0-7.3-2.2-7.8-6h4.6c0.4,1.5,1.4,2.4,3.3,2.4c2.2,0,3.3-1.6,3.3-4c0-2.2-0.8-3.8-3.3-3.8c-2,0-2.8,0.9-3.3,2.1l-4.2-0.5
				c0.6-2.7,1.5-9,1.8-12h13L2015.1,358.1z"/>
			<path d="M2018.8,361.6c0.9-3.1,1.5-7,1.5-9.6h4.9c-0.2,3.1-1.3,7-2.7,9.6H2018.8z"/>
		</g>
	</g>
</g>
<g id="图层_3_x5F_复制">
	<polygon class="st3" points="2802,406.8 2254.8,408.1 2219.7,443.2 1988.6,441.9 1948.1,405.4 1437.3,405.4 1436.7,426.3 
		1937.3,425.9 1976.5,463.5 2232.7,463.5 2267.9,425.9 2802.7,426.3 	"/>
</g>
<g id="图层_5">
	<ellipse class="st4" cx="2203.5" cy="453.4" rx="16.9" ry="10.8"/>
	<line class="st5" x1="2243.3" y1="257.4" x2="2341.9" y2="254.7"/>
	<g>
		<g>
			<path d="M2045,284.3c-0.5,3.1-2.5,6.3-8.4,6.3c-6,0-8.6-3.9-8.6-8.8c0-5.1,3.2-9.1,8.8-9.1c6.4,0,8,4.3,8.1,6.4h-6
				c-0.2-1.2-0.7-2.1-2.1-2.1c-1.6,0-2.4,1.5-2.4,4.6c0,3.5,0.9,4.8,2.4,4.8c1.3,0,1.8-1,2.1-2.1L2045,284.3L2045,284.3z"/>
			<path d="M2047.6,278c0-1.6,0-3.4,0-4.9h6.2c0.1,0.5,0.2,2,0.2,2.8c0.7-1.6,2.3-3.2,5.2-3.2v5.8c-3.6-0.2-5.2,0.7-5.2,4.6v7h-6.3
				V278H2047.6z"/>
			<path d="M2068.4,281.7v8.4h-6.4v-22.3h11.1c5.3,0,7.8,2.8,7.8,6.2c0,3.1-1.8,4.7-3.4,5.3c1.4,0.5,2.9,2,2.9,5.8v0.9
				c0,1.4,0,3.2,0.3,4.2h-6.2c-0.4-1-0.5-2.6-0.5-4.9v-0.6c0-1.9-0.5-3-3.3-3H2068.4z M2068.4,277.2h3c2.2,0,3-0.9,3-2.4
				s-0.9-2.4-2.9-2.4h-3.1V277.2z"/>
			<path d="M2084.5,290.2v-22.3h7.8c2.3,5,5.8,11.8,6.7,14.6h0.1c-0.2-2.3-0.3-6.3-0.3-9.8v-4.8h6v22.3h-7.5c-1.9-4-5.9-12.4-7-15.4
				h-0.1c0.2,2.1,0.2,6.4,0.2,10.4v5L2084.5,290.2L2084.5,290.2z"/>
			<path d="M2114.9,285.8l-1.3,4.3h-6.4l7.1-22.3h8.5l7.3,22.3h-6.8l-1.4-4.3H2114.9z M2120.8,281c-1-3.5-1.9-6.6-2.4-8.8h-0.1
				c-0.5,2.4-1.4,5.6-2.3,8.8H2120.8z"/>
		</g>
	</g>
	<g>
		<g>
			<path d="M1797.6,275.2c-0.8,4.7-4.2,7.8-10.4,7.8c-7.3,0-10.8-4.9-10.8-11.4c0-6.3,3.5-11.7,11.2-11.7c6.6,0,9.6,3.8,10,7.7h-6.5
				c-0.3-1.6-1.2-3.1-3.6-3.1c-3.2,0-4.3,3-4.3,6.9c0,3.5,0.9,7,4.3,7c2.6,0,3.3-1.9,3.6-3.2L1797.6,275.2L1797.6,275.2z"/>
			<path d="M1816.2,277.5c0,1.9,0.1,4.5,0.2,5h-5.8c-0.1-0.3-0.2-1.2-0.3-1.6c-0.8,1.1-2.1,2-4.8,2c-3.8,0-5.9-2.4-5.9-5.4
				c0-4,3.2-5.7,8.4-5.7c0.6,0,1.5,0,2.1,0v-0.9c0-1.1-0.4-1.9-1.9-1.9c-1.4,0-1.8,0.7-2,1.8h-5.8c0.2-2.8,1.9-5.6,8-5.6
				c5.6,0,7.8,2.2,7.8,6.3L1816.2,277.5L1816.2,277.5z M1810.1,275c-0.3,0-0.9,0-1.4,0c-2.2,0-2.9,0.8-2.9,2c0,1,0.6,1.8,1.9,1.8
				c2.1,0,2.4-1.5,2.4-3.3V275z"/>
			<path d="M1824.7,277.3c0.3,1.1,1.2,1.7,2.6,1.7c1.2,0,1.8-0.4,1.8-1.2c0-0.8-0.7-1.1-3-1.6c-5.9-1.3-6.7-3.2-6.7-5.6
				c0-2.5,1.7-5.4,7.5-5.4c5.5,0,7.5,2.8,7.7,5.2h-5.7c-0.1-0.6-0.5-1.5-2.2-1.5c-1.1,0-1.5,0.5-1.5,1c0,0.7,0.6,1,3.3,1.6
				c5.4,1.2,6.6,3.1,6.6,5.8c0,3-2.2,5.7-8,5.7c-5.5,0-7.9-2.7-8.2-5.7H1824.7z"/>
			<path d="M1843.5,277c0.3,1,0.8,1.7,2.2,1.7c2.2,0,2.5-2.7,2.6-5c-0.9,1-2.5,1.5-4.2,1.5c-4.3,0-7-2.8-7-6.8
				c0-4.4,3.1-7.6,8.6-7.6c6.5,0,8.9,4.7,8.9,10.2c0,6-1.8,12-9,12c-5.8,0-7.8-3.4-8.2-6L1843.5,277L1843.5,277z M1843.5,268
				c0,1.8,0.8,3,2.4,3c1.6,0,2.3-1.1,2.3-2.9c0-1.6-0.5-3-2.4-3C1844.2,265,1843.5,266.2,1843.5,268z"/>
		</g>
	</g>
	<g>
		<g>
			<path d="M2261.3,476.4h10.3c5,0,8.4,2.8,8.4,7.2c0,5-3.9,7.3-8.6,7.3h-3.7v7.8h-6.5v-22.3H2261.3z M2267.7,486.3h2.7
				c1.8,0,3.2-0.8,3.2-2.6c0-1.9-1.3-2.7-3.1-2.7h-2.8V486.3z"/>
			<path d="M2289,494.4l-1.3,4.3h-6.4l7.1-22.3h8.5l7.3,22.3h-6.8l-1.4-4.3H2289z M2294.8,489.5c-1-3.5-1.9-6.6-2.4-8.8h-0.1
				c-0.5,2.4-1.4,5.6-2.3,8.8H2294.8z"/>
			<path d="M2325.3,491.4c0-3.5,0.1-8,0.2-10.6h-0.2c-0.9,4.8-2.4,11.4-4.1,17.9h-5.2c-1.3-6.3-2.7-13-3.6-17.9h-0.2
				c0.2,2.6,0.3,7,0.3,10.8v7.1h-5.8v-22.3h9.4c1.1,4.5,2.4,11.1,2.9,14.4h0.1c0.6-3.6,2.1-9.5,3.4-14.4h9.2v22.3h-6.3v-7.3H2325.3z
				"/>
		</g>
	</g>
	<g>
		<g>
			<path d="M1919.5,194.6v-23.5h6.3v23.5H1919.5z"/>
			<path d="M1929.4,171.1h6.3v4.4h-6.3V171.1z M1929.4,177.6h6.3v17h-6.3V177.6z"/>
			<path d="M1939.3,182c0-1.5,0-3.1,0-4.4h6.2c0.1,0.4,0.2,1.4,0.2,1.9c0.7-1,2.1-2.3,4.8-2.3c3.4,0,5.6,2.3,5.6,6.5v11h-6.4v-10.2
				c0-1.6-0.5-2.6-1.9-2.6c-1.3,0-2.1,0.7-2.1,3.1v9.7h-6.3V182H1939.3z"/>
			<path d="M1965.9,184.1c1-1.6,2.6-3.9,4.4-6.5h7.1l-5.4,6.4c0.6,1.3,5.3,9.4,5.8,10.6h-7.1c-0.1-0.4-3-6.3-3.1-6.6l-1.8,1.8v4.8
				h-6.3v-23.5h6.3L1965.9,184.1L1965.9,184.1z"/>
			<path d="M1984.8,187.4c0,1.7,0.7,3.4,2.5,3.4c1.5,0,1.9-0.6,2.2-1.5h6.2c-0.6,2.3-2.5,5.8-8.6,5.8c-6.4,0-8.8-4.3-8.8-8.8
				c0-5.1,2.7-9.1,8.9-9.1c6.6,0,8.6,4.5,8.6,8.7c0,0.6,0,1-0.1,1.5L1984.8,187.4L1984.8,187.4z M1989.6,184.1
				c0-1.6-0.5-2.9-2.3-2.9c-1.7,0-2.3,1.2-2.4,2.9H1989.6z"/>
			<path d="M1998.7,182.5c0-1.6,0-3.4,0-4.9h6.2c0.1,0.5,0.2,2,0.2,2.8c0.7-1.6,2.3-3.2,5.2-3.2v5.8c-3.6-0.2-5.2,0.7-5.2,4.6v7
				h-6.4V182.5z"/>
			<path d="M2019.9,194.6v-23.5h6.3v23.5H2019.9z"/>
			<path d="M2047.2,186.1c0,5.3-3.3,8.9-9.1,8.9c-6,0-9-4-9-8.9c0-5.1,3.1-9,9.2-9C2043.8,177.2,2047.2,180.9,2047.2,186.1z
				 M2035.5,186.1c0,3.2,1,4.7,2.6,4.7c1.7,0,2.6-1.4,2.6-4.6c0-3.5-0.9-4.7-2.6-4.7C2036.5,181.5,2035.5,182.6,2035.5,186.1z"/>
			<path d="M2067.4,186.1c0,5.3-3.3,8.9-9.1,8.9c-6,0-9-4-9-8.9c0-5.1,3.1-9,9.2-9C2064,177.2,2067.4,180.9,2067.4,186.1z
				 M2055.7,186.1c0,3.2,1,4.7,2.6,4.7c1.7,0,2.6-1.4,2.6-4.6c0-3.5-0.9-4.7-2.6-4.7C2056.7,181.5,2055.7,182.6,2055.7,186.1z"/>
			<path d="M2076.5,193.4v7.4h-6.3v-18.6c0-1.5,0-3.4,0-4.6h6.1c0.1,0.4,0.2,1.4,0.2,1.9c0.7-1,2-2.3,4.8-2.3c3.6,0,6.7,3,6.7,8.5
				c0,6.3-3.5,9.3-7.5,9.3C2078.3,195,2077.1,194.3,2076.5,193.4z M2081.5,186c0-3.1-1-4.3-2.6-4.3c-2,0-2.6,1.4-2.6,4.5
				c0,2.9,0.6,4.5,2.5,4.5C2080.6,190.6,2081.5,189.2,2081.5,186z"/>
		</g>
	</g>
	<polyline class="st6" points="2093.3,182.7 2119.7,182.7 2128.3,191.2 	"/>
</g>
<g id="图层_9">
	<g>
		<defs>
			
				<rect id="SVGID_5_" x="2156.8" y="456.3" transform="matrix(0.5842 -0.8116 0.8116 0.5842 525.1594 1953.6504)" width="25.3" height="15.8"/>
		</defs>
		<clipPath id="SVGID_1_">
			<use xlink:href="#SVGID_5_"  style="overflow:visible;"/>
		</clipPath>
		<g transform="matrix(1 2.980232e-08 0 1 0 6.103516e-05)" style="clip-path:url(#SVGID_1_);">
			
				<use xlink:href="#剪切"  width="55.6" height="64" x="-27.8" y="-32" transform="matrix(-0.2317 -0.1668 0.231 -0.3209 2169.5381 464.3431)" style="overflow:visible;"/>
		</g>
	</g>
	<g>
		<defs>
			
				<rect id="SVGID_7_" x="2150.8" y="312.5" transform="matrix(0.8528 -0.5222 0.5222 0.8528 147.9355 1175.1588)" width="15.8" height="25.3"/>
		</defs>
		<clipPath id="SVGID_2_">
			<use xlink:href="#SVGID_7_"  style="overflow:visible;"/>
		</clipPath>
		<g transform="matrix(1 0 -2.980232e-08 1 0 -6.103516e-05)" style="clip-path:url(#SVGID_2_);">
			
				<use xlink:href="#剪切"  width="55.6" height="64" x="-27.8" y="-32" transform="matrix(0.2435 -0.1491 0.2065 0.3372 2158.627 325.2161)" style="overflow:visible;"/>
		</g>
	</g>
</g>
<g id="图层_10">
	<g>
		<g>
			<path class="st7" d="M1475.9,696.3c1.1-0.2,2.8-0.4,4.5-0.4c2.5,0,4.1,0.4,5.3,1.4c1,0.8,1.6,1.9,1.6,3.4c0,1.8-1.2,3.5-3.2,4.2
				v0.1c1.8,0.4,3.9,1.9,3.9,4.8c0,1.6-0.6,2.9-1.6,3.8c-1.3,1.2-3.5,1.8-6.6,1.8c-1.7,0-3-0.1-3.8-0.2L1475.9,696.3L1475.9,696.3z
				 M1478.4,704.1h2.3c2.6,0,4.1-1.4,4.1-3.2c0-2.2-1.7-3.1-4.2-3.1c-1.1,0-1.8,0.1-2.2,0.2C1478.4,698,1478.4,704.1,1478.4,704.1z
				 M1478.4,713.3c0.5,0.1,1.2,0.1,2.1,0.1c2.6,0,4.9-0.9,4.9-3.7c0-2.6-2.3-3.7-4.9-3.7h-2.1V713.3z"/>
			<path class="st7" d="M1490.6,713.7c0-1,0.7-1.8,1.7-1.8s1.7,0.7,1.7,1.8c0,1-0.7,1.8-1.7,1.8
				C1491.3,715.5,1490.6,714.7,1490.6,713.7z"/>
			<path class="st7" d="M1502.9,712.2c1.1,0.7,2.7,1.2,4.4,1.2c2.5,0,4-1.3,4-3.3c0-1.8-1-2.8-3.6-3.8c-3.1-1.1-5.1-2.7-5.1-5.4
				c0-3,2.5-5.2,6.2-5.2c1.9,0,3.4,0.5,4.2,0.9l-0.7,2c-0.6-0.4-1.9-0.9-3.6-0.9c-2.6,0-3.6,1.6-3.6,2.9c0,1.8,1.2,2.7,3.8,3.7
				c3.2,1.3,4.9,2.8,4.9,5.6c0,2.9-2.2,5.5-6.7,5.5c-1.8,0-3.9-0.6-4.9-1.2L1502.9,712.2z"/>
			<path class="st7" d="M1519.9,697.6c0,0.8-0.6,1.6-1.6,1.6c-0.9,0-1.5-0.7-1.5-1.6c0-0.9,0.6-1.6,1.6-1.6
				C1519.3,696,1519.9,696.7,1519.9,697.6z M1517.1,715.2v-13.7h2.5v13.7H1517.1z"/>
			<path class="st7" d="M1523.8,705.1c0-1.4,0-2.6-0.1-3.7h2.2l0.1,2.3h0.1c0.7-1.3,2.3-2.6,4.5-2.6c1.9,0,4.8,1.1,4.8,5.8v8.2h-2.5
				v-7.9c0-2.2-0.8-4.1-3.2-4.1c-1.6,0-2.9,1.2-3.4,2.6c-0.1,0.3-0.2,0.7-0.2,1.2v8.3h-2.5v-10.1H1523.8z"/>
			<path class="st7" d="M1551.3,701.4c-0.1,1-0.1,2.1-0.1,3.8v8c0,3.2-0.6,5.1-2,6.3c-1.3,1.2-3.3,1.6-5,1.6c-1.7,0-3.5-0.4-4.6-1.1
				l0.6-1.9c0.9,0.6,2.3,1.1,4,1.1c2.5,0,4.4-1.3,4.4-4.8v-1.5h0.1c-0.8,1.3-2.2,2.3-4.4,2.3c-3.4,0-5.9-2.9-5.9-6.7
				c0-4.7,3-7.3,6.2-7.3c2.4,0,3.7,1.2,4.3,2.4h0.1l0.1-2.1L1551.3,701.4L1551.3,701.4z M1548.7,706.8c0-0.4,0-0.8-0.1-1.1
				c-0.5-1.5-1.7-2.7-3.5-2.7c-2.4,0-4.1,2-4.1,5.2c0,2.7,1.4,4.9,4.1,4.9c1.5,0,2.9-1,3.5-2.6c0.1-0.4,0.2-0.9,0.2-1.3
				L1548.7,706.8L1548.7,706.8z"/>
			<path class="st7" d="M1555.4,695h2.5v20.2h-2.5V695z"/>
			<path class="st7" d="M1563.5,708.8c0,3.4,2.2,4.8,4.7,4.8c1.8,0,2.9-0.3,3.8-0.7l0.4,1.8c-0.9,0.4-2.4,0.9-4.6,0.9
				c-4.2,0-6.8-2.8-6.8-6.9c0-4.2,2.5-7.4,6.5-7.4c4.5,0,5.6,3.9,5.6,6.5c0,0.5,0,0.9-0.1,1.2h-9.5V708.8z M1570.8,707
				c0-1.6-0.6-4-3.4-4c-2.5,0-3.6,2.3-3.8,4H1570.8z"/>
			<path class="st7" d="M1594.1,701.4c-0.1,1-0.1,2.1-0.1,3.8v8c0,3.2-0.6,5.1-2,6.3c-1.3,1.2-3.3,1.6-5,1.6c-1.7,0-3.5-0.4-4.6-1.1
				l0.6-1.9c0.9,0.6,2.3,1.1,4,1.1c2.5,0,4.4-1.3,4.4-4.8v-1.5h-0.1c-0.8,1.3-2.2,2.3-4.4,2.3c-3.4,0-5.9-2.9-5.9-6.7
				c0-4.7,3-7.3,6.2-7.3c2.4,0,3.7,1.2,4.3,2.4h0.1l0.1-2.1L1594.1,701.4L1594.1,701.4z M1591.5,706.8c0-0.4,0-0.8-0.1-1.1
				c-0.5-1.5-1.7-2.7-3.5-2.7c-2.4,0-4.1,2-4.1,5.2c0,2.7,1.4,4.9,4.1,4.9c1.5,0,2.9-1,3.5-2.6c0.1-0.4,0.2-0.9,0.2-1.3
				L1591.5,706.8L1591.5,706.8z"/>
			<path class="st7" d="M1609.6,711.4c0,1.4,0,2.7,0.1,3.8h-2.2l-0.1-2.2h-0.1c-0.6,1.1-2.1,2.6-4.5,2.6c-2.1,0-4.7-1.2-4.7-6v-8
				h2.5v7.6c0,2.6,0.8,4.4,3.1,4.4c1.7,0,2.8-1.2,3.3-2.3c0.1-0.4,0.2-0.8,0.2-1.3v-8.4h2.5L1609.6,711.4L1609.6,711.4z"/>
			<path class="st7" d="M1616.6,697.6c0,0.8-0.6,1.6-1.6,1.6c-0.9,0-1.5-0.7-1.5-1.6c0-0.9,0.6-1.6,1.6-1.6
				C1616,696,1616.6,696.7,1616.6,697.6z M1613.8,715.2v-13.7h2.5v13.7H1613.8z"/>
			<path class="st7" d="M1632.3,695v16.6c0,1.2,0,2.6,0.1,3.5h-2.2l-0.1-2.4h-0.1c-0.8,1.5-2.4,2.7-4.7,2.7c-3.3,0-5.9-2.8-5.9-7
				c0-4.6,2.8-7.4,6.2-7.4c2.1,0,3.5,1,4.1,2.1h0.1v-8.2h2.5V695z M1629.8,707c0-0.3,0-0.7-0.1-1.1c-0.4-1.6-1.7-2.9-3.6-2.9
				c-2.6,0-4.1,2.3-4.1,5.3c0,2.8,1.4,5.1,4.1,5.1c1.7,0,3.2-1.1,3.6-3c0.1-0.3,0.1-0.7,0.1-1.1V707z"/>
			<path class="st7" d="M1637.8,708.8c0,3.4,2.2,4.8,4.7,4.8c1.8,0,2.9-0.3,3.8-0.7l0.4,1.8c-0.9,0.4-2.4,0.9-4.6,0.9
				c-4.2,0-6.8-2.8-6.8-6.9c0-4.2,2.5-7.4,6.5-7.4c4.5,0,5.6,3.9,5.6,6.5c0,0.5,0,0.9-0.1,1.2h-9.5V708.8z M1645.1,707
				c0-1.6-0.6-4-3.4-4c-2.5,0-3.6,2.3-3.8,4H1645.1z"/>
			<path class="st7" d="M1656.7,696.3c1.3-0.3,3.1-0.4,4.8-0.4c2.6,0,4.4,0.5,5.5,1.6c0.9,0.8,1.5,2.1,1.5,3.6
				c0,2.5-1.6,4.2-3.6,4.9v0.1c1.5,0.5,2.3,1.9,2.8,3.9c0.6,2.7,1.1,4.5,1.5,5.2h-2.6c-0.3-0.6-0.7-2.2-1.3-4.6
				c-0.6-2.6-1.6-3.6-3.8-3.7h-2.3v8.3h-2.5V696.3z M1659.2,705h2.5c2.6,0,4.3-1.4,4.3-3.6c0-2.5-1.8-3.6-4.4-3.6
				c-1.2,0-2,0.1-2.4,0.2V705L1659.2,705z"/>
			<path class="st7" d="M1672,715.2v-19.1h2.7l6.1,9.7c1.4,2.2,2.5,4.3,3.4,6.2h0.1c-0.2-2.6-0.3-4.9-0.3-7.8v-8h2.3v19.1h-2.5
				l-6.1-9.7c-1.3-2.1-2.6-4.3-3.6-6.4h-0.1c0.1,2.4,0.2,4.7,0.2,7.9v8.2h-2.2V715.2z"/>
			<path class="st7" d="M1693.8,709.2l-2,6h-2.6l6.5-19.1h3l6.5,19.1h-2.6l-2-6H1693.8z M1700.1,707.2l-1.9-5.5
				c-0.4-1.3-0.7-2.4-1-3.5h-0.1c-0.3,1.1-0.6,2.3-0.9,3.5l-1.9,5.5H1700.1z"/>
		</g>
	</g>
</g>
<g id="图层_7">
	<path class="st8" d="M2229.8,334.5c-5.3-8.2-57.3-54.3-65.1-62.3c-9.1-8.2,4.1-22.4,12.9-13.8l54.6,51c1,1,2,1.9,2.9,2.7
		c34.9,28.6,2.6,63.1-43.8,60.2h-154.7c-5.2,0-9.5-4.2-9.5-9.5c0-5.2,4.2-9.5,9.5-9.5c19.7-1.3,169,3.6,183.8-4.1
		c3.5-2,6.7-5.3,9.5-8.1L2229.8,334.5L2229.8,334.5z"/>
	<g id="图层_6">
		<path class="st5" d="M2341.9,254.7"/>
		<path class="st9" d="M2344.1,256.9c-7.9-3.3-15-11.2-17.5-15.7c-0.7-1.2-1-2.6-1-4c0-2.6,0.4-5,0.9-7.5c1.1-5.6,2.5-12.6-2.1-20.3
			c-9.3-15.6-35.3-20.5-53.4-10.1l-0.5,0.3l-0.5,0.4c-5.5,4.1-22.1,16.8-20.1,33.2c1.4,11.5,11.2,21.1,30,29.3
			c0.3,0.1,0.6,0.3,0.9,0.4c13.9,7.9,28.5,29.8,31.5,43.4c0.8,3.4-0.7,7-3.7,8.9c-1,0.6-2.1,1.3-3.3,1.7c-5.1,2-13-0.3-19.2-5.6
			L2202,231c-3.5-3.3-8.9-3.2-12.2,0.3l-0.1,0.1l0.9-0.9c-3.4,3.5-5,10.9-1.5,14.3l84.1,80.4l0.3,0.3c8.3,7.2,18.3,11.1,27.7,11.1
			c3.9,0,7.6-0.7,11.1-2.1c9.7-3.9,19.5-12.7,19.5-23.6c0-20.6-22-54.1-42.9-65.1l-0.7-0.3c-17.4-7.4-19.3-13.1-19.5-14.6
			c-0.2-1.3,0.2-6,11.5-14.8c0.5-0.4,1-0.7,1.6-1c4.5-2.2,10-2.8,15.5-1.8c5,0.9,9.3,3.3,10.9,5.9c0.8,1.3,0.7,2.3-0.2,7
			c-0.8,3.9-1.7,8.8-1.1,14.8c1.1,11.1,14.2,26.3,28.3,32.8c0.4,0.2,0.8,0.4,1.3,0.5c20.4,6.2,23.1,4.9,26.6-1.5
			c0-0.1,0.1-0.1,0.1-0.2l0,0c0.2-1.3,0.1-2.7-0.5-3.9c-1.1-2.2-3-3.9-5.4-4.7L2344.1,256.9z"/>
		<line class="st5" x1="2172.4" y1="183" x2="2168.1" y2="281.6"/>
		<path class="st5" d="M2168.1,281.6"/>
		<path class="st9" d="M2175.9,224.2c0,0.1,0,0.1,0,0.2c-0.1,3.4,8.8,18.7,12.1,19.6c0.4,0.1,0.8,0.3,1.4,0.6
			c0.4-0.6,0.9-1.2,1.5-1.6c-0.3-0.4-0.6-0.9-0.9-1.3c-1.6-2.2,3.6-0.8,6.2-1.7c1.1-0.4-2.7-4.3-2.2-4c0.2,0.1,0.6,0.2,1.2,0.3
			c3,0.6,5.4-1.4,5.4-4.4c0-2.4,0.2-2.3-0.4-2.7c-1.7-1.3-3.9-3.6-2.7-5.4l0,0c2.4-20.1-2.7-33.6-11.9-40.6
			c-13.1-10.1-32.9-1.7-39.3,0.9l-0.6,0.2l-0.5,0.3c-18.1,10.3-27.1,35.2-18.3,51.1c4.3,7.9,11,10.3,16.5,12.2c2.4,0.9,4.8,1.7,7,3
			c1.2,0.7,2.2,1.7,2.9,2.9c0.3,0.6,0.7,1.2,1,1.9c1.1,2.3,4.2,10.6,6.7,11.2c0.9,2,6.8,4.1,4.1,3.1c0,0,4,0.9,5.4,0.9
			c1.4,0,6.8-4.1,6.8-6.8v-2.3c0-2.1-0.5-4.1-1.4-5.9c-1.4-3-3.6-7.4-4.6-9.4c-2.2-4.5-4.9-8.3-7.9-10.5c-4.9-3.6-10-4.8-13.7-6.2
			c-4.5-1.6-5.4-2.1-6.1-3.4c-1.5-2.7-1.3-7.6,0.4-12.4c1.4-3.7,3.5-7.1,6.2-9.7c2-2,4.5-3.4,7.1-4.4c11.6-4.1,15.4-2.3,16.4-1.5
			c1.2,0.9,4.7,6.5,2.4,24.9C2175.9,223.7,2175.9,223.9,2175.9,224.2z"/>
	</g>
	<g id="图层_8">
		<g>
			<g>
				<path d="M2378.8,277.7c0.3-2.7,2-6.2,8.2-6.2c5.3,0,7.8,2.8,7.8,5.9c0,2.5-1.5,3.7-2.8,4.3v0.1c1.3,0.5,3.6,1.7,3.6,5
					c0,3.4-2.3,6.8-8.7,6.8c-6.8,0-8.4-4-8.6-6.5h5.9c0.2,1.2,0.9,2.3,2.6,2.3c1.6,0,2.4-1.1,2.4-2.7c0-1.8-0.8-2.7-3-2.7h-1.9v-4.2
					h1.8c2,0,2.6-0.6,2.6-2.1c0-1.2-0.6-2-2-2c-1.6,0-2.1,0.9-2.2,2L2378.8,277.7L2378.8,277.7z"/>
				<path d="M2397.9,279.8c0.8-2.9,1.3-6.5,1.4-10h5.8c-0.2,3.2-1.2,7.2-2.8,10H2397.9z"/>
			</g>
		</g>
		<g>
			<g>
				<path d="M2378.7,329.6h2.4v-4.4h6.3v4.4h3v4.3h-3v7.3c0,1.1,0.3,1.5,1.7,1.5c0.2,0,0.5,0,0.9,0v3.9c-1,0.3-2.6,0.4-3.7,0.4
					c-4,0-5.1-2-5.1-5.2V334h-2.5V329.6z"/>
				<path d="M2393,334.5c0-1.6,0-3.4,0-4.9h6.2c0.1,0.5,0.2,2,0.2,2.8c0.7-1.6,2.3-3.2,5.2-3.2v5.8c-3.6-0.2-5.2,0.7-5.2,4.6v7h-6.3
					v-12.1H2393z"/>
				<path d="M2422.6,341.6c0,1.9,0.1,4.5,0.2,5h-5.8c-0.1-0.3-0.2-1.2-0.3-1.6c-0.8,1.1-2.1,2-4.8,2c-3.8,0-5.9-2.4-5.9-5.4
					c0-4,3.2-5.7,8.4-5.7c0.6,0,1.5,0,2.1,0V335c0-1.1-0.4-1.9-1.9-1.9c-1.4,0-1.8,0.7-2,1.8h-5.8c0.2-2.8,1.9-5.6,8-5.6
					c5.6,0,7.8,2.2,7.8,6.3V341.6z M2416.6,339.1c-0.3,0-0.9,0-1.4,0c-2.2,0-2.9,0.8-2.9,2c0,1,0.6,1.8,1.9,1.8
					c2.1,0,2.4-1.5,2.4-3.3V339.1z"/>
				<path d="M2442.5,340.7c-0.5,3.1-2.5,6.3-8.4,6.3c-6,0-8.6-3.9-8.6-8.8c0-5.1,3.2-9.1,8.8-9.1c6.4,0,8,4.3,8.1,6.4h-6
					c-0.2-1.2-0.7-2.1-2.1-2.1c-1.6,0-2.4,1.5-2.4,4.6c0,3.5,0.9,4.8,2.4,4.8c1.3,0,1.8-1,2.1-2.1L2442.5,340.7L2442.5,340.7z"/>
				<path d="M2445.1,334.5c0-1.6,0-3.4,0-4.9h6.2c0.1,0.5,0.2,2,0.2,2.8c0.7-1.6,2.3-3.2,5.2-3.2v5.8c-3.6-0.2-5.2,0.7-5.2,4.6v7
					h-6.3L2445.1,334.5L2445.1,334.5z"/>
				<path d="M2465.9,338.2v8.4h-6.4v-22.3h11.1c5.3,0,7.8,2.8,7.8,6.2c0,3.1-1.8,4.7-3.4,5.3c1.4,0.5,2.9,2,2.9,5.8v0.9
					c0,1.4,0,3.2,0.3,4.2h-6.2c-0.4-1-0.5-2.6-0.5-4.9v-0.6c0-1.9-0.5-3-3.3-3H2465.9z M2465.9,333.6h3c2.2,0,3-0.9,3-2.4
					s-0.9-2.4-2.9-2.4h-3.1V333.6z"/>
				<path d="M2482,346.6v-22.3h7.8c2.3,5,5.8,11.8,6.7,14.6h0.1c-0.2-2.3-0.3-6.3-0.3-9.8v-4.8h6v22.3h-7.5c-1.9-4-5.9-12.4-7-15.4
					h-0.1c0.2,2.1,0.2,6.4,0.2,10.4v5L2482,346.6L2482,346.6z"/>
				<path d="M2512.4,342.3l-1.3,4.3h-6.4l7.1-22.3h8.5l7.3,22.3h-6.8l-1.4-4.3H2512.4z M2518.2,337.4c-1-3.5-1.9-6.6-2.4-8.8h-0.1
					c-0.5,2.4-1.4,5.6-2.3,8.8H2518.2z"/>
			</g>
		</g>
		<polyline class="st6" points="2362.2,336.5 2339.9,336.5 2335.9,328.4 		"/>
		<polyline class="st6" points="2137.9,283.7 2157.1,283.7 2163.6,278.4 		"/>
		<polyline class="st6" points="2212.2,471.8 2221.2,482.4 2250.1,482.4 		"/>
	</g>
</g>
<g id="图层_2_2_">
	<path class="st0" d="M1337.2,745H27.3C12.2,745,0,732.8,0,717.7V27.3C0,12.2,12.2,0,27.3,0h1309.9c15.1,0,27.3,12.2,27.3,27.3
		v690.4C1364.5,732.8,1352.3,745,1337.2,745z"/>
</g>
<g id="图层_1_2_">
	<path class="st1" d="M904.1,358.1"/>
	<path class="st2" d="M987.2,317.3c-83,422.3-768.4,169.7-544.3-31.9c64.5-58.1,185.9,7.6,191-9.3C705.2,43.8,999.6,86,987.6,317.4"
		/>
</g>
<g id="图层_3_1_">
	<polygon class="st10" points="1363.8,379.9 817.2,378.6 782.1,343.5 551.3,344.8 510.8,381.3 0.6,381.3 0,360.3 500.1,360.8 
		539.2,323.2 795.1,323.2 830.2,360.8 1364.5,360.3 	"/>
	<g>
		<g>
			<path d="M569.4,356.5h-8.7c-0.1,0.7-0.4,2.5-0.5,3c0.8-0.5,2-0.9,3.7-0.9c4.4,0,6.9,3,6.9,7c0,4.4-2.7,7.9-8.7,7.9
				c-5.2,0-8.2-2.6-8.6-6.4h6.1c0.3,1.2,1,2.1,2.5,2.1c1.7,0,2.4-1.4,2.4-3.3c0-2-0.6-3.2-2.5-3.2c-1.5,0-2.1,0.7-2.5,1.7L554,364
				c0.5-2.6,1.5-9.2,1.8-12.2h14.5L569.4,356.5z"/>
			<path d="M573.2,359.6c0.8-2.9,1.3-6.5,1.4-10h5.8c-0.2,3.2-1.2,7.2-2.8,10H573.2z"/>
		</g>
	</g>
</g>
<g id="图层_3_x5F_复制_1_">
	<polygon class="st10" points="1363.8,404.2 817.2,405.6 782.1,440.6 551.3,439.3 510.8,402.9 0.6,402.9 0,423.8 500.1,423.3 
		539.2,460.9 795.1,460.9 830.2,423.3 1364.5,423.8 	"/>
</g>
<g id="图层_5_1_">
	<ellipse class="st4" cx="765.9" cy="450.8" rx="16.9" ry="10.8"/>
	<line class="st5" x1="805.7" y1="255.1" x2="904.3" y2="252.4"/>
	<g>
		<g>
			<path d="M592.8,271.1c-0.5,3.1-2.5,6.3-8.3,6.3c-6,0-8.6-3.9-8.6-8.8c0-5.1,3.2-9.1,8.8-9.1c6.4,0,8,4.3,8.1,6.4h-6
				c-0.2-1.2-0.7-2.1-2.1-2.1c-1.6,0-2.4,1.5-2.4,4.6c0,3.5,0.9,4.8,2.4,4.8c1.3,0,1.8-1,2.1-2.1L592.8,271.1L592.8,271.1z"/>
			<path d="M595.4,264.8c0-1.6,0-3.4,0-4.9h6.2c0.1,0.5,0.2,2,0.2,2.8c0.7-1.6,2.3-3.1,5.2-3.2v5.8c-3.6-0.2-5.2,0.7-5.2,4.6v7h-6.3
				v-12.1H595.4z"/>
			<path d="M616.2,268.5v8.4h-6.3v-22.3H621c5.3,0,7.8,2.8,7.8,6.2c0,3.1-1.8,4.7-3.3,5.3c1.4,0.5,2.9,2,2.9,5.8v0.9
				c0,1.4,0,3.2,0.3,4.2h-6.2c-0.4-1-0.5-2.6-0.5-4.9v-0.6c0-1.9-0.5-3-3.3-3L616.2,268.5L616.2,268.5z M616.2,264h3
				c2.2,0,3-0.9,3-2.4s-0.9-2.4-2.9-2.4h-3.1V264z"/>
			<path d="M632.2,276.9v-22.3h7.8c2.3,5,5.7,11.8,6.7,14.6h0.1c-0.2-2.3-0.3-6.3-0.3-9.8v-4.7h6V277H645c-1.9-4-5.9-12.4-7-15.4
				l0,0c0.2,2.1,0.2,6.4,0.2,10.3v5H632.2z"/>
			<path d="M662.6,272.6l-1.3,4.3h-6.4l7.1-22.3h8.5l7.3,22.3H671l-1.4-4.3H662.6z M668.5,267.8c-1-3.5-1.9-6.6-2.4-8.8H666
				c-0.5,2.4-1.4,5.6-2.3,8.8H668.5z"/>
		</g>
	</g>
	<g>
		<g>
			<path d="M376.7,270.1c-0.8,4.7-4.2,7.8-10.4,7.8c-7.3,0-10.8-4.9-10.8-11.4c0-6.3,3.5-11.7,11.2-11.7c6.6,0,9.5,3.8,10,7.7h-6.5
				c-0.3-1.6-1.2-3.1-3.6-3.1c-3.2,0-4.3,3-4.3,6.9c0,3.5,0.9,7,4.3,7c2.6,0,3.3-1.9,3.6-3.1L376.7,270.1L376.7,270.1z"/>
			<path d="M395.3,272.4c0,1.9,0.1,4.5,0.2,5h-5.8c-0.1-0.3-0.2-1.2-0.3-1.6c-0.8,1.1-2.1,2-4.8,2c-3.8,0-5.9-2.4-5.9-5.4
				c0-4,3.2-5.7,8.4-5.7c0.6,0,1.5,0,2.1,0v-0.9c0-1.1-0.4-1.9-1.9-1.9c-1.4,0-1.8,0.7-2,1.8h-5.8c0.2-2.8,1.9-5.6,7.9-5.6
				c5.6,0,7.8,2.2,7.8,6.3L395.3,272.4L395.3,272.4z M389.2,269.9c-0.3,0-0.9,0-1.4,0c-2.2,0-2.9,0.8-2.9,2c0,1,0.6,1.8,1.8,1.8
				c2.1,0,2.4-1.5,2.4-3.3v-0.5H389.2z"/>
			<path d="M403.8,272.2c0.3,1.1,1.2,1.7,2.5,1.7c1.2,0,1.8-0.4,1.8-1.2c0-0.8-0.7-1.1-3-1.6c-5.9-1.3-6.7-3.2-6.7-5.6
				c0-2.5,1.7-5.4,7.5-5.4c5.5,0,7.5,2.8,7.7,5.2H408c-0.1-0.6-0.5-1.5-2.2-1.5c-1.1,0-1.5,0.5-1.5,1c0,0.7,0.6,1,3.3,1.6
				c5.4,1.2,6.6,3.1,6.6,5.8c0,3-2.2,5.7-8,5.7c-5.5,0-7.9-2.7-8.2-5.7H403.8z"/>
			<path d="M422.6,271.9c0.3,1,0.8,1.7,2.2,1.7c2.2,0,2.5-2.7,2.6-5c-0.9,1-2.5,1.5-4.2,1.5c-4.3,0-7-2.8-7-6.8
				c0-4.4,3.1-7.6,8.6-7.6c6.5,0,8.9,4.7,8.9,10.2c0,6-1.8,12-9,12c-5.8,0-7.8-3.4-8.2-6L422.6,271.9L422.6,271.9z M422.5,262.9
				c0,1.8,0.8,3,2.4,3s2.3-1.1,2.3-2.9c0-1.6-0.5-3-2.4-3C423.3,259.9,422.5,261.1,422.5,262.9z"/>
		</g>
	</g>
	<g>
		<g>
			<path d="M823.6,473.8H834c5,0,8.4,2.8,8.4,7.2c0,5-3.8,7.3-8.6,7.3h-3.7v7.8h-6.5L823.6,473.8L823.6,473.8z M830.1,483.6h2.7
				c1.8,0,3.2-0.8,3.2-2.6c0-1.9-1.3-2.7-3.1-2.7h-2.7v5.3H830.1z"/>
			<path d="M851.3,491.7L850,496h-6.4l7.1-22.3h8.5l7.3,22.3h-6.8l-1.4-4.3H851.3z M857.2,486.9c-1-3.5-1.9-6.6-2.4-8.8h-0.1
				c-0.5,2.4-1.4,5.6-2.3,8.8H857.2z"/>
			<path d="M887.6,488.8c0-3.5,0.1-8,0.2-10.6h-0.2c-0.9,4.8-2.4,11.4-4.1,17.9h-5.2c-1.3-6.3-2.7-12.9-3.6-17.9h-0.2
				c0.2,2.6,0.3,7,0.3,10.8v7.1H869v-22.3h9.4c1.1,4.5,2.4,11.1,2.9,14.4h0.1c0.6-3.6,2.1-9.5,3.4-14.4h9.1v22.3h-6.3L887.6,488.8
				L887.6,488.8z"/>
		</g>
	</g>
</g>
<g id="图层_9_1_">
	<g>
		<defs>
			
				<rect id="SVGID_3_" x="719.3" y="453.7" transform="matrix(0.5844 -0.8115 0.8115 0.5844 -70.3876 785.8046)" width="25.3" height="15.8"/>
		</defs>
		<clipPath id="SVGID_4_">
			<use xlink:href="#SVGID_3_"  style="overflow:visible;"/>
		</clipPath>
		<g transform="matrix(1 0 2.980232e-08 1 0 0)" style="clip-path:url(#SVGID_4_);">
			
				<use xlink:href="#剪切"  width="55.6" height="64" x="-27.8" y="-32" transform="matrix(-0.2315 -0.1667 0.2308 -0.3206 732.0245 461.7053)" style="overflow:visible;"/>
		</g>
	</g>
	<g>
		<defs>
			
				<rect id="SVGID_6_" x="713.3" y="310" transform="matrix(0.8527 -0.5224 0.5224 0.8527 -62.3093 424.3249)" width="15.8" height="25.3"/>
		</defs>
		<clipPath id="SVGID_8_">
			<use xlink:href="#SVGID_6_"  style="overflow:visible;"/>
		</clipPath>
		<g transform="matrix(1 2.980232e-08 0 1 0 3.051758e-05)" style="clip-path:url(#SVGID_8_);">
			
				<use xlink:href="#剪切"  width="55.6" height="64" x="-27.8" y="-32" transform="matrix(0.2432 -0.149 0.2063 0.3368 721.1255 322.7315)" style="overflow:visible;"/>
		</g>
	</g>
</g>
<g id="图层_10_1_">
	<g>
		<g>
			<path class="st7" d="M42.3,706.3l-2,6h-2.6l6.5-19.1h3l6.5,19.1h-2.6l-2-6H42.3z M48.6,704.3l-1.9-5.5c-0.4-1.2-0.7-2.4-1-3.5
				h-0.1c-0.3,1.1-0.6,2.3-0.9,3.5l-1.9,5.5H48.6z"/>
			<path class="st7" d="M55.9,710.8c0-1,0.7-1.8,1.7-1.8s1.7,0.7,1.7,1.8c0,1-0.7,1.8-1.7,1.8C56.6,712.6,55.9,711.8,55.9,710.8z"/>
			<path class="st7" d="M67.5,712.3v-1.5l2-1.9c4.7-4.5,6.8-6.9,6.9-9.7c0-1.9-0.9-3.6-3.6-3.6c-1.7,0-3.1,0.9-3.9,1.6l-0.8-1.7
				c1.3-1.1,3.1-1.9,5.2-1.9c4,0,5.6,2.7,5.6,5.3c0,3.4-2.5,6.2-6.3,9.9l-1.5,1.4v0.1h8.3v2.1L67.5,712.3L67.5,712.3z"/>
			<path class="st7" d="M88.7,703.7v1.8h-7v-1.8H88.7z"/>
			<path class="st7" d="M91.6,703c0-1.7,0-3.2-0.1-4.5h2.2l0.1,2.3h0.1c1-1.7,2.6-2.6,4.9-2.6c3.3,0,5.8,2.8,5.8,7
				c0,4.9-3,7.4-6.2,7.4c-1.8,0-3.4-0.8-4.2-2.2h-0.1v7.5h-2.5C91.6,717.9,91.6,703,91.6,703z M94.1,706.7c0,0.4,0,0.7,0.1,1
				c0.4,1.7,2,2.9,3.7,2.9c2.6,0,4.2-2.2,4.2-5.3c0-2.7-1.4-5.1-4.1-5.1c-1.7,0-3.3,1.2-3.8,3.1c-0.1,0.3-0.2,0.7-0.2,1v2.4H94.1z"
				/>
			<path class="st7" d="M115.3,712.3l-0.2-1.7H115c-0.8,1.1-2.2,2-4.2,2c-2.8,0-4.2-2-4.2-3.9c0-3.3,2.9-5.1,8.2-5.1v-0.3
				c0-1.1-0.3-3.2-3.1-3.2c-1.3,0-2.6,0.4-3.6,1l-0.6-1.7c1.1-0.7,2.8-1.2,4.5-1.2c4.2,0,5.2,2.9,5.2,5.6v5.1c0,1.2,0.1,2.3,0.2,3.3
				h-2.1V712.3z M114.9,705.3c-2.7-0.1-5.8,0.4-5.8,3.1c0,1.6,1.1,2.4,2.3,2.4c1.8,0,2.9-1.1,3.3-2.3c0.1-0.3,0.1-0.5,0.1-0.8
				L114.9,705.3L114.9,705.3z"/>
			<path class="st7" d="M121.4,702.8c0-1.6,0-3-0.1-4.3h2.2l0.1,2.7h0.1c0.6-1.8,2.2-3,3.8-3c0.3,0,0.5,0,0.7,0.1v2.3
				c-0.3-0.1-0.5-0.1-0.8-0.1c-1.8,0-3,1.3-3.3,3.2c-0.1,0.3-0.1,0.8-0.1,1.2v7.3h-2.5L121.4,702.8L121.4,702.8z"/>
			<path class="st7" d="M133.6,694.6v3.9h3.6v1.9h-3.6v7.4c0,1.7,0.5,2.7,1.9,2.7c0.6,0,1.1-0.1,1.4-0.2l0.1,1.9
				c-0.5,0.2-1.3,0.3-2.2,0.3c-1.1,0-2.1-0.4-2.7-1.1c-0.7-0.8-1-2-1-3.6v-7.5H129v-1.9h2.1v-3.3L133.6,694.6z"/>
			<path class="st7" d="M157.9,698.6c-0.1,1-0.1,2.1-0.1,3.8v8c0,3.2-0.6,5.1-2,6.3c-1.3,1.2-3.3,1.6-5,1.6s-3.5-0.4-4.6-1.1
				l0.6-1.9c0.9,0.6,2.3,1.1,4,1.1c2.5,0,4.4-1.3,4.4-4.8v-1.5h-0.1c-0.7,1.3-2.2,2.3-4.4,2.3c-3.4,0-5.8-2.9-5.8-6.7
				c0-4.6,3-7.3,6.2-7.3c2.4,0,3.7,1.2,4.3,2.4h0.1l0.1-2.1L157.9,698.6L157.9,698.6z M155.3,704c0-0.4,0-0.8-0.1-1.1
				c-0.5-1.5-1.7-2.7-3.5-2.7c-2.4,0-4.1,2-4.1,5.2c0,2.7,1.4,4.9,4.1,4.9c1.5,0,2.9-1,3.5-2.6c0.1-0.4,0.2-0.9,0.2-1.3L155.3,704
				L155.3,704z"/>
			<path class="st7" d="M173.3,708.5c0,1.4,0,2.7,0.1,3.8h-2.2l-0.1-2.2H171c-0.6,1.1-2.1,2.6-4.5,2.6c-2.1,0-4.7-1.2-4.7-6v-8h2.5
				v7.6c0,2.6,0.8,4.4,3.1,4.4c1.7,0,2.8-1.2,3.3-2.3c0.1-0.4,0.2-0.8,0.2-1.3v-8.4h2.5v9.8H173.3z"/>
			<path class="st7" d="M180.3,694.7c0,0.8-0.6,1.5-1.6,1.5c-0.9,0-1.5-0.7-1.5-1.5c0-0.9,0.6-1.6,1.6-1.6
				C179.7,693.1,180.3,693.8,180.3,694.7z M177.5,712.3v-13.7h2.5v13.7H177.5z"/>
			<path class="st7" d="M196,692.2v16.6c0,1.2,0,2.6,0.1,3.5h-2.2l-0.1-2.4h-0.1c-0.8,1.5-2.4,2.7-4.7,2.7c-3.3,0-5.9-2.8-5.9-7
				c0-4.6,2.8-7.4,6.2-7.4c2.1,0,3.5,1,4.1,2.1h0.1v-8.2h2.5V692.2z M193.5,704.2c0-0.3,0-0.7-0.1-1.1c-0.4-1.6-1.7-2.9-3.6-2.9
				c-2.6,0-4.1,2.3-4.1,5.3c0,2.8,1.4,5.1,4.1,5.1c1.7,0,3.2-1.1,3.6-3c0.1-0.3,0.1-0.7,0.1-1.1V704.2z"/>
			<path class="st7" d="M201.5,705.9c0,3.4,2.2,4.8,4.7,4.8c1.8,0,2.9-0.3,3.8-0.7l0.4,1.8c-0.9,0.4-2.4,0.9-4.6,0.9
				c-4.2,0-6.7-2.8-6.7-6.9c0-4.2,2.4-7.4,6.5-7.4c4.5,0,5.6,3.9,5.6,6.4c0,0.5,0,0.9-0.1,1.2L201.5,705.9L201.5,705.9z
				 M208.8,704.1c0-1.6-0.6-4-3.4-4c-2.5,0-3.6,2.3-3.8,4H208.8z"/>
			<path class="st7" d="M220.4,693.4c1.3-0.3,3-0.4,4.7-0.4c2.6,0,4.3,0.5,5.5,1.6c0.9,0.8,1.5,2.1,1.5,3.6c0,2.5-1.6,4.2-3.6,4.9
				v0.1c1.5,0.5,2.3,1.9,2.8,3.9c0.6,2.7,1.1,4.5,1.5,5.2h-2.6c-0.3-0.6-0.7-2.2-1.3-4.6c-0.6-2.6-1.6-3.6-3.8-3.7h-2.3v8.3h-2.5
				v-18.9H220.4z M222.8,702.1h2.5c2.6,0,4.3-1.4,4.3-3.6c0-2.5-1.8-3.6-4.4-3.6c-1.2,0-2,0.1-2.4,0.2L222.8,702.1L222.8,702.1z"/>
			<path class="st7" d="M235.6,712.3v-19.1h2.7l6.1,9.7c1.4,2.2,2.5,4.2,3.4,6.2h0.1c-0.2-2.6-0.3-4.9-0.3-7.8v-8h2.3v19.1h-2.5
				l-6.1-9.7c-1.3-2.1-2.6-4.3-3.6-6.4h-0.1c0.1,2.4,0.2,4.7,0.2,7.9v8.2h-2.2V712.3z"/>
			<path class="st7" d="M257.4,706.3l-2,6h-2.6l6.5-19.1h3l6.5,19.1h-2.6l-2-6H257.4z M263.7,704.3l-1.9-5.5c-0.4-1.2-0.7-2.4-1-3.5
				h-0.1c-0.3,1.1-0.6,2.3-0.9,3.5l-1.9,5.5H263.7z"/>
		</g>
	</g>
</g>
<g id="图层_6_1_">
	<path class="st5" d="M904.3,252.4"/>
	<path class="st9" d="M906.4,254.5c-7.9-3.3-15-11.2-17.4-15.7c-0.7-1.2-1-2.6-1-4c0-2.6,0.4-5,0.9-7.5c1.1-5.6,2.5-12.6-2.1-20.3
		c-9.3-15.6-35.2-20.5-53.3-10.1l-0.5,0.3l-0.5,0.4c-5.5,4.1-22,16.7-20,33.1c1.4,11.5,11.2,21.1,30,29.3c0.3,0.1,0.6,0.3,0.8,0.4
		c13.9,7.8,28.5,29.8,31.5,43.4c0.8,3.4-0.7,7-3.7,8.9c-1,0.6-2.1,1.3-3.3,1.7c-5.1,2-12.9-0.3-19.2-5.6l-84-80.2
		c-3.5-3.3-8.9-3.2-12.2,0.3l-0.1,0.1l0.9-0.9c-3.4,3.5-5,10.9-1.5,14.3l84,80.3l0.3,0.3c8.3,7.2,18.3,11.1,27.6,11.1
		c3.9,0,7.6-0.7,11.1-2.1c9.7-3.9,19.4-12.7,19.4-23.6c0-20.6-22-54-42.8-65l-0.7-0.3c-17.3-7.4-19.3-13-19.5-14.6
		c-0.2-1.3,0.2-6,11.5-14.8c0.5-0.4,1-0.7,1.5-1c4.5-2.2,10-2.8,15.5-1.8c5,0.9,9.3,3.2,10.9,5.9c0.8,1.3,0.7,2.3-0.2,7
		c-0.8,3.9-1.7,8.7-1.1,14.8c1.1,11.1,14.2,26.3,28.3,32.8c0.4,0.2,0.8,0.3,1.3,0.5c20.3,6.2,23.1,4.9,26.6-1.5
		c0-0.1,0.1-0.1,0.1-0.2l0,0c0.2-1.3,0.1-2.7-0.5-3.9c-1.1-2.2-3-3.9-5.4-4.7L906.4,254.5z"/>
</g>
<g id="图层_8_1_">
	<g>
		<g>
			<path d="M941.1,275.3c0.3-2.7,2-6.2,8.2-6.2c5.3,0,7.8,2.8,7.8,5.9c0,2.5-1.5,3.7-2.8,4.3v0.1c1.3,0.5,3.6,1.7,3.6,5
				c0,3.4-2.3,6.8-8.7,6.8c-6.8,0-8.4-4-8.6-6.5h5.9c0.2,1.2,0.9,2.3,2.6,2.3c1.6,0,2.4-1.1,2.4-2.7c0-1.8-0.8-2.7-3-2.7h-1.9v-4.2
				h1.8c2,0,2.6-0.6,2.6-2.1c0-1.2-0.6-2-2-2c-1.6,0-2.1,0.9-2.2,2L941.1,275.3L941.1,275.3z"/>
			<path d="M960.2,277.4c0.8-2.9,1.3-6.5,1.4-10h5.8c-0.2,3.2-1.2,7.2-2.8,10H960.2z"/>
		</g>
	</g>
	<g>
		<g>
			<path d="M556.5,213.8h2.4v-4.4h6.2v4.4h3v4.3h-3v7.3c0,1.1,0.3,1.4,1.7,1.4c0.2,0,0.5,0,0.9,0v3.9c-1,0.3-2.6,0.4-3.7,0.4
				c-4,0-5.1-2-5.1-5.2v-7.8h-2.4L556.5,213.8L556.5,213.8z"/>
			<path d="M570.8,218.7c0-1.6,0-3.4,0-4.9h6.2c0.1,0.5,0.2,2,0.2,2.8c0.7-1.6,2.3-3.1,5.2-3.2v5.8c-3.6-0.2-5.2,0.7-5.2,4.6v7h-6.3
				v-12.1H570.8z"/>
			<path d="M600.4,225.7c0,1.9,0.1,4.5,0.2,5h-5.8c-0.1-0.3-0.2-1.2-0.3-1.6c-0.8,1.1-2.1,2-4.8,2c-3.8,0-5.9-2.4-5.9-5.4
				c0-4,3.2-5.7,8.4-5.7c0.6,0,1.5,0,2.1,0v-0.9c0-1.1-0.4-1.9-1.9-1.9c-1.4,0-1.8,0.7-2,1.8h-5.8c0.2-2.8,1.9-5.6,7.9-5.6
				c5.6,0,7.8,2.2,7.8,6.3L600.4,225.7L600.4,225.7z M594.3,223.2c-0.3,0-0.9,0-1.4,0c-2.2,0-2.9,0.8-2.9,2c0,1,0.6,1.8,1.8,1.8
				c2.1,0,2.4-1.5,2.4-3.3v-0.5H594.3z"/>
			<path d="M620.2,224.9c-0.5,3.1-2.5,6.3-8.3,6.3c-6,0-8.6-3.9-8.6-8.8c0-5.1,3.2-9.1,8.8-9.1c6.4,0,8,4.3,8.1,6.4h-6
				c-0.2-1.2-0.7-2.1-2.1-2.1c-1.6,0-2.4,1.5-2.4,4.6c0,3.5,0.9,4.8,2.4,4.8c1.3,0,1.8-1,2.1-2.1L620.2,224.9L620.2,224.9z"/>
			<path d="M622.8,218.7c0-1.6,0-3.4,0-4.9h6.2c0.1,0.5,0.2,2,0.2,2.8c0.7-1.6,2.3-3.1,5.2-3.2v5.8c-3.6-0.2-5.2,0.7-5.2,4.6v7h-6.3
				v-12.1H622.8z"/>
			<path d="M643.6,222.4v8.4h-6.3v-22.3h11.1c5.3,0,7.8,2.8,7.8,6.2c0,3.1-1.8,4.7-3.3,5.3c1.4,0.5,2.9,2,2.9,5.8v0.9
				c0,1.4,0,3.2,0.3,4.2h-6.2c-0.4-1-0.5-2.6-0.5-4.9v-0.6c0-1.9-0.5-3-3.3-3L643.6,222.4L643.6,222.4z M643.6,217.8h3
				c2.2,0,3-0.9,3-2.4s-0.9-2.4-2.9-2.4h-3.1V217.8z"/>
			<path d="M659.6,230.8v-22.3h7.8c2.3,5,5.7,11.8,6.7,14.6h0.1c-0.2-2.3-0.3-6.3-0.3-9.8v-4.7h6v22.3h-7.5c-1.9-4-5.9-12.4-7-15.4
				h-0.1c0.2,2.1,0.2,6.4,0.2,10.3v5L659.6,230.8L659.6,230.8z"/>
			<path d="M690,226.4l-1.3,4.3h-6.4l7.1-22.3h8.5l7.3,22.3h-6.8l-1.4-4.3H690z M695.9,221.6c-1-3.5-1.9-6.6-2.4-8.8h-0.1
				c-0.5,2.4-1.4,5.6-2.3,8.8H695.9z"/>
		</g>
	</g>
	<polyline class="st6" points="715.3,216.9 737.6,220.6 745,223.8 	"/>
	<polyline class="st6" points="689.7,257.4 708.8,257.4 715.3,262.7 	"/>
	<polyline class="st6" points="774.6,469.2 783.7,479.8 812.5,479.8 	"/>
</g>
<g id="图层_7_1_">
	<path class="st8" d="M792.2,332c-5.3-8.2-57.2-54.2-65-62.2c-9.1-8.2,4.1-22.3,12.9-13.8l54.5,50.9c1,1,2,1.9,2.9,2.7
		c34.8,28.6,2.6,63.1-43.8,60.2H599.1c-5.2,0-9.4-4.2-9.4-9.4c0-5.2,4.2-9.4,9.4-9.4c19.7-1.3,168.8,3.6,183.6-4
		c3.5-2,6.7-5.3,9.4-8.1L792.2,332L792.2,332z"/>
</g>
</svg>
