<?xml version="1.0" encoding="utf-8"?>
<!-- Generator: Adobe Illustrator 25.2.1, SVG Export Plug-In . SVG Version: 6.00 Build 0)  -->
<svg version="1.1" id="图层_1" xmlns="http://www.w3.org/2000/svg" xmlns:xlink="http://www.w3.org/1999/xlink" x="0px" y="0px"
	 viewBox="0 0 526.6 538.1" style="enable-background:new 0 0 526.6 538.1;" xml:space="preserve">
<style type="text/css">
	.st0{fill:#C4E3E6;}
	.st1{fill:none;stroke:#CCCCCC;stroke-width:5;stroke-miterlimit:10;}
	.st2{fill:#7BBF49;}
	.st3{fill:#CCCCCC;}
	.st4{fill:none;stroke:#F9D878;stroke-width:8;stroke-miterlimit:10;}
	.st5{fill:none;stroke:#8CC666;stroke-width:8;stroke-miterlimit:10;}
	.st6{fill:#CFCECF;}
	.st7{fill:none;stroke:#86BECD;stroke-width:8;stroke-miterlimit:10;}
	.st8{fill:url(#SVGID_1_);stroke:#C2CFD8;stroke-width:8;stroke-miterlimit:10;}
	.st9{fill:none;stroke:#C2CFD8;stroke-width:8;stroke-miterlimit:10;}
	.st10{fill:none;stroke:#000000;stroke-miterlimit:10;}
	.st11{fill:none;}
	.st12{font-family:'Times-Roman';}
	.st13{font-size:12px;}
	.st14{fill:#EFCCB0;}
	.st15{fill:none;stroke:#CCCCCC;stroke-width:8;stroke-miterlimit:10;}
	.st16{fill:none;stroke:#F8B500;stroke-miterlimit:10;}
</style>
<path class="st0" d="M313.3,269.2c-16-1.2-32,2.9-45.1,11.8c-4.1,2.8-8.1,5.8-11.5,9c-9.9,9.3-22.5,15.6-36.3,17.8
	c-56,9-97.8,45.1-97.8,88.2c0,49.9,55.9,90.4,124.9,90.4s124.9-40.5,124.9-90.4l0.1-9.2c0-6.8-1.6-13.6-4.8-19.7
	c-0.1-0.2-0.2-0.3-0.2-0.5c-7.1-13.4-6.6-29.2,1.4-42.2c0.4-0.7,0.7-1.1,0.7-1.2l0,0c8.7-17.9-5.9-37.8-24.5-46.5
	C334.5,272,322.6,269.1,313.3,269.2"/>
<g>
	<line class="st1" x1="160" y1="326.9" x2="186.4" y2="326.9"/>
	<line class="st1" x1="160" y1="315.3" x2="186.4" y2="315.3"/>
	<line class="st1" x1="160" y1="303.8" x2="186.4" y2="303.8"/>
	<line class="st1" x1="160" y1="292.1" x2="186.4" y2="292.1"/>
	<line class="st1" x1="160" y1="280.6" x2="186.4" y2="280.6"/>
	<line class="st1" x1="160" y1="269" x2="186.4" y2="269"/>
</g>
<line class="st1" x1="160" y1="151" x2="186.4" y2="151"/>
<line class="st1" x1="160" y1="139.4" x2="186.4" y2="139.4"/>
<line class="st1" x1="160" y1="127.9" x2="186.4" y2="127.9"/>
<line class="st1" x1="160" y1="116.2" x2="186.4" y2="116.2"/>
<line class="st1" x1="160" y1="104.7" x2="186.4" y2="104.7"/>
<line class="st1" x1="160" y1="338.1" x2="186.4" y2="338.1"/>
<line class="st1" x1="160" y1="349.6" x2="186.4" y2="349.6"/>
<line class="st1" x1="160" y1="93.2" x2="186.4" y2="93.2"/>
<line class="st1" x1="160" y1="361.1" x2="186.4" y2="361.1"/>
<g>
	<g>
		<g>
			<rect x="156" y="258.6" class="st2" width="8" height="111.8"/>
		</g>
	</g>
</g>
<path class="st3" d="M164,263h-8v-7.2c0-0.8-0.7-1.6-1.6-1.7c-18.1-3.1-31.7-21.3-31.7-42.3c0-20.2,12.5-37.8,29.7-41.8
	c2.1-0.5,3.6-2.4,3.6-4.6v-6.1h8v6.1c0,6-4,11.1-9.8,12.5c-13.6,3.2-23.6,17.5-23.6,33.9c0,17.1,10.8,31.8,25.1,34.2
	c4.8,0.8,8.3,4.9,8.3,9.7V263z"/>
<line class="st4" x1="201.7" y1="377.8" x2="340.2" y2="377.8"/>
<path class="st5" d="M186.4,263v104.1c0,5.9,4.8,10.6,10.6,10.6h4.7"/>
<path class="st6" d="M190.4,263h-8v-6c0-5.3,3.8-9.9,9.1-10.9c14.5-2.8,25.1-16.9,25.1-33.6c0-16.2-10.2-30.2-24.2-33.4
	c-5.9-1.3-10-6.3-10-12.1v-7.9h8v7.9c0,2,1.6,3.8,3.8,4.3c17.6,4,30.4,21.3,30.4,41.2c0,20.5-13.3,37.9-31.5,41.4
	c-1.5,0.3-2.6,1.6-2.6,3v6.1H190.4z"/>
<line class="st7" x1="186.4" y1="82.8" x2="186.4" y2="159.2"/>
<linearGradient id="SVGID_1_" gradientUnits="userSpaceOnUse" x1="160" y1="458.5" x2="160" y2="458.5" gradientTransform="matrix(1 0 0 -1 0 541.6)">
	<stop  offset="0" style="stop-color:#6BC5D2"/>
	<stop  offset="8.319743e-03" style="stop-color:#6AC5D1"/>
	<stop  offset="0.2099" style="stop-color:#4EC6C6"/>
	<stop  offset="0.388" style="stop-color:#3EC6BF"/>
	<stop  offset="0.523" style="stop-color:#38C6BD"/>
	<stop  offset="0.7241" style="stop-color:#3AC6BD"/>
	<stop  offset="0.7965" style="stop-color:#41C7BF"/>
	<stop  offset="0.8482" style="stop-color:#4CC7C1"/>
	<stop  offset="0.8899" style="stop-color:#5DC8C4"/>
	<stop  offset="0.9257" style="stop-color:#73CAC9"/>
	<stop  offset="0.9573" style="stop-color:#8FCCCE"/>
	<stop  offset="0.9852" style="stop-color:#AECED4"/>
	<stop  offset="1" style="stop-color:#C2CFD8"/>
</linearGradient>
<path class="st8" d="M160,83.1"/>
<path class="st9" d="M160,47.7"/>
<path class="st10" d="M186.4,388.2v7c0,3.6,2.9,6.5,6.1,6.5h142.1c3.3,0,5.7-2.4,5.7-5.3v-8.2"/>
<line class="st10" x1="263.3" y1="401.7" x2="263.3" y2="412.7"/>
<rect x="185.8" y="412.1" class="st11" width="155" height="12.8"/>
<text transform="matrix(1 0 0 1 225.8036 422.1075)" class="st12 st13">Spacer released</text>
<path class="st14" d="M453.6,389.7h-99.7c-3.6,0-6.5-2.9-6.5-6.5v-10.9c0-3.6,2.9-6.5,6.5-6.5h99.7c3.6,0,6.5,2.9,6.5,6.5v10.9
	C460.1,386.8,457.2,389.7,453.6,389.7z"/>
<rect x="326.2" y="371.3" class="st11" width="155" height="12.8"/>
<text transform="matrix(1 0 0 1 373.0153 381.3167)" class="st12 st13">SCAFFOLD</text>
<g>
	<g>
		<line class="st7" x1="160" y1="82.8" x2="160" y2="159.2"/>
	</g>
</g>
<line class="st15" x1="160" y1="47.7" x2="160" y2="82.8"/>
<line class="st15" x1="160" y1="370.7" x2="160" y2="405.7"/>
<path class="st16" d="M509.3,538.1h-492c-9.6,0-17.3-7.8-17.3-17.3V17.3C0,7.7,7.8,0,17.3,0h492c9.6,0,17.3,7.8,17.3,17.3v503.4
	C526.6,530.3,518.8,538.1,509.3,538.1z"/>
</svg>
