<?xml version="1.0" encoding="utf-8"?>
<!-- Generator: Adobe Illustrator 25.2.1, SVG Export Plug-In . SVG Version: 6.00 Build 0)  -->
<svg version="1.1" id="图层_1" xmlns="http://www.w3.org/2000/svg" xmlns:xlink="http://www.w3.org/1999/xlink" x="0px" y="0px"
	 viewBox="0 0 526.6 538.1" style="enable-background:new 0 0 526.6 538.1;" xml:space="preserve">
<style type="text/css">
	.st0{fill:none;stroke:#CFCECF;stroke-width:8;stroke-miterlimit:10;}
	.st1{fill:#CFCECF;}
	.st2{fill:none;stroke:#CCCCCC;stroke-width:5;stroke-miterlimit:10;}
	.st3{fill:#C4E3E6;}
	.st4{fill:none;stroke:#A3C3E1;stroke-width:8;stroke-miterlimit:10;}
	.st5{fill:#7BBF49;}
	.st6{fill:none;stroke:#86BECD;stroke-width:8;stroke-miterlimit:10;}
	.st7{fill:url(#SVGID_1_);stroke:#C2CFD8;stroke-width:8;stroke-miterlimit:10;}
	.st8{fill:none;stroke:#C2CFD8;stroke-width:8;stroke-miterlimit:10;}
	.st9{fill:none;stroke:#000000;stroke-miterlimit:10;}
	.st10{fill:none;}
	.st11{font-family:'Times-Roman';}
	.st12{font-size:12px;}
	.st13{fill:#EFCCB0;}
	.st14{fill:none;stroke:#F8B500;stroke-miterlimit:10;}
	.st15{opacity:0.8;}
	.st16{fill:#F5C142;}
	.st17{fill:none;stroke:#F5C142;stroke-width:8;stroke-miterlimit:10;}
	.st18{fill:#5C71FF;}
	.st19{fill:none;stroke:#F9D878;stroke-width:8;stroke-miterlimit:10;}
	.st20{fill:none;stroke:#8CC666;stroke-width:8;stroke-miterlimit:10;}
</style>
<line class="st0" x1="160" y1="49.4" x2="160" y2="84.4"/>
<path class="st1" d="M191,264.8h-8v-6.1c0-5.4,3.8-10,9.1-11.1c14.5-2.8,25.1-17.2,25.1-34.2c0-16.4-10.2-30.7-24.2-34
	c-5.9-1.4-10-6.4-10-12.3v-8h8v8c0,2,1.6,3.8,3.8,4.3c17.6,4.1,30.4,21.7,30.4,41.9c0,20.9-13.3,38.6-31.5,42.2
	c-1.5,0.3-2.6,1.6-2.6,3.1L191,264.8L191,264.8z"/>
<line class="st2" x1="160.1" y1="151" x2="186.4" y2="151"/>
<line class="st2" x1="160.1" y1="139.4" x2="186.4" y2="139.4"/>
<line class="st2" x1="160.1" y1="127.9" x2="186.4" y2="127.9"/>
<line class="st2" x1="160.1" y1="116.2" x2="186.4" y2="116.2"/>
<line class="st2" x1="160.1" y1="104.7" x2="186.4" y2="104.7"/>
<line class="st2" x1="160.1" y1="93.2" x2="186.4" y2="93.2"/>
<path class="st3" d="M313.3,269.2c-16-1.2-32,2.9-45.1,11.8c-4.1,2.8-8.1,5.8-11.5,9c-9.9,9.3-22.5,15.6-36.3,17.8
	c-56,9-97.8,45.1-97.8,88.2c0,49.9,55.9,90.4,124.9,90.4s124.9-40.5,124.9-90.4l0.1-9.2c0-6.8-1.6-13.6-4.8-19.7
	c-0.1-0.2-0.2-0.3-0.2-0.5c-7.1-13.4-6.6-29.2,1.4-42.2c0.4-0.7,0.7-1.1,0.7-1.2l0,0c8.7-17.9-5.9-37.8-24.5-46.5
	C334.5,272,322.7,269.1,313.3,269.2"/>
<line class="st2" x1="123.2" y1="409.7" x2="123.2" y2="436"/>
<line class="st2" x1="134.8" y1="409.7" x2="134.8" y2="436"/>
<line class="st2" x1="146.3" y1="409.7" x2="146.3" y2="436"/>
<line class="st2" x1="158" y1="409.7" x2="158" y2="436"/>
<line class="st2" x1="169.5" y1="409.7" x2="169.5" y2="436"/>
<line class="st2" x1="181.1" y1="409.7" x2="181.1" y2="436"/>
<line class="st2" x1="87.7" y1="409.7" x2="87.7" y2="436"/>
<line class="st2" x1="99.2" y1="409.7" x2="99.2" y2="436"/>
<line class="st2" x1="110.7" y1="409.7" x2="110.7" y2="436"/>
<line class="st2" x1="193.4" y1="409.7" x2="193.4" y2="436"/>
<g>
	<line class="st2" x1="160.1" y1="326.9" x2="186.4" y2="326.9"/>
	<line class="st2" x1="160.1" y1="315.3" x2="186.4" y2="315.3"/>
	<line class="st2" x1="160.1" y1="303.8" x2="186.4" y2="303.8"/>
	<line class="st2" x1="160.1" y1="292.1" x2="186.4" y2="292.1"/>
	<line class="st2" x1="160.1" y1="280.6" x2="186.4" y2="280.6"/>
	<line class="st2" x1="160.1" y1="269" x2="186.4" y2="269"/>
</g>
<line class="st4" x1="80.6" y1="407.3" x2="203" y2="407.3"/>
<line class="st2" x1="160.1" y1="338.1" x2="186.4" y2="338.1"/>
<line class="st2" x1="160.1" y1="349.6" x2="186.4" y2="349.6"/>
<line class="st2" x1="160.1" y1="361.1" x2="186.4" y2="361.1"/>
<g>
	<g>
		<rect x="156.1" y="263" class="st5" width="8" height="130.7"/>
	</g>
</g>
<g>
	<g>
		<line class="st2" x1="275.8" y1="379.6" x2="275.8" y2="405.9"/>
		<line class="st2" x1="287.4" y1="379.6" x2="287.4" y2="405.9"/>
		<line class="st2" x1="298.9" y1="379.6" x2="298.9" y2="405.9"/>
		<line class="st2" x1="310.6" y1="379.6" x2="310.6" y2="405.9"/>
		<line class="st2" x1="322.1" y1="379.6" x2="322.1" y2="405.9"/>
		<line class="st2" x1="333.7" y1="379.6" x2="333.7" y2="405.9"/>
	</g>
	<line class="st2" x1="217.1" y1="379.6" x2="217.1" y2="405.9"/>
	<line class="st2" x1="228.6" y1="379.6" x2="228.6" y2="405.9"/>
	<line class="st2" x1="240.3" y1="379.6" x2="240.3" y2="405.9"/>
	<line class="st2" x1="251.8" y1="379.6" x2="251.8" y2="405.9"/>
	<line class="st2" x1="263.4" y1="379.6" x2="263.4" y2="405.9"/>
</g>
<path class="st1" d="M164,263h-8v-7.2c0-0.8-0.7-1.5-1.6-1.7c-18.1-3.1-31.7-21-31.7-41.6c0-19.8,12.5-37.2,29.7-41.2
	c2.1-0.5,3.6-2.4,3.6-4.5v-7.6h8v7.6c0,5.9-4,11-9.8,12.3c-13.6,3.2-23.6,17.2-23.6,33.4c0,16.8,10.8,31.3,25.1,33.7
	c4.8,0.8,8.3,4.8,8.3,9.6V263z"/>
<line class="st6" x1="186.4" y1="82.8" x2="186.4" y2="159.2"/>
<linearGradient id="SVGID_1_" gradientUnits="userSpaceOnUse" x1="160" y1="458.5" x2="160" y2="458.5" gradientTransform="matrix(1 0 0 -1 0 541.6)">
	<stop  offset="0" style="stop-color:#6BC5D2"/>
	<stop  offset="8.319743e-03" style="stop-color:#6AC5D1"/>
	<stop  offset="0.2099" style="stop-color:#4EC6C6"/>
	<stop  offset="0.388" style="stop-color:#3EC6BF"/>
	<stop  offset="0.523" style="stop-color:#38C6BD"/>
	<stop  offset="0.7241" style="stop-color:#3AC6BD"/>
	<stop  offset="0.7965" style="stop-color:#41C7BF"/>
	<stop  offset="0.8482" style="stop-color:#4CC7C1"/>
	<stop  offset="0.8899" style="stop-color:#5DC8C4"/>
	<stop  offset="0.9257" style="stop-color:#73CAC9"/>
	<stop  offset="0.9573" style="stop-color:#8FCCCE"/>
	<stop  offset="0.9852" style="stop-color:#AECED4"/>
	<stop  offset="1" style="stop-color:#C2CFD8"/>
</linearGradient>
<path class="st7" d="M160,83.1"/>
<path class="st8" d="M160,47.7"/>
<path class="st9" d="M340.3,367v-5.5c0-2.9-2.7-5.2-5.6-5.2H204.8c-3.1,0-5.2,1.9-5.2,4.2v6.5"/>
<line class="st9" x1="269.9" y1="356.3" x2="269.9" y2="345.2"/>
<rect x="192.4" y="331.7" class="st10" width="155" height="12.8"/>
<text transform="matrix(1 0 0 1 232.4643 341.6285)" class="st11 st12">Spacer released</text>
<path class="st13" d="M453.6,389.7h-99.7c-3.6,0-6.5-2.9-6.5-6.5v-10.9c0-3.6,2.9-6.5,6.5-6.5h99.7c3.6,0,6.5,2.9,6.5,6.5v10.9
	C460.1,386.8,457.2,389.7,453.6,389.7z"/>
<g>
	<line class="st2" x1="404.2" y1="409.7" x2="404.2" y2="436"/>
	<line class="st2" x1="415.8" y1="409.7" x2="415.8" y2="436"/>
	<line class="st2" x1="427.3" y1="409.7" x2="427.3" y2="436"/>
	<line class="st2" x1="439" y1="409.7" x2="439" y2="436"/>
	<line class="st2" x1="450.5" y1="409.7" x2="450.5" y2="436"/>
	<line class="st2" x1="462.1" y1="409.7" x2="462.1" y2="436"/>
</g>
<line class="st2" x1="345.5" y1="409.7" x2="345.5" y2="436"/>
<line class="st2" x1="357" y1="409.7" x2="357" y2="436"/>
<line class="st2" x1="368.7" y1="409.7" x2="368.7" y2="436"/>
<line class="st2" x1="380.2" y1="409.7" x2="380.2" y2="436"/>
<line class="st2" x1="391.8" y1="409.7" x2="391.8" y2="436"/>
<rect x="326.3" y="371.3" class="st10" width="155" height="12.8"/>
<text transform="matrix(1 0 0 1 373.09 381.3167)" class="st11 st12">SCAFFOLD</text>
<path class="st14" d="M509.3,538.1h-492c-9.6,0-17.3-7.8-17.3-17.3V17.3C0,7.7,7.8,0,17.3,0h492c9.6,0,17.3,7.8,17.3,17.3v503.4
	C526.7,530.3,518.9,538.1,509.3,538.1z"/>
<line class="st2" x1="474.4" y1="409.7" x2="474.4" y2="436"/>
<line class="st4" x1="480.9" y1="438.4" x2="80.6" y2="438.4"/>
<line class="st4" x1="340.3" y1="407.3" x2="480.9" y2="407.3"/>
<g>
	<g>
		<line class="st6" x1="160" y1="82.8" x2="160" y2="159.2"/>
	</g>
</g>
<g id="图层_3">
	<g>
		<g class="st15">
			<path class="st16" d="M160,160.9"/>
			<path class="st17" d="M160,160.9"/>
		</g>
		<g>
			<path class="st18" d="M160,160.9"/>
			<path class="st6" d="M160,160.9"/>
		</g>
	</g>
	<line class="st19" x1="203" y1="379.6" x2="341.5" y2="379.6"/>
	<path class="st20" d="M187.7,264.8v104.1c0,5.9,4.8,10.6,10.6,10.6h4.7"/>
	<line class="st19" x1="203" y1="407.3" x2="341.5" y2="407.3"/>
</g>
</svg>
