<?xml version="1.0" encoding="utf-8"?>
<!-- Generator: Adobe Illustrator 25.2.1, SVG Export Plug-In . SVG Version: 6.00 Build 0)  -->
<svg version="1.1" id="图层_1" xmlns="http://www.w3.org/2000/svg" xmlns:xlink="http://www.w3.org/1999/xlink" x="0px" y="0px"
	 viewBox="0 0 388.9 213.5" style="enable-background:new 0 0 388.9 213.5;" xml:space="preserve">
<style type="text/css">
	.st0{font-family:'OpenSans-Regular';}
	.st1{font-size:18.0377px;}
	.st2{fill:#F1C40F;}
	.st3{fill:none;stroke:#29ABE2;stroke-width:5;stroke-linecap:round;stroke-miterlimit:10;}
	.st4{fill:none;stroke:#A1DE93;stroke-width:5;stroke-linecap:round;stroke-miterlimit:10;}
	.st5{fill:#A1DE93;stroke:#A1DE93;stroke-width:5;stroke-linecap:round;stroke-miterlimit:10;}
	.st6{font-size:15.0314px;}
</style>
<text transform="matrix(1 0 0 1 101.5923 146.0521)" class="st0 st1">P28a-tetO</text>
<g>
	<path class="st2" d="M348.9,13.1c14,0,25.3,11.4,25.3,25.3v139.5c0,14-11.4,25.3-25.3,25.3H40.1c-14,0-25.3-11.4-25.3-25.3V38.4
		c0-14,11.4-25.3,25.3-25.3L348.9,13.1 M348.9,12.1H40.1c-14.5,0-26.3,11.8-26.3,26.3v139.5c0,14.5,11.8,26.3,26.3,26.3h308.7
		c14.5,0,26.3-11.8,26.3-26.3V38.4C375.2,23.9,363.4,12.1,348.9,12.1L348.9,12.1z"/>
</g>
<text transform="matrix(1 0 0 1 200.9334 122.5899)" class="st0 st1">tetR</text>
<path class="st3" d="M285.1,122.7"/>
<path class="st3" d="M217.1,122.7"/>
<path class="st3" d="M217.1,122.7"/>
<g>
	<g>
		<line class="st4" x1="105.8" y1="118.3" x2="143.7" y2="118.3"/>
		<polyline class="st4" points="105.8,118.3 105.8,80.4 138.3,80.4 		"/>
		<polyline class="st4" points="127.5,69.6 138.3,80.4 127.5,91.2 		"/>
	</g>
	<g>
		<line class="st4" x1="143.7" y1="118.3" x2="187" y2="118.3"/>
	</g>
	<g>
		<line class="st4" x1="251.9" y1="118.3" x2="295.2" y2="118.3"/>
		<line class="st4" x1="257.2" y1="102.9" x2="289.7" y2="102.9"/>
		<line class="st4" x1="273.6" y1="102.9" x2="273.6" y2="118.3"/>
	</g>
	<g>
		<path class="st5" d="M192.4,106.1v24.4c0,2.2,1.8,4,4,4h32.2c1.1,0,2.1-0.4,2.8-1.2l12.2-12.2c1.6-1.6,1.6-4.1,0-5.7l-12.2-12.2
			c-0.8-0.8-1.8-1.2-2.8-1.2h-32.2C194.2,102,192.4,103.8,192.4,106.1z"/>
		<line class="st4" x1="187" y1="118.3" x2="192.4" y2="118.3"/>
		<line class="st4" x1="251.9" y1="118.3" x2="246.5" y2="118.3"/>
	</g>
</g>
<text transform="matrix(1 0 0 1 192.4075 123.6387)" class="st0 st6">deGFP</text>
<path class="st5" d="M138.3,117.7c0-10.5,8.5-18.9,18.9-18.9c10.5,0,18.9,8.5,18.9,18.9"/>
</svg>
