<?xml version="1.0" encoding="utf-8"?>
<!-- Generator: Adobe Illustrator 25.2.1, SVG Export Plug-In . SVG Version: 6.00 Build 0)  -->
<svg version="1.1" xmlns="http://www.w3.org/2000/svg" xmlns:xlink="http://www.w3.org/1999/xlink" x="0px" y="0px"
	 viewBox="0 0 1366 768" style="enable-background:new 0 0 1366 768;" xml:space="preserve">
<style type="text/css">
	.st0{fill:none;stroke:#F1C40F;stroke-linecap:round;stroke-miterlimit:10;}
	.st1{fill:none;stroke:#F9D878;stroke-width:5;stroke-linecap:round;stroke-miterlimit:10;}
	.st2{fill:#F9D878;stroke:#F9D878;stroke-width:5;stroke-linecap:round;stroke-miterlimit:10;}
	.st3{fill:none;stroke:#80D6FF;stroke-width:5;stroke-linecap:round;stroke-miterlimit:10;}
	.st4{fill:#29ABE2;stroke:#80D6FF;stroke-width:5;stroke-linecap:round;stroke-miterlimit:10;}
	.st5{fill:#80D6FF;stroke:#80D6FF;stroke-width:5;stroke-linecap:round;stroke-miterlimit:10;}
	.st6{fill:none;stroke:#A1DE93;stroke-width:5;stroke-linecap:round;stroke-miterlimit:10;}
	.st7{fill:#39B54A;stroke:#A1DE93;stroke-width:5;stroke-linecap:round;stroke-miterlimit:10;}
	.st8{fill:#A1DE93;stroke:#A1DE93;stroke-width:5;stroke-linecap:round;stroke-miterlimit:10;}
	.st9{fill:#A1D9FF;stroke:#A1D9FF;stroke-width:5;stroke-linecap:round;stroke-miterlimit:10;}
	.st10{fill:#B4A4DB;stroke:#B4A4DB;stroke-width:5;stroke-linecap:round;stroke-miterlimit:10;}
	.st11{fill:#80D6FF;stroke:#80D6FF;stroke-width:3;stroke-linecap:round;stroke-miterlimit:10;}
	.st12{font-family:'OpenSans-Regular';}
	.st13{font-size:18.0377px;}
	.st14{fill:#B4A4DB;stroke:#B4A4DB;stroke-miterlimit:10;}
	.st15{fill:#A1DE93;stroke:#A1DE93;stroke-width:3;stroke-linecap:round;stroke-miterlimit:10;}
	.st16{fill:none;stroke:#A1D9FF;stroke-width:5;stroke-linecap:round;stroke-miterlimit:10;}
	.st17{fill:#F9D878;stroke:#F9D878;stroke-width:3;stroke-linecap:round;stroke-miterlimit:10;}
	.st18{font-size:18.1231px;}
	.st19{fill:none;stroke:#A0E0A6;stroke-width:3;stroke-linecap:round;stroke-miterlimit:10;}
	.st20{fill:none;stroke:#FFB48A;stroke-width:3;stroke-linecap:round;stroke-miterlimit:10;}
	.st21{fill:none;stroke:#29C6CD;stroke-width:3;stroke-linecap:round;stroke-miterlimit:10;}
	.st22{fill:none;stroke:#CFCECF;stroke-width:5;stroke-linecap:round;stroke-miterlimit:10;}
	.st23{fill:#CFCECF;stroke:#CFCECF;stroke-width:5;stroke-linecap:round;stroke-miterlimit:10;}
	.st24{fill:none;stroke:#000000;stroke-width:5;stroke-linecap:round;stroke-miterlimit:10;}
	.st25{fill:none;stroke:#FFB48A;stroke-width:5;stroke-linecap:round;stroke-miterlimit:10;}
	.st26{font-size:15.0314px;}
	.st27{fill:none;stroke:#29ABE2;stroke-width:5;stroke-linecap:round;stroke-miterlimit:10;}
	.st28{fill:#A3DE83;stroke:#A3DE83;stroke-width:5;stroke-linecap:round;stroke-miterlimit:10;}
	.st29{fill:none;stroke:#A3DE83;stroke-width:5;stroke-linecap:round;stroke-miterlimit:10;}
</style>
<g id="图层_2">
	<path class="st0" d="M1320,740.1H44c-10.6,0-19.2-8.6-19.2-19.2V43.3c0-10.6,8.6-19.2,19.2-19.2h1276c10.6,0,19.2,8.6,19.2,19.2
		V721C1339.2,731.6,1330.6,740.1,1320,740.1z"/>
</g>
<g id="图层_1">
	<g>
		<line class="st1" x1="637.4" y1="465.6" x2="675.2" y2="465.6"/>
		<polyline class="st1" points="637.4,465.6 637.4,427.8 669.8,427.8 		"/>
		<polyline class="st1" points="659,416.9 669.8,427.8 659,438.6 		"/>
	</g>
	<g>
		<line class="st2" x1="675.2" y1="465.6" x2="718.5" y2="465.6"/>
	</g>
	<g>
		<line class="st2" x1="783.5" y1="465.6" x2="826.8" y2="465.6"/>
		<line class="st2" x1="789.5" y1="450.5" x2="821.9" y2="450.5"/>
		<line class="st2" x1="805.1" y1="450.5" x2="805.1" y2="465.6"/>
	</g>
	<g>
		<path class="st2" d="M723.9,452.2v26.9c0,1.5,1.2,2.8,2.8,2.8h33.9c0.7,0,1.4-0.3,2-0.8l13.4-13.4c1.1-1.1,1.1-2.9,0-3.9
			l-13.4-13.4c-0.5-0.5-1.2-0.8-2-0.8h-33.9C725.2,449.4,723.9,450.6,723.9,452.2z"/>
		<line class="st2" x1="718.5" y1="465.6" x2="723.9" y2="465.6"/>
		<line class="st2" x1="783.5" y1="465.6" x2="778.1" y2="465.6"/>
	</g>
	<g>
		<g>
			<line class="st3" x1="290.2" y1="391.2" x2="328" y2="391.2"/>
			<polyline class="st3" points="290.2,391.2 290.2,353.3 322.6,353.3 			"/>
			<polyline class="st3" points="311.8,342.5 322.6,353.3 311.8,364.2 			"/>
		</g>
		<g>
			<line class="st4" x1="328" y1="391.2" x2="371.3" y2="391.2"/>
		</g>
		<g>
			<line class="st3" x1="436.3" y1="391.2" x2="479.5" y2="391.2"/>
			<line class="st3" x1="443.1" y1="375.9" x2="475.6" y2="375.9"/>
			<line class="st3" x1="457.9" y1="375.9" x2="457.9" y2="391.2"/>
		</g>
		<g>
			<path class="st5" d="M376.7,378.7v25c0,2.1,1.7,3.7,3.7,3.7h32.6c1,0,1.9-0.4,2.6-1.1l12.5-12.5c1.5-1.5,1.5-3.8,0-5.3
				l-12.5-12.5c-0.7-0.7-1.6-1.1-2.6-1.1h-32.6C378.4,375,376.7,376.7,376.7,378.7z"/>
			<line class="st5" x1="371.3" y1="391.2" x2="376.7" y2="391.2"/>
			<line class="st4" x1="436.3" y1="391.2" x2="430.8" y2="391.2"/>
		</g>
	</g>
	<g>
		<g>
			<line class="st6" x1="970.7" y1="540.4" x2="1008.6" y2="540.4"/>
			<polyline class="st6" points="970.7,540.4 970.7,502.5 1003.2,502.5 			"/>
			<polyline class="st6" points="992.3,491.7 1003.2,502.5 992.3,513.3 			"/>
		</g>
		<g>
			<line class="st7" x1="1008.6" y1="540.4" x2="1051.9" y2="540.4"/>
		</g>
		<g>
			<line class="st6" x1="1116.8" y1="540.4" x2="1160.1" y2="540.4"/>
			<line class="st6" x1="1122.1" y1="525" x2="1154.5" y2="525"/>
			<line class="st6" x1="1138.4" y1="525" x2="1138.4" y2="540.4"/>
		</g>
		<g>
			<path class="st8" d="M1057.3,528.1v24.4c0,2.2,1.8,4,4,4h32.2c1.1,0,2.1-0.4,2.8-1.2l12.2-12.2c1.6-1.6,1.6-4.1,0-5.7l-12.2-12.2
				c-0.8-0.8-1.8-1.2-2.8-1.2h-32.2C1059.1,524.1,1057.3,525.9,1057.3,528.1z"/>
			<line class="st8" x1="1051.9" y1="540.4" x2="1057.3" y2="540.4"/>
			<line class="st7" x1="1116.8" y1="540.4" x2="1111.4" y2="540.4"/>
		</g>
	</g>
	<g>
		<path class="st9" d="M474.1,449.4"/>
	</g>
	<polygon class="st10" points="262.9,375.9 252.1,370.5 252.1,381.3 	"/>
	<path class="st11" d="M530.2,460.2h-34.6c-2.4,0-4.4-2-4.4-4.4v-12.9c0-2.4,2-4.4,4.4-4.4h34.6c2.4,0,4.4,2,4.4,4.4v12.9
		C534.5,458.3,532.6,460.2,530.2,460.2z"/>
	<text transform="matrix(1 0 0 1 497.0579 427.7549)" class="st12 st13">σ28</text>
	<path class="st14" d="M185.7,386.7h-33.9c-2.6,0-4.7-2.1-4.7-4.7v-12.3c0-2.6,2.1-4.7,4.7-4.7h33.9c2.6,0,4.7,2.1,4.7,4.7V382
		C190.4,384.6,188.3,386.7,185.7,386.7z"/>
	<text transform="matrix(1 0 0 1 152.8992 354.2514)" class="st12 st13">σ70</text>
	<path class="st15" d="M1216,606.4h-37.5c-1.6,0-2.9-1.3-2.9-2.9v-15.8c0-1.6,1.3-2.9,2.9-2.9h37.5c1.6,0,2.9,1.3,2.9,2.9v15.8
		C1218.9,605.1,1217.6,606.4,1216,606.4z"/>
	<text transform="matrix(1 0 0 1 1169.3223 578.8344)" class="st12 st13">deGFP</text>
	<polyline class="st10" points="205,375.9 249.9,375.9 249.9,375.9 	"/>
	<path class="st16" d="M551.7,449.4l0.3,103.8c0,4.6,2.7,8.3,5.9,8.3h381.6h-177"/>
	<path class="st17" d="M882.2,534.6h-36.2c-1.9,0-3.5-1.6-3.5-3.5v-14.6c0-1.9,1.6-3.5,3.5-3.5h36.2c1.9,0,3.5,1.6,3.5,3.5v14.6
		C885.7,533,884.1,534.6,882.2,534.6z"/>
	<g>
		<line class="st1" x1="949.6" y1="538.2" x2="949.6" y2="505.8"/>
	</g>
	<text transform="matrix(0.9953 0 0 1 846.4461 504.5918)" class="st12 st18">tetR</text>
	<path class="st19" d="M250.4,223.7c0,0,3.5,5.4,5.4,5.4c1.9,0,3.5-5.4,5.4-5.4c1.9,0,3.5,5.4,5.4,5.4c1.9,0,3.5-5.4,5.4-5.4
		c1.9,0,3.5,5.4,5.4,5.4c1.9,0,3.5-5.4,5.4-5.4c1.9,0,3.5,5.4,5.4,5.4c1.9,0,3.5-5.4,5.4-5.4c1.9,0,3.5,5.4,5.4,5.4
		c1.9,0,3.5-5.4,5.4-5.4c1.9,0,3.5,5.4,5.4,5.4c1.9,0,3.5-5.4,5.4-5.4c1.9,0,3.5,5.4,5.4,5.4c1.9,0,3.5-5.4,5.4-5.4
		c1.9,0,3.5,5.4,5.4,5.4c1.9,0,5.4-5.4,5.4-5.4"/>
	<text transform="matrix(1 0 0 1 185.4404 229.065)" class="st12 st13">igRNA</text>
	<path class="st20" d="M272,245.3c-12,0-21.6,9.7-21.6,21.6c0,7.1,3.4,13.4,8.7,17.3c-0.9,1.2-1.4,2.7-1.4,4.3c0,4,3.2,7.2,7.2,7.2
		s7.2-3.2,7.2-7.2c12,0,21.6-9.7,21.6-21.6S284,245.3,272,245.3z"/>
	<text transform="matrix(1 0 0 1 196.2642 272.355)" class="st12 st13">Cas9</text>
	<path class="st20" d="M550.6,195.8c-12,0-21.6,9.7-21.6,21.6c0,7.1,3.4,13.4,8.7,17.3c-0.9,1.2-1.4,2.7-1.4,4.3
		c0,4,3.2,7.2,7.2,7.2s7.2-3.2,7.2-7.2c12,0,21.6-9.7,21.6-21.6C572.2,205.5,562.5,195.8,550.6,195.8z"/>
	<path class="st21" d="M507.3,222.8c0,0,3.5,5.4,5.4,5.4c1.9,0,3.5-5.4,5.4-5.4c1.9,0,3.5,5.4,5.4,5.4c1.9,0,3.5-5.4,5.4-5.4
		c1.9,0,3.5,5.4,5.4,5.4c1.9,0,3.5-5.4,5.4-5.4c1.9,0,3.5,5.4,5.4,5.4c1.9,0,3.5-5.4,5.4-5.4c1.9,0,3.5,5.4,5.4,5.4
		c1.9,0,3.5-5.4,5.4-5.4c1.9,0,3.5,5.4,5.4,5.4c1.9,0,3.5-5.4,5.4-5.4c1.9,0,3.5,5.4,5.4,5.4c1.9,0,3.5-5.4,5.4-5.4
		c1.9,0,3.5,5.4,5.4,5.4c1.9,0,5.4-5.4,5.4-5.4"/>
	<path class="st19" d="M507.3,228.3c0,0,3.5-5.4,5.4-5.4c1.9,0,3.5,5.4,5.4,5.4c1.9,0,3.5-5.4,5.4-5.4c1.9,0,3.5,5.4,5.4,5.4
		c1.9,0,3.5-5.4,5.4-5.4c1.9,0,3.5,5.4,5.4,5.4c1.9,0,3.5-5.4,5.4-5.4c1.9,0,3.5,5.4,5.4,5.4"/>
	<path class="st21" d="M254.9,180.2c0,0,3.5-5.4,5.4-5.4c1.9,0,3.5,5.4,5.4,5.4c1.9,0,3.5-5.4,5.4-5.4c1.9,0,3.5,5.4,5.4,5.4
		c1.9,0,3.5-5.4,5.4-5.4c1.9,0,3.5,5.4,5.4,5.4c1.9,0,3.5-5.4,5.4-5.4c1.9,0,3.5,5.4,5.4,5.4"/>
	<text transform="matrix(1 0 0 1 150.0879 185.6069)" class="st12 st13">target RNA</text>
	<path class="st22" d="M380.2,224v34.5c0,4.7-3.8,8.5-8.5,8.5h-61.9"/>
	<path class="st22" d="M309.9,177.5h64.2c3.4,0,6.2,2.8,6.2,6.2v37.5"/>
	<line class="st22" x1="472.2" y1="223.7" x2="380.2" y2="223.7"/>
	<line class="st22" x1="353.2" y1="223.7" x2="380.2" y2="223.7"/>
	<polygon class="st23" points="484.3,223.7 473.5,218.2 473.5,229.1 	"/>
	<path class="st24" d="M744.2,426.6"/>
	<path class="st24" d="M744.2,392.8"/>
	<path class="st24" d="M744.2,392.8"/>
	<path class="st24" d="M534.5,382"/>
	<path class="st24" d="M534.5,382"/>
	<path class="st24" d="M534.5,286"/>
	<line class="st25" x1="760.5" y1="426.6" x2="728" y2="426.6"/>
	<text transform="matrix(1 0 0 1 284.7391 418.2861)" class="st12 st13">P70a</text>
	<text transform="matrix(1 0 0 1 631.9471 493.2871)" class="st12 st13">P28a</text>
	<text transform="matrix(1 0 0 1 961.0381 571.0678)" class="st12 st13">P28a-tetO</text>
	<text transform="matrix(1 0 0 1 729.3504 471.0459)" class="st12 st13">tetR</text>
	<text transform="matrix(1 0 0 1 1057.2646 545.7651)" class="st12 st26">deGFP</text>
	<text transform="matrix(1 0 0 1 383.8133 396.6406)" class="st12 st13">σ28</text>
	<text transform="matrix(1 0 0 1 512.6964 266.1381)" class="st12 st13">Complex</text>
	<polygon class="st9" points="613.4,449.4 602.5,444 602.5,454.8 	"/>
	<polyline class="st16" points="551.7,449.4 600.4,449.4 600.4,449.4 	"/>
	<path class="st27" d="M813.6,471.2"/>
	<path class="st27" d="M745.6,471.2"/>
	<path class="st27" d="M745.6,471.2"/>
	<polygon class="st2" points="821.3,523.8 810.9,518.4 810.9,529.2 	"/>
	<polygon class="st9" points="951,561.5 940.5,556.1 940.5,567 	"/>
	<g>
		<path class="st27" d="M1145.6,595.6"/>
		<path class="st27" d="M1077.6,595.6"/>
		<path class="st27" d="M1077.6,595.6"/>
		<polygon class="st28" points="1156,595.6 1145.6,590.2 1145.6,601 		"/>
	</g>
	<path class="st25" d="M551.7,286v93.3c0,6.2,3,11.9,8.8,11.9h171.9c5.5,0,11.9,5.3,11.9,11.3v24.1"/>
	<path class="st1" d="M744.2,498.1v21c0,2.6,2.1,4.8,4.8,4.8h59.6"/>
	<path class="st27" d="M1079.2,595.6"/>
	<path class="st27" d="M1079.2,595.6"/>
	<path class="st29" d="M1079.2,569.8v21c0,2.6,2.1,4.8,4.8,4.8h59.6"/>
	<line class="st1" x1="900.9" y1="523.8" x2="949.6" y2="523.8"/>
	<polygon class="st9" points="474.8,448.7 464.3,443.3 464.3,454.2 	"/>
	<path class="st16" d="M397.7,423v21c0,2.6,2.1,4.8,4.8,4.8h59.6"/>
	<path class="st5" d="M328.8,391.2c0-10.5,8.5-18.9,18.9-18.9s18.9,8.5,18.9,18.9"/>
	<path class="st2" d="M672,464.3c0-10.5,8.5-18.9,18.9-18.9c10.5,0,18.9,8.5,18.9,18.9"/>
	<path class="st8" d="M1008.6,538.7c0-10.5,8.5-18.9,18.9-18.9c10.5,0,18.9,8.5,18.9,18.9"/>
</g>
<g id="图层_3">
</g>
</svg>
