<?xml version="1.0" encoding="utf-8"?>
<!-- Generator: Adobe Illustrator 25.2.1, SVG Export Plug-In . SVG Version: 6.00 Build 0)  -->
<svg version="1.1" id="图层_1" xmlns="http://www.w3.org/2000/svg" xmlns:xlink="http://www.w3.org/1999/xlink" x="0px" y="0px"
	 viewBox="0 0 976 323.4" style="enable-background:new 0 0 976 323.4;" xml:space="preserve">
<style type="text/css">
	.st0{fill:none;stroke:#C2D7EC;stroke-width:8;stroke-miterlimit:10;}
	.st1{fill:none;stroke:#8FBAF3;stroke-width:8;stroke-miterlimit:10;}
	.st2{fill:none;stroke:#34495E;stroke-width:5;stroke-miterlimit:10;}
	.st3{fill:none;stroke:#3498DB;stroke-width:5;stroke-miterlimit:10;}
	.st4{fill:none;stroke:#3498DB;stroke-width:8;stroke-miterlimit:10;}
	.st5{fill:none;stroke:#CFCECF;stroke-width:8;stroke-miterlimit:10;}
	.st6{fill:none;stroke:#B0CE94;stroke-width:8;stroke-miterlimit:10;}
	.st7{fill:none;stroke:url(#SVGID_1_);stroke-width:5;stroke-miterlimit:10;}
	.st8{fill:none;stroke:#CFCECF;stroke-width:5;stroke-miterlimit:10;}
	.st9{fill:none;stroke:#00C9B1;stroke-width:5;stroke-miterlimit:10;}
	.st10{fill:none;}
	.st11{font-family:'OpenSans-Bold';}
	.st12{font-size:24px;}
	.st13{font-family:'OpenSans-SemiBold';}
	.st14{font-size:16px;}
	.st15{fill:#F5C142;}
	.st16{fill:#A3C3E1;}
	.st17{fill:#F2997C;stroke:#F2997C;stroke-miterlimit:10;}
	.st18{fill:#B0CE94;}
	.st19{fill:#CBDEB7;}
	.st20{fill:#8FBAF3;}
	.st21{fill:none;stroke:#F5C142;stroke-width:8;stroke-miterlimit:10;}
	.st22{fill:none;stroke:#F2997C;stroke-width:8;stroke-miterlimit:10;}
</style>
<line class="st0" x1="604.4" y1="223.3" x2="415.4" y2="222.5"/>
<g>
	<path class="st1" d="M251.7,135.8c21.1,0,38.2-17.1,38.2-38.2V87.1c0-21.1-17.1-38.2-38.2-38.2"/>
</g>
<path class="st2" d="M137.1,174.3"/>
<path class="st2" d="M175,212.2"/>
<line class="st3" x1="255.6" y1="135.6" x2="255.6" y2="135.6"/>
<path class="st4" d="M279,123.8"/>
<path class="st3" d="M290.1,95"/>
<line class="st3" x1="255.6" y1="50.3" x2="255.6" y2="50.3"/>
<path class="st2" d="M252.8,96.5"/>
<line class="st5" x1="252" y1="135.8" x2="142.4" y2="135.8"/>
<path class="st3" d="M115,210.7"/>
<path class="st3" d="M104,181.9"/>
<g>
	<path class="st6" d="M142.2,222.5c-21.1,0-38.2-17.1-38.2-38.2v-10.5c0-21.1,17.1-38.2,38.2-38.2"/>
</g>
<line class="st5" x1="289.8" y1="222.5" x2="142.7" y2="222.7"/>
<line class="st5" x1="252.2" y1="48.9" x2="104" y2="48.9"/>
<linearGradient id="SVGID_1_" gradientUnits="userSpaceOnUse" x1="663.7693" y1="458.3231" x2="663.7693" y2="458.3231" gradientTransform="matrix(1 0 0 1 0 -348)">
	<stop  offset="0" style="stop-color:#BDF1F6"/>
	<stop  offset="0.1278" style="stop-color:#C7EBEB"/>
	<stop  offset="0.398" style="stop-color:#D7E1D8"/>
	<stop  offset="0.682" style="stop-color:#E0DBCE"/>
	<stop  offset="1" style="stop-color:#E3D9CA"/>
</linearGradient>
<path class="st7" d="M663.8,110.3"/>
<polyline class="st8" points="603.2,148.1 640,148.1 663.8,148.1 "/>
<polyline class="st8" points="603.2,223.3 638,223.3 663.8,223.3 "/>
<polyline class="st8" points="603.2,185.5 640,185.5 663.8,185.5 "/>
<polyline class="st8" points="603.2,166.8 640,166.8 663.8,166.8 "/>
<polyline class="st8" points="603.2,129.2 640,129.2 663.8,129.2 "/>
<polyline class="st8" points="603.2,204.4 640,204.4 663.8,204.4 "/>
<line class="st9" x1="601.7" y1="110.3" x2="603.2" y2="110.3"/>
<rect x="105.2" y="244.8" class="st10" width="179.5" height="44.6"/>
<text transform="matrix(1 0 0 1 131.2727 264.9731)" class="st11 st12">Target RNA</text>
<rect x="543.7" y="244.8" class="st10" width="179.5" height="44.6"/>
<text transform="matrix(1 0 0 1 598.0967 264.9731)" class="st11 st12">igRNA</text>
<rect x="533.9" y="273.6" class="st10" width="201.5" height="19.6"/>
<text transform="matrix(1 0 0 1 533.8413 286.9157)" class="st13 st14">RNA-interacting guide RNA</text>
<circle class="st15" cx="581" cy="153.2" r="3.7"/>
<circle class="st16" cx="581" cy="184.3" r="3.7"/>
<circle class="st17" cx="687.2" cy="184.3" r="3.7"/>
<circle class="st18" cx="687.2" cy="110.3" r="3.7"/>
<circle class="st19" cx="126.1" cy="179" r="3.7"/>
<circle class="st20" cx="264.8" cy="91.3" r="3.7"/>
<path class="st18" d="M672.5,87.4c-0.9-22.1-19.2-39.3-40.7-38.4s-38.2,19.6-37.3,41.7c0.4,8.3,3.1,15.9,7.6,22.1
	c3.3-0.8,6.6-1.3,9.9-1.6c-5.2-5.4-8.6-12.7-9-20.9c-0.7-17.3,12.3-31.9,29.2-32.6c16.8-0.7,31.1,12.7,31.8,30
	c0.3,7.8-2.2,15.1-6.5,20.7l6.6,5.5C669.7,106.7,672.9,97.4,672.5,87.4z"/>
<polyline class="st8" points="603.2,110.3 640,110.3 663.8,110.3 "/>
<line class="st21" x1="603.2" y1="107.7" x2="603.2" y2="227.5"/>
<polyline class="st22" points="851.2,223.4 663.8,223.2 663.8,107.7 "/>
<rect x="68.2" y="81" class="st10" width="187.6" height="18.1"/>
<text transform="matrix(1 0 0 1 73.5336 94.7391)" class="st13 st14">Interacting sequence A</text>
<rect x="142.2" y="170" class="st10" width="187.6" height="18.1"/>
<text transform="matrix(1 0 0 1 147.4659 183.7367)" class="st13 st14">Interacting sequence B</text>
<rect x="379.5" y="145.1" class="st10" width="190.1" height="23.7"/>
<text transform="matrix(1 0 0 1 383.3753 158.8061)" class="st13 st14">Cis-repressed sequence</text>
<rect x="373.5" y="176" class="st10" width="202.1" height="30.6"/>
<text transform="matrix(1 0 0 1 382.5942 189.7112)" class="st13 st14">Recognition sequence A</text>
<rect x="672.5" y="175" class="st10" width="115.3" height="32.5"/>
<text transform="matrix(1 0 0 1 704.6249 188.726)" class="st13 st14">spacer</text>
<rect x="696.3" y="100.9" class="st10" width="202.1" height="30.6"/>
<text transform="matrix(1 0 0 1 705.3967 114.6292)" class="st13 st14">Recognition sequence B</text>
</svg>
