<?xml version="1.0" encoding="utf-8"?>
<!-- Generator: Adobe Illustrator 25.2.1, SVG Export Plug-In . SVG Version: 6.00 Build 0)  -->
<svg version="1.1" id="图层_1" xmlns="http://www.w3.org/2000/svg" xmlns:xlink="http://www.w3.org/1999/xlink" x="0px" y="0px"
	 viewBox="0 0 390 213.5" style="enable-background:new 0 0 390 213.5;" xml:space="preserve">
<style type="text/css">
	.st0{fill:#F1C40F;}
	.st1{fill:none;stroke:#80D6FF;stroke-width:5;stroke-linecap:round;stroke-miterlimit:10;}
	.st2{fill:#80D6FF;stroke:#80D6FF;stroke-width:5;stroke-linecap:round;stroke-miterlimit:10;}
	.st3{font-family:'OpenSans-Regular';}
	.st4{font-size:18.0377px;}
</style>
<g>
	<path class="st0" d="M348.9,10.6c14,0,25.3,11.4,25.3,25.3v139.5c0,14-11.4,25.3-25.3,25.3H40.2c-14,0-25.3-11.4-25.3-25.3V35.9
		c0-14,11.4-25.3,25.3-25.3L348.9,10.6 M348.9,9.6H40.2c-14.5,0-26.3,11.8-26.3,26.3v139.5c0,14.5,11.8,26.3,26.3,26.3h308.7
		c14.5,0,26.3-11.8,26.3-26.3V35.9C375.3,21.4,363.5,9.6,348.9,9.6L348.9,9.6z"/>
</g>
<g>
	<g>
		<line class="st1" x1="102.6" y1="116.5" x2="140.5" y2="116.5"/>
		<polyline class="st1" points="102.6,116.5 102.6,78.7 135.1,78.7 		"/>
		<polyline class="st1" points="124.2,67.8 135.1,78.7 124.2,89.5 		"/>
	</g>
	<g>
		<line class="st1" x1="140.5" y1="116.5" x2="183.8" y2="116.5"/>
	</g>
	<g>
		<line class="st1" x1="248.7" y1="116.5" x2="292" y2="116.5"/>
		<line class="st1" x1="255.5" y1="101.2" x2="288" y2="101.2"/>
		<line class="st1" x1="270.3" y1="101.2" x2="270.3" y2="116.5"/>
	</g>
	<g>
		<path class="st2" d="M189.2,104v25c0,2.1,1.7,3.7,3.7,3.7h32.6c1,0,1.9-0.4,2.6-1.1l12.5-12.5c1.5-1.5,1.5-3.8,0-5.3l-12.5-12.5
			c-0.7-0.7-1.6-1.1-2.6-1.1h-32.6C190.8,100.3,189.2,102,189.2,104z"/>
		<line class="st1" x1="183.8" y1="116.5" x2="189.2" y2="116.5"/>
		<line class="st1" x1="248.7" y1="116.5" x2="243.3" y2="116.5"/>
	</g>
</g>
<text transform="matrix(1 0 0 1 97.1798 143.6022)" class="st3 st4">P70a</text>
<text transform="matrix(1 0 0 1 196.254 121.9567)" class="st3 st4">σ28</text>
<path class="st2" d="M139,115.2c0-10.5,8.5-18.9,18.9-18.9s18.9,8.5,18.9,18.9"/>
</svg>
