<svg id="图层_1" data-name="图层 1" xmlns="http://www.w3.org/2000/svg" viewBox="0 0 365 362.5"><defs><style>.cls-1,.cls-2{fill:none;}.cls-1,.cls-2,.cls-3{stroke:#000;stroke-width:5px;}.cls-1{stroke-miterlimit:10;}.cls-2,.cls-3{stroke-linecap:round;stroke-linejoin:round;}.cls-3{fill:#39b54a;}</style></defs><title>基因线路</title><path d="M1500.27586,1323.26724a31,31,0,1,1-31,31,31.03955,31.03955,0,0,1,31-31m0-5a36,36,0,1,0,36,36,36.00288,36.00288,0,0,0-36-36Z" transform="translate(-1317.77586 -1318.26724)"/><circle class="cls-1" cx="38.5" cy="180" r="36"/><circle class="cls-1" cx="326.5" cy="180" r="36"/><circle class="cls-1" cx="182.5" cy="324" r="36"/><polyline class="cls-2" points="146.5 72 74.5 144 74.5 117"/><polyline class="cls-2" points="218 71.5 290 143.5 263.5 144"/><line class="cls-2" x1="281" y1="179.5" x2="92.5" y2="179.5"/><path class="cls-3" d="M1535.77586,1606.76724" transform="translate(-1317.77586 -1318.26724)"/><line class="cls-2" x1="83.5" y1="166.77" x2="83.5" y2="192.23"/><line class="cls-2" x1="83.5" y1="144" x2="101.5" y2="144"/><line class="cls-2" x1="290.5" y1="135" x2="290.5" y2="117"/><line class="cls-2" x1="218.5" y1="288" x2="288.79001" y2="217.71001"/><line class="cls-2" x1="304.14999" y1="220.35001" x2="286.14999" y2="202.35001"/></svg>