<svg id="图层_1" data-name="图层 1" xmlns="http://www.w3.org/2000/svg" viewBox="0 0 378.32999 320"><defs><style>.cls-1,.cls-2,.cls-3{fill:none;stroke:#000;stroke-linecap:round;stroke-linejoin:round;}.cls-1{stroke-width:5px;}.cls-2{stroke-width:5.00003px;}.cls-3{stroke-width:4.99995px;}</style></defs><title>识别元件</title><polygon class="cls-1" points="180.03 82.25 165.83 109.05 186.93 130.83 214.17 117.5 209.91 87.48 180.03 82.25"/><rect class="cls-2" x="1550.73145" y="1361.5585" width="46.67025" height="46.67027" transform="translate(-1759.65861 -506.57225) rotate(-26.0782)"/><polygon class="cls-1" points="355.34 60.83 305.83 82.11 349.01 114.35 355.34 60.83"/><polygon class="cls-1" points="101.25 107.5 74.3 107.5 60.83 130.83 74.3 154.17 101.25 154.17 114.72 130.83 101.25 107.5"/><path class="cls-1" d="M1686.94086,1634.51724v-112.98a51.32918,51.32918,0,0,0-51.18-51.18h-7.15l-13.47,23.33h-26.94l-13.47-23.33h-48.34l-13.47,23.33h-26.94l-13.47-23.33h-46.67l-13.47,23.33h-26.96l-13.47-23.33h-7.15a51.32917,51.32917,0,0,0-51.18,51.18v84.3a51.32917,51.32917,0,0,0,51.18,51.18h299.65" transform="translate(-1311.11087 -1339.51724)"/><polygon class="cls-1" points="136.46 2.5 119.17 23.16 128.42 48.47 154.96 53.11 172.25 32.45 163 7.14 136.46 2.5"/><rect class="cls-3" x="1334.94355" y="1386.67765" width="46.66955" height="46.66955" transform="translate(-1910.3097 33.91365) rotate(-45)"/></svg>