<svg id="图层_1" data-name="图层 1" xmlns="http://www.w3.org/2000/svg" viewBox="0 0 223.87866 175.7233"><defs><style>.cls-1{fill:#cfdfe7;}.cls-2,.cls-3{fill:none;stroke-linecap:round;stroke-linejoin:round;stroke-width:7px;}.cls-2{stroke:#0071bc;}.cls-3{stroke:#f7931e;}</style></defs><title>cas9</title><path class="cls-1" d="M1556.83325,1425.71448c.10144-1.22644.16675-2.463.16675-3.71448h0a45.1323,45.1323,0,0,0-45-45h0a45.1474,45.1474,0,0,0-41.20984,27H1462.5a31.59782,31.59782,0,0,0-28.43823,18H1422a45.1323,45.1323,0,0,0-45,45h0a45.1323,45.1323,0,0,0,45,45h117a45.1323,45.1323,0,0,0,45-45h0A45.151,45.151,0,0,0,1556.83325,1425.71448Z" transform="translate(-1363.62134 -1337.77668)"/><path class="cls-2" d="M1584,1492h-9.22105A8.779,8.779,0,0,1,1566,1483.22105v-8.91264a9.20493,9.20493,0,0,0-8.40093-9.28894A9.00072,9.00072,0,0,0,1548,1474v26.69163a9.20489,9.20489,0,0,1-8.40093,9.28891A9.00074,9.00074,0,0,1,1530,1501v-44.69163a9.20489,9.20489,0,0,0-8.40093-9.28891A9.00074,9.00074,0,0,0,1512,1456v16.13158A10.86842,10.86842,0,0,1,1501.13158,1483h-78.55769a12.08239,12.08239,0,0,1-11.97573-10.48055l-3.91924-29.30139a26.75534,26.75534,0,0,0-7.0801-51.94753l-5.71764-41.951" transform="translate(-1363.62134 -1337.77668)"/><path class="cls-3" d="M1367.55336,1341.27668c8.94664.22332,10.29689,3.50665,11.76247,10.028h0l5.71764,41.951a26.75534,26.75534,0,0,0,7.08009,51.94753l5.4877,40.26385-3.08059,4.34328" transform="translate(-1363.62134 -1337.77668)"/></svg>