<?xml version="1.0" encoding="utf-8"?>
<!-- Generator: Adobe Illustrator 25.2.1, SVG Export Plug-In . SVG Version: 6.00 Build 0)  -->
<svg version="1.1" id="图层_1" xmlns="http://www.w3.org/2000/svg" xmlns:xlink="http://www.w3.org/1999/xlink" x="0px" y="0px"
	 viewBox="0 0 1366 768" style="enable-background:new 0 0 1366 768;" xml:space="preserve">
<style type="text/css">
	.st0{fill:#F1C40F;}
	.st1{fill:none;stroke:#80D6FF;stroke-width:5;stroke-linecap:round;stroke-miterlimit:10;}
	.st2{fill:#80D6FF;stroke:#80D6FF;stroke-width:5;stroke-linecap:round;stroke-miterlimit:10;}
	.st3{font-family:'OpenSans-Regular';}
	.st4{font-size:40.7887px;}
</style>
<g>
	<path class="st0" d="M1026.2,176.3c31.7,0,57.2,25.8,57.2,57.2V549c0,31.7-25.8,57.2-57.2,57.2H327.9c-31.7,0-57.2-25.8-57.2-57.2
		V233.5c0-31.7,25.8-57.2,57.2-57.2L1026.2,176.3 M1026.2,174H327.9c-32.8,0-59.5,26.7-59.5,59.5V549c0,32.8,26.7,59.5,59.5,59.5
		h698.1c32.8,0,59.5-26.7,59.5-59.5V233.5C1085.6,200.7,1058.9,174,1026.2,174L1026.2,174z"/>
</g>
<g>
	<g>
		<line class="st1" x1="469" y1="415.8" x2="554.7" y2="415.8"/>
		<polyline class="st1" points="469,415.8 469,330.1 542.5,330.1 		"/>
		<polyline class="st1" points="518,305.6 542.5,330.1 518,354.7 		"/>
	</g>
	<g>
		<line class="st1" x1="554.7" y1="415.8" x2="652.6" y2="415.8"/>
	</g>
	<g>
		<line class="st1" x1="799.3" y1="415.8" x2="897.3" y2="415.8"/>
		<line class="st1" x1="814.9" y1="381.2" x2="888.2" y2="381.2"/>
		<line class="st1" x1="848.4" y1="381.2" x2="848.4" y2="415.8"/>
	</g>
	<g>
		<path class="st2" d="M664.8,387.5V444c0,4.7,3.8,8.4,8.4,8.4h73.7c2.3,0,4.3-0.9,5.9-2.5l28.3-28.3c3.4-3.4,3.4-8.6,0-12
			l-28.3-28.3c-1.6-1.6-3.6-2.5-5.9-2.5h-73.7C668.6,379.1,664.8,383,664.8,387.5z"/>
		<line class="st1" x1="652.6" y1="415.8" x2="664.8" y2="415.8"/>
		<line class="st1" x1="799.3" y1="415.8" x2="787.1" y2="415.8"/>
	</g>
</g>
<text transform="matrix(1 0 0 1 456.7397 477.0051)" class="st3 st4">P70a</text>
<text transform="matrix(1 0 0 1 680.7758 428.0579)" class="st3 st4">σ28</text>
<path class="st2" d="M551.3,412.8c0-23.7,19.2-42.7,42.7-42.7c23.7,0,42.7,19.2,42.7,42.7"/>
</svg>
