<?xml version="1.0" encoding="utf-8"?>
<!-- Generator: Adobe Illustrator 25.2.1, SVG Export Plug-In . SVG Version: 6.00 Build 0)  -->
<svg version="1.1" xmlns="http://www.w3.org/2000/svg" xmlns:xlink="http://www.w3.org/1999/xlink" x="0px" y="0px"
	 viewBox="0 0 1366 768" style="enable-background:new 0 0 1366 768;" xml:space="preserve">
<style type="text/css">
	.st0{fill:#F1C40F;}
	.st1{fill:none;stroke:#80D6FF;stroke-width:5;stroke-linecap:round;stroke-miterlimit:10;}
	.st2{fill:#29ABE2;stroke:#80D6FF;stroke-width:5;stroke-linecap:round;stroke-miterlimit:10;}
	.st3{fill:#80D6FF;stroke:#80D6FF;stroke-width:5;stroke-linecap:round;stroke-miterlimit:10;}
	.st4{font-family:'OpenSans-Regular';}
	.st5{font-size:18.0377px;}
	.st6{fill:none;stroke:#F7F48B;stroke-width:5;stroke-linecap:round;stroke-miterlimit:10;}
	.st7{fill:#F7F48B;stroke:#F7F48B;stroke-width:5;stroke-linecap:round;stroke-miterlimit:10;}
	.st8{fill:#FBB03B;stroke:#F7F48B;stroke-width:5;stroke-linecap:round;stroke-miterlimit:10;}
	.st9{fill:none;stroke:#29ABE2;stroke-width:5;stroke-linecap:round;stroke-miterlimit:10;}
	.st10{fill:none;stroke:#A1DE93;stroke-width:5;stroke-linecap:round;stroke-miterlimit:10;}
	.st11{fill:#39B54A;stroke:#A1DE93;stroke-width:5;stroke-linecap:round;stroke-miterlimit:10;}
	.st12{fill:#A1DE93;stroke:#A1DE93;stroke-width:5;stroke-linecap:round;stroke-miterlimit:10;}
	.st13{font-size:15.0314px;}
</style>
<g id="图层_1">
	<g>
		<path class="st0" d="M451.2,288.9c14,0,25.3,11.4,25.3,25.3v139.5c0,14-11.4,25.3-25.3,25.3H142.4c-14,0-25.3-11.4-25.3-25.3
			V314.2c0-14,11.4-25.3,25.3-25.3H451.2 M451.2,287.9H142.4c-14.5,0-26.3,11.8-26.3,26.3v139.5c0,14.5,11.8,26.3,26.3,26.3h308.7
			c14.5,0,26.3-11.8,26.3-26.3V314.2C477.5,299.7,465.7,287.9,451.2,287.9L451.2,287.9z"/>
	</g>
	<g>
		<path class="st0" d="M837.4,288.9c14,0,25.3,11.4,25.3,25.3v139.5c0,14-11.4,25.3-25.3,25.3H528.6c-14,0-25.3-11.4-25.3-25.3
			V314.2c0-14,11.4-25.3,25.3-25.3H837.4 M837.4,287.9H528.6c-14.5,0-26.3,11.8-26.3,26.3v139.5c0,14.5,11.8,26.3,26.3,26.3h308.7
			c14.5,0,26.3-11.8,26.3-26.3V314.2C863.7,299.7,851.9,287.9,837.4,287.9L837.4,287.9z"/>
	</g>
	<g>
		<path class="st0" d="M1223.6,288.9c14,0,25.3,11.4,25.3,25.3v139.5c0,14-11.4,25.3-25.3,25.3H914.8c-14,0-25.3-11.4-25.3-25.3
			V314.2c0-14,11.4-25.3,25.3-25.3H1223.6 M1223.6,287.9H914.8c-14.5,0-26.3,11.8-26.3,26.3v139.5c0,14.5,11.8,26.3,26.3,26.3h308.7
			c14.5,0,26.3-11.8,26.3-26.3V314.2C1249.9,299.7,1238.1,287.9,1223.6,287.9L1223.6,287.9z"/>
	</g>
</g>
<g id="图层_2">
	<g>
		<g>
			<line class="st1" x1="204.8" y1="394.8" x2="242.7" y2="394.8"/>
			<polyline class="st1" points="204.8,394.8 204.8,356.9 237.3,356.9 			"/>
			<polyline class="st1" points="226.5,346.1 237.3,356.9 226.5,367.8 			"/>
		</g>
		<g>
			<line class="st2" x1="242.7" y1="394.8" x2="286" y2="394.8"/>
		</g>
		<g>
			<line class="st1" x1="350.9" y1="394.8" x2="394.2" y2="394.8"/>
			<line class="st1" x1="357.8" y1="379.5" x2="390.2" y2="379.5"/>
			<line class="st1" x1="372.6" y1="379.5" x2="372.6" y2="394.8"/>
		</g>
		<g>
			<path class="st3" d="M291.4,382.3v25c0,2.1,1.7,3.7,3.7,3.7h32.6c1,0,1.9-0.4,2.6-1.1l12.5-12.5c1.5-1.5,1.5-3.8,0-5.3
				l-12.5-12.5c-0.7-0.7-1.6-1.1-2.6-1.1h-32.6C293.1,378.6,291.4,380.3,291.4,382.3z"/>
			<line class="st3" x1="286" y1="394.8" x2="291.4" y2="394.8"/>
			<line class="st2" x1="350.9" y1="394.8" x2="345.5" y2="394.8"/>
		</g>
	</g>
	<text transform="matrix(1 0 0 1 199.3938 421.8793)" class="st4 st5">P70a</text>
	<text transform="matrix(1 0 0 1 298.468 400.2338)" class="st4 st5">σ28</text>
	<g>
		<g>
			<line class="st6" x1="598" y1="395.5" x2="635.9" y2="395.5"/>
			<polyline class="st6" points="598,395.5 598,357.6 630.5,357.6 			"/>
			<polyline class="st6" points="619.7,346.8 630.5,357.6 619.7,368.4 			"/>
		</g>
		<g>
			<line class="st7" x1="635.9" y1="395.5" x2="679.2" y2="395.5"/>
		</g>
		<g>
			<line class="st6" x1="744.1" y1="395.5" x2="787.4" y2="395.5"/>
			<line class="st6" x1="750.1" y1="380.3" x2="782.6" y2="380.3"/>
			<line class="st6" x1="765.8" y1="380.3" x2="765.8" y2="395.5"/>
		</g>
		<g>
			<path class="st7" d="M684.6,382v26.9c0,1.5,1.2,2.8,2.8,2.8h33.9c0.7,0,1.4-0.3,2-0.8l13.4-13.4c1.1-1.1,1.1-2.9,0-3.9L723.3,380
				c-0.5-0.5-1.2-0.8-2-0.8h-33.9C685.8,379.2,684.6,380.5,684.6,382z"/>
			<line class="st8" x1="679.2" y1="395.5" x2="684.6" y2="395.5"/>
			<line class="st7" x1="744.1" y1="395.5" x2="738.7" y2="395.5"/>
		</g>
	</g>
	<text transform="matrix(1 0 0 1 592.5953 423.1082)" class="st4 st5">P28a</text>
	<text transform="matrix(1 0 0 1 689.9986 400.867)" class="st4 st5">tetR</text>
	<path class="st9" d="M774.2,401"/>
	<path class="st9" d="M706.2,401"/>
	<path class="st9" d="M706.2,401"/>
	<g>
		<g>
			<line class="st10" x1="980.6" y1="394.1" x2="1018.4" y2="394.1"/>
			<polyline class="st10" points="980.6,394.1 980.6,356.2 1013,356.2 			"/>
			<polyline class="st10" points="1002.2,345.4 1013,356.2 1002.2,367 			"/>
		</g>
		<g>
			<line class="st11" x1="1018.4" y1="394.1" x2="1061.7" y2="394.1"/>
		</g>
		<g>
			<line class="st10" x1="1126.7" y1="394.1" x2="1169.9" y2="394.1"/>
			<line class="st10" x1="1131.9" y1="378.7" x2="1164.4" y2="378.7"/>
			<line class="st10" x1="1148.3" y1="378.7" x2="1148.3" y2="394.1"/>
		</g>
		<g>
			<path class="st12" d="M1067.1,381.8v24.4c0,2.2,1.8,4,4,4h32.2c1.1,0,2.1-0.4,2.8-1.2l12.2-12.2c1.6-1.6,1.6-4.1,0-5.7
				l-12.2-12.2c-0.8-0.8-1.8-1.2-2.8-1.2h-32.2C1068.9,377.8,1067.1,379.6,1067.1,381.8z"/>
			<line class="st12" x1="1061.7" y1="394.1" x2="1067.1" y2="394.1"/>
			<line class="st11" x1="1126.7" y1="394.1" x2="1121.2" y2="394.1"/>
		</g>
	</g>
	<text transform="matrix(1 0 0 1 1067.1346 399.4658)" class="st4 st13">deGFP</text>
	<text transform="matrix(1 0 0 1 976.3195 421.8793)" class="st4 st5">P28a-tetO</text>
	<path class="st3" d="M241.2,393.5c0-10.5,8.5-18.9,18.9-18.9c10.5,0,18.9,8.5,18.9,18.9"/>
	<path class="st7" d="M632.6,393.5c0-10.5,8.5-18.9,18.9-18.9c10.5,0,18.9,8.5,18.9,18.9"/>
	<path class="st12" d="M1013,393.5c0-10.5,8.5-18.9,18.9-18.9s18.9,8.5,18.9,18.9"/>
</g>
</svg>
