<?xml version="1.0" encoding="utf-8"?>
<!-- Generator: Adobe Illustrator 25.2.1, SVG Export Plug-In . SVG Version: 6.00 Build 0)  -->
<svg version="1.1" xmlns="http://www.w3.org/2000/svg" xmlns:xlink="http://www.w3.org/1999/xlink" x="0px" y="0px"
	 viewBox="0 0 1366 768" style="enable-background:new 0 0 1366 768;" xml:space="preserve">
<style type="text/css">
	.st0{fill:#C4EADA;}
	.st1{fill:#B3B3B3;stroke:#CCCCCC;stroke-width:5;stroke-miterlimit:10;}
	.st2{fill:#B2E672;}
	.st3{fill:#CCCCCC;}
	.st4{fill:none;stroke:#FFC338;stroke-width:8;stroke-miterlimit:10;}
	.st5{fill:none;stroke:#12CC94;stroke-width:8;stroke-miterlimit:10;}
	.st6{fill:#FFC338;stroke:#FFC338;stroke-miterlimit:10;}
	.st7{fill:none;stroke:#6BC5D2;stroke-width:8;stroke-miterlimit:10;}
	.st8{fill:url(#SVGID_1_);stroke:#C2CFD8;stroke-width:8;stroke-miterlimit:10;}
	.st9{fill:none;stroke:#C2CFD8;stroke-width:8;stroke-miterlimit:10;}
	.st10{fill:none;stroke:#000000;stroke-miterlimit:10;}
	.st11{fill:none;}
	.st12{font-family:'Times-Roman';}
	.st13{font-size:12px;}
	.st14{fill:#FFFCBF;}
	.st15{fill:none;stroke:#43C0C6;stroke-width:8;stroke-miterlimit:10;}
	.st16{fill:none;stroke:#CCCCCC;stroke-width:8;stroke-miterlimit:10;}
	.st17{fill:none;stroke:#F8B500;stroke-miterlimit:10;}
	.st18{fill:none;stroke:#A59ACA;stroke-width:8;stroke-miterlimit:10;}
	.st19{fill:url(#SVGID_2_);stroke:#C2CFD8;stroke-width:8;stroke-miterlimit:10;}
</style>
<g id="图层_1">
	<path class="st0" d="M449,378.1c-16-1.2-32,2.9-45.1,11.8c-4.1,2.8-8.1,5.8-11.5,9c-9.9,9.3-22.5,15.6-36.3,17.8
		c-56,9-97.8,45.1-97.8,88.2c0,49.9,55.9,90.4,124.9,90.4s124.9-40.5,124.9-90.4l0.1-9.2c0-6.8-1.6-13.6-4.8-19.7
		c-0.1-0.2-0.2-0.3-0.2-0.5c-7.1-13.4-6.6-29.2,1.4-42.2c0.4-0.7,0.7-1.1,0.7-1.2l0,0c8.7-17.9-5.9-37.8-24.5-46.5
		C470.2,380.9,458.4,378,449,378.1"/>
	<g>
		<line class="st1" x1="295.8" y1="435.8" x2="322.1" y2="435.8"/>
		<line class="st1" x1="295.8" y1="424.2" x2="322.1" y2="424.2"/>
		<line class="st1" x1="295.8" y1="412.7" x2="322.1" y2="412.7"/>
		<line class="st1" x1="295.8" y1="401" x2="322.1" y2="401"/>
		<line class="st1" x1="295.8" y1="389.5" x2="322.1" y2="389.5"/>
		<line class="st1" x1="295.8" y1="377.9" x2="322.1" y2="377.9"/>
	</g>
	<line class="st1" x1="295.8" y1="259.9" x2="322.1" y2="259.9"/>
	<line class="st1" x1="295.8" y1="248.3" x2="322.1" y2="248.3"/>
	<line class="st1" x1="295.8" y1="236.8" x2="322.1" y2="236.8"/>
	<line class="st1" x1="295.8" y1="225.1" x2="322.1" y2="225.1"/>
	<line class="st1" x1="295.8" y1="213.6" x2="322.1" y2="213.6"/>
	<line class="st1" x1="295.8" y1="447" x2="322.1" y2="447"/>
	<line class="st1" x1="295.8" y1="458.5" x2="322.1" y2="458.5"/>
	<line class="st1" x1="295.8" y1="202.1" x2="322.1" y2="202.1"/>
	<line class="st1" x1="295.8" y1="470" x2="322.1" y2="470"/>
	<g>
		
			<image style="overflow:visible;opacity:0.75;" width="39" height="188" xlink:href="7C152E6997835527.png"  transform="matrix(1 0 0 0.7119 276.2662 356.5915)">
		</image>
		<rect x="291.7" y="367.5" class="st2" width="8" height="111.8"/>
	</g>
	<path class="st3" d="M299.7,371.9h-8v-7.2c0-0.8-0.7-1.6-1.6-1.7c-18.1-3.1-31.7-21.3-31.7-42.3c0-20.2,12.5-37.8,29.7-41.8
		c2.1-0.5,3.6-2.4,3.6-4.6v-6.1h8v6.1c0,6-4,11.1-9.8,12.5c-13.6,3.2-23.6,17.5-23.6,33.9c0,17.1,10.8,31.8,25.1,34.2
		c4.8,0.8,8.3,4.9,8.3,9.7V371.9z"/>
	<line class="st4" x1="337.4" y1="486.7" x2="475.9" y2="486.7"/>
	<path class="st5" d="M322.1,371.9V476c0,5.9,4.8,10.6,10.6,10.6h4.7"/>
	<path class="st6" d="M326.1,371.9h-8v-6c0-5.3,3.8-9.9,9.1-10.9c14.5-2.8,25.1-16.9,25.1-33.6c0-16.2-10.2-30.2-24.2-33.4
		c-5.9-1.3-10-6.3-10-12.1v-7.9h8v7.9c0,2,1.6,3.8,3.8,4.3c17.6,4,30.4,21.3,30.4,41.2c0,20.5-13.3,37.9-31.5,41.4
		c-1.5,0.3-2.6,1.6-2.6,3V371.9z"/>
	<line class="st7" x1="322.1" y1="191.7" x2="322.1" y2="268.1"/>
	<linearGradient id="SVGID_1_" gradientUnits="userSpaceOnUse" x1="295.7024" y1="192.0058" x2="295.7024" y2="192.0058">
		<stop  offset="0" style="stop-color:#6BC5D2"/>
		<stop  offset="8.319743e-03" style="stop-color:#6AC5D1"/>
		<stop  offset="0.2099" style="stop-color:#4EC6C6"/>
		<stop  offset="0.388" style="stop-color:#3EC6BF"/>
		<stop  offset="0.523" style="stop-color:#38C6BD"/>
		<stop  offset="0.7241" style="stop-color:#3AC6BD"/>
		<stop  offset="0.7965" style="stop-color:#41C7BF"/>
		<stop  offset="0.8482" style="stop-color:#4CC7C1"/>
		<stop  offset="0.8899" style="stop-color:#5DC8C4"/>
		<stop  offset="0.9257" style="stop-color:#73CAC9"/>
		<stop  offset="0.9573" style="stop-color:#8FCCCE"/>
		<stop  offset="0.9852" style="stop-color:#AECED4"/>
		<stop  offset="1" style="stop-color:#C2CFD8"/>
	</linearGradient>
	<path class="st8" d="M295.7,192"/>
	<path class="st9" d="M295.7,156.6"/>
	<path class="st10" d="M322.1,497.1v7c0,3.6,2.9,6.5,6.1,6.5h142.1c3.3,0,5.7-2.4,5.7-5.3v-8.2"/>
	<line class="st10" x1="399" y1="510.6" x2="399" y2="521.6"/>
	<rect x="321.5" y="521" class="st11" width="155" height="12.8"/>
	<text transform="matrix(1 0 0 1 361.5358 531.0065)" class="st12 st13">Spacer released</text>
	<path class="st14" d="M589.3,498.6h-99.7c-3.6,0-6.5-2.9-6.5-6.5v-10.9c0-3.6,2.9-6.5,6.5-6.5h99.7c3.6,0,6.5,2.9,6.5,6.5v10.9
		C595.8,495.7,592.9,498.6,589.3,498.6z"/>
	<rect x="461.9" y="480.2" class="st11" width="155" height="12.8"/>
	<text transform="matrix(1 0 0 1 508.7475 490.2157)" class="st12 st13">SCAFFOLD</text>
	<g>
		<g>
			
				<image style="overflow:visible;opacity:0.75;" width="39" height="108" xlink:href="7C152E6997835525.png"  transform="matrix(1 0 0 1 276 176)">
			</image>
			<line class="st15" x1="295.7" y1="191.7" x2="295.7" y2="268.1"/>
		</g>
	</g>
	<line class="st16" x1="295.7" y1="156.6" x2="295.7" y2="191.7"/>
	<line class="st16" x1="295.8" y1="479.6" x2="295.8" y2="514.6"/>
	<line class="st16" x1="863.7" y1="158.3" x2="863.7" y2="193.3"/>
	<path class="st6" d="M894.7,373.7h-8v-6.1c0-5.4,3.8-10,9.1-11.1c14.5-2.8,25.1-17.2,25.1-34.2c0-16.4-10.2-30.7-24.2-34
		c-5.9-1.4-10-6.4-10-12.3v-8h8v8c0,2,1.6,3.8,3.8,4.3c17.6,4.1,30.4,21.7,30.4,41.9c0,20.9-13.3,38.6-31.5,42.2
		c-1.5,0.3-2.6,1.6-2.6,3.1V373.7z"/>
</g>
<g id="图层_2">
	<line class="st1" x1="863.7" y1="259.9" x2="890.1" y2="259.9"/>
	<line class="st1" x1="863.7" y1="248.3" x2="890.1" y2="248.3"/>
	<line class="st1" x1="863.7" y1="236.8" x2="890.1" y2="236.8"/>
	<line class="st1" x1="863.7" y1="225.1" x2="890.1" y2="225.1"/>
	<line class="st1" x1="863.7" y1="213.6" x2="890.1" y2="213.6"/>
	<line class="st1" x1="863.7" y1="202.1" x2="890.1" y2="202.1"/>
	<path class="st17" d="M645,647H153c-9.6,0-17.3-7.8-17.3-17.3V126.2c0-9.6,7.8-17.3,17.3-17.3h492c9.6,0,17.3,7.8,17.3,17.3v503.4
		C662.3,639.2,654.6,647,645,647z"/>
	<path class="st0" d="M1017,378.1c-16-1.2-32,2.9-45.1,11.8c-4.1,2.8-8.1,5.8-11.5,9c-9.9,9.3-22.5,15.6-36.3,17.8
		c-56,9-97.8,45.1-97.8,88.2c0,49.9,55.9,90.4,124.9,90.4s124.9-40.5,124.9-90.4l0.1-9.2c0-6.8-1.6-13.6-4.8-19.7
		c-0.1-0.2-0.2-0.3-0.2-0.5c-7.1-13.4-6.6-29.2,1.4-42.2c0.4-0.7,0.7-1.1,0.7-1.2l0,0c8.7-17.9-5.9-37.8-24.5-46.5
		C1038.2,380.9,1026.3,378,1017,378.1"/>
	<line class="st1" x1="826.9" y1="518.6" x2="826.9" y2="544.9"/>
	<line class="st1" x1="838.4" y1="518.6" x2="838.4" y2="544.9"/>
	<line class="st1" x1="849.9" y1="518.6" x2="849.9" y2="544.9"/>
	<line class="st1" x1="861.6" y1="518.6" x2="861.6" y2="544.9"/>
	<line class="st1" x1="873.2" y1="518.6" x2="873.2" y2="544.9"/>
	<line class="st1" x1="884.7" y1="518.6" x2="884.7" y2="544.9"/>
	<line class="st1" x1="791.3" y1="518.6" x2="791.3" y2="544.9"/>
	<line class="st1" x1="802.8" y1="518.6" x2="802.8" y2="544.9"/>
	<line class="st1" x1="814.4" y1="518.6" x2="814.4" y2="544.9"/>
	<line class="st1" x1="897.1" y1="518.6" x2="897.1" y2="544.9"/>
	<g>
		<line class="st1" x1="863.7" y1="435.8" x2="890.1" y2="435.8"/>
		<line class="st1" x1="863.7" y1="424.2" x2="890.1" y2="424.2"/>
		<line class="st1" x1="863.7" y1="412.7" x2="890.1" y2="412.7"/>
		<line class="st1" x1="863.7" y1="401" x2="890.1" y2="401"/>
		<line class="st1" x1="863.7" y1="389.5" x2="890.1" y2="389.5"/>
		<line class="st1" x1="863.7" y1="377.9" x2="890.1" y2="377.9"/>
	</g>
	<line class="st18" x1="784.3" y1="516.2" x2="903.2" y2="516.2"/>
	<line class="st1" x1="863.7" y1="447" x2="890.1" y2="447"/>
	<line class="st1" x1="863.7" y1="458.5" x2="890.1" y2="458.5"/>
	<line class="st1" x1="863.7" y1="470" x2="890.1" y2="470"/>
	<g>
		
			<image style="overflow:visible;opacity:0.75;" width="39" height="188" xlink:href="7C152E699783552B.png"  transform="matrix(1 0 0 0.9058 844.1769 348.2961)">
		</image>
		<rect x="859.6" y="362.1" class="st2" width="8" height="140.4"/>
	</g>
	<g>
		<g>
			<line class="st1" x1="979.5" y1="488.5" x2="979.5" y2="514.8"/>
			<line class="st1" x1="991" y1="488.5" x2="991" y2="514.8"/>
			<line class="st1" x1="1002.6" y1="488.5" x2="1002.6" y2="514.8"/>
			<line class="st1" x1="1014.2" y1="488.5" x2="1014.2" y2="514.8"/>
			<line class="st1" x1="1025.8" y1="488.5" x2="1025.8" y2="514.8"/>
			<line class="st1" x1="1037.3" y1="488.5" x2="1037.3" y2="514.8"/>
		</g>
		<line class="st1" x1="920.7" y1="488.5" x2="920.7" y2="514.8"/>
		<line class="st1" x1="932.2" y1="488.5" x2="932.2" y2="514.8"/>
		<line class="st1" x1="943.9" y1="488.5" x2="943.9" y2="514.8"/>
		<line class="st1" x1="955.4" y1="488.5" x2="955.4" y2="514.8"/>
		<line class="st1" x1="967" y1="488.5" x2="967" y2="514.8"/>
	</g>
	<path class="st3" d="M867.7,371.9h-8v-7.1c0-0.8-0.7-1.5-1.6-1.7c-18.1-3.1-31.7-21-31.7-41.6c0-19.8,12.5-37.2,29.7-41.2
		c2.1-0.5,3.6-2.4,3.6-4.5v-6h8v6c0,5.9-4,11-9.8,12.3c-13.6,3.2-23.6,17.2-23.6,33.4c0,16.8,10.8,31.3,25.1,33.7
		c4.8,0.8,8.3,4.8,8.3,9.6V371.9z"/>
	<line class="st7" x1="890.1" y1="191.7" x2="890.1" y2="268.1"/>
	<linearGradient id="SVGID_2_" gradientUnits="userSpaceOnUse" x1="863.677" y1="192.0058" x2="863.677" y2="192.0058">
		<stop  offset="0" style="stop-color:#6BC5D2"/>
		<stop  offset="8.319743e-03" style="stop-color:#6AC5D1"/>
		<stop  offset="0.2099" style="stop-color:#4EC6C6"/>
		<stop  offset="0.388" style="stop-color:#3EC6BF"/>
		<stop  offset="0.523" style="stop-color:#38C6BD"/>
		<stop  offset="0.7241" style="stop-color:#3AC6BD"/>
		<stop  offset="0.7965" style="stop-color:#41C7BF"/>
		<stop  offset="0.8482" style="stop-color:#4CC7C1"/>
		<stop  offset="0.8899" style="stop-color:#5DC8C4"/>
		<stop  offset="0.9257" style="stop-color:#73CAC9"/>
		<stop  offset="0.9573" style="stop-color:#8FCCCE"/>
		<stop  offset="0.9852" style="stop-color:#AECED4"/>
		<stop  offset="1" style="stop-color:#C2CFD8"/>
	</linearGradient>
	<path class="st19" d="M863.7,192"/>
	<path class="st9" d="M863.7,156.6"/>
	<path class="st10" d="M1043.9,475.9v-5.5c0-2.9-2.7-5.2-5.6-5.2H908.5c-3.1,0-5.2,1.9-5.2,4.2v6.5"/>
	<line class="st10" x1="973.6" y1="465.2" x2="973.6" y2="454.1"/>
	<rect x="896.1" y="440.6" class="st11" width="155" height="12.8"/>
	<text transform="matrix(1 0 0 1 936.0965 450.5276)" class="st12 st13">Spacer released</text>
	<path class="st14" d="M1157.3,498.6h-99.7c-3.6,0-6.5-2.9-6.5-6.5v-10.9c0-3.6,2.9-6.5,6.5-6.5h99.7c3.6,0,6.5,2.9,6.5,6.5v10.9
		C1163.8,495.7,1160.9,498.6,1157.3,498.6z"/>
	<g>
		<line class="st1" x1="1107.9" y1="518.6" x2="1107.9" y2="544.9"/>
		<line class="st1" x1="1119.4" y1="518.6" x2="1119.4" y2="544.9"/>
		<line class="st1" x1="1131" y1="518.6" x2="1131" y2="544.9"/>
		<line class="st1" x1="1142.6" y1="518.6" x2="1142.6" y2="544.9"/>
		<line class="st1" x1="1154.2" y1="518.6" x2="1154.2" y2="544.9"/>
		<line class="st1" x1="1165.7" y1="518.6" x2="1165.7" y2="544.9"/>
	</g>
	<line class="st1" x1="1049.1" y1="518.6" x2="1049.1" y2="544.9"/>
	<line class="st1" x1="1060.6" y1="518.6" x2="1060.6" y2="544.9"/>
	<line class="st1" x1="1072.3" y1="518.6" x2="1072.3" y2="544.9"/>
	<line class="st1" x1="1083.8" y1="518.6" x2="1083.8" y2="544.9"/>
	<line class="st1" x1="1095.4" y1="518.6" x2="1095.4" y2="544.9"/>
	<rect x="1029.9" y="480.2" class="st11" width="155" height="12.8"/>
	<text transform="matrix(1 0 0 1 1076.7222 490.2157)" class="st12 st13">SCAFFOLD</text>
	<path class="st17" d="M1213,647H721c-9.6,0-17.3-7.8-17.3-17.3V126.2c0-9.6,7.8-17.3,17.3-17.3h492c9.6,0,17.3,7.8,17.3,17.3v503.4
		C1230.3,639.2,1222.5,647,1213,647z"/>
	<line class="st18" x1="903.2" y1="516.2" x2="1043.9" y2="516.2"/>
	<line class="st1" x1="1178.1" y1="518.6" x2="1178.1" y2="544.9"/>
	<line class="st18" x1="1184.6" y1="547.3" x2="784.3" y2="547.3"/>
	<line class="st18" x1="1043.9" y1="516.2" x2="1184.6" y2="516.2"/>
</g>
<g id="图层_3">
	<g>
		<g>
			
				<image style="overflow:visible;opacity:0.75;" width="39" height="107" xlink:href="7C152E699783552D.png"  transform="matrix(1 0 0 1 844.0259 177.9531)">
			</image>
			<line class="st15" x1="863.7" y1="193.3" x2="863.7" y2="269.8"/>
		</g>
	</g>
	<line class="st4" x1="906.6" y1="488.5" x2="1045.1" y2="488.5"/>
	<path class="st5" d="M891.3,373.7v104.1c0,5.9,4.8,10.6,10.6,10.6h4.7"/>
	<line class="st4" x1="906.6" y1="516.2" x2="1045.1" y2="516.2"/>
</g>
</svg>
