<?xml version="1.0" encoding="utf-8"?>
<!-- Generator: Adobe Illustrator 25.2.1, SVG Export Plug-In . SVG Version: 6.00 Build 0)  -->
<svg version="1.1" id="图层_1" xmlns="http://www.w3.org/2000/svg" xmlns:xlink="http://www.w3.org/1999/xlink" x="0px" y="0px"
	 viewBox="0 0 1366 768" style="enable-background:new 0 0 1366 768;" xml:space="preserve">
<style type="text/css">
	.st0{fill:#F1C40F;}
	.st1{fill:none;stroke:#F7F48B;stroke-width:5;stroke-linecap:round;stroke-miterlimit:10;}
	.st2{fill:#F7F48B;stroke:#F7F48B;stroke-width:5;stroke-linecap:round;stroke-miterlimit:10;}
	.st3{font-family:'OpenSans-Regular';}
	.st4{font-size:45.3371px;}
	.st5{fill:none;stroke:#29ABE2;stroke-width:5;stroke-linecap:round;stroke-miterlimit:10;}
</style>
<g>
	<path class="st0" d="M1071.2,145.1c35.2,0,63.6,28.7,63.6,63.6v350.6c0,35.2-28.7,63.6-63.6,63.6H295c-35.2,0-63.6-28.7-63.6-63.6
		V208.7c0-35.2,28.7-63.6,63.6-63.6L1071.2,145.1 M1071.2,142.6H295c-36.4,0-66.1,29.7-66.1,66.1v350.6c0,36.4,29.7,66.1,66.1,66.1
		H1071c36.4,0,66.1-29.7,66.1-66.1V208.7C1137.3,172.2,1107.6,142.6,1071.2,142.6L1071.2,142.6z"/>
</g>
<g>
	<g>
		<line class="st1" x1="469.5" y1="413" x2="564.7" y2="413"/>
		<polyline class="st1" points="469.5,413 469.5,317.8 551.2,317.8 		"/>
		<polyline class="st1" points="524,290.6 551.2,317.8 524,344.9 		"/>
	</g>
	<g>
		<line class="st1" x1="564.7" y1="413" x2="673.6" y2="413"/>
	</g>
	<g>
		<line class="st1" x1="836.7" y1="413" x2="945.5" y2="413"/>
		<line class="st1" x1="851.8" y1="374.8" x2="933.5" y2="374.8"/>
		<line class="st1" x1="891.2" y1="374.8" x2="891.2" y2="413"/>
	</g>
	<g>
		<path class="st2" d="M687.1,379.1v67.6c0,3.8,3,7,7,7h85.2c1.8,0,3.5-0.8,5-2l33.7-33.7c2.8-2.8,2.8-7.3,0-9.8l-33.7-34.2
			c-1.3-1.3-3-2-5-2h-85.2C690.2,372.1,687.1,375.3,687.1,379.1z"/>
		<line class="st1" x1="673.6" y1="413" x2="687.1" y2="413"/>
		<line class="st1" x1="836.7" y1="413" x2="823.1" y2="413"/>
	</g>
</g>
<text transform="matrix(1 0 0 1 455.8956 482.4228)" class="st3 st4">P28a</text>
<text transform="matrix(1 0 0 1 700.7159 426.5204)" class="st3 st4">tetR</text>
<path class="st5" d="M912.4,426.9"/>
<path class="st5" d="M741.4,426.9"/>
<path class="st5" d="M741.4,426.9"/>
<path class="st2" d="M556.4,412.9c0-26.4,21.4-47.5,47.5-47.5c26.4,0,47.5,21.4,47.5,47.5"/>
</svg>
