<?xml version="1.0" encoding="utf-8"?>
<!-- Generator: Adobe Illustrator 25.2.1, SVG Export Plug-In . SVG Version: 6.00 Build 0)  -->
<svg version="1.1" xmlns="http://www.w3.org/2000/svg" xmlns:xlink="http://www.w3.org/1999/xlink" x="0px" y="0px"
	 viewBox="0 0 1366 768" style="enable-background:new 0 0 1366 768;" xml:space="preserve">
<style type="text/css">
	.st0{fill:none;stroke:#F4D03F;stroke-miterlimit:10;}
	.st1{fill:#A7E8ED;}
	.st2{fill:#95E1D3;}
	.st3{fill:#C4C1E0;stroke:#C4C1E0;stroke-miterlimit:10;}
	.st4{fill:#F4B46A;}
	.st5{fill:none;}
	.st6{fill:none;stroke:#000000;stroke-miterlimit:10;}
	.st7{fill:#255887;}
	.st8{fill:#FF8364;}
	.st9{fill:#FDB87D;}
</style>
<symbol  id="剪切" viewBox="-27.8 -32 55.5 64">
	<path d="M16.3-9c-2.4,0-4.7-0.8-6.5-2L5.8-6.4c2.9,1.1,6,2.8,7.7,5.1c4,5.3,13.2,18,14,21.5c0.8,3.5-1.2,11.8-1.2,11.8L0,0.6
		L-26.4,32c0,0-2-8.2-1.2-11.8c0.8-3.5,10-16.2,14-21.5c1.8-2.3,4.8-4,7.7-5.1L-9.8-11c-1.9,1.3-4.1,2-6.5,2
		c-6.4,0-11.5-5.1-11.5-11.5c0-6.3,5.1-11.5,11.5-11.5c6.4,0,11.5,5.2,11.5,11.5c0,2.2-0.6,4.2-1.6,5.9l5.2,6.2c0,0,0.4,0.1,1.2,0.2
		c0.7-0.2,1.2-0.2,1.2-0.2l5.2-6.2c-1-1.7-1.6-3.7-1.6-5.9C4.8-26.8,9.9-32,16.3-32c6.4,0,11.5,5.2,11.5,11.5
		C27.8-14.1,22.6-9,16.3-9z M-16.3-26c-3,0-5.5,2.5-5.5,5.5s2.5,5.5,5.5,5.5s5.5-2.5,5.5-5.5S-13.2-26-16.3-26z M16.3-26
		c-3,0-5.5,2.5-5.5,5.5s2.5,5.5,5.5,5.5c3,0,5.5-2.5,5.5-5.5S19.3-26,16.3-26z"/>
</symbol>
<g id="图层_2">
	<path class="st0" d="M1168.7,676H212.3c-15.1,0-27.3-12.2-27.3-27.3V151.3c0-15.1,12.2-27.3,27.3-27.3h956.4
		c15.1,0,27.3,12.2,27.3,27.3v497.4C1196,663.8,1183.8,676,1168.7,676z"/>
</g>
<g id="图层_1">
	<path class="st1" d="M854.9,389.4"/>
	<path class="st2" d="M916.5,360.2C854,671.1,338,485.2,506.7,336.7c48.6-42.7,139.9,5.6,143.8-6.8c53.7-171.1,275.3-140,266.2,30.4
		"/>
</g>
<g id="图层_3">
	<polygon class="st3" points="1195.5,405.5 790.5,404.5 764.5,378.5 593.5,379.5 563.5,406.5 185.5,406.5 185,391 555.6,391.4 
		584.5,363.5 774.1,363.5 800.2,391.4 1196,391 	"/>
	<g>
		<g>
			<path d="M609.5,389.7h-5c-0.1,1.1-0.4,3.1-0.6,3.8c0.5-0.6,1.3-1.1,2.6-1.1c2.1,0,3.5,1.4,3.5,3.9c0,2.3-1.2,4.3-3.9,4.3
				c-2,0-3.5-1.2-3.8-3.1h1.2c0.3,1.2,1.1,2.1,2.6,2.1c1.8,0,2.6-1.2,2.6-3.2c0-1.6-0.7-2.9-2.5-2.9c-1.6,0-2.2,0.6-2.7,1.7
				l-1.2-0.3c0.4-1.6,0.8-4.9,1-6.4h6.2L609.5,389.7z"/>
			<path d="M611.3,391.7c0.5-1.5,0.8-3.5,0.8-4.5h1.2c-0.1,1.4-0.6,3.5-1,4.5H611.3z"/>
		</g>
	</g>
</g>
<g id="图层_3_x5F_复制">
	<polygon class="st3" points="1195.5,423.5 790.5,424.5 764.5,450.5 593.5,449.5 563.5,422.5 185.5,422.5 185,438 555.6,437.6 
		584.5,465.5 774.1,465.5 800.2,437.6 1196,438 	"/>
</g>
<g id="图层_5">
	<ellipse class="st4" cx="752.5" cy="458" rx="12.5" ry="8"/>
	<line class="st5" x1="782" y1="313" x2="855" y2="311"/>
	<g>
		<g>
			<path d="M654.2,335.4c-0.4,1.6-1.5,2.9-3.6,2.9c-2.4,0-4-1.7-4-4.7c0-2.5,1.4-4.8,4.1-4.8c2.4,0,3.4,1.7,3.5,3H653
				c-0.2-1-0.9-1.9-2.3-1.9c-1.8,0-2.8,1.5-2.8,3.7c0,2.1,1,3.7,2.7,3.7c1.2,0,2-0.6,2.4-1.9H654.2z"/>
			<path d="M656.2,331.5c0-1.4,0-2.1,0-2.5h1.2c0,0.3,0,0.9,0,1.9c0.5-1.3,1.6-2.1,3.1-2.2v1.2c-1.9,0.1-3.1,1.2-3.1,3.5v4.6h-1.2
				V331.5z"/>
			<path d="M663.9,332.4v5.7h-1.3v-12.6h4.7c2.5,0,3.9,1.4,3.9,3.3c0,1.6-0.9,2.6-2.3,3c1.2,0.3,2,1.1,2,3.3v0.5
				c0,0.9-0.1,2,0.2,2.5h-1.3c-0.2-0.5-0.2-1.5-0.2-2.7v-0.3c0-1.9-0.6-2.8-2.9-2.8H663.9z M663.9,331.3h2.9c2.1,0,3-0.8,3-2.3
				c0-1.5-0.9-2.3-2.8-2.3h-3.1V331.3z"/>
			<path d="M674,338.1v-12.6h1.8c1.9,3,6.2,9.7,6.9,11h0c-0.1-1.7-0.1-3.6-0.1-5.7v-5.3h1.3v12.6h-1.7c-1.8-2.8-6.2-9.9-7-11.3h0
				c0.1,1.6,0.1,3.5,0.1,5.8v5.5H674z"/>
			<path d="M688.8,334l-1.5,4.1H686l4.6-12.6h1.6l4.7,12.6h-1.4L694,334H688.8z M693.6,332.9c-1.3-3.5-2-5.3-2.3-6.2h0
				c-0.3,1-1.1,3.2-2.1,6.2H693.6z"/>
		</g>
	</g>
	<g>
		<g>
			<path d="M474.9,324c-0.6,2.1-2.1,3.6-4.8,3.6c-3.7,0-5.6-2.9-5.6-6.4c0-3.4,1.9-6.5,5.6-6.5c2.8,0,4.4,1.6,4.8,3.7h-1.3
				c-0.5-1.5-1.5-2.6-3.6-2.6c-3,0-4.2,2.7-4.2,5.3c0,2.6,1.2,5.3,4.3,5.3c2,0,3-1.1,3.5-2.5H474.9z"/>
			<path d="M483.5,325.6c0,0.8,0.1,1.6,0.1,1.8h-1.2c-0.1-0.2-0.1-0.6-0.2-1.3c-0.3,0.6-1.1,1.5-2.9,1.5c-2.1,0-3-1.4-3-2.7
				c0-2,1.6-2.9,4.3-2.9c0.7,0,1.3,0,1.6,0v-0.9c0-0.9-0.3-2-2.2-2c-1.7,0-1.9,0.9-2.1,1.6h-1.2c0.1-1.1,0.8-2.6,3.3-2.6
				c2.1,0,3.3,0.9,3.3,2.9V325.6z M482.4,322.9c-0.3,0-1.1,0-1.6,0c-1.9,0-3,0.5-3,1.9c0,1.1,0.7,1.8,1.9,1.8c2.4,0,2.7-1.6,2.7-3.4
				V322.9z"/>
			<path d="M486.7,324.9c0.3,1.1,1.1,1.7,2.4,1.7c1.5,0,2.1-0.7,2.1-1.6c0-0.9-0.4-1.4-2.3-1.9c-2.5-0.6-3-1.3-3-2.5
				c0-1.3,0.9-2.5,3.1-2.5c2.2,0,3.1,1.3,3.3,2.6h-1.2c-0.1-0.7-0.7-1.6-2.1-1.6c-1.4,0-1.9,0.7-1.9,1.4c0,0.8,0.4,1.1,2.1,1.6
				c2.6,0.6,3.2,1.5,3.2,2.9c0,1.6-1.3,2.7-3.4,2.7c-2.2,0-3.3-1.1-3.6-2.8H486.7z"/>
			<path d="M495.5,325c0.4,1.1,1.1,1.6,2.3,1.6c2.5,0,2.7-3.5,2.8-5.1c-0.6,1.1-1.6,1.6-3,1.6c-2.1,0-3.5-1.6-3.5-3.8
				c0-2.1,1.4-3.9,3.8-3.9c2.8,0,3.9,2.2,3.9,5.4c0,3-0.6,6.8-4.1,6.8c-2.2,0-3.2-1.3-3.5-2.7H495.5z M495.3,319.3
				c0,1.6,0.9,2.7,2.4,2.7c1.8,0,2.6-1,2.6-2.6c0-0.7-0.3-2.9-2.5-2.9C496,316.5,495.3,317.7,495.3,319.3z"/>
		</g>
	</g>
	<g>
		<g>
			<path d="M795.3,473.9h4.6c2.4,0,4,1.3,4,3.6c0,2.3-1.7,3.7-4.1,3.7h-3.2v5.3h-1.3V473.9z M796.6,480h3.2c1.9,0,2.7-1,2.7-2.5
				c0-1.6-1.1-2.5-2.7-2.5h-3.3V480z"/>
			<path d="M807.9,482.4l-1.5,4.1h-1.3l4.6-12.6h1.6l4.7,12.6h-1.4l-1.5-4.1H807.9z M812.7,481.2c-1.3-3.5-2-5.3-2.3-6.2h0
				c-0.3,1-1.1,3.2-2.1,6.2H812.7z"/>
			<path d="M828.9,480.9c0-2.4,0-4.8,0.1-6.1H829c-0.5,1.8-2.8,7.7-4.4,11.6h-1.2c-1.2-3.1-3.5-9.6-4.1-11.7h0
				c0.1,1.4,0.1,4.3,0.1,6.5v5.2h-1.2v-12.6h1.9c1.6,4.1,3.6,9.5,4,11h0c0.3-1,2.6-7,4.2-11h1.9v12.6h-1.3V480.9z"/>
		</g>
	</g>
	<g>
		<g>
			<path d="M585.2,260.4v-13.2h1.2v13.2H585.2z"/>
			<path d="M589.2,247.1h1.2v1.8h-1.2V247.1z M589.2,251.3h1.2v9.1h-1.2V251.3z"/>
			<path d="M593.3,253.6c0-0.8,0-1.6,0-2.3h1.2c0,0.3,0.1,1.4,0,1.6c0.4-0.9,1.1-1.8,2.9-1.8c1.7,0,3,1,3,3.4v5.9h-1.2v-5.7
				c0-1.5-0.6-2.5-2.1-2.5c-2,0-2.7,1.6-2.7,3.5v4.7h-1.2V253.6z"/>
			<path d="M604.5,255.8c0.8-0.9,3.1-3.2,4.3-4.5h1.5l-3.5,3.6l3.9,5.5h-1.4l-3.3-4.7l-1.4,1.4v3.3h-1.2v-13.2h1.2V255.8z"/>
			<path d="M612.5,256c0,2.1,1.1,3.5,2.7,3.5c1.6,0,2.1-0.9,2.4-1.6h1.2c-0.4,1.2-1.3,2.6-3.7,2.6c-2.8,0-3.9-2.3-3.9-4.7
				c0-2.6,1.3-4.8,4-4.8c2.9,0,3.8,2.4,3.8,4.2c0,0.3,0,0.5,0,0.7H612.5z M617.9,255.1c0-1.7-0.9-3-2.6-3c-1.7,0-2.5,1.2-2.7,3
				H617.9z"/>
			<path d="M621.2,253.8c0-1.4,0-2.1,0-2.5h1.2c0,0.3,0,0.9,0,1.9c0.5-1.3,1.6-2.1,3.1-2.2v1.2c-1.9,0.1-3.1,1.2-3.1,3.5v4.6h-1.2
				V253.8z"/>
			<path d="M631.9,260.4v-13.2h1.2v13.2H631.9z"/>
			<path d="M643.5,255.8c0,2.6-1.4,4.8-4.2,4.8c-2.5,0-4.1-2-4.1-4.7c0-2.6,1.5-4.8,4.2-4.8C641.9,251.1,643.5,253,643.5,255.8z
				 M636.5,255.9c0,2.1,1.1,3.7,2.9,3.7c1.8,0,2.8-1.5,2.8-3.7c0-2.1-1-3.7-2.9-3.7C637.5,252.2,636.5,253.7,636.5,255.9z"/>
			<path d="M653.2,255.8c0,2.6-1.4,4.8-4.2,4.8c-2.5,0-4.1-2-4.1-4.7c0-2.6,1.5-4.8,4.2-4.8C651.6,251.1,653.2,253,653.2,255.8z
				 M646.2,255.9c0,2.1,1.1,3.7,2.9,3.7c1.8,0,2.8-1.5,2.8-3.7c0-2.1-1-3.7-2.9-3.7C647.2,252.2,646.2,253.7,646.2,255.9z"/>
			<path d="M656.5,259.1v4.8h-1.2v-10.4c0-0.7,0-1.5,0-2.2h1.2c0,0.3,0,0.9,0,1.5c0.5-1,1.5-1.8,3.1-1.8c2.1,0,3.6,1.8,3.6,4.5
				c0,3.2-1.7,5-3.9,5C657.8,260.6,657,259.9,656.5,259.1z M662,255.7c0-2-1-3.5-2.6-3.5c-2,0-2.9,1.3-2.9,3.6
				c0,2.3,0.7,3.7,2.8,3.7C661,259.5,662,258,662,255.7z"/>
		</g>
	</g>
	<polyline class="st6" points="671,257.7 690.5,257.7 696.9,264 	"/>
</g>
<g id="图层_9">
	
		<use xlink:href="#剪切"  width="55.5" height="64" x="-27.8" y="-32" transform="matrix(-0.1715 -0.1235 0.171 -0.2375 727.2909 466.0291)" style="overflow:visible;"/>
	
		<use xlink:href="#剪切"  width="55.5" height="64" x="-27.8" y="-32" transform="matrix(0.1802 -0.1104 0.1529 0.2496 719.4268 363.0694)" style="overflow:visible;"/>
</g>
<g id="图层_10">
	<g>
		<g>
			<path class="st7" d="M214.1,637.8c0.8-0.2,2.1-0.3,3.3-0.3c1.8,0,3,0.3,3.9,1c0.7,0.6,1.2,1.4,1.2,2.5c0,1.4-0.9,2.6-2.4,3.1v0.1
				c1.3,0.3,2.9,1.4,2.9,3.5c0,1.2-0.5,2.1-1.2,2.8c-1,0.9-2.6,1.3-4.9,1.3c-1.3,0-2.2-0.1-2.8-0.2V637.8z M215.9,643.6h1.7
				c1.9,0,3-1,3-2.4c0-1.6-1.2-2.3-3.1-2.3c-0.8,0-1.3,0.1-1.6,0.1V643.6z M215.9,650.4c0.4,0.1,0.9,0.1,1.5,0.1
				c1.9,0,3.6-0.7,3.6-2.8c0-1.9-1.7-2.7-3.7-2.7h-1.5V650.4z"/>
			<path class="st7" d="M225,650.7c0-0.8,0.5-1.3,1.3-1.3c0.7,0,1.2,0.5,1.2,1.3c0,0.7-0.5,1.3-1.3,1.3
				C225.5,652,224.9,651.4,225,650.7z"/>
			<path class="st7" d="M234,649.5c0.8,0.5,2,0.9,3.3,0.9c1.9,0,3-1,3-2.4c0-1.3-0.8-2.1-2.7-2.8c-2.3-0.8-3.7-2-3.7-4
				c0-2.2,1.8-3.8,4.6-3.8c1.4,0,2.5,0.3,3.1,0.7l-0.5,1.5c-0.5-0.3-1.4-0.7-2.7-0.7c-1.9,0-2.7,1.2-2.7,2.1c0,1.3,0.9,2,2.8,2.7
				c2.4,0.9,3.6,2.1,3.6,4.2c0,2.2-1.6,4.1-5,4.1c-1.4,0-2.9-0.4-3.6-0.9L234,649.5z"/>
			<path class="st7" d="M246.6,638.7c0,0.6-0.4,1.1-1.2,1.1c-0.7,0-1.1-0.5-1.1-1.1c0-0.6,0.5-1.1,1.1-1.1
				C246.2,637.6,246.6,638.1,246.6,638.7z M244.5,651.8v-10.2h1.8v10.2H244.5z"/>
			<path class="st7" d="M249.5,644.3c0-1.1,0-1.9-0.1-2.7h1.6l0.1,1.7h0.1c0.5-1,1.7-1.9,3.4-1.9c1.4,0,3.6,0.8,3.6,4.3v6.1h-1.8
				v-5.9c0-1.6-0.6-3-2.3-3c-1.2,0-2.2,0.9-2.5,1.9c-0.1,0.2-0.1,0.6-0.1,0.9v6.1h-1.8V644.3z"/>
			<path class="st7" d="M269.9,641.6c-0.1,0.7-0.1,1.5-0.1,2.8v5.9c0,2.4-0.5,3.8-1.5,4.6c-1,0.9-2.4,1.2-3.7,1.2
				c-1.2,0-2.6-0.3-3.4-0.8l0.5-1.4c0.7,0.4,1.7,0.8,3,0.8c1.9,0,3.3-1,3.3-3.6V650h0c-0.6,1-1.7,1.7-3.2,1.7c-2.5,0-4.3-2.2-4.3-5
				c0-3.4,2.2-5.4,4.6-5.4c1.8,0,2.7,0.9,3.2,1.8h0l0.1-1.5H269.9z M268,645.6c0-0.3,0-0.6-0.1-0.8c-0.3-1.1-1.2-2-2.6-2
				c-1.8,0-3,1.5-3,3.8c0,2,1,3.7,3,3.7c1.1,0,2.2-0.7,2.6-1.9c0.1-0.3,0.1-0.7,0.1-1V645.6z"/>
			<path class="st7" d="M272.8,636.9h1.8v14.9h-1.8V636.9z"/>
			<path class="st7" d="M278.8,647c0,2.5,1.6,3.5,3.5,3.5c1.3,0,2.1-0.2,2.8-0.5l0.3,1.3c-0.6,0.3-1.8,0.6-3.4,0.6
				c-3.1,0-5-2.1-5-5.1c0-3.1,1.8-5.5,4.8-5.5c3.3,0,4.2,2.9,4.2,4.8c0,0.4,0,0.7-0.1,0.9H278.8z M284.2,645.7c0-1.2-0.5-3-2.5-3
				c-1.9,0-2.7,1.7-2.8,3H284.2z"/>
			<path class="st7" d="M301.5,641.6c-0.1,0.7-0.1,1.5-0.1,2.8v5.9c0,2.4-0.5,3.8-1.5,4.6c-1,0.9-2.4,1.2-3.7,1.2
				c-1.2,0-2.6-0.3-3.4-0.8l0.5-1.4c0.7,0.4,1.7,0.8,3,0.8c1.9,0,3.3-1,3.3-3.6V650h0c-0.6,1-1.7,1.7-3.2,1.7c-2.5,0-4.3-2.2-4.3-5
				c0-3.4,2.2-5.4,4.6-5.4c1.8,0,2.7,0.9,3.2,1.8h0l0.1-1.5H301.5z M299.6,645.6c0-0.3,0-0.6-0.1-0.8c-0.3-1.1-1.2-2-2.6-2
				c-1.8,0-3,1.5-3,3.8c0,2,1,3.7,3,3.7c1.1,0,2.2-0.7,2.6-1.9c0.1-0.3,0.1-0.7,0.1-1V645.6z"/>
			<path class="st7" d="M313,649c0,1.1,0,2,0.1,2.8h-1.6l-0.1-1.7h-0.1c-0.5,0.8-1.5,1.9-3.4,1.9c-1.6,0-3.5-0.9-3.5-4.5v-5.9h1.8
				v5.6c0,1.9,0.6,3.3,2.3,3.3c1.2,0,2.1-0.9,2.4-1.7c0.1-0.3,0.2-0.6,0.2-0.9v-6.2h1.8V649z"/>
			<path class="st7" d="M318.2,638.7c0,0.6-0.4,1.1-1.2,1.1c-0.7,0-1.1-0.5-1.1-1.1c0-0.6,0.5-1.1,1.1-1.1
				C317.7,637.6,318.1,638.1,318.2,638.7z M316.1,651.8v-10.2h1.8v10.2H316.1z"/>
			<path class="st7" d="M329.8,636.9v12.3c0,0.9,0,1.9,0.1,2.6h-1.6l-0.1-1.8h0c-0.6,1.1-1.8,2-3.4,2c-2.5,0-4.4-2.1-4.4-5.2
				c0-3.4,2.1-5.5,4.6-5.5c1.6,0,2.6,0.7,3.1,1.5h0v-6.1H329.8z M327.9,645.7c0-0.2,0-0.5-0.1-0.8c-0.3-1.2-1.3-2.1-2.7-2.1
				c-1.9,0-3.1,1.7-3.1,3.9c0,2.1,1,3.8,3,3.8c1.2,0,2.4-0.8,2.7-2.2c0.1-0.2,0.1-0.5,0.1-0.8V645.7z"/>
			<path class="st7" d="M333.9,647c0,2.5,1.6,3.5,3.5,3.5c1.3,0,2.1-0.2,2.8-0.5l0.3,1.3c-0.6,0.3-1.8,0.6-3.4,0.6
				c-3.1,0-5-2.1-5-5.1c0-3.1,1.8-5.5,4.8-5.5c3.3,0,4.2,2.9,4.2,4.8c0,0.4,0,0.7-0.1,0.9H333.9z M339.3,645.7c0-1.2-0.5-3-2.5-3
				c-1.9,0-2.7,1.7-2.8,3H339.3z"/>
			<path class="st7" d="M347.9,637.8c0.9-0.2,2.3-0.3,3.5-0.3c1.9,0,3.2,0.4,4.1,1.2c0.7,0.6,1.1,1.6,1.1,2.7c0,1.9-1.2,3.1-2.7,3.6
				v0.1c1.1,0.4,1.7,1.4,2.1,2.9c0.5,2,0.8,3.3,1.1,3.9h-1.9c-0.2-0.4-0.5-1.6-0.9-3.4c-0.4-1.9-1.2-2.7-2.8-2.7h-1.7v6.1h-1.8
				V637.8z M349.7,644.2h1.9c2,0,3.2-1.1,3.2-2.7c0-1.8-1.3-2.6-3.3-2.6c-0.9,0-1.5,0.1-1.8,0.2V644.2z"/>
			<path class="st7" d="M359.2,651.8v-14.2h2l4.5,7.2c1,1.7,1.9,3.1,2.5,4.6l0,0c-0.2-1.9-0.2-3.6-0.2-5.8v-5.9h1.7v14.2h-1.9
				l-4.5-7.2c-1-1.6-1.9-3.2-2.6-4.7l-0.1,0c0.1,1.8,0.1,3.5,0.1,5.8v6.1H359.2z"/>
			<path class="st7" d="M375.3,647.3l-1.5,4.4h-1.9l4.8-14.2h2.2l4.8,14.2h-2l-1.5-4.4H375.3z M379.9,645.9l-1.4-4.1
				c-0.3-0.9-0.5-1.8-0.7-2.6h0c-0.2,0.8-0.4,1.7-0.7,2.6l-1.4,4.1H379.9z"/>
		</g>
	</g>
</g>
<g id="图层_7">
	<path class="st8" d="M772,370c-3.9-6.1-42.4-40.2-48.2-46.1c-6.7-6.1,3-16.5,9.6-10.2c0,0,40.4,37.7,40.4,37.7
		c0.8,0.7,1.5,1.4,2.2,2c25.8,21.2,1.9,46.7-32.4,44.6c0,0-114.5,0-114.5,0c-3.9,0-7-3.1-7-7c0-3.9,3.1-7,7-7
		c14.6-1,125.1,2.7,136-3c2.6-1.5,5-3.9,7-6V370z"/>
	<g id="图层_6">
		<path class="st5" d="M855,311"/>
		<path class="st9" d="M856.6,312.6c-5.9-2.4-11.1-8.3-12.9-11.6c-0.5-0.9-0.7-1.9-0.8-3c0-1.9,0.3-3.7,0.7-5.6
			c0.8-4.2,1.8-9.3-1.6-15.1c-6.9-11.5-26.1-15.2-39.5-7.5l-0.4,0.2l-0.4,0.3c-4,3.1-16.3,12.4-14.8,24.5c1,8.5,8.3,15.6,22.2,21.7
			c0.2,0.1,0.4,0.2,0.6,0.3c10.3,5.8,21.1,22.1,23.3,32.1c0.6,2.5-0.5,5.2-2.7,6.6c-0.7,0.5-1.6,0.9-2.5,1.3
			c-3.8,1.5-9.6-0.2-14.2-4.2l-62.2-59.5c-2.6-2.4-6.6-2.4-9.1,0.2l-0.1,0.1l0.7-0.7c-2.5,2.6-3.7,8.1-1.1,10.6l62.3,59.5l0.2,0.2
			c6.1,5.4,13.6,8.2,20.5,8.2c2.9,0,5.6-0.5,8.2-1.5c7.2-2.9,14.4-9.4,14.4-17.5c0-15.3-16.3-40-31.7-48.2l-0.5-0.2
			c-12.8-5.5-14.3-9.7-14.4-10.8c-0.1-0.9,0.2-4.4,8.5-11c0.4-0.3,0.7-0.5,1.2-0.7c3.3-1.6,7.4-2.1,11.5-1.4
			c3.7,0.7,6.9,2.4,8.1,4.4c0.6,0.9,0.5,1.7-0.1,5.2c-0.6,2.9-1.3,6.5-0.8,10.9c0.8,8.2,10.5,19.4,20.9,24.3
			c0.3,0.1,0.6,0.3,0.9,0.4c15.1,4.6,17.1,3.6,19.7-1.1c0,0,0-0.1,0.1-0.1l0,0c0.2-1,0.1-2-0.4-2.9c-0.8-1.6-2.2-2.9-4-3.5
			L856.6,312.6z"/>
		<line class="st5" x1="729.5" y1="257.9" x2="726.3" y2="330.9"/>
		<path class="st5" d="M726.3,330.9"/>
		<path class="st9" d="M732.1,288.4c0,0,0,0.1,0,0.1c-0.1,2.5,6.5,13.9,8.9,14.5c0.3,0.1,0.6,0.2,1,0.4c0.3-0.5,0.7-0.9,1.1-1.2
			c-0.2-0.3-0.5-0.6-0.7-0.9c-1.2-1.7,2.6-0.6,4.6-1.3c0.8-0.3-2-3.2-1.6-2.9c0.1,0.1,0.4,0.2,0.9,0.3c2.2,0.4,4-1.1,4-3.3
			c0-1.8,0.1-1.7-0.3-2c-1.3-0.9-2.9-2.7-2-4c0,0,0,0,0,0c1.7-14.9-2-24.9-8.8-30c-9.7-7.4-24.4-1.2-29.1,0.7l-0.4,0.2l-0.4,0.2
			c-13.4,7.6-20,26-13.6,37.8c3.2,5.8,8.2,7.6,12.2,9c1.8,0.6,3.5,1.2,5.2,2.2c0.9,0.5,1.6,1.3,2.2,2.2c0.2,0.4,0.5,0.9,0.8,1.4
			c0.8,1.7,3.1,7.8,5,8.3c0.7,1.5,5,3,3,2.3c0,0,3,0.7,4,0.7s5-3,5-5v-1.7c0-1.5-0.3-3-1-4.4c-1.1-2.2-2.7-5.5-3.4-7
			c-1.6-3.4-3.6-6.1-5.8-7.7c-3.6-2.6-7.4-3.6-10.2-4.6c-3.3-1.2-4-1.5-4.5-2.5c-1.1-2-1-5.6,0.3-9.2c1-2.8,2.6-5.3,4.6-7.2
			c1.5-1.5,3.3-2.5,5.3-3.2c8.6-3.1,11.4-1.7,12.1-1.1c0.9,0.7,3.5,4.8,1.8,18.5C732.1,288,732.1,288.2,732.1,288.4z"/>
	</g>
	<g id="图层_8">
		<g>
			<g>
				<path d="M882.7,325.3c0.2-1.5,1.2-3,3.6-3c2.4,0,3.4,1.5,3.4,3c0,1.5-0.9,2.2-1.6,2.5v0c1.2,0.4,2.1,1.3,2.1,3
					c0,1.9-1.2,3.7-4,3.7c-2.6,0-3.7-1.6-3.9-3.2h1.2c0.3,1.1,1.1,2.1,2.8,2.1c1.9,0,2.6-1.3,2.6-2.6c0-1.7-1.1-2.5-2.8-2.5h-0.8v-1
					h0.6c1.7,0,2.4-0.7,2.4-2c0-1.2-0.8-2-2.2-2c-1.5,0-2.1,0.8-2.4,1.9H882.7z"/>
				<path d="M891.7,325.7c0.5-1.5,0.8-3.5,0.8-4.5h1.2c-0.1,1.4-0.6,3.5-1,4.5H891.7z"/>
			</g>
		</g>
		<g>
			<g>
				<path d="M874,367.8h1.6v-2.8h1.2v2.8h2.1v1h-2.1v5.6c0,1,0.2,1.5,1.1,1.5c0.2,0,0.6,0,0.9-0.1v1c-0.3,0.1-0.8,0.2-1.2,0.2
					c-1.3,0-1.9-0.6-1.9-2.1v-6H874V367.8z"/>
				<path d="M880.7,370.3c0-1.4,0-2.1,0-2.5h1.2c0,0.3,0,0.9,0,1.9c0.5-1.3,1.6-2.1,3.1-2.2v1.2c-1.9,0.1-3.1,1.2-3.1,3.5v4.6h-1.2
					V370.3z"/>
				<path d="M893.2,375.1c0,0.8,0.1,1.6,0.1,1.8h-1.2c-0.1-0.2-0.1-0.6-0.2-1.3c-0.3,0.6-1.1,1.5-2.9,1.5c-2.1,0-3-1.4-3-2.7
					c0-2,1.6-2.9,4.3-2.9c0.7,0,1.3,0,1.6,0v-0.9c0-0.9-0.3-2-2.2-2c-1.7,0-2,0.9-2.1,1.6h-1.2c0.1-1.1,0.8-2.6,3.3-2.6
					c2.1,0,3.3,0.9,3.3,2.9V375.1z M892.1,372.4c-0.3,0-1.1,0-1.6,0c-1.9,0-3,0.5-3,1.9c0,1.1,0.7,1.8,1.9,1.8
					c2.4,0,2.7-1.6,2.7-3.4V372.4z"/>
				<path d="M903,374.2c-0.4,1.6-1.5,2.9-3.6,2.9c-2.4,0-4-1.7-4-4.7c0-2.5,1.4-4.8,4.1-4.8c2.4,0,3.4,1.7,3.5,3h-1.2
					c-0.2-1-0.9-1.9-2.3-1.9c-1.8,0-2.8,1.5-2.8,3.7c0,2.1,1,3.7,2.7,3.7c1.2,0,2-0.6,2.4-1.9H903z"/>
				<path d="M905,370.3c0-1.4,0-2.1,0-2.5h1.2c0,0.3,0,0.9,0,1.9c0.5-1.3,1.6-2.1,3.1-2.2v1.2c-1.9,0.1-3.1,1.2-3.1,3.5v4.6H905
					V370.3z"/>
				<path d="M912.6,371.2v5.7h-1.3v-12.6h4.7c2.5,0,3.9,1.4,3.9,3.3c0,1.6-0.9,2.6-2.3,3c1.2,0.3,2,1.1,2,3.3v0.5
					c0,0.9-0.1,2,0.2,2.5h-1.3c-0.2-0.5-0.2-1.5-0.2-2.7v-0.3c0-1.9-0.6-2.8-2.9-2.8H912.6z M912.6,370.1h2.9c2.1,0,3-0.8,3-2.3
					c0-1.5-0.9-2.3-2.8-2.3h-3.1V370.1z"/>
				<path d="M922.8,376.9v-12.6h1.8c1.9,3,6.2,9.7,6.9,11h0c-0.1-1.7-0.1-3.6-0.1-5.7v-5.3h1.3v12.6H931c-1.8-2.8-6.2-9.9-7-11.3h0
					c0.1,1.6,0.1,3.5,0.1,5.8v5.5H922.8z"/>
				<path d="M937.6,372.8l-1.5,4.1h-1.3l4.6-12.6h1.6l4.7,12.6h-1.4l-1.5-4.1H937.6z M942.4,371.7c-1.3-3.5-2-5.3-2.3-6.2h0
					c-0.3,1-1.1,3.2-2.1,6.2H942.4z"/>
			</g>
		</g>
		<polyline class="st6" points="870,371.5 853.5,371.5 850.5,365.5 		"/>
		<polyline class="st6" points="704,332.5 718.2,332.5 723,328.5 		"/>
		<polyline class="st6" points="759,471.6 765.7,479.5 787,479.5 		"/>
	</g>
</g>
</svg>
