<?xml version="1.0" encoding="utf-8"?>
<!-- Generator: Adobe Illustrator 25.2.1, SVG Export Plug-In . SVG Version: 6.00 Build 0)  -->
<svg version="1.1" xmlns="http://www.w3.org/2000/svg" xmlns:xlink="http://www.w3.org/1999/xlink" x="0px" y="0px"
	 viewBox="0 0 1366 768" style="enable-background:new 0 0 1366 768;" xml:space="preserve">
<style type="text/css">
	.st0{fill:url(#SVGID_1_);}
	.st1{fill:#808080;}
	.st2{fill:#F7F48B;}
	.st3{font-family:'OpenSans-Regular';}
	.st4{font-size:17.2307px;}
	.st5{fill:#F47C7C;}
	.st6{fill:#A1DE93;}
	.st7{fill:#70A1D7;}
	.st8{fill:#F3ADAD;}
	.st9{fill:#F38181;}
	.st10{font-family:'OpenSans-Bold';}
	.st11{font-size:21px;}
	.st12{fill:none;stroke:#231815;stroke-width:7.7586;stroke-miterlimit:10;}
	.st13{fill:none;stroke:#444444;stroke-miterlimit:10;}
	.st14{fill:#7FFF00;}
	.st15{clip-path:url(#SVGID_5_);}
	.st16{clip-path:url(#SVGID_7_);}
	.st17{clip-path:url(#SVGID_9_);}
	.st18{clip-path:url(#SVGID_13_);}
	.st19{clip-path:url(#SVGID_15_);}
	.st20{clip-path:url(#SVGID_17_);}
	.st21{clip-path:url(#SVGID_21_);}
	.st22{clip-path:url(#SVGID_23_);}
	.st23{clip-path:url(#SVGID_25_);}
	.st24{clip-path:url(#SVGID_29_);}
	.st25{clip-path:url(#SVGID_31_);}
	.st26{clip-path:url(#SVGID_33_);}
	.st27{clip-path:url(#SVGID_37_);}
	.st28{clip-path:url(#SVGID_39_);}
	.st29{clip-path:url(#SVGID_41_);}
	.st30{clip-path:url(#SVGID_45_);}
	.st31{clip-path:url(#SVGID_47_);}
	.st32{clip-path:url(#SVGID_49_);}
	.st33{clip-path:url(#SVGID_53_);}
	.st34{clip-path:url(#SVGID_55_);}
	.st35{clip-path:url(#SVGID_57_);}
	.st36{clip-path:url(#SVGID_61_);}
	.st37{clip-path:url(#SVGID_63_);}
	.st38{clip-path:url(#SVGID_65_);}
	.st39{clip-path:url(#SVGID_69_);}
	.st40{clip-path:url(#SVGID_71_);}
	.st41{clip-path:url(#SVGID_73_);}
	.st42{clip-path:url(#SVGID_77_);fill:none;}
	.st43{opacity:0.5;fill:none;stroke:#FDDB92;stroke-width:2;stroke-linecap:round;stroke-linejoin:round;stroke-miterlimit:10;}
	.st44{fill:#BEE9FE;}
	.st45{fill:#A9EEE6;}
	.st46{fill:none;stroke:#BEE9FE;stroke-miterlimit:10;}
	.st47{fill:#D988BC;}
	.st48{fill:#FFFFFF;}
	.st49{font-size:22.1538px;}
	.st50{fill:none;stroke:url(#SVGID_78_);stroke-width:5;stroke-miterlimit:10;}
	.st51{fill:none;stroke:#3BB4C1;stroke-width:5;stroke-miterlimit:10;}
	.st52{stroke:#444444;stroke-miterlimit:10;}
	.st53{fill:none;stroke:#000000;stroke-miterlimit:10;}
</style>
<g id="图层_1">
	<linearGradient id="SVGID_1_" gradientUnits="userSpaceOnUse" x1="203.2281" y1="418.4789" x2="333.5247" y2="418.4789">
		<stop  offset="0" style="stop-color:#A9FF7F;stop-opacity:0.8"/>
		<stop  offset="1" style="stop-color:#FFFFFF;stop-opacity:5.000000e-02"/>
	</linearGradient>
	<polygon class="st0" points="220.8,512.5 203.2,530.3 333.5,569.8 333.5,267.1 	"/>
	<g>
		<g>
			<path class="st1" d="M727.7,464.1h-33.9c-0.6,0-1.1-0.5-1.1-1.1v-6.7c0-0.6,0.5-1.1,1.1-1.1h33.9c0.6,0,1.1,0.5,1.1,1.1v6.7
				C728.7,463.6,728.3,464.1,727.7,464.1z"/>
			<path class="st2" d="M710.7,433c-5,0-9.4-4-11.8-6.7c-0.6-0.7-1.8-0.3-1.8,0.7v27.1c0,0.6,0.5,1,1,1h25c0.6,0,1-0.5,1-1v-27.1
				c0-0.9-1.1-1.4-1.8-0.7C720.1,429,715.7,433,710.7,433z"/>
			<text transform="matrix(1.0173 0 0 1 704.3335 450.759)" class="st3 st4">U</text>
		</g>
		<g>
			<path class="st1" d="M772.6,464.1h-33.7c-0.7,0-1.2-0.5-1.2-1.2v-6.5c0-0.7,0.5-1.2,1.2-1.2h33.7c0.7,0,1.2,0.5,1.2,1.2v6.5
				C773.8,463.5,773.3,464.1,772.6,464.1z"/>
			<path class="st5" d="M753.7,425.5l-9.8,6.4c-1.1,0.7-1.7,1.9-1.7,3.2v16.3c0,2.1,1.7,3.8,3.8,3.8h19.5c2.1,0,3.8-1.7,3.8-3.8
				v-16.3c0-1.3-0.6-2.5-1.7-3.2l-9.8-6.4C756.6,424.7,755,424.7,753.7,425.5z"/>
			<text transform="matrix(1.0173 0 0 1 750.2573 450.759)" class="st3 st4">C</text>
		</g>
		<g>
			<path class="st1" d="M817.7,464.1h-33.6c-0.7,0-1.2-0.6-1.2-1.2v-6.4c0-0.7,0.6-1.2,1.2-1.2h33.6c0.7,0,1.2,0.6,1.2,1.2v6.4
				C818.9,463.5,818.3,464.1,817.7,464.1z"/>
			<path class="st6" d="M799.6,432.2l-8.7-5.7c-1.5-1-3.6,0.1-3.6,1.9v24.5c0,1.3,1,2.3,2.3,2.3h22.4c1.3,0,2.3-1,2.3-2.3v-24.5
				c0-1.8-2-2.9-3.6-1.9l-8.7,5.7C801.4,432.7,800.4,432.7,799.6,432.2z"/>
			<text transform="matrix(1.0173 0 0 1 794.479 450.759)" class="st3 st4">G</text>
		</g>
		<g>
			<path class="st1" d="M862.8,464.1h-33.7c-0.7,0-1.2-0.5-1.2-1.2v-6.5c0-0.7,0.5-1.2,1.2-1.2h33.7c0.7,0,1.2,0.5,1.2,1.2v6.5
				C864,463.5,863.4,464.1,862.8,464.1z"/>
			<path class="st7" d="M845.9,424.2c-7.5,0-13.5,4-13.5,8.9v22.2h27V433C859.5,428.1,853.4,424.2,845.9,424.2z"/>
			<text transform="matrix(1.0173 0 0 1 840.3862 450.759)" class="st3 st4">A</text>
		</g>
	</g>
	<g>
		<ellipse class="st5" cx="754.7" cy="547.7" rx="13.5" ry="13.3"/>
		<ellipse class="st7" cx="843.7" cy="547.7" rx="13.5" ry="13.3"/>
		<ellipse class="st2" cx="708.4" cy="547.7" rx="13.5" ry="13.3"/>
		<ellipse class="st6" cx="799.2" cy="547.7" rx="13.5" ry="13.3"/>
	</g>
	<text transform="matrix(1.0173 0 0 1 727.6859 397.0682)" class="st3 st4">Nucleotides</text>
	<text transform="matrix(1.0173 0 0 1 725.7012 505.504)" class="st3 st4">Amino Acids</text>
	<text transform="matrix(1.0173 0 0 1 747.3688 301.5656)" class="st3 st4">Energy</text>
	<g>
		<path class="st8" d="M499.5,520.7c-0.7-1.1-2.1-1.6-3.4-1.4c-2.5,0.5-7.6,1.1-13.7,0.1c-8.3-1.4-9-5.7-14.2-4.6
			c-3.6,0.8-7.7,3.7-11.4,6.1c-2.8,1.7-6.1,2.5-9.2,2.2c-1.4-0.1-3.5-0.2-6.6-0.1c-0.6,0-1.3,0.1-1.8,0.4
			c-4.8,2.2-3.6,26.6,11.3,34.7c2.3,1.3,4.2,1.7,6.7,2.3c2.4,0.6,18.5,4.5,30.5-3.6C500.9,547.8,503.9,527.6,499.5,520.7z"/>
		<path class="st9" d="M501.8,507.7c0,0,1-3.3,1-3.4c0,0,0.3-0.9,0.3-1.9c0-0.5-0.3-3-3.3-5.5c-3.4-2.8-7.7-3.5-7.7-3.6
			c0,0,0.1,0,0.5,0.1c0,0-19.3-3-25.3-2.6c-5.1,0.3-15.5,0.2-24.9,3.4c-4.1,1.4-7.5,4.4-9.1,8.4c-0.9,2.1-1.2,4.5-0.1,6.7
			c0.3,0.5,0.6,1,0.9,1.4c4.5,6.2,13.1,7.5,19.5,3.5c5.3-3.3,12.1-6.9,17.1-6.9c1.5,0,6.4,2.3,10,4.1c0.5,0.2,1.4,0.7,2.8,1
			c2.7,0.7,4.9,0.3,6.1,0.2c5.8-0.9,9.5-2.1,10.3-2.8"/>
	</g>
	<text transform="matrix(1.0173 0 0 1 427.0707 464.0505)" class="st3 st4">Ribosome</text>
	<text transform="matrix(1.0173 0 0 1 424.3649 309.4877)" class="st3 st4">Polymerase</text>
	<text transform="matrix(1.0173 0 0 1 1051.2129 305.7002)" class="st3 st4">Circular</text>
	<text transform="matrix(1.0173 0 0 1 1060.1914 464.2219)" class="st3 st4">Linear</text>
	<text transform="matrix(1.0173 0 0 1 681.8831 246.4558)" class="st10 st11">Reaction Mixture</text>
	<text transform="matrix(1.0173 0 0 1 1005.619 248.8358)" class="st10 st11">DNA Template</text>
	<path class="st12" d="M507.9,287.9"/>
	<path class="st13" d="M234.5,317.8c0.2,6.2-2,9.4-7.4,10.9c0,2.5,0.6,5.2-0.2,7.4c-0.7,1.7-3.1,2.7-4.8,4c-0.3-0.3-0.7-0.5-1-0.8
		c0,1.2,0,2.4,0,3.7c0,18.5-0.4,37,0.1,55.5c0.4,15.5-1.9,30.6-4.4,45.7c-3.2,19.8-6,39.6-9.2,59.4c-1.3,7.8-2.6,15.7-4.8,23.3
		c-2.6,8.8-7.3,11.4-16.3,10.1c-3.8-0.5-8.4-2.2-9.6-6c-2-6.5-2.7-13.2-3.8-20c-4.4-26.6-8.6-53.2-12.6-79.9
		c-1.2-8.3-2-16.7-2.2-25.1c-0.3-18.7-0.1-37.4-0.1-56.2c0-3.4,0-6.9,0-10.4c-2.8-0.7-6.9,0.9-7.2-4.1c-5.5,0-10.7,0.1-16-0.1
		c-1.4,0-2.8-0.9-4-1.7c-4.3-2.9-3.9-9.3,0.7-11.6c0.9-0.5,1.8-1,2.8-1.1c7.9-1.2,15.8-3.1,23.8-3.2c24.7-0.3,49.3,0.1,74,0.2
		C232.9,317.8,233.6,317.8,234.5,317.8z M159.9,339.4c0,0.6-0.1,1.3-0.1,2c0,22.2-0.1,44.4-0.1,66.5c0,1.7,0.1,3.4,0.4,5.1
		c2.3,16.3,4.7,32.6,7.1,48.9c2.5,16.8,5,33.5,7.5,50.3c0.3,1.9,0.8,3.1,2.9,3.2c5.9,0.2,11.9,1.2,17.8,0.9
		c8.7-0.4,8.7-0.8,10.3-10.2c0.2-1,0.3-1.9,0.5-2.9c3.1-21.3,6.2-42.5,9.2-63.8c1.5-10.9,3.7-21.7,4-32.7
		c0.6-21.2,0.2-42.4,0.2-63.6c0-1.3,0-2.6,0-3.8C199.6,339.4,180,339.4,159.9,339.4z M189.3,328.3c-11,0-22.1,0.1-33.1-0.1
		c-2.7,0-3.8,0.8-3.4,3.6c0.1,0.8,0.1,1.6,0,2.4c-0.3,2.8,0.9,3.6,3.5,3.6c21.9-0.1,43.9-0.1,65.8,0c4.5,0,3.5-2.9,3.7-5.6
		c0.2-2.9-0.7-4.1-3.8-4C211.1,328.4,200.2,328.3,189.3,328.3z M233.1,319.6c-0.4-0.1-0.6-0.2-0.8-0.2c-25.9-0.2-51.8-0.5-77.7-0.6
		c-5.8,0-5.8,0.3-5.6,6.1c0,0.6,0.1,1.1,0.2,2c1.4,0,2.6,0,3.8,0c24.2,0,48.4,0,72.6,0C230.7,326.8,232.4,325.3,233.1,319.6z
		 M186.3,368.1c-0.6,0.1-1.1,0.2-1.6,0.3c-1,0.2-0.7,0.4,0.8,0.5c0.5,0,1.1,0,1.7,0c8.9,0,17.8,0,26.6,0c0.5,0,1.1,0,1.5,0
		c0.6-0.1,1.3-0.1,1.5-0.2c0.2-0.1-0.3-0.2-0.6-0.3c-0.4-0.1-1-0.2-1.6-0.3C205.3,368.1,195.7,368.1,186.3,368.1z M176.4,517.4
		c-1.3,7.7,4.4,16.9,11.2,17.8c8.8,1.2,14.4-5,15.7-17.6c-4.5,0.2-8.9,0.7-13.4,0.6C185.3,518.2,180.9,517.7,176.4,517.4z
		 M147.1,320.6c-4.6,0.6-8.7,1-12.8,1.8c-2.6,0.5-4.9,2-5,5.3c0,3.4,2.2,5.5,5.2,5.9c4.5,0.6,9.1,0.5,13.7,0.5c0.8,0,1.6-1,2.4-1.6
		c-0.9-0.3-1.8-0.8-2.8-0.8c-4-0.1-8.1,0.1-12.1-0.1c-2-0.1-4-0.9-4.1-3.7c-0.1-2.8,2-3.3,4-3.8c1.1-0.3,2.2-0.1,3.4-0.1
		c2.7,0,5.4,0,8.2,0C147.2,322.8,147.2,321.9,147.1,320.6z M151.3,330c0-0.5,0.1-0.9,0.1-1.4c-1.2-0.2-2.4-0.3-3.3-0.4
		c-0.7-1-1.2-2.5-1.8-2.5c-3.8-0.1-7.6,0-11.4,0.3c-0.6,0-1.7,1.2-1.7,1.7c0.1,0.8,1,2.2,1.6,2.2C140.3,330,145.8,330,151.3,330z
		 M186.3,384.6c-0.6,0.1-1.1,0.2-1.6,0.3c-1,0.2-0.7,0.4,0.8,0.5c0.5,0,1.1,0,1.7,0c8.9,0,17.8,0,26.6,0c0.5,0,1.1,0,1.5,0
		c0.6-0.1,1.3-0.1,1.5-0.2c0.2-0.1-0.3-0.2-0.6-0.3c-0.4-0.1-1-0.2-1.6-0.3C205.3,384.6,195.7,384.6,186.3,384.6z M186.3,402.3
		c-0.6,0.1-1.1,0.2-1.6,0.3c-1,0.2-0.7,0.4,0.8,0.5c0.5,0,1.1,0,1.7,0c8.9,0,17.8,0,26.6,0c0.5,0,1.1,0,1.5,0
		c0.6-0.1,1.3-0.1,1.5-0.2c0.2-0.1-0.3-0.2-0.6-0.3c-0.4-0.1-1-0.2-1.6-0.3C205.3,402.3,195.7,402.3,186.3,402.3z"/>
	<path class="st14" d="M176.4,517.4c4.5,0.3,9,0.8,13.4,0.9c4.5,0,8.9-0.4,13.4-0.6c-1.3,12.6-6.8,18.8-15.7,17.6
		C180.8,534.3,175.1,525.1,176.4,517.4z"/>
	<g>
		<g>
			<defs>
				<polyline id="SVGID_2_" points="1513.5,505.8 1513.5,644.9 1090.9,644.9 1090.9,505.8 				"/>
			</defs>
			<clipPath id="SVGID_3_">
				<use xlink:href="#SVGID_2_"  style="overflow:visible;"/>
			</clipPath>
		</g>
		<g>
			<defs>
				<polyline id="SVGID_4_" points="1090.9,505.8 1090.9,644.9 1090.9,644.9 1513.5,644.9 1513.5,505.8 				"/>
			</defs>
			<clipPath id="SVGID_5_">
				<use xlink:href="#SVGID_4_"  style="overflow:visible;"/>
			</clipPath>
			<g class="st15">
				<defs>
					<polyline id="SVGID_6_" points="1090.9,505.8 1090.9,644.9 1090.9,644.9 1513.5,644.9 1513.5,505.8 					"/>
				</defs>
				<clipPath id="SVGID_7_">
					<use xlink:href="#SVGID_6_"  style="overflow:visible;"/>
				</clipPath>
				<g class="st16">
					<defs>
						<polyline id="SVGID_8_" points="1090.9,505.8 1090.9,644.9 1090.9,644.9 1513.5,644.9 1513.5,505.8 						"/>
					</defs>
					<clipPath id="SVGID_9_">
						<use xlink:href="#SVGID_8_"  style="overflow:visible;"/>
					</clipPath>
					<g class="st17">
						<defs>
							<polyline id="SVGID_10_" points="1513.5,505.8 1513.5,644.9 1090.9,644.9 1090.9,505.8 							"/>
						</defs>
						<clipPath id="SVGID_11_">
							<use xlink:href="#SVGID_10_"  style="overflow:visible;"/>
						</clipPath>
					</g>
					<g class="st17">
						<defs>
							<polyline id="SVGID_12_" points="1090.9,505.8 1090.9,644.9 1090.9,644.9 1513.5,644.9 1513.5,505.8 							"/>
						</defs>
						<clipPath id="SVGID_13_">
							<use xlink:href="#SVGID_12_"  style="overflow:visible;"/>
						</clipPath>
						<g class="st18">
							<defs>
								<polyline id="SVGID_14_" points="1090.9,505.8 1090.9,644.9 1090.9,644.9 1513.5,644.9 1513.5,505.8 								"/>
							</defs>
							<clipPath id="SVGID_15_">
								<use xlink:href="#SVGID_14_"  style="overflow:visible;"/>
							</clipPath>
							<g class="st19">
								<defs>
									<polyline id="SVGID_16_" points="1090.9,505.8 1090.9,644.9 1090.9,644.9 1513.5,644.9 1513.5,505.8 									"/>
								</defs>
								<clipPath id="SVGID_17_">
									<use xlink:href="#SVGID_16_"  style="overflow:visible;"/>
								</clipPath>
								<g class="st20">
									<defs>
										<polyline id="SVGID_18_" points="1513.5,505.8 1513.5,644.9 1090.9,644.9 1090.9,505.8 										"/>
									</defs>
									<clipPath id="SVGID_19_">
										<use xlink:href="#SVGID_18_"  style="overflow:visible;"/>
									</clipPath>
								</g>
								<g class="st20">
									<defs>
										<polyline id="SVGID_20_" points="1090.9,505.8 1090.9,644.9 1090.9,644.9 1513.5,644.9 1513.5,505.8 										"/>
									</defs>
									<clipPath id="SVGID_21_">
										<use xlink:href="#SVGID_20_"  style="overflow:visible;"/>
									</clipPath>
									<g class="st21">
										<defs>
											<polyline id="SVGID_22_" points="1090.9,505.8 1090.9,644.9 1090.9,644.9 1513.5,644.9 1513.5,505.8 											"/>
										</defs>
										<clipPath id="SVGID_23_">
											<use xlink:href="#SVGID_22_"  style="overflow:visible;"/>
										</clipPath>
										<g class="st22">
											<defs>
												<polyline id="SVGID_24_" points="1090.9,505.8 1090.9,644.9 1090.9,644.9 1513.5,644.9 1513.5,505.8 												"/>
											</defs>
											<clipPath id="SVGID_25_">
												<use xlink:href="#SVGID_24_"  style="overflow:visible;"/>
											</clipPath>
											<g class="st23">
												<defs>
													<polyline id="SVGID_26_" points="1513.5,505.8 1513.5,644.9 1090.9,644.9 1090.9,505.8 													"/>
												</defs>
												<clipPath id="SVGID_27_">
													<use xlink:href="#SVGID_26_"  style="overflow:visible;"/>
												</clipPath>
											</g>
											<g class="st23">
												<defs>
													<polyline id="SVGID_28_" points="1090.9,505.8 1090.9,644.9 1090.9,644.9 1513.5,644.9 1513.5,505.8 													"/>
												</defs>
												<clipPath id="SVGID_29_">
													<use xlink:href="#SVGID_28_"  style="overflow:visible;"/>
												</clipPath>
												<g class="st24">
													<defs>
														<polyline id="SVGID_30_" points="1090.9,505.8 1090.9,644.9 1090.9,644.9 1513.5,644.9 1513.5,505.8 														
															"/>
													</defs>
													<clipPath id="SVGID_31_">
														<use xlink:href="#SVGID_30_"  style="overflow:visible;"/>
													</clipPath>
													<g class="st25">
														<defs>
															<polyline id="SVGID_32_" points="1090.9,505.8 1090.9,644.9 1090.9,644.9 1513.5,644.9 1513.5,505.8 															
																"/>
														</defs>
														<clipPath id="SVGID_33_">
															<use xlink:href="#SVGID_32_"  style="overflow:visible;"/>
														</clipPath>
														<g class="st26">
															<defs>
																<polyline id="SVGID_34_" points="1513.5,505.8 1513.5,644.9 1090.9,644.9 1090.9,505.8 																"/>
															</defs>
															<clipPath id="SVGID_35_">
																<use xlink:href="#SVGID_34_"  style="overflow:visible;"/>
															</clipPath>
														</g>
														<g class="st26">
															<defs>
																<polyline id="SVGID_36_" points="1090.9,505.8 1090.9,644.9 1090.9,644.9 1513.5,644.9 1513.5,505.8 
																																	"/>
															</defs>
															<clipPath id="SVGID_37_">
																<use xlink:href="#SVGID_36_"  style="overflow:visible;"/>
															</clipPath>
															<g class="st27">
																<defs>
																	<polyline id="SVGID_38_" points="1090.9,505.8 1090.9,644.9 1090.9,644.9 1513.5,644.9 1513.5,505.8 
																																			"/>
																</defs>
																<clipPath id="SVGID_39_">
																	<use xlink:href="#SVGID_38_"  style="overflow:visible;"/>
																</clipPath>
																<g class="st28">
																	<defs>
																		<polyline id="SVGID_40_" points="1090.9,505.8 1090.9,644.9 1090.9,644.9 1513.5,644.9 1513.5,505.8 
																																					"/>
																	</defs>
																	<clipPath id="SVGID_41_">
																		<use xlink:href="#SVGID_40_"  style="overflow:visible;"/>
																	</clipPath>
																	<g class="st29">
																		<defs>
																			<polyline id="SVGID_42_" points="1513.5,505.8 1513.5,644.9 1090.9,644.9 1090.9,505.8 																			"/>
																		</defs>
																		<clipPath id="SVGID_43_">
																			<use xlink:href="#SVGID_42_"  style="overflow:visible;"/>
																		</clipPath>
																	</g>
																	<g class="st29">
																		<defs>
																			<polyline id="SVGID_44_" points="1090.9,505.8 1090.9,644.9 1090.9,644.9 1513.5,644.9 1513.5,505.8 
																																							"/>
																		</defs>
																		<clipPath id="SVGID_45_">
																			<use xlink:href="#SVGID_44_"  style="overflow:visible;"/>
																		</clipPath>
																		<g class="st30">
																			<defs>
																				<polyline id="SVGID_46_" points="1090.9,505.8 1090.9,644.9 1090.9,644.9 1513.5,644.9 1513.5,505.8 
																																									"/>
																			</defs>
																			<clipPath id="SVGID_47_">
																				<use xlink:href="#SVGID_46_"  style="overflow:visible;"/>
																			</clipPath>
																			<g class="st31">
																				<defs>
																					<polyline id="SVGID_48_" points="1090.9,505.8 1090.9,644.9 1090.9,644.9 1513.5,644.9 1513.5,505.8 
																																											"/>
																				</defs>
																				<clipPath id="SVGID_49_">
																					<use xlink:href="#SVGID_48_"  style="overflow:visible;"/>
																				</clipPath>
																				<g class="st32">
																					<defs>
																						<polyline id="SVGID_50_" points="1513.5,505.8 1513.5,644.9 1090.9,644.9 1090.9,505.8 
																																													"/>
																					</defs>
																					<clipPath id="SVGID_51_">
																						<use xlink:href="#SVGID_50_"  style="overflow:visible;"/>
																					</clipPath>
																				</g>
																				<g class="st32">
																					<defs>
																						<polyline id="SVGID_52_" points="1090.9,505.8 1090.9,644.9 1090.9,644.9 1513.5,644.9 1513.5,505.8 
																																													"/>
																					</defs>
																					<clipPath id="SVGID_53_">
																						<use xlink:href="#SVGID_52_"  style="overflow:visible;"/>
																					</clipPath>
																					<g class="st33">
																						<defs>
																							<polyline id="SVGID_54_" points="1090.9,505.8 1090.9,644.9 1090.9,644.9 1513.5,644.9 1513.5,505.8 
																																															"/>
																						</defs>
																						<clipPath id="SVGID_55_">
																							<use xlink:href="#SVGID_54_"  style="overflow:visible;"/>
																						</clipPath>
																						<g class="st34">
																							<defs>
																								<polyline id="SVGID_56_" points="1090.9,505.8 1090.9,644.9 1090.9,644.9 1513.5,644.9 1513.5,505.8 
																																																	"/>
																							</defs>
																							<clipPath id="SVGID_57_">
																								<use xlink:href="#SVGID_56_"  style="overflow:visible;"/>
																							</clipPath>
																							<g class="st35">
																								<defs>
																									<polyline id="SVGID_58_" points="1513.5,505.8 1513.5,644.9 1090.9,644.9 1090.9,505.8 
																																																			"/>
																								</defs>
																								<clipPath id="SVGID_59_">
																									<use xlink:href="#SVGID_58_"  style="overflow:visible;"/>
																								</clipPath>
																							</g>
																							<g class="st35">
																								<defs>
																									<polyline id="SVGID_60_" points="1090.9,505.8 1090.9,644.9 1090.9,644.9 1513.5,644.9 1513.5,505.8 
																																																			"/>
																								</defs>
																								<clipPath id="SVGID_61_">
																									<use xlink:href="#SVGID_60_"  style="overflow:visible;"/>
																								</clipPath>
																								<g class="st36">
																									<defs>
																										<polyline id="SVGID_62_" points="1090.9,505.8 1090.9,644.9 1090.9,644.9 1513.5,644.9 1513.5,505.8 
																																																					"/>
																									</defs>
																									<clipPath id="SVGID_63_">
																										<use xlink:href="#SVGID_62_"  style="overflow:visible;"/>
																									</clipPath>
																									<g class="st37">
																										<defs>
																											<polyline id="SVGID_64_" points="1090.9,505.8 1090.9,644.9 1090.9,644.9 1513.5,644.9 1513.5,505.8 
																																																							"/>
																										</defs>
																										<clipPath id="SVGID_65_">
																											<use xlink:href="#SVGID_64_"  style="overflow:visible;"/>
																										</clipPath>
																										<g class="st38">
																											<defs>
																												<polyline id="SVGID_66_" points="1513.5,505.8 1513.5,644.9 1090.9,644.9 1090.9,505.8 
																																																									"/>
																											</defs>
																											<clipPath id="SVGID_67_">
																												<use xlink:href="#SVGID_66_"  style="overflow:visible;"/>
																											</clipPath>
																										</g>
																										<g class="st38">
																											<defs>
																												<polyline id="SVGID_68_" points="1090.9,505.8 1090.9,644.9 1090.9,644.9 1513.5,644.9 1513.5,505.8 
																																																									"/>
																											</defs>
																											<clipPath id="SVGID_69_">
																												<use xlink:href="#SVGID_68_"  style="overflow:visible;"/>
																											</clipPath>
																											<g class="st39">
																												<defs>
																													<polyline id="SVGID_70_" points="1090.9,505.8 1090.9,644.9 1090.9,644.9 1513.5,644.9 1513.5,505.8 
																																																											"/>
																												</defs>
																												<clipPath id="SVGID_71_">
																													<use xlink:href="#SVGID_70_"  style="overflow:visible;"/>
																												</clipPath>
																												<g class="st40">
																													<defs>
																														<polyline id="SVGID_72_" points="1090.9,505.8 1090.9,644.9 1090.9,644.9 1513.5,644.9 1513.5,505.8 
																																																													"/>
																													</defs>
																													<clipPath id="SVGID_73_">
																														<use xlink:href="#SVGID_72_"  style="overflow:visible;"/>
																													</clipPath>
																													<g class="st41">
																														<defs>
																															<polyline id="SVGID_74_" points="1513.5,505.8 1513.5,644.9 1090.9,644.9 1090.9,505.8 
																																																															"/>
																														</defs>
																														<clipPath id="SVGID_75_">
																															<use xlink:href="#SVGID_74_"  style="overflow:visible;"/>
																														</clipPath>
																													</g>
																													<g class="st41">
																														<defs>
																															<polyline id="SVGID_76_" points="1090.9,505.8 1090.9,644.9 1090.9,644.9 1513.5,644.9 
																																1513.5,505.8 																															"/>
																														</defs>
																														<clipPath id="SVGID_77_">
																															<use xlink:href="#SVGID_76_"  style="overflow:visible;"/>
																														</clipPath>
																														<polyline class="st42" points="1090.9,505.8 1090.9,644.9 1090.9,644.9 1513.5,644.9 1513.5,505.8 
																																																													"/>
																													</g>
																												</g>
																											</g>
																										</g>
																									</g>
																								</g>
																							</g>
																						</g>
																					</g>
																				</g>
																			</g>
																		</g>
																	</g>
																</g>
															</g>
														</g>
													</g>
												</g>
											</g>
										</g>
									</g>
								</g>
							</g>
						</g>
					</g>
				</g>
			</g>
		</g>
	</g>
	<path class="st43" d="M1207.4,586.8H958.1c-6.4,0-11.5-5.2-11.5-11.5V272.6c0-6.4,5.2-11.5,11.5-11.5h249.4
		c6.4,0,11.5,5.2,11.5,11.5v302.7C1219,581.7,1213.8,586.8,1207.4,586.8z"/>
	<path class="st43" d="M592.6,586.8H343.2c-6.4,0-11.5-5.2-11.5-11.5V272.6c0-6.4,5.2-11.5,11.5-11.5h249.4
		c6.4,0,11.5,5.2,11.5,11.5v302.7C604.1,581.7,599,586.8,592.6,586.8z"/>
	<path class="st43" d="M900.7,586.8H651.4c-6.4,0-11.5-5.2-11.5-11.5V272.6c0-6.4,5.2-11.5,11.5-11.5h249.4
		c6.4,0,11.5,5.2,11.5,11.5v302.7C912.3,581.7,907.1,586.8,900.7,586.8z"/>
	<path class="st44" d="M255.6,148.7"/>
	<g>
		<path class="st45" d="M457.9,367.3c-1.3-0.9-3.3-0.5-7.2,0.4c-4.3,0.9-21,1.9-24.5,7.7c-3.1,5.1-1.8,7.8-1.5,9
			c1.5,5,15.1,5.8,18.5,11.6c3.6,6.1-1.2,12.5,1.7,16.9c5,7.4,26.6,8.1,29.2,3.2c2.7-5.2-20.5-9.2-21.9-24.5
			C451.3,381.1,461.8,370,457.9,367.3z"/>
		<path class="st45" d="M469.7,394.4c-1.1-4.8,0.1-10.6,3.8-15c1.9-2.1,4-3.6,4.9-4.1c13.5-8,20.1,0,27.7-5.4
			c5.5-3.9,5.3-7.3,10.3-8.5c3.2-0.7,7.9,1.1,8.9,3.7c1.8,4.9-10.9,8.4-19.7,20.4c-9.4,12.8-4.5,22.2-11.4,24.6
			C486.7,412.8,472.2,404.9,469.7,394.4z"/>
		<path class="st44" d="M506.1,358.8"/>
		<path class="st45" d="M471.5,360.5c-2,0.1-5.2,0.6-9.3-0.1c-3.1-0.5-8-1.3-9.5-3.8c-2.3-3.9,3.7-12.1,11.5-14.6
			c12.9-4.1,29.8,7,28.8,12.3C491.9,359.6,472.6,360.4,471.5,360.5z"/>
		<path class="st44" d="M531.1,346.9"/>
		<path class="st45" d="M457.9,367.3c3.9-3.6,7.8-7.2,11.8-10.8"/>
		<path class="st44" d="M481.6,363.1"/>
		<path class="st46" d="M464.7,373.1"/>
		<g>
			<g>
				<path class="st45" d="M463.8,358.6c-0.1-0.1-0.2-0.5-0.2-0.6c0,0,0,0.1,0,0.2c0,0.1,0,0.1,0,0.2c0,0.2,0.1-0.4,0-0.1
					c-0.1,0.5-0.2,0.9-0.4,1.4c-0.1,0.2-0.1,0.1,0,0c0,0.1-0.1,0.2-0.1,0.2c-0.1,0.2-0.2,0.3-0.2,0.5c-0.2,0.3-0.4,0.6-0.5,0.9
					c-0.5,0.8-1.1,1.5-1.7,2.1c-0.6,0.6-1.1,1-1.9,1.5c-0.3,0.2-0.6,0.3-1,0.5c0.2-0.1-0.3,0.1-0.3,0.1c-0.2,0.1-0.4,0.1-0.5,0.2
					c-0.6,0.2-1.2,0.3-1.8,0.4c-0.1,0-0.3,0.1-0.4,0.1c0.5,0,0.1,0,0,0c-0.2,0-0.3,0-0.5,0.1c-0.8,0.1-1.5,0.6-1.5,1.5
					c0,0.7,0.7,1.6,1.5,1.5c2.3-0.2,4.6-0.8,6.6-2.1c1.5-1,2.7-2.3,3.8-3.8c0.8-1.1,1.4-2.3,1.8-3.5c0.3-0.8,0.5-1.9,0.1-2.8
					c-0.4-0.7-1.4-0.9-2.1-0.5C463.6,356.9,463.4,357.8,463.8,358.6L463.8,358.6z"/>
			</g>
		</g>
		<g>
			<g>
				<path class="st45" d="M477.7,359.3c1.1,2.4,3.2,4.5,5.8,4.9c3.5,0.6,7.3-0.4,10.6-1.3c7.1-2,14.3-2.4,21.2,0.2
					c1.8,0.7,2.6-2.2,0.8-2.9c-6.5-2.4-13.8-2.5-20.5-0.8c-3.5,0.9-6.9,2-10.6,2c-2.1,0-3.8-1.5-4.8-3.6
					C479.5,356.1,476.9,357.6,477.7,359.3L477.7,359.3z"/>
			</g>
		</g>
		<g>
			<g>
				<path class="st44" d="M472.6,416.8c1.9,0,1.9-3,0-3C470.7,413.8,470.7,416.8,472.6,416.8L472.6,416.8z"/>
			</g>
		</g>
		<g>
			<g>
				<path class="st45" d="M495.2,407.5c-3.3,2-6.8,4-10.5,5.3c-4,1.3-8.3,1.7-12.4,1.8c-1.9,0-1.9,3,0,3c4.4-0.1,9-0.5,13.2-1.9
					c4-1.3,7.7-3.4,11.2-5.6C498.3,409.1,496.8,406.5,495.2,407.5L495.2,407.5z"/>
			</g>
		</g>
		<path class="st45" d="M530.6,391.6"/>
	</g>
	<path class="st47" d="M821.2,360.9h-91.7c-4.5,0-8.2-3.7-8.2-8.2v-23.1c0-4.5,3.7-8.2,8.2-8.2h91.7c4.5,0,8.2,3.7,8.2,8.2v23.1
		C829.4,357.2,825.7,360.9,821.2,360.9z"/>
	<g>
		<text transform="matrix(1.0173 0 0 1 753.9596 348.4005)" class="st48 st10 st49">ATP</text>
	</g>
	<linearGradient id="SVGID_78_" gradientUnits="userSpaceOnUse" x1="1024.4777" y1="510.6622" x2="1134.7823" y2="510.6622">
		<stop  offset="3.909441e-02" style="stop-color:#3BB4C1;stop-opacity:9.000000e-02"/>
		<stop  offset="0.7006" style="stop-color:#3BB4C1;stop-opacity:0.8"/>
		<stop  offset="1" style="stop-color:#3BB4C1;stop-opacity:0.78"/>
	</linearGradient>
	<path class="st50" d="M1027.2,496.8c-0.2,0.8-2.8,13.8,12.7,21.3c7.7,3.8,16.2,4.4,20.1,4.5h74.8"/>
	<circle class="st51" cx="1082.8" cy="374.8" r="39.7"/>
	<text transform="matrix(1 0 0 1 386.394 246.8329)" class="st10 st11">The Cell Extract</text>
</g>
<g id="图层_2">
	<path class="st52" d="M225.6,326.8"/>
	<path class="st52" d="M232.2,319.3"/>
	<path class="st53" d="M307.8,189"/>
</g>
</svg>
