<?xml version="1.0" encoding="utf-8"?>
<!-- Generator: Adobe Illustrator 25.3.1, SVG Export Plug-In . SVG Version: 6.00 Build 0)  -->
<svg version="1.1" id="图层_1" xmlns="http://www.w3.org/2000/svg" xmlns:xlink="http://www.w3.org/1999/xlink" x="0px" y="0px"
	 viewBox="0 0 960 240" style="enable-background:new 0 0 960 240;" xml:space="preserve">
<style type="text/css">
	.st0{fill:none;stroke:#F4D03F;stroke-miterlimit:10;}
	.st1{fill:#A7E8ED;}
	.st2{fill:#A0D8EA;}
	.st3{fill:#9FACE6;stroke:#9FACE6;stroke-miterlimit:10;}
	.st4{fill:#F4B46A;}
	.st5{fill:none;}
	.st6{clip-path:url(#SVGID_2_);}
	.st7{clip-path:url(#SVGID_4_);}
	.st8{clip-path:url(#SVGID_8_);}
	.st9{clip-path:url(#SVGID_10_);}
	.st10{fill:#255887;}
	.st11{fill:#FBB03B;}
	.st12{fill:none;stroke:#000000;stroke-miterlimit:10;}
	.st13{fill:#00B3D6;}
	.st14{clip-path:url(#SVGID_14_);}
	.st15{clip-path:url(#SVGID_16_);}
	.st16{clip-path:url(#SVGID_20_);}
	.st17{clip-path:url(#SVGID_22_);}
</style>
<symbol  id="剪切" viewBox="-27.8 -32 55.6 64">
	<path d="M16.3-9c-2.4,0-4.7-0.8-6.5-2l-4,4.6c2.9,1.1,6,2.8,7.7,5.1c4,5.3,13.2,18,14,21.5S26.3,32,26.3,32L0,0.6L-26.4,32
		c0,0-2-8.2-1.2-11.8c0.8-3.5,10-16.2,14-21.5c1.8-2.3,4.8-4,7.7-5.1L-9.8-11c-1.9,1.3-4.1,2-6.5,2c-6.4,0-11.5-5.1-11.5-11.5
		c0-6.3,5.1-11.5,11.5-11.5s11.5,5.2,11.5,11.5c0,2.2-0.6,4.2-1.6,5.9l5.2,6.2c0,0,0.4,0.1,1.2,0.2c0.7-0.2,1.2-0.2,1.2-0.2l5.2-6.2
		c-1-1.7-1.6-3.7-1.6-5.9C4.8-26.8,9.9-32,16.3-32s11.5,5.2,11.5,11.5C27.8-14.1,22.6-9,16.3-9z M-16.3-26c-3,0-5.5,2.5-5.5,5.5
		s2.5,5.5,5.5,5.5s5.5-2.5,5.5-5.5S-13.2-26-16.3-26z M16.3-26c-3,0-5.5,2.5-5.5,5.5s2.5,5.5,5.5,5.5s5.5-2.5,5.5-5.5
		S19.3-26,16.3-26z"/>
</symbol>
<g>
	<g>
		<g id="图层_2_1_">
			<path class="st0" d="M460.7,239.5H46.4c-6.5,0-11.8-5.3-11.8-11.8V12.3c0-6.5,5.3-11.8,11.8-11.8h414.3c6.5,0,11.8,5.3,11.8,11.8
				v215.4C472.5,234.2,467.2,239.5,460.7,239.5z"/>
		</g>
		<g id="图层_1_1_">
			<path class="st1" d="M324.8,115.4"/>
			<path class="st2" d="M351.5,102.3C324.8,237.7,104.8,156.8,176.8,92c20.7-18.7,59.7,2.5,61.3-3C260.9,14.5,355.3,28,351.5,102.3"
				/>
		</g>
		<g id="图层_3">
			<polygon class="st3" points="472.3,122.4 296.9,121.9 285.6,110.7 211.6,111.1 198.6,122.8 34.8,122.8 34.6,116 195.1,116.2 
				207.6,104.2 289.8,104.2 301.1,116.2 472.5,116 			"/>
			<g>
				<path d="M218.5,115.5h-2.2c0,0.6-0.2,1.4-0.2,1.7c0.2-0.2,0.6-0.6,1.2-0.6c1,0,1.5,0.6,1.5,1.7c0,1-0.6,1.9-1.7,1.9
					c-0.8,0-1.5-0.6-1.7-1.4h0.6c0.1,0.6,0.6,1,1.2,1c0.8,0,1.2-0.6,1.2-1.4c0-0.8-0.4-1.3-1.1-1.3c-0.7,0-1,0.2-1.2,0.8l-0.6-0.1
					c0.2-0.8,0.4-2.1,0.4-2.7h2.7L218.5,115.5L218.5,115.5z"/>
				<path d="M219.2,116.4c0.2-0.6,0.4-1.5,0.4-1.9h0.6c0,0.6-0.2,1.5-0.4,1.9H219.2z"/>
			</g>
		</g>
		<g id="图层_3_x5F_复制">
			<polygon class="st3" points="472.3,130.2 296.9,130.6 285.6,141.9 211.6,141.5 198.6,129.7 34.8,129.7 34.6,136.4 195.1,136.3 
				207.6,148.3 289.8,148.3 301.1,136.3 472.5,136.4 			"/>
		</g>
		<g id="图层_5">
			<ellipse class="st4" cx="280.4" cy="145.1" rx="5.4" ry="3.5"/>
			<line class="st5" x1="293.1" y1="82.3" x2="324.8" y2="81.5"/>
			<g>
				<rect x="230.7" y="78.7" class="st5" width="38.9" height="14.1"/>
				<path d="M234.3,84.2c-0.2,0.8-0.6,1.3-1.6,1.3c-1.1,0-1.7-0.8-1.7-2c0-1.1,0.6-2.1,1.8-2.1c1.1,0,1.5,0.8,1.5,1.3h-0.6
					c-0.1-0.4-0.4-0.8-1-0.8c-0.8,0-1.3,0.6-1.3,1.6s0.4,1.6,1.2,1.6c0.6,0,0.8-0.2,1.1-0.8L234.3,84.2L234.3,84.2L234.3,84.2z"/>
				<path d="M235.2,82.5c0-0.6,0-1,0-1.1h0.6c0,0.1,0,0.4,0,0.8c0.2-0.6,0.8-1,1.4-1v0.6c-0.8,0-1.4,0.6-1.4,1.5v2h-0.6V82.5z"/>
				<path d="M238.5,82.9v2.5H238v-5.5h2c1.1,0,1.7,0.6,1.7,1.5c0,0.8-0.4,1.2-1,1.3c0.6,0.1,0.8,0.6,0.8,1.5v0.2
					c0,0.4,0,0.8,0.1,1.1h-0.6c-0.1-0.2-0.1-0.6-0.1-1.2v-0.1c0-0.8-0.2-1.3-1.3-1.3L238.5,82.9L238.5,82.9z M238.5,82.4h1.3
					c1,0,1.3-0.4,1.3-1c0-0.6-0.4-1-1.3-1h-1.4v1.9L238.5,82.4L238.5,82.4z"/>
				<path d="M243,85.4v-5.5h0.8c0.8,1.3,2.7,4.2,3,4.8l0,0c0-0.8,0-1.6,0-2.5v-2.3h0.6v5.5h-0.8c-0.8-1.3-2.7-4.4-3.1-4.8l0,0
					c0,0.8,0,1.5,0,2.5v2.5H243V85.4z"/>
				<path d="M249.3,83.6l-0.6,1.8h-0.6l2-5.5h0.8l2,5.5h-0.6l-0.7-1.8H249.3z M251.4,83.1c-0.6-1.5-0.8-2.3-1-2.7l0,0
					c-0.1,0.4-0.6,1.4-1,2.7H251.4z"/>
			</g>
			<g>
				<rect x="155.3" y="82" class="st5" width="35.6" height="13.6"/>
				<path d="M160.2,87.1c-0.2,1-1,1.6-2.1,1.6c-1.6,0-2.5-1.3-2.5-2.7s0.8-2.9,2.5-2.9c1.3,0,1.9,0.8,2.1,1.6h-0.6
					c-0.2-0.6-0.6-1.2-1.6-1.2c-1.3,0-1.8,1.2-1.8,2.3s0.6,2.3,1.9,2.3c0.8,0,1.3-0.6,1.5-1.1L160.2,87.1L160.2,87.1z"/>
				<path d="M163.9,87.8c0,0.4,0,0.8,0,0.8h-0.6c0-0.1,0-0.2-0.1-0.6c-0.1,0.2-0.6,0.6-1.3,0.6c-1,0-1.3-0.6-1.3-1.2
					c0-0.8,0.8-1.3,1.9-1.3c0.4,0,0.6,0,0.8,0v-0.4c0-0.4-0.1-0.8-1-0.8c-0.8,0-0.8,0.4-1,0.8H161c0-0.6,0.4-1.2,1.5-1.2
					c1,0,1.5,0.4,1.5,1.3V87.8L163.9,87.8z M163.3,86.7c-0.1,0-0.6,0-0.8,0c-0.8,0-1.3,0.2-1.3,0.8c0,0.6,0.4,0.8,0.8,0.8
					c1.1,0,1.2-0.8,1.2-1.5L163.3,86.7L163.3,86.7z"/>
				<path d="M165.2,87.5c0.1,0.6,0.6,0.8,1.1,0.8c0.6,0,1-0.4,1-0.8s-0.2-0.6-1-0.8c-1.1-0.2-1.3-0.6-1.3-1.1c0-0.6,0.4-1.1,1.4-1.1
					s1.4,0.6,1.5,1.2h-0.6c0-0.4-0.4-0.8-1-0.8c-0.6,0-0.8,0.4-0.8,0.6c0,0.4,0.2,0.6,1,0.8c1.2,0.2,1.4,0.6,1.4,1.3
					c0,0.8-0.6,1.2-1.5,1.2s-1.5-0.6-1.6-1.3L165.2,87.5L165.2,87.5z"/>
				<path d="M169,87.5c0.2,0.6,0.6,0.8,1,0.8c1.1,0,1.2-1.5,1.3-2.2c-0.2,0.6-0.8,0.8-1.3,0.8c-1,0-1.5-0.8-1.5-1.7
					c0-1,0.6-1.7,1.7-1.7c1.3,0,1.7,1,1.7,2.3c0,1.3-0.2,3-1.8,3c-1,0-1.4-0.6-1.5-1.2H169L169,87.5z M169,85c0,0.8,0.4,1.2,1.1,1.2
					c0.8,0,1.2-0.4,1.2-1.2c0-0.4-0.1-1.3-1.1-1.3C169.3,83.8,169,84.3,169,85z"/>
			</g>
			<g>
				<rect x="298.2" y="150.7" class="st5" width="32" height="14.1"/>
				<path d="M299,152h2c1.1,0,1.7,0.6,1.7,1.6c0,1-0.8,1.6-1.8,1.6h-1.4v2.3h-0.6L299,152L299,152z M299.5,154.6h1.4
					c0.8,0,1.2-0.4,1.2-1.1c0-0.8-0.6-1.1-1.2-1.1h-1.5L299.5,154.6L299.5,154.6z"/>
				<path d="M303.8,155.7l-0.6,1.8h-0.6l2-5.5h0.8l2,5.5h-0.6l-0.6-1.8H303.8z M305.9,155.2c-0.6-1.5-0.8-2.3-1-2.7l0,0
					c-0.1,0.4-0.6,1.4-1,2.7H305.9z"/>
				<path d="M313,155c0-1.1,0-2.1,0-2.7l0,0c-0.2,0.8-1.3,3.4-1.9,5.1h-0.6c-0.6-1.4-1.5-4.1-1.8-5.1l0,0c0,0.6,0,1.9,0,2.9v2.2
					h-0.6V152h0.8c0.8,1.8,1.6,4.1,1.7,4.8l0,0c0.1-0.4,1.2-3.1,1.8-4.8h0.8v5.5h-0.6L313,155L313,155z"/>
			</g>
		</g>
		<g id="图层_9">
			<g>
				<g>
					<g>
						<defs>
							
								<rect id="SVGID_1_" x="265.5" y="146.1" transform="matrix(0.5844 -0.8115 0.8115 0.5844 -8.5776 280.5075)" width="8.2" height="5.1"/>
						</defs>
						<clipPath id="SVGID_2_">
							<use xlink:href="#SVGID_1_"  style="overflow:visible;"/>
						</clipPath>
						<g transform="matrix(1 -2.980232e-08 0 1 0 0)" class="st6">
							<g>
								<g>
									<defs>
										
											<rect id="SVGID_3_" x="265.5" y="146.1" transform="matrix(0.5844 -0.8115 0.8115 0.5844 -8.6118 280.5032)" width="8.1" height="5.1"/>
									</defs>
									<clipPath id="SVGID_4_">
										<use xlink:href="#SVGID_3_"  style="overflow:visible;"/>
									</clipPath>
									<g class="st7">
										<g>
											<defs>
												
													<rect id="SVGID_5_" x="265.5" y="146.1" transform="matrix(0.5844 -0.8114 0.8114 0.5844 -8.5998 280.5155)" width="8.1" height="5.1"/>
											</defs>
											<clipPath id="SVGID_6_">
												<use xlink:href="#SVGID_5_"  style="overflow:visible;"/>
											</clipPath>
											<g transform="matrix(1 0 -2.980232e-08 1 0 0)" style="clip-path:url(#SVGID_6_);">
												
													<use xlink:href="#剪切"  width="55.6" height="64" x="-27.8" y="-32" transform="matrix(-7.427903e-02 -5.349786e-02 7.406821e-02 -0.1029 269.6113 148.6858)" style="overflow:visible;"/>
											</g>
										</g>
									</g>
								</g>
							</g>
						</g>
					</g>
				</g>
			</g>
			<g>
				<g>
					<g>
						<defs>
							
								<rect id="SVGID_7_" x="263.5" y="99.9" transform="matrix(0.8527 -0.5224 0.5224 0.8527 -15.1549 154.2996)" width="5.1" height="8.2"/>
						</defs>
						<clipPath id="SVGID_8_">
							<use xlink:href="#SVGID_7_"  style="overflow:visible;"/>
						</clipPath>
						<g transform="matrix(1 2.980232e-08 0 1 -3.051758e-05 -3.051758e-05)" class="st8">
							<g>
								<g>
									<defs>
										
											<rect id="SVGID_9_" x="263.5" y="99.9" transform="matrix(0.8527 -0.5224 0.5224 0.8527 -15.1431 154.2742)" width="5.1" height="8.1"/>
									</defs>
									<clipPath id="SVGID_10_">
										<use xlink:href="#SVGID_9_"  style="overflow:visible;"/>
									</clipPath>
									<g transform="matrix(1 -2.980232e-08 0 1 0 0)" class="st9">
										<g>
											<defs>
												
													<rect id="SVGID_11_" x="263.4" y="100" transform="matrix(0.8527 -0.5223 0.5223 0.8527 -15.1795 154.2514)" width="5.1" height="8.1"/>
											</defs>
											<clipPath id="SVGID_12_">
												<use xlink:href="#SVGID_11_"  style="overflow:visible;"/>
											</clipPath>
											<g transform="matrix(1 2.980232e-08 0 1 0 7.629395e-06)" style="clip-path:url(#SVGID_12_);">
												
													<use xlink:href="#剪切"  width="55.6" height="64" x="-27.8" y="-32" transform="matrix(7.807380e-02 -4.782318e-02 6.623337e-02 0.1081 265.9305 104.0755)" style="overflow:visible;"/>
											</g>
										</g>
									</g>
								</g>
							</g>
						</g>
					</g>
				</g>
			</g>
		</g>
		<g id="图层_10">
			<g>
				<rect x="46.6" y="221.5" class="st5" width="96.8" height="12.4"/>
				<path class="st10" d="M48.2,227.1l-0.6,1.9h-0.8l2.1-6.1h1L52,229h-0.8l-0.6-1.9H48.2z M50.2,226.6l-0.6-1.8
					c-0.1-0.4-0.2-0.8-0.4-1.2l0,0c-0.1,0.4-0.2,0.8-0.4,1.2l-0.6,1.8H50.2z"/>
				<path class="st10" d="M52.5,228.5c0-0.4,0.2-0.6,0.6-0.6s0.6,0.2,0.6,0.6c0,0.4-0.2,0.6-0.6,0.6
					C52.7,229.2,52.5,228.9,52.5,228.5z"/>
				<path class="st10" d="M56.3,229.1v-0.6l0.6-0.6c1.5-1.5,2.2-2.2,2.2-3.2c0-0.6-0.4-1.2-1.2-1.2c-0.6,0-1,0.2-1.3,0.6l-0.2-0.6
					c0.4-0.4,1-0.6,1.7-0.6c1.3,0,1.8,0.8,1.8,1.7c0,1.1-0.8,2-2,3.2l-0.6,0.4l0,0H60v0.6L56.3,229.1L56.3,229.1z"/>
				<path class="st10" d="M63.1,226.4v0.6h-2.2v-0.6H63.1z"/>
				<path class="st10" d="M64.1,226c0-0.6,0-1,0-1.5h0.8v0.8l0,0c0.4-0.6,0.8-0.8,1.6-0.8c1.1,0,1.9,1,1.9,2.2c0,1.6-1,2.5-2,2.5
					c-0.6,0-1.1-0.2-1.4-0.8l0,0v2.5h-0.8L64.1,226L64.1,226z M64.8,227.3c0,0.1,0,0.2,0,0.4c0.1,0.6,0.6,1,1.3,1
					c0.8,0,1.4-0.8,1.4-1.7c0-0.8-0.6-1.7-1.3-1.7c-0.6,0-1.1,0.4-1.3,1c0,0.1,0,0.2,0,0.4L64.8,227.3L64.8,227.3z"/>
				<path class="st10" d="M71.6,229.1l-0.1-0.6l0,0c-0.2,0.4-0.8,0.6-1.4,0.6c-1,0-1.4-0.6-1.4-1.3c0-1.1,1-1.7,2.7-1.7v-0.1
					c0-0.4-0.1-1.1-1-1c-0.4,0-0.8,0.1-1.2,0.4l-0.2-0.6c0.4-0.2,1-0.4,1.5-0.4c1.4,0,1.7,1,1.7,1.8v1.7c0,0.4,0,0.8,0.1,1.1
					L71.6,229.1L71.6,229.1z M71.5,226.8c-0.8,0-1.9,0.1-1.9,1c0,0.6,0.4,0.8,0.8,0.8c0.6,0,1-0.4,1.1-0.8c0-0.1,0-0.2,0-0.2
					L71.5,226.8L71.5,226.8L71.5,226.8z"/>
				<path class="st10" d="M73.5,226c0-0.6,0-1,0-1.4h0.8v0.8l0,0c0.2-0.6,0.8-1,1.3-1c0.1,0,0.1,0,0.2,0v0.8c-0.1,0-0.2,0-0.2,0
					c-0.6,0-1,0.4-1.1,1.1c0,0.1,0,0.2,0,0.4v2.3h-0.8v-3.1L73.5,226L73.5,226z"/>
				<path class="st10" d="M77.6,223.4v1.3h1.2v0.6h-1.2v2.5c0,0.6,0.2,0.8,0.6,0.8c0.2,0,0.4,0,0.6,0v0.6c-0.2,0-0.4,0.1-0.8,0.1
					c-0.4,0-0.8-0.1-0.8-0.4c-0.2-0.2-0.4-0.6-0.4-1.2v-2.5h-0.8v-0.6h0.8v-1.1L77.6,223.4z"/>
				<path class="st10" d="M85.4,224.7c0,0.4,0,0.6,0,1.3v2.5c0,1.1-0.2,1.7-0.6,2c-0.4,0.4-1.1,0.6-1.6,0.6c-0.6,0-1.2-0.1-1.5-0.4
					l0.2-0.6c0.4,0.2,0.8,0.4,1.3,0.4c0.8,0,1.5-0.4,1.5-1.6v-0.6l0,0c-0.2,0.4-0.8,0.8-1.4,0.8c-1.1,0-1.9-1-1.9-2.2
					c0-1.5,1-2.3,2-2.3c0.8,0,1.2,0.4,1.4,0.8l0,0v-0.6L85.4,224.7C85.4,224.6,85.4,224.7,85.4,224.7z M84.7,226.4
					c0-0.1,0-0.2,0-0.4c-0.1-0.6-0.6-0.8-1.2-0.8c-0.8,0-1.3,0.6-1.3,1.7c0,0.8,0.4,1.6,1.3,1.6c0.6,0,1-0.4,1.2-0.8
					c0-0.1,0-0.4,0-0.4V226.4z"/>
				<path class="st10" d="M90.5,227.8c0,0.6,0,0.8,0,1.3h-0.8v-0.8l0,0c-0.2,0.4-0.6,0.8-1.5,0.8c-0.8,0-1.5-0.4-1.5-1.9v-2.5h0.8
					v2.5c0,0.8,0.2,1.5,1,1.5c0.6,0,1-0.4,1.1-0.8c0-0.1,0.1-0.2,0.1-0.4v-2.7h0.8V227.8L90.5,227.8z"/>
				<path class="st10" d="M92.7,223.4c0,0.2-0.2,0.6-0.6,0.6s-0.6-0.2-0.6-0.6c0-0.2,0.2-0.6,0.6-0.6
					C92.4,222.8,92.7,223.2,92.7,223.4z M91.7,229.1v-4.4h0.8v4.4H91.7z"/>
				<path class="st10" d="M97.6,222.6v5.4c0,0.4,0,0.8,0,1.2h-0.8v-0.8l0,0c-0.2,0.6-0.8,0.8-1.5,0.8c-1.1,0-1.9-1-1.9-2.2
					c0-1.5,1-2.5,2-2.5c0.8,0,1.2,0.4,1.4,0.6l0,0v-2.7L97.6,222.6L97.6,222.6z M96.9,226.4c0-0.1,0-0.2,0-0.4c-0.1-0.6-0.6-1-1.2-1
					c-0.8,0-1.4,0.8-1.4,1.7c0,1,0.4,1.7,1.3,1.7c0.6,0,1.1-0.4,1.2-1c0-0.1,0-0.2,0-0.4L96.9,226.4L96.9,226.4z"/>
				<path class="st10" d="M99.5,227c0,1.1,0.8,1.5,1.5,1.5c0.6,0,1-0.1,1.3-0.2l0.1,0.6c-0.2,0.1-0.8,0.2-1.5,0.2
					c-1.4,0-2.2-1-2.2-2.2c0-1.4,0.8-2.5,2.1-2.5c1.5,0,1.8,1.3,1.8,2.1c0,0.2,0,0.4,0,0.4h-3.1L99.5,227L99.5,227z M101.8,226.4
					c0-0.6-0.2-1.3-1.1-1.3c-0.8,0-1.2,0.8-1.3,1.3H101.8z"/>
				<path class="st10" d="M105.6,223c0.4-0.1,1-0.1,1.5-0.1c0.8,0,1.4,0.2,1.8,0.6c0.4,0.2,0.6,0.8,0.6,1.2c0,0.8-0.6,1.4-1.2,1.6
					l0,0c0.6,0.2,0.8,0.6,1,1.3c0.2,0.8,0.4,1.5,0.6,1.7h-1c-0.1-0.2-0.2-0.8-0.4-1.5c-0.2-0.8-0.6-1.2-1.3-1.2h-0.8v2.7h-0.8V223
					L105.6,223z M106.3,225.8h0.8c0.8,0,1.4-0.6,1.4-1.2c0-0.8-0.6-1.2-1.5-1.2c-0.4,0-0.6,0-0.8,0.1L106.3,225.8L106.3,225.8z"/>
				<path class="st10" d="M110.4,229.1V223h0.8l1.9,3.2c0.4,0.8,0.8,1.4,1.1,2l0,0c-0.1-0.8-0.1-1.6-0.1-2.5v-2.5h0.8v6.1H114
					l-1.9-3.2c-0.4-0.8-0.8-1.4-1.2-2l0,0c0,0.8,0,1.5,0,2.5v2.7L110.4,229.1L110.4,229.1z"/>
				<path class="st10" d="M117.4,227.1l-0.6,1.9h-0.8l2.1-6.1h1l2.1,6.1h-0.9l-0.6-1.9H117.4z M119.4,226.6l-0.6-1.8
					c-0.1-0.4-0.2-0.8-0.4-1.2l0,0c-0.1,0.4-0.2,0.8-0.4,1.2l-0.6,1.8H119.4z"/>
			</g>
		</g>
		<g id="图层_6">
			<path class="st5" d="M324.8,81.5"/>
			<path class="st11" d="M325.5,82.1c-2.5-1.1-4.8-3.6-5.6-5.1c-0.2-0.4-0.4-0.8-0.4-1.3c0-0.8,0.1-1.6,0.4-2.5
				c0.4-1.8,0.8-4-0.8-6.5c-3-5-11.3-6.5-17.1-3.3l-0.2,0.1l-0.2,0.1c-1.7,1.4-7.1,5.4-6.5,10.7c0.4,3.7,3.6,6.7,9.6,9.4
				c0.1,0,0.2,0.1,0.2,0.1c4.4,2.5,9.2,9.6,10.1,13.9c0.2,1.1-0.2,2.2-1.2,2.9c-0.4,0.2-0.8,0.4-1.1,0.6c-1.7,0.6-4.1-0.1-6.1-1.8
				l-27-25.7c-1.2-1.1-2.9-1.1-3.9,0.1l0,0l0.4-0.4c-1.1,1.2-1.6,3.5-0.6,4.6l27,25.7l0.1,0.1c2.7,2.3,5.9,3.6,8.9,3.6
				c1.3,0,2.5-0.2,3.6-0.6c3.2-1.3,6.3-4.1,6.3-7.6c0-6.7-7.1-17.3-13.7-20.9l-0.2-0.1c-5.6-2.5-6.3-4.2-6.3-4.6s0.1-1.9,3.7-4.8
				c0.2-0.1,0.4-0.2,0.6-0.4c1.5-0.8,3.2-1,5-0.6c1.6,0.4,3,1.1,3.5,1.9c0.2,0.4,0.2,0.8,0,2.2c-0.2,1.3-0.6,2.9-0.4,4.8
				c0.4,3.6,4.6,8.4,9.1,10.5c0.1,0,0.2,0.1,0.4,0.2c6.5,2,7.4,1.6,8.6-0.6l0,0l0,0c0.1-0.4,0-0.8-0.2-1.3c-0.4-0.8-1-1.3-1.7-1.5
				L325.5,82.1z"/>
		</g>
		<g id="图层_8">
			<g>
				<rect x="336.3" y="85" class="st5" width="9.7" height="12.2"/>
				<path d="M336.8,87.6c0.1-0.6,0.6-1.3,1.6-1.3s1.5,0.6,1.5,1.3c0,0.6-0.4,1-0.8,1.1l0,0c0.6,0.2,1,0.6,1,1.3
					c0,0.8-0.6,1.6-1.7,1.6c-1.2,0-1.6-0.8-1.7-1.4h0.6c0.1,0.6,0.6,1,1.3,1c0.8,0,1.2-0.6,1.2-1.2c0-0.8-0.6-1.1-1.3-1.1H338v-0.4
					h0.2c0.8,0,1.1-0.4,1.1-0.8c0-0.6-0.4-0.8-1-0.8c-0.6,0-1,0.4-1.1,0.8L336.8,87.6L336.8,87.6z"/>
				<path d="M340.7,87.8c0.2-0.6,0.4-1.5,0.4-1.9h0.6c0,0.6-0.2,1.5-0.4,1.9H340.7z"/>
			</g>
			<g>
				<rect x="231.2" y="65.6" class="st5" width="33" height="12.2"/>
				<path d="M231.2,68.4h0.8v-1.3h0.6v1.3h1v0.4h-1v2.5c0,0.4,0.1,0.6,0.6,0.6c0.1,0,0.2,0,0.4,0v0.4c-0.1,0-0.4,0.1-0.6,0.1
					c-0.6,0-0.8-0.2-0.8-1v-2.7h-0.8v-0.4H231.2z"/>
				<path d="M234.1,69.4c0-0.6,0-1,0-1.1h0.6c0,0.1,0,0.4,0,0.8c0.2-0.6,0.8-1,1.4-1v0.6c-0.8,0-1.4,0.6-1.4,1.5v2h-0.6V69.4z"/>
				<path d="M239.4,71.5c0,0.4,0,0.8,0,0.8h-0.6c0-0.1,0-0.2-0.1-0.6c-0.1,0.2-0.6,0.6-1.3,0.6c-1,0-1.3-0.6-1.3-1.2
					c0-0.8,0.8-1.3,1.9-1.3c0.4,0,0.6,0,0.8,0v-0.4c0-0.4-0.1-0.8-1-0.8c-0.8,0-0.8,0.4-1,0.8h-0.6c0-0.6,0.4-1.2,1.5-1.2
					c1,0,1.5,0.4,1.5,1.3L239.4,71.5L239.4,71.5z M238.8,70.4c-0.1,0-0.6,0-0.8,0c-0.8,0-1.3,0.2-1.3,0.8c0,0.6,0.4,0.8,0.8,0.8
					c1.1,0,1.2-0.8,1.2-1.5L238.8,70.4L238.8,70.4z"/>
				<path d="M243.6,71.1c-0.2,0.8-0.6,1.3-1.6,1.3c-1.1,0-1.7-0.8-1.7-2c0-1.1,0.6-2.1,1.8-2.1c1.1,0,1.5,0.8,1.5,1.3H243
					c-0.1-0.4-0.4-0.8-1-0.8c-0.8,0-1.3,0.6-1.3,1.6c0,1,0.4,1.6,1.2,1.6c0.6,0,0.8-0.2,1.1-0.8L243.6,71.1L243.6,71.1L243.6,71.1z"
					/>
				<path d="M244.4,69.4c0-0.6,0-1,0-1.1h0.6c0,0.1,0,0.4,0,0.8c0.2-0.6,0.8-1,1.4-1v0.6c-0.8,0-1.4,0.6-1.4,1.5v2h-0.6V69.4z"/>
				<path d="M247.7,69.9v2.5h-0.6v-5.5h2c1.1,0,1.7,0.6,1.7,1.5c0,0.8-0.4,1.2-1,1.3c0.6,0.1,0.8,0.6,0.8,1.5v0.2
					c0,0.4,0,0.8,0.1,1.1h-0.6c-0.1-0.2-0.1-0.6-0.1-1.2V71c0-0.8-0.2-1.3-1.3-1.3L247.7,69.9L247.7,69.9z M247.7,69.4h1.3
					c1,0,1.3-0.4,1.3-1s-0.4-1-1.3-1h-1.4L247.7,69.4L247.7,69.4z"/>
				<path d="M252.1,72.3v-5.5h0.8c0.8,1.3,2.7,4.2,3,4.8l0,0c0-0.8,0-1.6,0-2.5v-2.3h0.6v5.5h-0.8c-0.8-1.3-2.7-4.4-3.1-4.8l0,0
					c0,0.8,0,1.5,0,2.5v2.5h-0.4V72.3z"/>
				<path d="M258.6,70.5l-0.6,1.8h-0.6l2-5.5h0.8l2,5.5h-0.6l-0.6-1.8H258.6z M260.7,70.1c-0.6-1.5-0.8-2.3-1-2.7l0,0
					c-0.1,0.4-0.6,1.4-1,2.7H260.7z"/>
			</g>
			<polyline class="st12" points="264.2,70.1 271.4,71.3 273.7,72.3 			"/>
			<polyline class="st12" points="255.9,83.1 262.1,83.1 264.2,84.8 			"/>
			<polyline class="st12" points="283.2,151 286.1,154.4 295.4,154.4 			"/>
		</g>
		<g id="图层_7">
			<path class="st13" d="M288.9,107c-1.7-2.7-18.3-17.4-20.9-20c-3-2.7,1.3-7.2,4.1-4.4L289.6,99c0.4,0.4,0.6,0.6,1,0.8
				c11.2,9.2,0.8,20.2-14.1,19.3H227c-1.7,0-3.1-1.4-3.1-3.1c0-1.7,1.4-3.1,3.1-3.1c6.3-0.4,54.2,1.2,59-1.3
				c1.2-0.6,2.2-1.7,3.1-2.7L288.9,107L288.9,107z"/>
		</g>
	</g>
	<g>
		<g id="图层_2_2_">
			<path class="st0" d="M913.6,239.5H499.3c-6.5,0-11.8-5.3-11.8-11.8V12.3c0-6.5,5.3-11.8,11.8-11.8h414.3
				c6.5,0,11.8,5.3,11.8,11.8v215.4C925.4,234.2,920.1,239.5,913.6,239.5z"/>
		</g>
		<g id="图层_1_2_">
			<path class="st1" d="M777.7,115.4"/>
			<path class="st2" d="M804.3,102.7c-27.1,134.6-250.7,54.1-177.6-10.3c21.1-18.5,60.6,2.5,62.3-3C712.4,15.5,808.3,29,804.3,102.7
				"/>
		</g>
		<g id="图层_3_1_">
			<polygon class="st3" points="925.2,122.4 749.7,121.9 738.5,110.7 664.4,111.1 651.5,122.8 487.7,122.8 487.5,116 648,116.2 
				660.5,104.2 742.7,104.2 753.9,116.2 925.4,116 			"/>
			<g>
				<path d="M671.4,115.5h-2.2c0,0.6-0.2,1.4-0.2,1.7c0.2-0.2,0.6-0.6,1.2-0.6c1,0,1.5,0.6,1.5,1.7c0,1-0.6,1.9-1.7,1.9
					c-0.8,0-1.5-0.6-1.7-1.4h0.6c0.1,0.6,0.6,1,1.2,1c0.8,0,1.2-0.6,1.2-1.4c0-0.8-0.4-1.3-1.1-1.3c-0.7,0-1,0.2-1.2,0.8l-0.6-0.1
					c0.2-0.8,0.4-2.1,0.4-2.7h2.7L671.4,115.5L671.4,115.5z"/>
				<path d="M672.1,116.4c0.2-0.6,0.4-1.5,0.4-1.9h0.6c0,0.6-0.2,1.5-0.4,1.9H672.1z"/>
			</g>
		</g>
		<g id="图层_3_x5F_复制_1_">
			<polygon class="st3" points="925.2,130.2 749.7,130.6 738.5,141.9 664.4,141.5 651.5,129.7 487.7,129.7 487.5,136.4 648,136.3 
				660.5,148.3 742.7,148.3 753.9,136.3 925.4,136.4 			"/>
		</g>
		<g id="图层_5_1_">
			<ellipse class="st4" cx="733.3" cy="145.1" rx="5.4" ry="3.5"/>
			<line class="st5" x1="746.1" y1="82.3" x2="777.7" y2="81.5"/>
			<g>
				<rect x="687.1" y="86.5" class="st5" width="38.9" height="14.1"/>
				<path d="M690.7,92c-0.2,0.8-0.6,1.3-1.6,1.3c-1.1,0-1.7-0.8-1.7-2c0-1.1,0.6-2.1,1.8-2.1c1.1,0,1.5,0.8,1.5,1.3h-0.6
					c-0.1-0.4-0.4-0.8-1-0.8c-0.8,0-1.3,0.6-1.3,1.6s0.4,1.6,1.2,1.6c0.6,0,0.8-0.2,1.1-0.8L690.7,92L690.7,92z"/>
				<path d="M691.6,90.3c0-0.6,0-1,0-1.1h0.6c0,0.1,0,0.4,0,0.8c0.2-0.6,0.8-1,1.4-1v0.6c-0.8,0-1.4,0.6-1.4,1.5v2h-0.6V90.3z"/>
				<path d="M694.9,90.7v2.5h-0.6v-5.5h2c1.1,0,1.7,0.6,1.7,1.5c0,0.8-0.4,1.2-1,1.3c0.6,0.1,0.8,0.6,0.8,1.5v0.2
					c0,0.4,0,0.8,0.1,1.1h-0.6c-0.1-0.2-0.1-0.6-0.1-1.2v-0.1c0-0.8-0.2-1.3-1.3-1.3L694.9,90.7L694.9,90.7z M694.9,90.2h1.3
					c1,0,1.3-0.4,1.3-1s-0.4-1-1.3-1h-1.4v1.9L694.9,90.2L694.9,90.2z"/>
				<path d="M699.3,93.2v-5.5h0.8c0.8,1.3,2.7,4.2,3,4.8l0,0c0-0.8,0-1.6,0-2.5v-2.3h0.6v5.5h-0.8c-0.8-1.3-2.7-4.4-3.1-4.8l0,0
					c0,0.8,0,1.5,0,2.5v2.5h-0.4V93.2z"/>
				<path d="M705.6,91.4l-0.6,1.8h-0.6l2-5.5h0.8l2,5.5h-0.6l-0.6-1.8H705.6z M707.8,90.9c-0.6-1.5-0.8-2.3-1-2.7l0,0
					c-0.1,0.4-0.6,1.4-1,2.7H707.8z"/>
			</g>
			<g>
				<rect x="608.1" y="82" class="st5" width="35.6" height="13.6"/>
				<path d="M613.1,87.1c-0.2,1-1,1.6-2.1,1.6c-1.6,0-2.5-1.3-2.5-2.7s0.8-2.9,2.5-2.9c1.3,0,1.9,0.8,2.1,1.6h-0.6
					c-0.2-0.6-0.6-1.2-1.6-1.2c-1.3,0-1.8,1.2-1.8,2.3s0.6,2.3,1.9,2.3c0.8,0,1.3-0.6,1.5-1.1L613.1,87.1L613.1,87.1z"/>
				<path d="M616.8,87.8c0,0.4,0,0.8,0,0.8h-0.6c0-0.1,0-0.2-0.1-0.6c-0.1,0.2-0.6,0.6-1.3,0.6c-1,0-1.3-0.6-1.3-1.2
					c0-0.8,0.8-1.3,1.9-1.3c0.4,0,0.6,0,0.8,0v-0.4c0-0.4-0.1-0.8-1-0.8c-0.8,0-0.8,0.4-1,0.8h-0.6c0-0.6,0.4-1.2,1.5-1.2
					c1,0,1.5,0.4,1.5,1.3L616.8,87.8L616.8,87.8z M616.3,86.7c-0.1,0-0.6,0-0.8,0c-0.8,0-1.3,0.2-1.3,0.8c0,0.6,0.4,0.8,0.8,0.8
					c1.1,0,1.2-0.8,1.2-1.5L616.3,86.7L616.3,86.7z"/>
				<path d="M618.2,87.5c0.1,0.6,0.6,0.8,1.1,0.8c0.6,0,1-0.4,1-0.8s-0.2-0.6-1-0.8c-1.1-0.2-1.3-0.6-1.3-1.1c0-0.6,0.4-1.1,1.4-1.1
					c1,0,1.4,0.6,1.5,1.2h-0.6c0-0.4-0.4-0.8-1-0.8c-0.6,0-0.8,0.4-0.8,0.6c0,0.4,0.2,0.6,1,0.8c1.2,0.2,1.4,0.6,1.4,1.3
					c0,0.8-0.6,1.2-1.5,1.2c-0.9,0-1.5-0.6-1.6-1.3L618.2,87.5L618.2,87.5z"/>
				<path d="M622,87.5c0.2,0.6,0.6,0.8,1,0.8c1.1,0,1.2-1.5,1.3-2.2c-0.2,0.6-0.8,0.8-1.3,0.8c-1,0-1.5-0.8-1.5-1.7
					c0-1,0.6-1.7,1.7-1.7c1.3,0,1.7,1,1.7,2.3c0,1.3-0.2,3-1.8,3c-1,0-1.4-0.6-1.5-1.2H622L622,87.5z M621.8,85
					c0,0.8,0.4,1.2,1.1,1.2c0.8,0,1.2-0.4,1.2-1.2c0-0.4-0.1-1.3-1.1-1.3C622.2,83.8,621.8,84.3,621.8,85z"/>
			</g>
			<g>
				<rect x="751.1" y="150.7" class="st5" width="32" height="14.1"/>
				<path d="M751.8,152h2c1.1,0,1.7,0.6,1.7,1.6c0,1-0.8,1.6-1.8,1.6h-1.4v2.3h-0.6L751.8,152L751.8,152z M752.4,154.6h1.4
					c0.8,0,1.2-0.4,1.2-1.1c0-0.8-0.6-1.1-1.2-1.1h-1.5L752.4,154.6L752.4,154.6z"/>
				<path d="M756.7,155.7l-0.6,1.8h-0.6l2-5.5h0.8l2,5.5h-0.6l-0.6-1.8H756.7z M758.8,155.2c-0.6-1.5-0.8-2.3-1-2.7l0,0
					c-0.1,0.4-0.6,1.4-1,2.7H758.8z"/>
				<path d="M765.9,155c0-1.1,0-2.1,0-2.7l0,0c-0.2,0.8-1.3,3.4-1.9,5.1h-0.6c-0.6-1.4-1.5-4.1-1.8-5.1l0,0c0,0.6,0,1.9,0,2.9v2.2
					H761V152h0.8c0.8,1.8,1.6,4.1,1.7,4.8l0,0c0.1-0.4,1.2-3.1,1.8-4.8h0.8v5.5h-0.6L765.9,155L765.9,155z"/>
			</g>
			<g>
				<rect x="660.2" y="52.9" class="st5" width="43.2" height="11"/>
				<path d="M660.8,59.5v-5.7h0.6v5.7H660.8z"/>
				<path d="M662.5,53.7h0.6v0.8h-0.6V53.7z M662.5,55.5h0.6v3.9h-0.6V55.5z"/>
				<path d="M664.3,56.6c0-0.4,0-0.8,0-1h0.6c0,0.1,0,0.6,0,0.8c0.2-0.4,0.6-0.8,1.3-0.8c0.7,0,1.3,0.4,1.3,1.5v2.5h-0.6v-2.5
					c0-0.6-0.2-1.1-1-1.1c-0.8,0-1.2,0.8-1.2,1.5v2h-0.6L664.3,56.6L664.3,56.6z"/>
				<path d="M669.2,57.5c0.4-0.4,1.4-1.4,1.9-1.9h0.6l-1.5,1.6l1.7,2.5h-0.6l-1.5-2l-0.6,0.6v1.5h-0.6V54h0.6L669.2,57.5L669.2,57.5
					z"/>
				<path d="M672.6,57.6c0,1,0.6,1.5,1.2,1.5c0.6,0,1-0.4,1.1-0.8h0.6c-0.2,0.6-0.6,1.2-1.6,1.2c-1.3,0-1.7-1-1.7-2
					c0-1.2,0.6-2.1,1.7-2.1c1.3,0,1.7,1.1,1.7,1.8c0,0.1,0,0.2,0,0.4L672.6,57.6L672.6,57.6z M674.9,57.2c0-0.8-0.4-1.3-1.2-1.3
					s-1.1,0.6-1.2,1.3H674.9z"/>
				<path d="M676.3,56.6c0-0.6,0-1,0-1.1h0.6c0,0.1,0,0.4,0,0.8c0.2-0.6,0.8-1,1.4-1V56c-0.8,0-1.4,0.6-1.4,1.5v2h-0.6V56.6z"/>
				<path d="M681,59.5v-5.7h0.6v5.7H681z"/>
				<path d="M686,57.5c0,1.2-0.6,2.1-1.8,2.1c-1.1,0-1.8-0.8-1.8-2c0-1.2,0.6-2.1,1.8-2.1C685.3,55.5,686,56.2,686,57.5z
					 M682.9,57.5c0,1,0.6,1.6,1.3,1.6c0.8,0,1.3-0.6,1.3-1.6c0-1-0.4-1.6-1.3-1.6C683.4,55.9,682.9,56.6,682.9,57.5z"/>
				<path d="M690.3,57.5c0,1.2-0.6,2.1-1.8,2.1c-1.1,0-1.8-0.8-1.8-2c0-1.2,0.6-2.1,1.8-2.1C689.5,55.5,690.3,56.2,690.3,57.5z
					 M687.2,57.5c0,1,0.6,1.6,1.3,1.6c0.7,0,1.3-0.6,1.3-1.6c0-1-0.4-1.6-1.3-1.6C687.6,55.9,687.2,56.6,687.2,57.5z"/>
				<path d="M691.7,59v2.1h-0.6v-4.6c0-0.4,0-0.6,0-1h0.6c0,0.1,0,0.4,0,0.6c0.2-0.4,0.6-0.8,1.4-0.8c1,0,1.6,0.8,1.6,1.9
					c0,1.4-0.8,2.2-1.7,2.2C692.2,59.6,691.8,59.3,691.7,59z M694.1,57.5c0-0.8-0.4-1.5-1.2-1.5c-0.8,0-1.3,0.6-1.3,1.6
					c0,1.1,0.4,1.6,1.3,1.6C693.6,59.1,694.1,58.5,694.1,57.5z"/>
			</g>
			<polyline class="st12" points="697.9,58.3 706.4,58.3 709.2,61.1 			"/>
		</g>
		<g id="图层_9_1_">
			<g>
				<g>
					<g>
						<defs>
							
								<rect id="SVGID_13_" x="718.4" y="146.1" transform="matrix(0.5844 -0.8115 0.8115 0.5844 179.6751 648.0266)" width="8.2" height="5.1"/>
						</defs>
						<clipPath id="SVGID_14_">
							<use xlink:href="#SVGID_13_"  style="overflow:visible;"/>
						</clipPath>
						<g transform="matrix(1 -2.980232e-08 0 1 0 0)" class="st14">
							<g>
								<g>
									<defs>
										
											<rect id="SVGID_15_" x="718.4" y="146.1" transform="matrix(0.5844 -0.8115 0.8115 0.5844 179.6465 648.0269)" width="8.1" height="5.1"/>
									</defs>
									<clipPath id="SVGID_16_">
										<use xlink:href="#SVGID_15_"  style="overflow:visible;"/>
									</clipPath>
									<g transform="matrix(1 0 0 1 0 -3.051758e-05)" class="st15">
										<g>
											<defs>
												
													<rect id="SVGID_17_" x="718.4" y="146.1" transform="matrix(0.5844 -0.8114 0.8114 0.5844 179.6096 648.0121)" width="8.1" height="5.1"/>
											</defs>
											<clipPath id="SVGID_18_">
												<use xlink:href="#SVGID_17_"  style="overflow:visible;"/>
											</clipPath>
											<g transform="matrix(1 0 -2.980232e-08 1 0 1.525879e-05)" style="clip-path:url(#SVGID_18_);">
												
													<use xlink:href="#剪切"  width="55.6" height="64" x="-27.8" y="-32" transform="matrix(-7.427903e-02 -5.349786e-02 7.406821e-02 -0.1029 722.5021 148.6857)" style="overflow:visible;"/>
											</g>
										</g>
									</g>
								</g>
							</g>
						</g>
					</g>
				</g>
			</g>
			<g>
				<g>
					<g>
						<defs>
							
								<rect id="SVGID_19_" x="716.4" y="99.9" transform="matrix(0.8527 -0.5224 0.5224 0.8527 51.5648 390.8943)" width="5.1" height="8.2"/>
						</defs>
						<clipPath id="SVGID_20_">
							<use xlink:href="#SVGID_19_"  style="overflow:visible;"/>
						</clipPath>
						<g transform="matrix(1 2.980232e-08 0 1 0 -3.051758e-05)" class="st16">
							<g>
								<g>
									<defs>
										
											<rect id="SVGID_21_" x="716.4" y="99.9" transform="matrix(0.8527 -0.5224 0.5224 0.8527 51.5747 390.8737)" width="5.1" height="8.1"/>
									</defs>
									<clipPath id="SVGID_22_">
										<use xlink:href="#SVGID_21_"  style="overflow:visible;"/>
									</clipPath>
									<g transform="matrix(1 -2.980232e-08 0 1 0 0)" class="st17">
										<g>
											<defs>
												
													<rect id="SVGID_23_" x="716.3" y="100" transform="matrix(0.8527 -0.5223 0.5223 0.8527 51.5132 390.8125)" width="5.1" height="8.1"/>
											</defs>
											<clipPath id="SVGID_24_">
												<use xlink:href="#SVGID_23_"  style="overflow:visible;"/>
											</clipPath>
											<g transform="matrix(1 2.980232e-08 0 1 0 1.525879e-05)" style="clip-path:url(#SVGID_24_);">
												
													<use xlink:href="#剪切"  width="55.6" height="64" x="-27.8" y="-32" transform="matrix(7.807380e-02 -4.782318e-02 6.623337e-02 0.1081 718.8213 104.0755)" style="overflow:visible;"/>
											</g>
										</g>
									</g>
								</g>
							</g>
						</g>
					</g>
				</g>
			</g>
		</g>
		<g id="图层_10_1_">
			<g>
				<rect x="499.4" y="221.5" class="st5" width="96.8" height="12.4"/>
				<path class="st10" d="M500,223c0.4-0.1,1-0.1,1.5-0.1c0.8,0,1.3,0.1,1.7,0.4c0.4,0.2,0.6,0.6,0.6,1.1c0,0.6-0.4,1.2-1.1,1.4l0,0
					c0.6,0.1,1.3,0.6,1.3,1.5c0,0.6-0.2,1-0.6,1.3c-0.4,0.4-1.2,0.6-2.1,0.6c-0.6,0-1,0-1.3-0.1V223z M500.9,225.5h0.8
					c0.8,0,1.3-0.4,1.3-1.1c0-0.8-0.6-1-1.4-1c-0.4,0-0.6,0-0.8,0v2H500.9z M500.9,228.5c0.2,0,0.4,0,0.6,0c0.8,0,1.6-0.4,1.6-1.3
					c0-0.8-0.8-1.2-1.6-1.2h-0.6V228.5L500.9,228.5z"/>
				<path class="st10" d="M504.7,228.5c0-0.4,0.2-0.6,0.6-0.6c0.4,0,0.6,0.2,0.6,0.6c0,0.4-0.2,0.6-0.6,0.6
					C504.9,229.2,504.7,228.9,504.7,228.5z"/>
				<path class="st10" d="M508.6,228c0.4,0.2,0.8,0.4,1.5,0.4c0.8,0,1.3-0.4,1.3-1.1c0-0.6-0.4-1-1.2-1.3c-1-0.4-1.6-0.8-1.6-1.7
					c0-1,0.8-1.7,2-1.7c0.6,0,1.1,0.1,1.4,0.4l-0.2,0.6c-0.2-0.1-0.6-0.4-1.2-0.4c-0.8,0-1.2,0.6-1.2,1c0,0.6,0.4,0.8,1.3,1.2
					c1.1,0.4,1.6,1,1.6,1.8c0,1-0.8,1.8-2.2,1.8c-0.6,0-1.3-0.2-1.6-0.4L508.6,228z"/>
				<path class="st10" d="M514.1,223.4c0,0.2-0.2,0.6-0.6,0.6c-0.4,0-0.6-0.2-0.6-0.6c0-0.2,0.2-0.6,0.6-0.6
					C513.9,222.8,514.1,223.2,514.1,223.4z M513.1,229.1v-4.4h0.8v4.4H513.1z"/>
				<path class="st10" d="M515.2,225.8c0-0.6,0-0.8,0-1.2h0.8v0.8l0,0c0.2-0.4,0.8-0.8,1.5-0.8c0.6,0,1.6,0.4,1.6,1.9v2.7h-0.8v-2.5
					c0-0.8-0.2-1.3-1-1.3c-0.6,0-1,0.4-1.1,0.8c0,0.1,0,0.2,0,0.4v2.7h-0.8L515.2,225.8L515.2,225.8z"/>
				<path class="st10" d="M524.1,224.7c0,0.4,0,0.6,0,1.3v2.5c0,1.1-0.2,1.7-0.6,2c-0.4,0.4-1.1,0.6-1.6,0.6s-1.2-0.1-1.5-0.4
					l0.2-0.6c0.4,0.2,0.8,0.4,1.3,0.4c0.8,0,1.5-0.4,1.5-1.6v-0.6l0,0c-0.2,0.4-0.8,0.8-1.4,0.8c-1.1,0-1.9-1-1.9-2.2
					c0-1.5,1-2.3,2-2.3c0.8,0,1.2,0.4,1.4,0.8l0,0v-0.6L524.1,224.7L524.1,224.7z M523.2,226.4c0-0.1,0-0.2,0-0.4
					c-0.1-0.6-0.6-0.8-1.2-0.8c-0.8,0-1.3,0.6-1.3,1.7c0,0.8,0.4,1.6,1.3,1.6c0.6,0,1-0.4,1.2-0.8c0-0.1,0-0.4,0-0.4V226.4z"/>
				<path class="st10" d="M525.5,222.6h0.8v6.5h-0.8V222.6z"/>
				<path class="st10" d="M528,227c0,1.1,0.8,1.5,1.5,1.5c0.6,0,1-0.1,1.3-0.2l0.1,0.6c-0.2,0.1-0.8,0.2-1.5,0.2
					c-1.4,0-2.2-1-2.2-2.2c0-1.4,0.8-2.5,2.1-2.5c1.5,0,1.8,1.3,1.8,2.1c0,0.2,0,0.4,0,0.4H528L528,227L528,227z M530.3,226.4
					c0-0.6-0.2-1.3-1.1-1.3c-0.8,0-1.2,0.8-1.3,1.3H530.3z"/>
				<path class="st10" d="M537.8,224.7c0,0.4,0,0.6,0,1.3v2.5c0,1.1-0.2,1.7-0.6,2c-0.4,0.4-1.1,0.6-1.6,0.6s-1.2-0.1-1.5-0.4
					l0.2-0.6c0.4,0.2,0.8,0.4,1.3,0.4c0.8,0,1.5-0.4,1.5-1.6v-0.6l0,0c-0.2,0.4-0.8,0.8-1.4,0.8c-1.1,0-1.9-1-1.9-2.2
					c0-1.5,1-2.3,2-2.3c0.8,0,1.2,0.4,1.4,0.8l0,0v-0.6L537.8,224.7L537.8,224.7z M536.9,226.4c0-0.1,0-0.2,0-0.4
					c-0.1-0.6-0.6-0.8-1.2-0.8c-0.8,0-1.3,0.6-1.3,1.7c0,0.8,0.4,1.6,1.3,1.6c0.6,0,1-0.4,1.2-0.8c0-0.1,0-0.4,0-0.4V226.4z"/>
				<path class="st10" d="M542.8,227.8c0,0.6,0,0.8,0,1.3h-0.6v-0.8l0,0c-0.2,0.4-0.6,0.8-1.5,0.8c-0.8,0-1.5-0.4-1.5-1.9v-2.5h0.8
					v2.5c0,0.8,0.2,1.5,1,1.5c0.6,0,1-0.4,1.1-0.8c0-0.1,0.1-0.2,0.1-0.4v-2.7h0.8v3H542.8z"/>
				<path class="st10" d="M545.1,223.4c0,0.2-0.2,0.6-0.6,0.6s-0.6-0.2-0.6-0.6c0-0.2,0.2-0.6,0.6-0.6S545.1,223.2,545.1,223.4z
					 M544.1,229.1v-4.4h0.8v4.4H544.1z"/>
				<path class="st10" d="M550,222.6v5.4c0,0.4,0,0.8,0,1.2h-0.8v-0.8l0,0c-0.2,0.6-0.8,0.8-1.5,0.8c-1.1,0-1.9-1-1.9-2.2
					c0-1.5,1-2.5,2-2.5c0.8,0,1.2,0.4,1.4,0.6l0,0v-2.7L550,222.6L550,222.6z M549.3,226.4c0-0.1,0-0.2,0-0.4c-0.1-0.6-0.6-1-1.2-1
					c-0.8,0-1.4,0.8-1.4,1.7c0,1,0.4,1.7,1.3,1.7c0.6,0,1.1-0.4,1.2-1c0-0.1,0-0.2,0-0.4L549.3,226.4L549.3,226.4z"/>
				<path class="st10" d="M551.8,227c0,1.1,0.8,1.5,1.5,1.5c0.6,0,1-0.1,1.3-0.2l0.1,0.6c-0.2,0.1-0.8,0.2-1.5,0.2
					c-1.4,0-2.2-1-2.2-2.2c0-1.4,0.8-2.5,2.1-2.5c1.5,0,1.8,1.3,1.8,2.1c0,0.2,0,0.4,0,0.4h-3.1L551.8,227L551.8,227z M554.1,226.4
					c0-0.6-0.2-1.3-1.1-1.3c-0.8,0-1.2,0.8-1.3,1.3H554.1z"/>
				<path class="st10" d="M557.9,223c0.4-0.1,1-0.1,1.5-0.1c0.8,0,1.4,0.2,1.8,0.6c0.4,0.2,0.6,0.8,0.6,1.2c0,0.8-0.6,1.4-1.2,1.6
					l0,0c0.6,0.2,0.8,0.6,1,1.3c0.2,0.8,0.4,1.5,0.6,1.7h-1c-0.1-0.2-0.2-0.8-0.4-1.5c-0.2-0.8-0.6-1.2-1.3-1.2h-0.8v2.7h-0.8V223
					L557.9,223z M558.6,225.8h0.8c0.8,0,1.4-0.6,1.4-1.2c0-0.8-0.6-1.2-1.5-1.2c-0.4,0-0.6,0-0.8,0.1L558.6,225.8L558.6,225.8z"/>
				<path class="st10" d="M562.8,229.1V223h0.8l1.9,3.2c0.4,0.8,0.8,1.4,1.1,2l0,0c-0.1-0.8-0.1-1.6-0.1-2.5v-2.5h0.8v6.1h-0.8
					l-1.9-3.2c-0.4-0.8-0.8-1.4-1.2-2l0,0c0,0.8,0,1.5,0,2.5v2.7L562.8,229.1L562.8,229.1z"/>
				<path class="st10" d="M569.7,227.1l-0.6,1.9h-0.8l2.1-6.1h1l2.1,6.1h-0.8l-0.6-1.9H569.7z M571.7,226.6l-0.6-1.8
					c-0.1-0.4-0.2-0.8-0.4-1.2l0,0c-0.1,0.4-0.2,0.8-0.4,1.2l-0.6,1.8H571.7z"/>
			</g>
		</g>
		<g id="图层_7_1_">
			<path class="st13" d="M741.7,107c-1.7-2.7-18.3-17.4-20.9-20c-3-2.7,1.3-7.2,4.1-4.4L742.5,99c0.4,0.4,0.6,0.6,1,0.8
				c11.2,9.2,0.8,20.2-14.1,19.3h-49.5c-1.7,0-3.1-1.4-3.1-3.1c0-1.7,1.4-3.1,3.1-3.1c6.3-0.4,54.2,1.2,59-1.3
				c1.2-0.6,2.2-1.7,3.1-2.7L741.7,107L741.7,107z"/>
			<g id="图层_6_1_">
				<path class="st5" d="M777.7,81.5"/>
				<path class="st11" d="M778.4,82.1c-2.5-1.1-4.8-3.6-5.6-5.1c-0.2-0.4-0.4-0.8-0.4-1.3c0-0.8,0.1-1.6,0.4-2.5
					c0.4-1.8,0.8-4-0.8-6.5c-3-5-11.3-6.5-17.1-3.3l-0.2,0.1l-0.2,0.1c-1.7,1.4-7.1,5.4-6.5,10.7c0.4,3.7,3.6,6.7,9.6,9.4
					c0.1,0,0.2,0.1,0.2,0.1c4.4,2.5,9.2,9.6,10.1,13.9c0.2,1.1-0.2,2.2-1.2,2.9c-0.4,0.2-0.8,0.4-1.1,0.6c-1.7,0.6-4.1-0.1-6.1-1.8
					l-27-25.7c-1.2-1.1-2.9-1.1-3.9,0.1l0,0l0.4-0.4c-1.1,1.2-1.6,3.5-0.6,4.6l27,25.7l0.1,0.1c2.7,2.3,5.9,3.6,8.9,3.6
					c1.3,0,2.5-0.2,3.6-0.6c3.2-1.3,6.3-4.1,6.3-7.6c0-6.7-7.1-17.3-13.7-20.9l-0.2-0.1c-5.6-2.5-6.3-4.2-6.3-4.6s0.1-1.9,3.7-4.8
					c0.2-0.1,0.4-0.2,0.6-0.4c1.5-0.8,3.2-1,5-0.6c1.6,0.4,3,1.1,3.5,1.9c0.2,0.4,0.2,0.8,0,2.2c-0.2,1.3-0.6,2.9-0.4,4.8
					c0.4,3.6,4.6,8.4,9.1,10.5c0.1,0,0.2,0.1,0.4,0.2c6.5,2,7.4,1.6,8.6-0.6l0,0l0,0c0.1-0.4,0-0.8-0.2-1.3c-0.4-0.8-1-1.3-1.7-1.5
					L778.4,82.1z"/>
				<line class="st5" x1="723.4" y1="58.5" x2="721.9" y2="90.1"/>
				<path class="st5" d="M721.9,90.1"/>
				<path class="st11" d="M724.4,71.7L724.4,71.7c0,1.2,2.9,6.1,3.9,6.3c0.1,0,0.2,0.1,0.4,0.2c0.1-0.2,0.4-0.4,0.6-0.6
					c-0.1-0.1-0.2-0.2-0.4-0.4c-0.6-0.8,1.2-0.2,2-0.6c0.4-0.1-0.8-1.4-0.8-1.3c0,0,0.2,0.1,0.4,0.1c1,0.2,1.7-0.6,1.7-1.5
					c0-0.8,0-0.8-0.1-0.8c-0.6-0.4-1.3-1.2-0.8-1.7l0,0c0.8-6.5-0.8-10.8-3.8-13c-4.2-3.2-10.5-0.6-12.6,0.4l-0.2,0.1l-0.2,0.1
					c-5.8,3.3-8.6,11.3-5.9,16.4c1.4,2.5,3.6,3.3,5.3,3.9c0.8,0.2,1.5,0.6,2.2,1c0.4,0.2,0.8,0.6,1,1c0.1,0.2,0.2,0.4,0.4,0.6
					c0.4,0.8,1.4,3.4,2.2,3.6c0.4,0.6,2.2,1.3,1.3,1c0,0,1.3,0.4,1.7,0.4c0.4,0,2.2-1.3,2.2-2.2V84c0-0.6-0.1-1.3-0.4-1.9
					c-0.6-1-1.2-2.5-1.5-3.1c-0.8-1.5-1.6-2.7-2.5-3.4c-1.6-1.2-3.2-1.6-4.4-2c-1.5-0.6-1.7-0.6-1.9-1.1c-0.6-0.8-0.4-2.5,0.1-4
					c0.4-1.3,1.2-2.3,2-3.2c0.6-0.6,1.5-1.1,2.3-1.4c3.7-1.4,5-0.8,5.3-0.6c0.4,0.4,1.5,2.1,0.8,8C724.4,71.5,724.4,71.5,724.4,71.7
					z"/>
			</g>
			<g id="图层_8_1_">
				<g>
					<rect x="789.1" y="85" class="st5" width="9.7" height="12.2"/>
					<path d="M789.7,87.6c0.1-0.6,0.6-1.3,1.6-1.3s1.5,0.6,1.5,1.3c0,0.6-0.4,1-0.8,1.1l0,0c0.6,0.2,1,0.6,1,1.3
						c0,0.8-0.6,1.6-1.7,1.6c-1.1,0-1.6-0.8-1.7-1.4h0.6c0.1,0.6,0.6,1,1.3,1c0.8,0,1.2-0.6,1.2-1.2c0-0.8-0.6-1.1-1.3-1.1H791v-0.4
						h0.2c0.8,0,1.1-0.4,1.1-0.8c0-0.6-0.4-0.8-1-0.8c-0.6,0-1,0.4-1.1,0.8L789.7,87.6L789.7,87.6z"/>
					<path d="M793.6,87.8c0.2-0.6,0.4-1.5,0.4-1.9h0.6c0,0.6-0.2,1.5-0.4,1.9H793.6z"/>
				</g>
				<g>
					<rect x="785.9" y="103.4" class="st5" width="33" height="12.2"/>
					<path d="M785.9,106.1h0.8v-1.3h0.6v1.3h1v0.4h-1v2.5c0,0.4,0.1,0.6,0.6,0.6c0.1,0,0.2,0,0.4,0v0.4c-0.1,0-0.4,0.1-0.6,0.1
						c-0.6,0-0.8-0.2-0.8-1v-2.7H786v-0.4H785.9z"/>
					<path d="M788.7,107.1c0-0.6,0-1,0-1.1h0.6c0,0.1,0,0.4,0,0.8c0.2-0.6,0.8-1,1.4-1v0.6c-0.8,0-1.4,0.6-1.4,1.5v2h-0.6V107.1z"/>
					<path d="M794.1,109.2c0,0.4,0,0.8,0,0.8h-0.6c0-0.1,0-0.2-0.1-0.6c-0.1,0.2-0.6,0.6-1.3,0.6c-1,0-1.3-0.6-1.3-1.2
						c0-0.8,0.8-1.3,1.9-1.3c0.4,0,0.6,0,0.8,0v-0.4c0-0.4-0.1-0.8-1-0.8c-0.8,0-0.8,0.4-1,0.8H791c0-0.6,0.4-1.2,1.5-1.2
						c1,0,1.5,0.4,1.5,1.3v2H794.1z M793.6,108c-0.1,0-0.6,0-0.8,0c-0.8,0-1.3,0.2-1.3,0.8c0,0.6,0.4,0.8,0.8,0.8
						c1.1,0,1.2-0.8,1.2-1.5L793.6,108L793.6,108z"/>
					<path d="M798.2,108.8c-0.2,0.8-0.6,1.3-1.6,1.3c-1.1,0-1.7-0.8-1.7-2c0-1.1,0.6-2.1,1.8-2.1c1.1,0,1.5,0.8,1.5,1.3h-0.6
						c-0.1-0.4-0.4-0.8-1-0.8c-0.8,0-1.3,0.6-1.3,1.6s0.4,1.6,1.2,1.6c0.6,0,0.8-0.2,1.1-0.8L798.2,108.8L798.2,108.8z"/>
					<path d="M799.2,107.1c0-0.6,0-1,0-1.1h0.6c0,0.1,0,0.4,0,0.8c0.2-0.6,0.8-1,1.4-1v0.6c-0.8,0-1.4,0.6-1.4,1.5v2h-0.6V107.1z"/>
					<path d="M802.4,107.5v2.5h-0.6v-5.5h2c1.1,0,1.7,0.6,1.7,1.5c0,0.8-0.4,1.2-1,1.3c0.6,0.1,0.8,0.6,0.8,1.5v0.2
						c0,0.4,0,0.8,0.1,1.1H805c-0.1-0.2-0.1-0.6-0.1-1.2v-0.1c0-0.8-0.2-1.3-1.3-1.3L802.4,107.5L802.4,107.5z M802.4,107.1h1.3
						c1,0,1.3-0.4,1.3-1c0-0.6-0.4-1-1.3-1h-1.4v1.9L802.4,107.1L802.4,107.1z"/>
					<path d="M806.8,109.9v-5.5h0.8c0.8,1.3,2.7,4.2,3,4.8l0,0c0-0.8,0-1.6,0-2.5v-2.3h0.6v5.5h-0.8c-0.8-1.3-2.7-4.4-3.1-4.8l0,0
						c0,0.8,0,1.5,0,2.5v2.5h-0.4V109.9z"/>
					<path d="M813.2,108.2l-0.6,1.8H812l2-5.5h0.8l2,5.5h-0.6l-0.6-1.8H813.2z M815.3,107.7c-0.6-1.5-0.8-2.3-1-2.7l0,0
						c-0.1,0.4-0.6,1.4-1,2.7H815.3z"/>
				</g>
				<polyline class="st12" points="784.2,107.6 777,107.6 775.8,105.1 				"/>
				<polyline class="st12" points="712.3,90.7 718.4,90.7 720.5,89 				"/>
				<polyline class="st12" points="736.1,151 739,154.4 748.2,154.4 				"/>
			</g>
		</g>
	</g>
</g>
</svg>
