<?xml version="1.0" encoding="utf-8"?>
<!-- Generator: Adobe Illustrator 25.2.1, SVG Export Plug-In . SVG Version: 6.00 Build 0)  -->
<svg version="1.1" id="图层_1" xmlns="http://www.w3.org/2000/svg" xmlns:xlink="http://www.w3.org/1999/xlink" x="0px" y="0px"
	 viewBox="0 0 2412.4 768" style="enable-background:new 0 0 2412.4 768;" xml:space="preserve">
<style type="text/css">
	.st0{fill:#D7DCE3;}
	.st1{fill:#F8A3A8;}
	.st2{fill:#FAE5A2;}
	.st3{fill:none;stroke:#000000;stroke-width:0.25;stroke-miterlimit:10;}
	.st4{font-family:'ArialMT';}
	.st5{font-size:11.9994px;}
	.st6{font-size:12px;}
	.st7{fill:none;stroke:#000000;stroke-miterlimit:10;}
	.st8{stroke:#000000;stroke-miterlimit:10;}
	.st9{fill:none;}
	.st10{font-family:'OpenSans-Bold';}
	.st11{font-size:24px;}
	.st12{font-family:'OpenSans-Regular';}
	.st13{font-size:16px;}
	.st14{font-family:'Times-Bold';}
	.st15{fill:none;stroke:#444444;stroke-miterlimit:10;}
	.st16{fill:#F9D878;stroke:#000000;stroke-miterlimit:10;}
	.st17{stroke:#444444;stroke-miterlimit:10;}
	.st18{fill:#8896AE;}
	.st19{fill:#7DAA54;}
	.st20{font-size:72px;}
	.st21{fill:#CBDEB7;}
	.st22{fill:#B1D9D5;}
</style>
<defs>
    <filter id="f1" x="0" y="0" width="200%" height="200%">
      <feOffset result="offOut" in="SourceGraphic" dx="0" dy="0" />
      <feGaussianBlur result="blurOut" in="offOut" stdDeviation="15" />
      <feBlend in="SourceGraphic" in2="blurOut" mode="normal" />
    </filter>
  </defs>
<path class="st0" d="M243.6,301.8c58.3-27.6,83.2-97.3,55.5-155.7c-27.6-58.3-97.3-83.2-155.7-55.5s-83.2,97.3-55.5,155.7
	S185.2,329.5,243.6,301.8z M151.3,107.1c49.2-23.3,108.1-2.3,131.5,46.9s2.3,108.1-46.9,131.5s-108.1,2.3-131.5-46.9
	C81,189.3,102,130.5,151.3,107.1z"/>
<path class="st1" d="M269.2,144.9c15.6,23.8,18.9,52.2,11.3,77.6c-0.6,1.9,0.5,3.9,2.4,4.6l21,7.2c2,0.7,4.2-0.4,4.8-2.4
	c10.3-33.6,6.2-71.4-14.5-103.1c-6.4-9.8-13.9-18.3-22.3-25.5c-1.6-1.4-4-1.2-5.3,0.5l-14,17.3c-1.3,1.5-1.1,3.8,0.4,5.1
	C258.9,131.5,264.5,137.7,269.2,144.9z"/>
<path class="st2" d="M245.9,114.5l12.3-19c1.1-1.7,0.6-3.9-1.1-4.9c-34-20.6-76.3-23.4-113-7.2c-1.8,0.8-2.6,3-1.8,4.8l9.7,20.3
	c0.8,1.7,2.8,2.5,4.6,1.7c27.4-12,59-9.8,84.5,5.4C242.8,116.6,244.9,116.1,245.9,114.5z"/>
<path class="st0" d="M114.7,410.8c-45,46.2-44.2,120.1,2,165.3c46.2,45,120.1,44.2,165.3-2c45.1-46.2,44.2-120.1-2-165.3
	C233.7,363.8,159.7,364.7,114.7,410.8z M268.9,561.4c-38.1,39-100.6,39.8-139.6,1.7s-39.8-100.6-1.7-139.6s100.6-39.8,139.6-1.7
	C306.2,459.8,306.9,522.3,268.9,561.4z"/>
<path class="st3" d="M245.1,360.2"/>
<path class="st2" d="M130,425.2c6.8-7.1,14.5-12.7,22.6-17.2c1.7-1,2.4-3,1.5-4.8l-7.5-15.1c-0.9-1.8-3.2-2.5-5-1.6
	c-10.4,5.6-20.2,12.9-29,21.8c-12.5,12.8-21.5,27.7-27.1,43.6c-0.7,1.9,0.3,4,2.4,4.6l16.1,5.1c1.9,0.5,3.9-0.4,4.5-2.2
	C113,447.2,120.2,435.4,130,425.2z"/>
<g>
	<path d="M193.6,93.7l-1.1-2.6l-3.3,0.1l-1,2.7h-1l3.1-8.5h0.8l3.5,8.4L193.6,93.7z M192.2,90.2l-1-2.6c-0.1-0.3-0.3-0.7-0.4-1.2
		c-0.1,0.4-0.2,0.8-0.3,1.2l-0.9,2.6H192.2z"/>
	<path d="M203.4,94.2l0.3-4.1c0-0.5-0.1-0.9-0.2-1.1s-0.5-0.4-1-0.4c-0.6,0-1,0.1-1.3,0.4s-0.5,0.8-0.5,1.5l-0.2,3.5l-0.9-0.1
		l0.3-4.1c0-0.5-0.1-0.9-0.2-1.1c-0.2-0.3-0.5-0.4-1-0.4c-0.6,0-1,0.1-1.3,0.5c-0.3,0.3-0.5,0.9-0.5,1.7l-0.2,3.3l-0.9-0.1l0.4-6.3
		h0.8l0.1,0.9l0,0c0.2-0.3,0.5-0.5,0.8-0.7s0.7-0.2,1.1-0.2c1,0.1,1.6,0.5,1.8,1.2l0,0c0.2-0.3,0.5-0.6,0.9-0.7
		c0.4-0.2,0.8-0.2,1.2-0.2c0.7,0,1.2,0.3,1.5,0.6s0.5,1,0.4,1.8l-0.3,4.1L203.4,94.2z"/>
	<path d="M212.3,89.5c-0.1,0.8-0.5,1.4-1.1,1.8s-1.5,0.5-2.5,0.3l-1-0.1l-0.5,3.3l-1-0.1l1.2-8.3l2.1,0.3
		C211.7,86.9,212.6,87.8,212.3,89.5z M207.8,90.6l0.9,0.1c0.8,0.1,1.5,0.1,1.9-0.1s0.7-0.6,0.8-1.2c0.1-0.5,0-1-0.4-1.3
		c-0.3-0.3-0.9-0.5-1.6-0.7l-1.1-0.2L207.8,90.6z"/>
	<path d="M289.8,152c-0.5,0.3-1.1,0.4-1.6,0.4s-1-0.1-1.4-0.4c-0.4-0.3-0.8-0.7-1-1.2c-0.4-0.8-0.5-1.5-0.2-2.2s0.8-1.3,1.7-1.7
		c2-1,3.5-0.5,4.5,1.5l1.3,2.5l-0.7,0.4l-0.7-1.3C291.4,150.8,290.7,151.5,289.8,152z M287.7,147.7c-0.7,0.3-1.1,0.7-1.3,1.2
		c-0.2,0.5-0.2,1,0.1,1.5c0.3,0.5,0.6,0.9,1.1,1s1,0,1.7-0.3c0.9-0.5,1.6-1.2,1.9-2.1l-0.2-0.3c-0.4-0.8-0.8-1.2-1.4-1.4
		C289.1,147.2,288.5,147.3,287.7,147.7z"/>
	<path d="M289.8,159.4l-2.1-5l0.8-0.3l2.9,1.2c0.9,0.3,1.5,0.6,1.9,0.6c0.4,0.1,0.7,0.1,1,0.1s0.6-0.1,0.9-0.2
		c0.4-0.2,0.7-0.4,0.8-0.8c0.1-0.4,0.1-0.7-0.1-1.2c-0.1-0.3-0.3-0.6-0.5-0.8s-0.6-0.5-1-0.7l0.4-0.7c0.9,0.5,1.5,1.1,1.9,1.9
		c0.3,0.7,0.4,1.4,0.2,1.9c-0.2,0.6-0.6,1-1.2,1.2c-0.5,0.2-1,0.3-1.6,0.2s-1.4-0.3-2.5-0.8l-2.4-1l0,0l1.7,3.9L289.8,159.4z"/>
	<path d="M299.2,160.2c0.3,0.7,0.3,1.3,0.1,1.9c-0.2,0.5-0.6,0.9-1.2,1.1c-0.4,0.1-0.8,0.1-1.2,0c-0.4-0.1-0.8-0.4-1.3-0.8
		c-0.1,0.7-0.2,1.3-0.5,1.7c-0.2,0.4-0.6,0.7-1,0.8c-0.7,0.2-1.3,0.2-1.8-0.1c-0.6-0.3-1-0.9-1.2-1.7c-0.3-0.8-0.3-1.5-0.1-2.1
		c0.2-0.6,0.7-1,1.3-1.2c0.9-0.3,1.8,0,2.7,0.9c0.1-0.6,0.3-1.1,0.5-1.4c0.3-0.3,0.6-0.6,1-0.7c0.6-0.2,1.1-0.2,1.6,0.1
		S298.9,159.5,299.2,160.2z M292.5,160.6c-0.4,0.2-0.7,0.4-0.9,0.8c-0.1,0.4-0.1,0.8,0.1,1.4c0.2,0.5,0.5,0.9,0.8,1.1
		c0.4,0.2,0.8,0.2,1.2,0.1c0.4-0.1,0.6-0.4,0.8-0.7c0.2-0.4,0.3-1,0.3-1.7c-0.4-0.5-0.8-0.7-1.2-0.9
		C293.3,160.5,292.9,160.5,292.5,160.6z M298.4,160.4c-0.2-0.4-0.4-0.8-0.7-0.9c-0.3-0.2-0.6-0.2-1-0.1c-0.3,0.1-0.6,0.3-0.7,0.6
		c-0.2,0.3-0.3,0.8-0.3,1.4c0.4,0.4,0.8,0.7,1.1,0.8c0.3,0.1,0.7,0.1,1,0c0.4-0.1,0.6-0.4,0.7-0.7
		C298.6,161.3,298.6,160.9,298.4,160.4z"/>
	<path d="M294.9,165.8l0.8-0.2l0.8,2.7l-0.8,0.2L294.9,165.8z"/>
	<path d="M300.6,174.5c-0.8,0.2-1.5,0.1-2.1-0.4s-1-1.2-1.2-2.2l-0.2-1l-3.2,0.8l-0.2-0.9l8.2-2l0.5,2.1
		C302.7,172.9,302.2,174.1,300.6,174.5z M297.8,170.7l0.2,0.8c0.2,0.8,0.5,1.4,0.8,1.7c0.4,0.3,0.8,0.4,1.4,0.2
		c0.5-0.1,0.9-0.4,1.1-0.8c0.2-0.4,0.2-1,0-1.7l-0.3-1.1L297.8,170.7z"/>
	<path d="M295.9,182.3l-0.9-5.4l0.8-0.1l2.6,1.8c0.8,0.5,1.3,0.9,1.7,1.1c0.3,0.2,0.6,0.3,0.9,0.3c0.3,0.1,0.6,0.1,0.9,0
		c0.4-0.1,0.8-0.3,1-0.6s0.3-0.7,0.2-1.2c-0.1-0.3-0.2-0.7-0.3-0.9c-0.2-0.3-0.4-0.6-0.8-0.9l0.6-0.6c0.8,0.6,1.2,1.4,1.4,2.3
		c0.1,0.8,0,1.4-0.3,1.9s-0.8,0.8-1.5,0.9c-0.5,0.1-1.1,0-1.6-0.2c-0.6-0.2-1.3-0.6-2.2-1.3l-2.1-1.5l0,0l0.7,4.2L295.9,182.3z"/>
	<path d="M304.9,185.1c0.1,0.8,0,1.4-0.3,1.9s-0.8,0.8-1.4,0.8c-0.4,0-0.8,0-1.2-0.3c-0.4-0.2-0.7-0.6-1.1-1.1
		c-0.2,0.7-0.5,1.2-0.9,1.5c-0.3,0.3-0.7,0.5-1.2,0.6c-0.7,0.1-1.3-0.1-1.7-0.5c-0.5-0.4-0.7-1.1-0.8-1.9c-0.1-0.9,0-1.6,0.4-2.1
		c0.3-0.5,0.9-0.8,1.6-0.9c1-0.1,1.8,0.4,2.4,1.5c0.2-0.6,0.5-1,0.8-1.2c0.3-0.3,0.7-0.4,1.1-0.5c0.6-0.1,1.1,0.1,1.5,0.5
		C304.5,183.8,304.8,184.4,304.9,185.1z M298.3,184c-0.5,0.1-0.8,0.2-1,0.6c-0.2,0.3-0.3,0.8-0.2,1.4c0.1,0.6,0.2,1,0.5,1.3
		s0.7,0.4,1.1,0.3c0.4,0,0.7-0.2,0.9-0.6s0.5-0.9,0.7-1.6c-0.3-0.5-0.6-0.9-0.9-1.1C299.1,184.1,298.7,184,298.3,184z M304.1,185.2
		c-0.1-0.5-0.2-0.8-0.5-1.1c-0.3-0.2-0.6-0.3-1-0.3c-0.3,0-0.6,0.2-0.9,0.4c-0.2,0.3-0.4,0.7-0.6,1.3c0.3,0.5,0.6,0.9,0.9,1.1
		c0.3,0.2,0.6,0.3,1,0.2c0.4,0,0.7-0.2,0.9-0.5C304.1,186.1,304.1,185.7,304.1,185.2z"/>
</g>
<text transform="matrix(0.5602 0.8283 -0.8283 0.5602 278.0709 432.3398)" class="st4 st5"> </text>
<text class="st4 st6"> </text>
<path class="st7" d="M330.3,184.4h35.8c7.1,0,12.9,7.9,12.9,17.6v267.5c0,8.9-5.3,16.2-11.8,16.2h-36.9"/>
<polyline class="st8" points="454.6,335.3 454.6,341.2 472.2,335.3 454.6,328.9 454.6,335.3 379,335.3 "/>
<rect x="387.6" y="303.4" class="st9" width="60.2" height="29.7"/>
<text transform="matrix(1 0 0 1 394.6046 323.9571)" class="st10 st11">PCR</text>
<path class="st0" d="M759,298.1H492.3c-1.2,0-2.2-1.3-2.2-3v-16.5c0-1.6,0.9-3,2.2-3H759c1.2,0,2.2,1.3,2.2,3v16.6
	C761.1,296.8,760.1,298.1,759,298.1z"/>
<path class="st1" d="M734.4,303.9H516.9c-3.5,0-6.3-1.6-6.3-3.6v-24.4c0-2,2.8-3.6,6.3-3.6h217.5c3.5,0,6.3,1.6,6.3,3.6v24.4
	C740.7,302.3,737.9,303.9,734.4,303.9z"/>
<rect x="738.6" y="279.1" class="st9" width="88" height="27.6"/>
<text transform="matrix(1 0 0 1 595.0261 295.0038)" class="st12 st13">σ28-P28</text>
<polyline class="st8" points="936,336.4 936,342.4 956.8,336.4 936,330 936,336.4 787.1,336.4 "/>
<text transform="matrix(1 0 0 1 808.5465 327.8163)" class="st10 st11">one step </text>
<text transform="matrix(1 0 0 1 816.4465 356.6162)" class="st10 st11">cloning</text>
<path class="st7" d="M774.1,287.7h7.7c3,0,5.4,2.4,5.4,5.4l-0.1,85.8c0,3-2.4,5.4-5.4,5.4h-7.6"/>
<path class="st0" d="M1092,217c-64.5,0-116.9,52.3-116.9,116.9c0,64.5,52.3,116.9,116.9,116.9s116.9-52.3,116.9-116.9
	S1156.6,217,1092,217z M1092,432.5c-54.5,0-98.7-44.2-98.7-98.7s44.2-98.7,98.7-98.7s98.7,44.2,98.7,98.7S1146.5,432.5,1092,432.5z"
	/>
<polyline class="st8" points="1369,338.9 1369,344.9 1389.8,338.9 1369,332.5 1369,338.9 1227.2,338.9 "/>
<rect x="1229.7" y="311.4" class="st9" width="137.4" height="53"/>
<text transform="matrix(1 0 0 1 1233.6519 331.9964)" class="st10 st11">transfer to </text>
<text transform="matrix(1 0 0 1 1266.1519 360.7964)" class="st10 st11">DH5a</text>
<polyline class="st8" points="1647.7,341.7 1647.7,347.6 1668.4,341.7 1647.7,335.3 1647.7,341.7 1505.9,341.7 "/>
<rect x="1508.3" y="314.2" class="st9" width="137.4" height="53"/>
<text transform="matrix(1 0 0 1 1550.494 334.7304)" class="st10 st11">37</text>
<text transform="matrix(1 0 0 1 1577.894 334.7304)" class="st14 st11">℃</text>
<text transform="matrix(1 0 0 1 1512.994 363.5305)" class="st10 st11">incubating</text>
<rect x="1268.1" y="319.3" class="st9" width="137.4" height="20.1"/>
<path class="st15" d="M1391.8,246.4c0.9-0.5,1.8-1,2.8-1.1c7.9-1.2,15.8-3.1,23.8-3.2c24.7-0.3,49.3,0.1,74,0.2c0.7,0,1.3,0,2.3,0
	c0.2,6.2-2,9.4-7.4,10.9c0,2.5,0.6,5.2-0.2,7.4c-0.7,1.7-3.1,2.7-4.8,4c-0.3-0.3-0.7-0.5-1-0.8c0,1.2,0,2.4,0,3.7
	c0,18.5-0.4,37,0.1,55.5c0.4,15.5-1.9,30.6-4.4,45.7c-3.2,19.8-6,39.6-9.2,59.4c-1.3,7.8-2.6,15.7-4.8,23.3
	c-2.6,8.8-7.3,11.4-16.3,10.1c-3.8-0.5-8.4-2.2-9.6-6c-2-6.5-2.7-13.2-3.8-20c-4.4-26.6-8.6-53.2-12.6-79.9
	c-1.2-8.3-2-16.7-2.2-25.1c-0.3-18.7-0.1-37.4-0.1-56.2c0-3.4,0-6.9,0-10.4c-2.8-0.7-6.9,0.9-7.2-4.1c-5.5,0-10.7,0.1-16-0.1
	c-1.4,0-2.8-0.9-4-1.7"/>
<path class="st15" d="M1422.3,310.3c-1.4,0-2.5-1.1-2.5-2.4c0-19.7,0-20.5,0.1-41.9c0-0.7,0.1-1.4,0.1-2h59.7c0,1.2,0,2.5,0,3.8
	c0,16.9,0.1,33.7,0.1,39.8c0,1.4-1.1,2.5-2.5,2.5c-7,0.1-19.7-0.5-19.7-0.5h-7.9L1422.3,310.3z"/>
<path class="st15" d="M1449.4,252.8c-11,0-22.1,0.1-33.1-0.1c-2.7,0-3.8,0.8-3.4,3.6c0.1,0.8,0.1,1.6,0,2.4
	c-0.3,2.8,0.9,3.6,3.5,3.6c21.9-0.1,43.9-0.1,65.8,0c4.5,0,3.5-2.9,3.7-5.6c0.2-2.9-0.7-4.1-3.8-4
	C1471.3,252.9,1460.4,252.8,1449.4,252.8z"/>
<path class="st15" d="M1493.2,244.1c-0.4-0.1-0.6-0.2-0.8-0.2c-25.9-0.2-51.8-0.5-77.7-0.6c-5.8,0-5.8,0.3-5.6,6.1
	c0,0.6,0.1,1.1,0.2,2c1.4,0,2.6,0,3.8,0c24.2,0,48.4,0,72.6,0C1490.9,251.4,1492.5,249.8,1493.2,244.1z"/>
<path class="st15" d="M1446.5,292.6c-0.6,0.1-1.1,0.2-1.6,0.3c-1,0.2-0.7,0.4,0.8,0.5c0.5,0,1.1,0,1.7,0c8.9,0,17.8,0,26.6,0
	c0.5,0,1.1,0,1.5,0c0.6-0.1,1.3-0.1,1.5-0.2s-0.3-0.2-0.6-0.3c-0.4-0.1-1-0.2-1.6-0.3C1465.4,292.6,1455.8,292.6,1446.5,292.6z"/>
<path class="st16" d="M1419.8,312.1c-0.2,1.2,0.8,25.4,0.8,26.1c0,2.1,15.1,118.3,20.1,119.1c0,0,3.7,2.4,7,2.4s10.5,1.8,13.7-10.2
	c7.6-28.7,18-112.7,18-112.7s0.5-19.4,0.5-24.8c-4.5,0.2-25.6,0-30,0C1445.4,312,1424.3,312.4,1419.8,312.1z"/>
<path class="st15" d="M1391.8,252.5c-0.1-2.8,2-3.3,4-3.8c1.1-0.3,2.2-0.1,3.4-0.1c2.7,0,5.4,0,8.2,0c-0.1-1.2-0.1-2.1-0.2-3.4
	c-4.6,0.6-8.7,1-12.8,1.8c-2.6,0.5-4.9,2-5,5.3"/>
<path class="st15" d="M1389.5,252.2c0,3.4,2.2,5.5,5.2,5.9c4.5,0.6,9.1,0.5,13.7,0.5c0.8,0,1.6-1,2.4-1.6c-0.9-0.3-1.8-0.8-2.8-0.8
	c-4-0.1-8.1,0.1-12.1-0.1c-2-0.1-4-0.9-4.1-3.7"/>
<path class="st15" d="M1393.4,252.2c0.1,0.8,1,2.2,1.6,2.2c5.5,0.2,11,0.1,16.5,0.1c0-0.5,0.1-0.9,0.1-1.4c-1.2-0.2-2.4-0.3-3.3-0.4
	c-0.7-1-1.2-2.5-1.8-2.5c-3.8-0.1-7.6,0-11.4,0.3C1394.4,250.5,1393.3,251.6,1393.4,252.2"/>
<path class="st15" d="M1446.5,309.2c-0.6,0.1-1.1,0.2-1.6,0.3c-1,0.2-0.7,0.4,0.8,0.5c0.5,0,1.1,0,1.7,0c8.9,0,17.8,0,26.6,0
	c0.5,0,1.1,0,1.5,0c0.6-0.1,1.3-0.1,1.5-0.2s-0.3-0.2-0.6-0.3c-0.4-0.1-1-0.2-1.6-0.3C1465.4,309.2,1455.8,309.2,1446.5,309.2z"/>
<path class="st15" d="M1446.5,326.9c-0.6,0.1-1.1,0.2-1.6,0.3c-1,0.2-0.7,0.4,0.8,0.5c0.5,0,1.1,0,1.7,0c8.9,0,17.8,0,26.6,0
	c0.5,0,1.1,0,1.5,0c0.6-0.1,1.3-0.1,1.5-0.2s-0.3-0.2-0.6-0.3c-0.4-0.1-1-0.2-1.6-0.3C1465.4,326.9,1455.8,326.9,1446.5,326.9z"/>
<path class="st17" d="M1485.7,251.4"/>
<path class="st17" d="M1492.4,243.9"/>
<path class="st15" d="M1477.3,339.1"/>
<path class="st15" d="M1420.6,338.2"/>
<circle class="st0" cx="1746" cy="137.8" r="66"/>
<circle class="st18" cx="1746" cy="137.8" r="52.8"/>
<g>
	<g>
		<path d="M1723,113.3c1.9,0,1.9-3,0-3C1721,110.3,1721,113.3,1723,113.3L1723,113.3z"/>
	</g>
</g>
<g>
	<g>
		<path d="M1747.5,118c1.9,0,1.9-3,0-3S1745.6,118,1747.5,118L1747.5,118z"/>
	</g>
</g>
<g>
	<g>
		<path d="M1735.8,153.1c1.9,0,1.9-3,0-3S1733.9,153.1,1735.8,153.1L1735.8,153.1z"/>
	</g>
</g>
<g>
	<g>
		<path d="M1753.4,143.6c1.9,0,1.9-3,0-3C1751.4,140.6,1751.4,143.6,1753.4,143.6L1753.4,143.6z"/>
	</g>
</g>
<g>
	<g>
		<path d="M1731.1,137.9c1.9,0,1.9-3,0-3S1729.2,137.9,1731.1,137.9L1731.1,137.9z"/>
	</g>
</g>
<g>
	<g>
		<path d="M1710.1,134.2c1.9,0,1.9-3,0-3S1708.2,134.2,1710.1,134.2L1710.1,134.2z"/>
	</g>
</g>
<g>
	<g>
		<path d="M1713.6,156.6c1.9,0,1.9-3,0-3S1711.7,156.6,1713.6,156.6L1713.6,156.6z"/>
	</g>
</g>
<g>
	<g>
		<path d="M1738.2,176.4c1.9,0,1.9-3,0-3C1736.2,173.4,1736.2,176.4,1738.2,176.4L1738.2,176.4z"/>
	</g>
</g>
<g>
	<g>
		<path d="M1749.9,164.8c1.9,0,1.9-3,0-3C1747.9,161.8,1747.9,164.8,1749.9,164.8L1749.9,164.8z"/>
	</g>
</g>
<g>
	<g>
		<path d="M1752.2,178.8c1.9,0,1.9-3,0-3S1750.3,178.8,1752.2,178.8L1752.2,178.8z"/>
	</g>
</g>
<g>
	<g>
		<path d="M1768.6,165.9c1.9,0,1.9-3,0-3C1766.6,162.9,1766.6,165.9,1768.6,165.9L1768.6,165.9z"/>
	</g>
</g>
<g>
	<g>
		<path d="M1773.2,132c1.9,0,1.9-3,0-3S1771.3,132,1773.2,132L1773.2,132z"/>
	</g>
</g>
<g>
	<g>
		<path d="M1766.2,153.1c1.9,0,1.9-3,0-3S1764.3,153.1,1766.2,153.1L1766.2,153.1z"/>
	</g>
</g>
<g>
	<g>
		<path d="M1777.9,151.9c1.9,0,1.9-3,0-3S1776,151.9,1777.9,151.9L1777.9,151.9z"/>
	</g>
</g>
<g>
	<g>
		<path d="M1763.9,120.3c1.9,0,1.9-3,0-3S1762,120.3,1763.9,120.3L1763.9,120.3z"/>
	</g>
</g>
<g>
	<g>
		<path d="M1752.2,98.1c1.9,0,1.9-3,0-3S1750.3,98.1,1752.2,98.1L1752.2,98.1z"/>
	</g>
</g>
<g>
	<g>
		<path d="M1735.8,103.9c1.9,0,1.9-3,0-3S1733.9,103.9,1735.8,103.9L1735.8,103.9z"/>
	</g>
</g>
<g>
	<g>
		<path d="M1733.5,123.8c1.9,0,1.9-3,0-3S1731.5,123.8,1733.5,123.8L1733.5,123.8z"/>
	</g>
</g>
<g>
	<g>
		<path d="M1721.8,129.7c1.9,0,1.9-3,0-3S1719.9,129.7,1721.8,129.7L1721.8,129.7z"/>
	</g>
</g>
<g>
	<g>
		<path d="M1721.8,148.4c1.9,0,1.9-3,0-3S1719.9,148.4,1721.8,148.4L1721.8,148.4z"/>
	</g>
</g>
<g>
	<g>
		<path d="M1726.5,165.9c1.9,0,1.9-3,0-3C1724.5,162.9,1724.5,165.9,1726.5,165.9L1726.5,165.9z"/>
	</g>
</g>
<g>
	<g>
		<path d="M1787.3,136.6c1.9,0,1.9-3,0-3C1785.3,133.6,1785.3,136.6,1787.3,136.6L1787.3,136.6z"/>
	</g>
</g>
<g>
	<g>
		<path d="M1775.6,118c1.9,0,1.9-3,0-3C1773.6,115,1773.6,118,1775.6,118L1775.6,118z"/>
	</g>
</g>
<g>
	<g>
		<path d="M1765.1,107.5c1.9,0,1.9-3,0-3C1763.1,104.5,1763.1,107.5,1765.1,107.5L1765.1,107.5z"/>
	</g>
</g>
<g>
	<g>
		<path d="M1776.7,165.9c1.9,0,1.9-3,0-3S1774.8,165.9,1776.7,165.9L1776.7,165.9z"/>
	</g>
</g>
<circle class="st0" cx="1745.5" cy="324.5" r="66"/>
<circle class="st18" cx="1745.5" cy="324.5" r="52.8"/>
<circle class="st0" cx="1747.5" cy="524.4" r="66"/>
<circle class="st18" cx="1747.5" cy="524.4" r="52.8"/>
<rect x="1692.8" y="218.1" class="st9" width="106.4" height="25.9"/>
<text transform="matrix(1 0 0 1 1699.9271 231.9001)" class="st12 st13">aimed plasmid</text>
<rect x="1706.2" y="416.1" class="st9" width="87.3" height="30"/>
<text transform="matrix(1 0 0 1 1715.4229 429.7792)" class="st12 st13">fragment</text>
<rect x="1710.3" y="606" class="st9" width="85.9" height="25.9"/>
<text transform="matrix(1 0 0 1 1730.0505 619.6735)" class="st12 st13">vector</text>
<polyline class="st8" points="1959.4,339 1959.4,345 1980.2,339 1959.4,332.6 1959.4,339 1840.1,339 "/>
<rect x="1788.5" y="308.7" class="st9" width="162.5" height="25.5"/>
<text transform="matrix(1 0 0 1 1860.1376 331.5983)" class="st10 st11">colony </text>
<text transform="matrix(1 0 0 1 1883.6375 360.3983)" class="st10 st11">PCR</text>
<g>
	<g>
		<text transform="matrix(1 0 0 1 1997.735 360.0738)" class="st19 st10 st20" filter="url(#f1)">success!</text>
	</g>
</g>
<path class="st21" d="M287.3,527.4c-0.6,1.5,0.2,3.1,1.6,3.6l18.1,7.3c1.6,0.7,3.3-0.1,3.9-1.7c13.2-35.5,8.9-73.4-8.8-104
	c-1.2-2-3.7-2.6-5.7-1.4l-14.5,9.3c-1.8,1.2-2.4,3.5-1.3,5.4C294.3,470,297.5,499.6,287.3,527.4z"/>
<text transform="matrix(1 0 0 1 1678.8435 669.428)" class="st10 st11">plate of Amp</text>
<path class="st22" d="M172.3,403c30.9-8.7,65.3-2,91,20.9c2.7,2.4,5.3,5,7.7,7.7c1.4,1.6,3.9,1.7,5.5,0.3l13.1-11.8
	c1.6-1.4,1.7-3.9,0.3-5.5c-3-3.4-6.3-6.6-9.8-9.7c-32.7-29-76.3-37.3-115.3-26.1c-1.5,0.3-2.4,2.1-2,3.7l5.9,18.5
	C169.2,402.5,170.7,403.3,172.3,403z"/>
<g>
	<path d="M116.9,427.9l-2.9-0.8l-2.2,2.8l1.5,2.6l-0.6,0.8l-4.8-8.1l0.5-0.7l9,2.6L116.9,427.9z M113.2,426.7l-2.8-0.8
		c-0.4-0.1-0.8-0.3-1.2-0.4c0.2,0.3,0.5,0.7,0.8,1.1l1.5,2.5L113.2,426.7z"/>
	<path d="M123.9,420.2l-3.1-2.9c-0.4-0.4-0.7-0.5-1.1-0.6c-0.3,0-0.7,0.2-1,0.5c-0.4,0.5-0.6,0.9-0.6,1.4c0.1,0.5,0.4,0.9,0.9,1.4
		l2.7,2.5l-0.7,0.7l-3.1-2.9c-0.4-0.4-0.7-0.5-1.1-0.6c-0.3,0-0.7,0.2-1,0.5c-0.4,0.5-0.6,0.9-0.5,1.4s0.4,1,1,1.6l2.5,2.3l-0.7,0.7
		l-4.8-4.5l0.6-0.6l0.8,0.5l0,0c-0.1-0.4-0.1-0.7,0-1.1s0.3-0.7,0.6-1c0.7-0.8,1.4-1,2.2-0.7l0,0c-0.1-0.4-0.1-0.8,0-1.2
		c0.1-0.4,0.3-0.8,0.7-1.1c0.5-0.5,1-0.8,1.6-0.8c0.5,0,1.1,0.3,1.7,0.8l3.1,2.9L123.9,420.2z"/>
	<path d="M128.3,416.2c-0.3,0.3-0.7,0.5-1,0.6c-0.4,0.1-0.8,0.1-1.1,0.1h-0.1c0.3,0.3,0.5,0.5,0.8,0.8l1.8,2l-0.7,0.7l-6.3-7.1
		l0.6-0.5l0.7,0.6l0,0c0-0.4,0-0.8,0.2-1.2s0.4-0.7,0.7-1c0.7-0.6,1.4-0.8,2.1-0.7c0.8,0.1,1.5,0.6,2.2,1.4s1.1,1.6,1.1,2.3
		C129.3,415,129,415.7,128.3,416.2z M124.2,411.9c-0.5,0.4-0.7,0.9-0.7,1.4s0.3,1,0.8,1.6l0.1,0.2c0.6,0.7,1.2,1.1,1.7,1.2
		s1-0.1,1.5-0.5c0.4-0.4,0.6-0.8,0.5-1.4c-0.1-0.6-0.4-1.1-0.9-1.7s-1.1-1-1.6-1.1C125.2,411.4,124.7,411.5,124.2,411.9z"/>
	<path d="M230.5,389.1c-0.2,0.8-0.7,1.4-1.4,1.7c-0.7,0.3-1.6,0.3-2.7,0l-1-0.3l-1,3.3l-1-0.3l2.4-8.4l2.2,0.6
		C230.2,386.3,231,387.5,230.5,389.1z M225.6,389.6l0.9,0.3c0.9,0.3,1.5,0.3,2,0.1c0.5-0.2,0.8-0.6,1-1.2s0.1-1-0.2-1.4
		s-0.8-0.7-1.6-0.9l-1.1-0.3L225.6,389.6z"/>
	<path d="M230.9,395.7l6.1-6.1l-4.5-1.6l0.3-0.9l5.5,2l-0.3,0.7l-6.1,6.2L230.9,395.7z"/>
	<path d="M243.4,396.1c-0.6,1.4-1.3,2.3-2,2.8s-1.6,0.5-2.5,0.1s-1.4-1-1.5-1.9s0.1-2,0.7-3.4c0.6-1.4,1.3-2.3,2-2.8
		s1.5-0.5,2.4-0.1s1.4,1,1.5,1.9C244.2,393.7,244,394.8,243.4,396.1z M239,394.2c-0.5,1.2-0.7,2.1-0.7,2.7c0,0.7,0.4,1.1,1,1.4
		s1.2,0.2,1.7-0.2c0.5-0.4,1-1.2,1.5-2.3c0.5-1.1,0.7-2,0.7-2.7s-0.4-1.1-1-1.4s-1.2-0.2-1.7,0.2C240,392.2,239.5,393,239,394.2z"/>
	<path d="M300.4,473.8L300.4,473.8c-0.8-0.4-1.2-1-1.4-1.9c-0.2-0.8-0.1-1.6,0.4-2.2s1.2-1,2.3-1.3c1.1-0.2,1.9-0.2,2.6,0.2
		c0.7,0.3,1.1,0.9,1.3,1.8c0.2,0.9,0,1.6-0.5,2.2v0.1l0.4-0.1l0.4-0.1l2.6-0.6l0.2,1l-9,2l-0.2-0.8L300.4,473.8z M299.8,471.9
		c0.2,0.7,0.4,1.1,0.9,1.3c0.4,0.2,1,0.2,1.8,0.1h0.2c0.9-0.2,1.5-0.5,1.8-0.9s0.4-0.9,0.3-1.6c-0.1-0.6-0.4-1-1-1.2
		c-0.5-0.2-1.2-0.2-2,0s-1.4,0.5-1.7,0.9C299.8,470.8,299.6,471.3,299.8,471.9z"/>
	<path d="M300.4,479.6c-0.1-1,0-1.8,0.5-2.4s1.3-1.1,2.3-1.2c1-0.2,1.9,0,2.6,0.4s1.1,1.1,1.2,1.9s0,1.5-0.5,2.1s-1.1,0.9-2,1
		l-0.6,0.1l-0.7-4.5c-0.8,0.1-1.3,0.4-1.6,0.8c-0.3,0.4-0.5,1-0.3,1.6c0.1,0.7,0.4,1.4,0.8,2l-0.9,0.1c-0.2-0.3-0.4-0.6-0.5-0.9
		C300.6,480.4,300.5,480.1,300.4,479.6z M306.2,478.4c-0.1-0.5-0.3-0.9-0.7-1.2c-0.4-0.3-0.9-0.4-1.5-0.3l0.5,3.4
		c0.6-0.1,1.1-0.3,1.4-0.6C306.2,479.4,306.3,479,306.2,478.4z"/>
	<path d="M308.1,488.3l-0.6,0.1l-0.3-1.2c-0.1,0.1-0.3,0.2-0.5,0.3c-0.2,0.1-0.5,0.2-0.7,0.2c-0.6,0.1-1.2-0.1-1.6-0.5
		s-0.7-1-0.7-1.8c0-0.2,0-0.4,0-0.6c-0.3-0.4-0.6-0.6-0.9-0.6c-0.2,0-0.3,0.1-0.4,0.3c-0.1,0.2-0.1,0.4-0.1,0.8l0.1,1.2
		c0.1,0.7,0,1.3-0.3,1.7c-0.3,0.4-0.7,0.6-1.2,0.7c-0.7,0.1-1.3-0.2-1.7-0.7c-0.4-0.5-0.7-1.4-0.8-2.5c-0.1-0.9,0-1.5,0.3-2
		s0.7-0.8,1.3-0.8c0.4,0,0.7,0.1,1.1,0.3c0.3,0.2,0.5,0.6,0.7,1c0.1-0.2,0.2-0.3,0.3-0.5c0.1-0.1,0.3-0.2,0.5-0.2s0.5,0,0.6,0.1
		c0.2,0.1,0.4,0.3,0.6,0.6c0.1-0.4,0.3-0.7,0.6-0.9c0.3-0.2,0.7-0.4,1.1-0.4c0.7-0.1,1.3,0.1,1.7,0.5c0.4,0.4,0.7,1,0.7,1.8
		c0,0.3,0,0.7,0,0.9L308.1,488.3z M300,483.8c-0.4,0-0.6,0.2-0.8,0.5c-0.2,0.3-0.2,0.8-0.2,1.3c0.1,0.8,0.3,1.4,0.5,1.8
		c0.3,0.4,0.6,0.6,1.1,0.5c0.4,0,0.6-0.2,0.7-0.4c0.1-0.2,0.1-0.7,0.1-1.3l-0.1-1.2c0-0.5-0.2-0.8-0.4-1
		C300.7,483.8,300.4,483.7,300,483.8z M305.6,483.8c-0.5,0-0.8,0.2-1,0.5s-0.3,0.7-0.3,1.1c0.1,1,0.6,1.4,1.5,1.3
		c1-0.1,1.4-0.6,1.3-1.6c0-0.5-0.2-0.8-0.5-1C306.4,483.9,306,483.8,305.6,483.8z"/>
	<path d="M307.5,492.9l-0.1-1.7l-5.8,0.2v-1l5.8-0.2V489h0.4l0.4,1.2h0.4c1.6-0.1,2.4,0.6,2.5,2c0,0.3,0,0.8-0.2,1.2l-0.8-0.2
		c0.1-0.4,0.2-0.7,0.1-1c0-0.4-0.1-0.7-0.4-0.8c-0.3-0.2-0.7-0.2-1.2-0.2h-0.4l0.1,1.7H307.5z"/>
	<path d="M301.6,497.3c0-0.4,0.1-0.8,0.3-1.2c0.2-0.4,0.4-0.6,0.7-0.9v-0.1c-0.4,0-0.7,0.1-1.1,0.1h-2.7v-1l9.5,0.2v0.8l-0.9,0.1
		l0,0c0.4,0.3,0.6,0.6,0.8,0.9c0.2,0.3,0.2,0.7,0.2,1.2c0,0.9-0.3,1.5-0.9,2s-1.4,0.7-2.5,0.7s-1.9-0.3-2.5-0.8
		C301.8,498.9,301.6,498.2,301.6,497.3z M307.5,497.3c0-0.7-0.2-1.2-0.5-1.5c-0.4-0.3-1-0.5-1.8-0.5H305c-0.9,0-1.6,0.1-2,0.4
		s-0.6,0.8-0.6,1.5c0,0.6,0.2,1,0.7,1.4c0.5,0.3,1.1,0.5,1.9,0.5s1.4-0.1,1.9-0.5S307.5,497.9,307.5,497.3z"/>
</g>
<path class="st0" d="M759,393.5H494.3c-1.2,0-2.2-1.3-2.2-3V374c0-1.6,0.9-3,2.2-3H759c1.2,0,2.2,1.3,2.2,3v16.6
	C761.1,392.2,760.1,393.5,759,393.5z"/>
<path class="st22" d="M570.1,398h-55.4c-2.2,0-4-1.8-4-4v-23.5c0-2.2,1.8-4,4-4h55.4c2.2,0,4,1.8,4,4V394
	C574.1,396.2,572.3,398,570.1,398z"/>
<path class="st21" d="M738.4,399.3h-78.1c-1.3,0-2.3-1.6-2.3-3.6v-24.4c0-2,1-3.6,2.3-3.6h78.1c1.3,0,2.3,1.6,2.3,3.6v24.4
	C740.7,397.7,739.7,399.3,738.4,399.3z"/>
<text transform="matrix(1 0 0 1 528.7044 388.4133)" class="st12 st13">P70</text>
<rect x="740.7" y="374.5" class="st9" width="88" height="27.6"/>
<path class="st2" d="M642,398h-48.5c-2.3,0-4.2-1.9-4.2-4.2v-23c0-2.3,1.9-4.2,4.2-4.2H642c2.3,0,4.2,1.9,4.2,4.2v23
	C646.3,396.1,644.4,398,642,398z"/>
<text transform="matrix(1 0 0 1 603.511 388.2535)" class="st12 st13">Amp</text>
<text transform="matrix(1 0 0 1 677.9568 388.2532)" class="st12 st13">degfp</text>
<path class="st1" d="M1169.2,283.2c15.6,23.8,18.9,52.2,11.3,77.6c-0.6,1.9,0.5,3.9,2.4,4.6l21,7.2c2,0.7,4.2-0.4,4.8-2.4
	c10.3-33.6,6.2-71.4-14.5-103.1c-6.4-9.8-13.9-18.3-22.3-25.5c-1.6-1.4-4-1.2-5.3,0.5l-14,17.3c-1.3,1.5-1.1,3.8,0.4,5.1
	C1158.9,269.7,1164.5,276,1169.2,283.2z"/>
<path class="st21" d="M1107,425.6c-1.6,0.2-2.6,1.6-2.5,3.1l2.1,19.4c0.1,1.7,1.7,2.9,3.3,2.6c37.5-4.9,69-26.5,87.8-56.4
	c1.2-2,0.6-4.5-1.4-5.7l-15-8.5c-1.9-1.1-4.2-0.5-5.4,1.4C1161.1,404.9,1136.4,421.7,1107,425.6z"/>
<path class="st2" d="M1003.6,288.7c4.4-8.8,10-16.5,16.3-23.2c1.4-1.5,1.4-3.6,0-5l-11.8-12.1c-1.4-1.4-3.8-1.4-5.2,0
	c-8.3,8.5-15.4,18.4-21,29.6c-8,16-12.1,33-12.6,49.8c-0.1,2.1,1.5,3.7,3.7,3.7h16.9c1.9-0.1,3.6-1.5,3.6-3.5
	C994.1,314.7,997.3,301.3,1003.6,288.7z"/>
<path class="st22" d="M1037.1,254.7c26.8-17.6,61.6-21.6,93-7.6c3.4,1.5,6.6,3.1,9.7,5c1.8,1.1,4.2,0.5,5.3-1.4l8.9-15.2
	c1.1-1.8,0.5-4.2-1.4-5.3c-3.9-2.3-8-4.4-12.3-6.3c-39.9-17.7-84-12.4-117.8,10c-1.4,0.8-1.7,2.7-0.8,4.1l11.2,15.9
	C1034.1,255.1,1035.8,255.4,1037.1,254.7z"/>
<g>
	<path d="M993.9,298l-2.8,0.1l-1.1,3.1l2.1,1.9l-0.3,0.9l-6.7-5.9l0.3-0.8l8.9-0.2L993.9,298z M990.2,298.1h-2.7c-0.3,0-0.8,0-1.3,0
		c0.3,0.2,0.7,0.4,1,0.7l2.1,1.8L990.2,298.1z"/>
	<path d="M997.8,289.2l-3.7-1.7c-0.5-0.2-0.8-0.3-1.1-0.2s-0.6,0.3-0.7,0.7c-0.2,0.5-0.3,1-0.1,1.4s0.6,0.7,1.2,1l3.2,1.5l-0.4,0.9
		l-3.7-1.7c-0.5-0.2-0.8-0.3-1.1-0.2s-0.6,0.3-0.8,0.7c-0.2,0.5-0.3,1-0.1,1.4s0.7,0.8,1.4,1.1l3,1.4l-0.4,0.9l-5.7-2.6l0.3-0.7
		l0.8,0.2l0,0c-0.2-0.3-0.3-0.6-0.3-1s0.1-0.7,0.2-1.1c0.4-0.9,1-1.3,1.8-1.3l0,0c-0.2-0.3-0.3-0.7-0.4-1.1s0.1-0.8,0.2-1.2
		c0.3-0.6,0.7-1,1.2-1.2s1.1-0.1,1.8,0.3l3.7,1.7L997.8,289.2z"/>
	<path d="M996.6,279.2c0.7,0.4,1.2,1,1.3,1.7s-0.1,1.5-0.6,2.5l-0.5,0.8l2.8,1.6l-0.5,0.8l-7.2-4.1l1.1-1.9
		C994,278.9,995.2,278.4,996.6,279.2z M996.1,283.8l0.4-0.8c0.4-0.7,0.6-1.3,0.6-1.8c-0.1-0.5-0.3-0.9-0.9-1.2
		c-0.5-0.3-0.9-0.3-1.3-0.1s-0.8,0.6-1.2,1.3l-0.5,0.9L996.1,283.8z"/>
	<path d="M1085.1,227.4c0,0.8-0.2,1.5-0.7,2s-1.3,0.8-2.4,0.8l-1,0.1l0.2,3.3l-1,0.1l-0.5-8.3l2.1-0.1
		C1083.9,225,1085,225.8,1085.1,227.4z M1081,229.4h0.9c0.8,0,1.5-0.2,1.8-0.5s0.5-0.8,0.5-1.4c0-0.5-0.2-0.9-0.6-1.2
		s-0.9-0.4-1.7-0.3l-1.1,0.1L1081,229.4z"/>
	<path d="M1087.5,233.3l3.5-7.4h-4.5V225l5.5,0.1v0.8l-3.4,7.5L1087.5,233.3z"/>
	<path d="M1098.7,229.6c-0.1,1.4-0.4,2.5-0.9,3.2s-1.2,1-2.1,0.9s-1.5-0.5-1.9-1.2c-0.4-0.8-0.6-1.8-0.5-3.2s0.4-2.5,0.9-3.2
		s1.2-1,2.1-0.9s1.5,0.5,2,1.2S1098.8,228.2,1098.7,229.6z M1094.2,229.3c-0.1,1.2,0,2.1,0.2,2.7c0.2,0.6,0.7,0.9,1.3,0.9
		c0.6,0,1.1-0.2,1.4-0.7s0.5-1.4,0.6-2.6c0.1-1.2,0-2.1-0.2-2.6c-0.2-0.6-0.7-0.9-1.3-0.9c-0.6,0-1.1,0.2-1.4,0.7
		C1094.5,227.2,1094.3,228,1094.2,229.3z"/>
	<path d="M1184.6,295.3c-0.5,0.2-1.1,0.3-1.6,0.3s-1-0.2-1.4-0.5s-0.7-0.7-0.9-1.2c-0.4-0.8-0.4-1.5-0.1-2.2s0.9-1.2,1.8-1.6
		c2-0.9,3.4-0.3,4.3,1.7l1.1,2.6l-0.7,0.3l-0.6-1.4C1186.2,294.2,1185.6,294.9,1184.6,295.3z M1182.8,291c-0.7,0.3-1.1,0.7-1.4,1.1
		c-0.2,0.5-0.2,1,0,1.5s0.6,0.9,1.1,1s1,0.1,1.7-0.2c0.9-0.4,1.6-1.1,2-1.9l-0.1-0.3c-0.3-0.8-0.8-1.2-1.3-1.4
		C1184.2,290.6,1183.6,290.6,1182.8,291z"/>
	<path d="M1184.3,302.7l-1.9-5.1l0.8-0.3l2.8,1.3c0.9,0.4,1.5,0.6,1.8,0.7s0.7,0.2,1,0.2s0.6,0,0.9-0.2c0.4-0.2,0.7-0.4,0.9-0.7
		c0.2-0.3,0.1-0.7,0-1.2c-0.1-0.3-0.3-0.6-0.5-0.9c-0.2-0.2-0.5-0.5-0.9-0.7l0.4-0.7c0.9,0.5,1.4,1.2,1.8,2c0.3,0.7,0.3,1.4,0.1,1.9
		s-0.7,0.9-1.3,1.2c-0.5,0.2-1,0.2-1.6,0.1s-1.4-0.4-2.4-0.9l-2.3-1.1l0,0l1.5,4L1184.3,302.7z"/>
	<path d="M1193.5,303.9c0.2,0.7,0.2,1.3,0,1.9c-0.2,0.5-0.6,0.9-1.2,1c-0.4,0.1-0.8,0.1-1.2,0c-0.4-0.1-0.8-0.4-1.2-0.9
		c-0.1,0.7-0.3,1.3-0.6,1.7c-0.3,0.4-0.6,0.6-1.1,0.8c-0.7,0.2-1.3,0.1-1.8-0.2c-0.5-0.3-0.9-0.9-1.2-1.7c-0.2-0.8-0.3-1.5,0-2.1
		s0.7-0.9,1.4-1.2c0.9-0.3,1.8,0.1,2.6,1c0.1-0.6,0.3-1,0.6-1.3c0.3-0.3,0.6-0.5,1-0.7c0.6-0.2,1.1-0.1,1.6,0.2
		C1192.9,302.7,1193.3,303.2,1193.5,303.9z M1186.9,304c-0.4,0.1-0.7,0.4-0.9,0.8c-0.2,0.4-0.1,0.8,0,1.4c0.2,0.5,0.4,0.9,0.8,1.1
		c0.3,0.2,0.7,0.3,1.2,0.1c0.4-0.1,0.6-0.3,0.8-0.7s0.3-0.9,0.4-1.7c-0.4-0.5-0.8-0.8-1.1-0.9C1187.7,303.9,1187.3,303.9,1186.9,304
		z M1192.8,304.1c-0.1-0.5-0.3-0.8-0.6-1c-0.3-0.2-0.6-0.2-1-0.1c-0.3,0.1-0.6,0.3-0.8,0.6c-0.2,0.3-0.3,0.7-0.4,1.4
		c0.4,0.5,0.7,0.7,1,0.9c0.3,0.1,0.6,0.2,1,0.1s0.6-0.3,0.8-0.7C1192.9,305,1192.9,304.6,1192.8,304.1z"/>
	<path d="M1189,309.2l0.8-0.2l0.7,2.7l-0.8,0.2L1189,309.2z"/>
	<path d="M1194.2,318.1c-0.8,0.2-1.5,0-2.1-0.5s-0.9-1.2-1.1-2.3l-0.2-1l-3.2,0.6l-0.2-0.9l8.2-1.6l0.4,2.1
		C1196.4,316.6,1195.8,317.8,1194.2,318.1z M1191.6,314.2l0.2,0.8c0.2,0.8,0.4,1.4,0.8,1.7s0.8,0.4,1.4,0.3c0.5-0.1,0.9-0.4,1.1-0.8
		s0.2-1,0.1-1.7l-0.2-1.1L1191.6,314.2z"/>
	<path d="M1189.2,325.6l-0.7-5.4l0.8-0.1l2.4,1.9c0.8,0.6,1.3,0.9,1.6,1.1c0.3,0.2,0.6,0.3,0.9,0.4s0.6,0.1,0.9,0
		c0.4-0.1,0.8-0.2,1-0.5s0.3-0.7,0.2-1.2c0-0.3-0.1-0.7-0.3-0.9c-0.2-0.3-0.4-0.6-0.7-0.9l0.6-0.6c0.7,0.7,1.1,1.5,1.3,2.3
		c0.1,0.8,0,1.4-0.4,1.9c-0.3,0.5-0.8,0.8-1.5,0.9c-0.5,0.1-1.1,0-1.6-0.2s-1.3-0.7-2.1-1.4l-2-1.6l0,0l0.5,4.2L1189.2,325.6z"/>
	<path d="M1197.9,328.8c0,0.8-0.1,1.4-0.4,1.8c-0.3,0.5-0.8,0.7-1.4,0.7c-0.4,0-0.8-0.1-1.1-0.3s-0.7-0.6-1-1.2
		c-0.3,0.7-0.6,1.2-0.9,1.5s-0.7,0.5-1.2,0.5c-0.7,0-1.3-0.2-1.7-0.6s-0.7-1.1-0.7-1.9c-0.1-0.9,0.1-1.6,0.5-2.1s0.9-0.8,1.6-0.8
		c0.9-0.1,1.7,0.5,2.3,1.6c0.3-0.5,0.6-0.9,0.9-1.2c0.3-0.2,0.7-0.4,1.1-0.4c0.6,0,1.1,0.2,1.5,0.6
		C1197.6,327.5,1197.8,328.1,1197.9,328.8z M1191.5,327.4c-0.5,0-0.8,0.2-1,0.5s-0.3,0.8-0.3,1.3c0,0.6,0.2,1,0.5,1.3
		s0.7,0.4,1.1,0.4s0.7-0.2,1-0.5s0.5-0.8,0.7-1.6c-0.3-0.5-0.6-0.9-0.9-1.2C1192.2,327.5,1191.9,327.4,1191.5,327.4z M1197.1,328.9
		c0-0.5-0.2-0.8-0.4-1.1c-0.2-0.3-0.6-0.4-0.9-0.3c-0.3,0-0.6,0.1-0.9,0.4s-0.5,0.7-0.7,1.3c0.3,0.5,0.5,0.9,0.8,1.1
		s0.6,0.3,0.9,0.3c0.4,0,0.7-0.2,0.9-0.5S1197.2,329.3,1197.1,328.9z"/>
	<path d="M1157,411.4L1157,411.4c-0.1-0.8,0.2-1.5,0.8-2.1c0.6-0.6,1.2-0.8,1.9-0.7s1.4,0.5,2.1,1.3s1.1,1.5,1.2,2.2
		s-0.2,1.4-0.8,1.9c-0.6,0.6-1.3,0.8-2,0.7l-0.1,0.1l0.3,0.3l0.3,0.3l1.7,1.8l-0.7,0.6l-6.1-6.4l0.6-0.5L1157,411.4z M1158.3,410
		c-0.5,0.4-0.7,0.9-0.6,1.3c0,0.5,0.3,1,0.9,1.5l0.1,0.1c0.6,0.6,1.1,1,1.6,1.1s0.9-0.1,1.4-0.5c0.4-0.4,0.6-0.8,0.5-1.3
		s-0.4-1.1-0.9-1.6c-0.5-0.6-1.1-0.9-1.6-1C1159.2,409.4,1158.7,409.6,1158.3,410z"/>
	<path d="M1152.3,414.2c0.7-0.6,1.4-0.8,2.2-0.7s1.5,0.5,2.1,1.3s1,1.5,1,2.3s-0.3,1.4-1,1.9c-0.6,0.5-1.2,0.7-1.9,0.6
		s-1.3-0.5-1.8-1.1l-0.4-0.5l3.3-2.7c-0.5-0.6-1-0.9-1.5-0.9c-0.5-0.1-1,0.1-1.5,0.5s-0.9,1-1.3,1.6l-0.5-0.6
		c0.2-0.3,0.3-0.6,0.5-0.8S1152,414.4,1152.3,414.2z M1156.2,418.4c0.4-0.3,0.6-0.7,0.6-1.1s-0.1-0.9-0.5-1.4l-2.5,2.1
		c0.4,0.5,0.8,0.7,1.2,0.8C1155.4,418.8,1155.8,418.7,1156.2,418.4z"/>
	<path d="M1149.1,424.6l-0.4-0.5l0.8-0.8c-0.2,0-0.3-0.1-0.5-0.3c-0.2-0.1-0.4-0.3-0.5-0.5c-0.4-0.5-0.5-1-0.4-1.5s0.5-1,1.1-1.4
		c0.1-0.1,0.3-0.2,0.4-0.3c0.2-0.4,0.2-0.7,0-1c-0.1-0.1-0.2-0.2-0.4-0.2c-0.2,0-0.4,0.1-0.7,0.3l-0.9,0.6c-0.5,0.4-1,0.6-1.5,0.6
		s-0.8-0.2-1.2-0.7c-0.4-0.6-0.5-1.1-0.3-1.8s0.8-1.2,1.6-1.9c0.7-0.5,1.2-0.7,1.8-0.7s1,0.2,1.3,0.7c0.2,0.3,0.3,0.6,0.3,1
		s-0.2,0.7-0.5,1.1c0.2,0,0.3,0,0.5,0s0.3,0.2,0.4,0.3c0.1,0.2,0.2,0.4,0.2,0.6s-0.1,0.5-0.2,0.7c0.3-0.1,0.7-0.1,1,0.1
		c0.4,0.1,0.6,0.4,0.9,0.7c0.4,0.6,0.5,1.1,0.4,1.6s-0.5,1-1.1,1.5c-0.3,0.2-0.5,0.3-0.8,0.4L1149.1,424.6z M1148.8,415.8
		c-0.2-0.3-0.5-0.4-0.8-0.4s-0.7,0.2-1.1,0.5c-0.6,0.5-1,0.9-1.2,1.3s-0.1,0.8,0.1,1.1c0.2,0.3,0.4,0.4,0.7,0.4
		c0.2,0,0.6-0.2,1.1-0.5l0.9-0.7c0.3-0.2,0.6-0.5,0.6-0.8S1149,416.1,1148.8,415.8z M1151.5,420.4c-0.3-0.4-0.5-0.5-0.9-0.6
		c-0.3,0-0.7,0.1-1,0.3c-0.7,0.5-0.8,1.2-0.3,1.9c0.6,0.8,1.2,0.9,1.9,0.3c0.4-0.3,0.6-0.6,0.6-0.9
		C1151.9,421.1,1151.7,420.8,1151.5,420.4z"/>
	<path d="M1145.1,426.3l1.3-0.9l-3-4.6l0.8-0.5l3,4.6l0.9-0.6l0.2,0.4l-0.7,0.9l0.2,0.3c0.8,1.3,0.7,2.3-0.4,3
		c-0.3,0.2-0.6,0.3-1.1,0.5l-0.2-0.8c0.4-0.1,0.7-0.2,0.9-0.4c0.3-0.2,0.5-0.4,0.5-0.7c0-0.3-0.1-0.7-0.4-1.1l-0.2-0.3l-1.3,0.9
		L1145.1,426.3z"/>
	<path d="M1138.7,423.6c0.3-0.2,0.7-0.3,1.1-0.4c0.4,0,0.7,0,1.1,0.2h0.1c-0.2-0.3-0.4-0.6-0.6-0.9l-1.3-2.2l0.8-0.5l4.5,7.8
		l-0.7,0.4l-0.5-0.7l0,0c0,0.4-0.2,0.8-0.4,1.1c-0.2,0.3-0.5,0.5-0.8,0.7c-0.7,0.4-1.4,0.5-2.1,0.2s-1.3-0.8-1.8-1.7
		c-0.5-0.9-0.7-1.7-0.6-2.4C1137.6,424.6,1138,424,1138.7,423.6z M1141.6,428.4c0.5-0.3,0.9-0.7,0.9-1.1c0.1-0.4-0.1-1-0.5-1.7
		l-0.1-0.2c-0.4-0.8-0.9-1.2-1.3-1.4s-0.9-0.1-1.5,0.2c-0.5,0.3-0.7,0.7-0.8,1.2s0.1,1.1,0.5,1.8c0.4,0.7,0.8,1.1,1.3,1.3
		C1140.7,428.7,1141.2,428.7,1141.6,428.4z"/>
</g>
</svg>
