<?xml version="1.0" encoding="utf-8"?>
<!-- Generator: Adobe Illustrator 25.2.1, SVG Export Plug-In . SVG Version: 6.00 Build 0)  -->
<svg version="1.1" id="图层_1" xmlns="http://www.w3.org/2000/svg" xmlns:xlink="http://www.w3.org/1999/xlink" x="0px" y="0px"
	 viewBox="0 0 709.7 305.1" style="enable-background:new 0 0 709.7 305.1;" xml:space="preserve">
<style type="text/css">
	.st0{fill:#D7DCE3;}
	.st1{fill:#B5DEEF;}
	.st2{fill:#B1D9D5;}
	.st3{stroke:#000000;stroke-miterlimit:10;}
	.st4{fill:#CBDEB7;}
	.st5{fill:none;}
	.st6{font-family:'ArialMT';}
	.st7{font-size:12px;}
	.st8{fill:#FFD5BE;}
	.st9{font-family:'OpenSans-Regular';}
	.st10{fill:none;stroke:#000000;stroke-width:0.25;stroke-miterlimit:10;}
	.st11{font-family:'OpenSans-Bold';}
</style>
<path class="st0" d="M156.1,34.4c-64.5,0-116.9,52.3-116.9,116.9c0,64.5,52.3,116.9,116.9,116.9S273,215.8,273,151.3
	C273,86.7,220.7,34.4,156.1,34.4z M156.1,250c-54.5,0-98.7-44.2-98.7-98.7s44.2-98.7,98.7-98.7s98.7,44.2,98.7,98.7
	S210.6,250,156.1,250z"/>
<path class="st1" d="M185.6,37.4L180.2,56c-0.3,0.9-1.2,1.4-2.1,1.2c-5.8-1.3-13.1-2.4-21.5-2.4c-8.7,0-16.2,1.1-22,2.4
	c-1,0.2-1.9-0.4-2.1-1.4c-1.3-6.2-2.6-12.3-3.8-18.5c-0.2-0.9,0.4-1.8,1.3-2.1c6.7-1.9,15.9-3.7,26.7-3.8
	c11.4-0.1,20.9,1.8,27.8,3.7C185.3,35.5,185.9,36.5,185.6,37.4z"/>
<path class="st2" d="M137,42.8l-20.3-14.3c-0.9-0.6-2.1,0.2-1.8,1.3l2.5,7.6c0.2,0.6-0.1,1.3-0.7,1.5c-6.9,2.2-16.1,6-25.8,12.6
	c-9.3,6.3-16,13.1-20.5,18.5c-0.4,0.5-0.3,1.1,0.1,1.6c4.8,4.7,9.6,9.4,14.4,14.1c0.5,0.5,1.2,0.4,1.6,0c4.2-4.5,9.9-9.7,17.4-14.7
	c7-4.6,13.6-7.8,19-9.9c0.6-0.2,1.3,0.1,1.5,0.8l1.6,5.6c0.3,1.1,1.8,1.1,2.2,0.1l9.2-23.2C137.6,43.7,137.5,43.1,137,42.8z"/>
<polyline class="st3" points="378.4,151.5 378.4,157.4 399.1,151.5 378.4,145.1 378.4,151.5 314.1,151.5 "/>
<path class="st1" d="M70.6,72.1l13.7,13.7c0.7,0.7,0.7,1.7,0.1,2.4c-3.9,4.4-8.4,10.3-12.5,17.7c-4.2,7.6-6.8,14.7-8.5,20.5
	c-0.3,1-1.3,1.5-2.2,1.2c-6-1.8-12-3.7-18.1-5.5c-0.9-0.3-1.4-1.2-1.2-2.1c1.6-6.8,4.4-15.7,9.5-25.2C56.8,84.8,63,77.3,68,72.2
	C68.8,71.4,69.9,71.4,70.6,72.1z"/>
<g>
	<path class="st4" d="M276,142.9c-3.2-43.5-28.7-80.1-64.5-99.2c-1.4-0.7-3.1-0.2-3.8,1.2L199,62.2c-0.8,1.5-0.2,3.4,1.3,4.3
		c28,15.3,47.9,44.1,50.4,78.3c0.2,2.2,0.2,4.4,0.3,6.6c0,1.8,1.5,3.2,3.3,3.2l17.7-0.2c2.5,0,4.4-2,4.4-4.5
		C276.3,147.6,276.2,145.2,276,142.9z"/>
</g>
<path id="SVGID_x5F_1_x5F_" class="st5" d="M60.3,109.8c24.5-52.9,86.4-76.4,138.3-52.4s74.1,86.4,49.6,139.4s-86.4,76.4-138.3,52.4
	S35.8,162.7,60.3,109.8z"/>
<text class="st6 st7"> </text>
<ellipse transform="matrix(0.1602 -0.9871 0.9871 0.1602 62.3916 397.3326)" class="st8" cx="264.7" cy="162" rx="14.7" ry="14.7"/>
<text transform="matrix(1 0 0 1 279.3501 184.2008)" class="st9 st7">ssrA</text>
<line class="st10" x1="273.9" y1="180.1" x2="264.7" y2="162"/>
<path class="st0" d="M542,40.7c-64.5,0-116.9,52.3-116.9,116.9S477.4,274.5,542,274.5s116.9-52.3,116.9-116.9S606.5,40.7,542,40.7z
	 M542,256.3c-54.5,0-98.7-44.2-98.7-98.7s44.2-98.7,98.7-98.7s98.7,44.2,98.7,98.7S596.5,256.3,542,256.3z"/>
<path class="st1" d="M571.4,43.8L566,62.3c-0.3,0.9-1.2,1.4-2.1,1.2c-5.8-1.3-13.1-2.4-21.5-2.4c-8.7,0-16.2,1.1-22,2.4
	c-1,0.2-1.9-0.4-2.1-1.4c-1.3-6.2-2.6-12.3-3.8-18.5c-0.2-0.9,0.4-1.8,1.3-2.1c6.7-1.9,15.9-3.7,26.7-3.8
	c11.4-0.1,20.9,1.8,27.8,3.7C571.2,41.8,571.7,42.8,571.4,43.8z"/>
<path class="st2" d="M522.9,49.1l-20.3-14.3c-0.9-0.6-2.1,0.2-1.8,1.3l2.5,7.6c0.2,0.6-0.1,1.3-0.7,1.5c-6.9,2.2-16.1,6-25.8,12.6
	c-9.3,6.3-16,13.1-20.5,18.5c-0.4,0.5-0.3,1.1,0.1,1.6c4.8,4.7,9.6,9.4,14.4,14.1c0.5,0.5,1.2,0.4,1.6,0c4.2-4.5,9.9-9.7,17.4-14.7
	c7-4.6,13.6-7.8,19-9.9c0.6-0.2,1.3,0.1,1.5,0.8l1.6,5.6c0.3,1.1,1.8,1.1,2.2,0.1l9.2-23.2C523.5,50,523.3,49.4,522.9,49.1z"/>
<path class="st1" d="M456.5,78.4l13.7,13.7c0.7,0.7,0.7,1.7,0.1,2.4c-3.9,4.4-8.4,10.3-12.5,17.7c-4.2,7.6-6.8,14.7-8.5,20.5
	c-0.3,1-1.3,1.5-2.2,1.2c-6-1.8-12-3.7-18.1-5.5c-0.9-0.3-1.4-1.2-1.2-2.1c1.6-6.8,4.4-15.7,9.5-25.2c5.4-10,11.6-17.5,16.6-22.6
	C454.6,77.7,455.7,77.7,456.5,78.4z"/>
<g>
	<path class="st4" d="M661.9,149.2c-3.2-43.5-28.7-80.1-64.5-99.2c-1.4-0.7-3.1-0.2-3.8,1.2l-8.7,17.3c-0.8,1.5-0.2,3.4,1.3,4.3
		c28,15.3,47.9,44.1,50.4,78.3c0.2,2.2,0.2,4.4,0.3,6.6c0,1.8,1.5,3.2,3.3,3.2l17.7-0.2c2.5,0,4.4-2,4.4-4.5
		C662.1,153.9,662,151.5,661.9,149.2z"/>
</g>
<path id="SVGID_x5F_2_x5F_" class="st5" d="M446.1,116.1c24.5-52.9,86.4-76.4,138.3-52.4s74.1,86.4,49.6,139.4
	c-24.5,52.9-86.4,76.4-138.3,52.4S421.6,169,446.1,116.1z"/>
<text class="st6 st7"> </text>
<rect x="21.9" y="144.7" class="st5" width="270.3" height="13.2"/>
<text transform="matrix(1 0 0 1 94.631 157.3997)" class="st11 st7">P28-tetO-degfp-ssrA</text>
<text transform="matrix(1 0 0 1 495.1901 162.4604)" class="st11 st7">P28-tetO-degfp</text>
<g>
	<path d="M60.7,114.4c0.1-0.2,0.1-0.4,0.2-0.6s0.1-0.3,0.1-0.5l0.8,0.3c0,0.1,0,0.3-0.1,0.6c-0.1,0.2-0.1,0.5-0.2,0.6
		c-0.5,1.4-1.5,1.8-3,1.2l-4.2-1.7l-0.4,1l-0.5-0.2l0-1.2L52,113l0.2-0.6l1.6,0.7l0.8-2.1l0.8,0.3l-0.8,2.1l4.2,1.7
		c0.4,0.2,0.8,0.2,1.1,0.1S60.5,114.7,60.7,114.4z"/>
	<path d="M63.8,109.5c-0.5,1-1.2,1.7-2.1,2c-0.9,0.3-1.9,0.2-3-0.3c-1.1-0.5-1.9-1.2-2.3-2.1c-0.4-0.9-0.4-1.8,0.1-2.7
		c0.4-0.9,1-1.4,1.8-1.7c0.8-0.2,1.7-0.1,2.6,0.3l0.7,0.3l-2.2,4.8c0.8,0.4,1.5,0.4,2.1,0.3c0.6-0.2,1.1-0.6,1.4-1.3
		c0.4-0.7,0.5-1.6,0.6-2.4l0.9,0.4c0,0.4-0.1,0.9-0.1,1.2S64,109.1,63.8,109.5z M57.4,106.9c-0.3,0.6-0.3,1.1-0.1,1.6
		c0.2,0.5,0.6,0.9,1.2,1.3l1.7-3.6c-0.7-0.3-1.2-0.4-1.7-0.3C58,106,57.7,106.3,57.4,106.9z"/>
	<path d="M66.3,102.8c0.1-0.2,0.2-0.4,0.2-0.5c0.1-0.2,0.1-0.3,0.1-0.4l0.8,0.4c0,0.1-0.1,0.3-0.1,0.6c-0.1,0.2-0.2,0.4-0.3,0.6
		c-0.7,1.3-1.8,1.6-3.1,0.8l-4-2.2l-0.5,1l-0.5-0.3l0.1-1.2l-1.2-1.2l0.3-0.6l1.6,0.9l1.1-1.9l0.8,0.4l-1.1,1.9l3.9,2.2
		c0.4,0.2,0.8,0.3,1.1,0.2C65.8,103.3,66.1,103.1,66.3,102.8z"/>
	<path d="M68.8,90.7c1.4,0.9,2.2,1.9,2.5,3.1s0.1,2.4-0.7,3.7c-0.8,1.3-1.8,2-3.1,2.2c-1.2,0.2-2.5-0.2-3.9-1.1
		c-1.4-0.9-2.2-2-2.6-3.1c-0.3-1.2-0.1-2.4,0.8-3.7c0.8-1.2,1.8-1.9,3-2.1C66.1,89.4,67.4,89.8,68.8,90.7z M64.3,97.5
		c1.2,0.8,2.2,1.1,3.1,1s1.7-0.6,2.3-1.6c0.6-0.9,0.8-1.9,0.5-2.7s-1-1.7-2.2-2.4c-1.1-0.8-2.2-1.1-3.1-1s-1.7,0.6-2.3,1.6
		c-0.6,0.9-0.8,1.9-0.5,2.7C62.5,95.9,63.2,96.8,64.3,97.5z"/>
	<path d="M99.2,59.7c0.6,0.9,0.7,1.7,0.4,2.6c-0.3,0.9-1,1.6-2.1,2.4l-1,0.7l2.2,3.4l-1,0.7l-5.6-8.5l2.2-1.4
		C96.5,57.9,98.1,58.1,99.2,59.7z M96,64.5l0.9-0.6c0.9-0.6,1.4-1.1,1.6-1.7s0.1-1.1-0.3-1.8c-0.4-0.6-0.8-0.9-1.4-0.9
		s-1.2,0.2-2,0.7L93.7,61L96,64.5z"/>
	<path d="M110.1,61.9l-5.9,3.2l-0.5-0.9l1.1-3.7c0.3-1.1,0.5-1.9,0.6-2.3c0.1-0.4,0.1-0.8,0-1.2c0-0.4-0.2-0.7-0.3-1
		c-0.3-0.5-0.6-0.8-1.1-0.9c-0.4-0.1-0.9,0-1.4,0.2c-0.4,0.2-0.7,0.5-1,0.8s-0.5,0.7-0.7,1.3L99.9,57c0.5-1.1,1.2-2,2.1-2.5
		c0.8-0.5,1.6-0.6,2.3-0.4c0.7,0.2,1.3,0.6,1.7,1.3c0.3,0.6,0.5,1.2,0.4,1.9c0,0.7-0.2,1.8-0.6,3.1l-0.9,3l0,0l4.6-2.5L110.1,61.9z"
		/>
	<path d="M110.1,50.5c0.8-0.4,1.6-0.5,2.3-0.3s1.2,0.6,1.5,1.3c0.2,0.5,0.3,0.9,0.1,1.4c-0.1,0.5-0.4,1.1-0.9,1.6
		c0.9,0,1.6,0.2,2.1,0.4c0.5,0.3,0.9,0.6,1.1,1.2c0.3,0.8,0.4,1.5,0,2.2c-0.3,0.7-1,1.3-1.9,1.7c-1,0.4-1.9,0.6-2.6,0.4
		c-0.7-0.2-1.3-0.7-1.6-1.5c-0.5-1.1-0.2-2.2,0.8-3.4c-0.7-0.1-1.3-0.2-1.7-0.5s-0.7-0.6-1-1.1c-0.3-0.7-0.3-1.3,0-2
		C108.7,51.4,109.3,50.9,110.1,50.5z M110.5,51.4c-0.5,0.2-0.9,0.6-1.1,0.9c-0.2,0.4-0.2,0.8,0,1.2c0.2,0.4,0.5,0.7,0.8,0.8
		s1,0.2,1.8,0.2c0.5-0.5,0.8-1,0.9-1.4c0.1-0.4,0.1-0.8-0.1-1.2c-0.2-0.4-0.5-0.7-0.9-0.8C111.5,51.1,111,51.1,110.5,51.4z
		 M111.3,58.5c0.2,0.5,0.6,0.8,1.1,1c0.5,0.1,1,0,1.7-0.2c0.6-0.3,1.1-0.7,1.3-1.1c0.2-0.5,0.2-0.9,0-1.5c-0.2-0.4-0.5-0.7-1-0.9
		c-0.5-0.2-1.2-0.2-2.2-0.2c-0.5,0.6-0.8,1.1-1,1.5C111,57.6,111.1,58.1,111.3,58.5z"/>
	<path d="M146,50.7c0.2,0,0.4-0.1,0.6-0.1c0.2-0.1,0.3-0.1,0.4-0.1l0.1,0.9c-0.1,0.1-0.3,0.1-0.5,0.2c-0.2,0.1-0.5,0.1-0.6,0.1
		c-1.5,0.2-2.3-0.5-2.5-2.1l-0.5-4.5l-1.1,0.1l-0.1-0.6l1-0.6l0.3-1.7l0.7-0.1l0.2,1.8l2.2-0.2l0.1,0.9l-2.2,0.2l0.5,4.5
		c0,0.5,0.2,0.8,0.4,1C145.4,50.7,145.7,50.8,146,50.7z"/>
	<path d="M151.8,51.3c-1.1,0.1-2-0.3-2.7-0.9c-0.7-0.7-1.1-1.6-1.1-2.8c-0.1-1.2,0.2-2.2,0.8-3s1.4-1.2,2.4-1.2c1,0,1.7,0.2,2.3,0.8
		s0.9,1.4,1,2.5l0,0.7l-5.3,0.2c0.1,0.9,0.3,1.6,0.8,2c0.5,0.4,1.1,0.6,1.8,0.6c0.8,0,1.6-0.2,2.4-0.6l0,1c-0.4,0.2-0.8,0.3-1.1,0.4
		C152.7,51.2,152.3,51.3,151.8,51.3z M151.2,44.4c-0.6,0-1.1,0.3-1.4,0.7c-0.3,0.4-0.5,1-0.6,1.7l4-0.2c0-0.7-0.2-1.3-0.6-1.7
		S151.8,44.3,151.2,44.4z"/>
	<path d="M158.9,50.3c0.2,0,0.4,0,0.6,0c0.2,0,0.3-0.1,0.5-0.1l0,0.9c-0.1,0.1-0.3,0.1-0.6,0.1c-0.2,0-0.5,0.1-0.7,0
		c-1.5,0-2.2-0.8-2.2-2.4l0.1-4.6l-1.1,0l0-0.6l1.1-0.5l0.5-1.6l0.7,0l0,1.8l2.2,0l0,0.9l-2.2,0l-0.1,4.5c0,0.5,0.1,0.8,0.3,1.1
		C158.2,50.2,158.5,50.3,158.9,50.3z"/>
	<path d="M170.7,46.8c-0.1,1.6-0.7,2.9-1.6,3.7c-0.9,0.9-2.1,1.2-3.6,1.1c-1.5-0.1-2.6-0.7-3.3-1.7c-0.7-1-1-2.3-0.9-4
		c0.2-1.7,0.7-2.9,1.6-3.7s2.1-1.2,3.6-1c1.5,0.1,2.6,0.7,3.3,1.7C170.6,43.9,170.9,45.2,170.7,46.8z M162.7,46.1
		c-0.1,1.4,0.1,2.4,0.6,3.2c0.5,0.8,1.3,1.2,2.5,1.3c1.1,0.1,2-0.2,2.6-0.8c0.6-0.7,1-1.7,1.2-3.1c0.1-1.4-0.1-2.4-0.6-3.2
		c-0.5-0.8-1.3-1.2-2.4-1.3c-1.1-0.1-2,0.2-2.7,0.8C163.2,43.7,162.8,44.7,162.7,46.1z"/>
	<path d="M238.1,90.6L238.1,90.6c-1,0-1.8-0.4-2.4-1.2c-0.6-0.8-0.8-1.6-0.7-2.5c0.2-0.9,0.8-1.7,1.8-2.5c1-0.8,1.9-1.2,2.8-1.2
		c0.9,0,1.7,0.4,2.3,1.2c0.6,0.8,0.8,1.7,0.6,2.6l0.1,0.1l0.4-0.4l0.4-0.4l2.4-1.9l0.7,0.9l-8.5,6.8l-0.6-0.7L238.1,90.6z
		 M236.5,88.9c0.5,0.6,1,0.9,1.6,0.9s1.2-0.3,2-0.9l0.2-0.2c0.8-0.7,1.3-1.3,1.5-1.9c0.1-0.6,0-1.2-0.5-1.8c-0.4-0.5-1-0.8-1.6-0.7
		c-0.6,0-1.3,0.4-2.1,1c-0.8,0.6-1.2,1.2-1.4,1.8C236,87.8,236.1,88.3,236.5,88.9z"/>
	<path d="M241,96.6c-0.6-0.9-0.8-1.9-0.6-2.8c0.2-0.9,0.8-1.7,1.8-2.4c1-0.7,2-1,2.9-0.9s1.7,0.6,2.3,1.4c0.5,0.8,0.7,1.6,0.5,2.4
		c-0.2,0.8-0.7,1.5-1.6,2.1l-0.6,0.4l-2.9-4.4c-0.7,0.5-1.2,1.1-1.3,1.7c-0.1,0.6,0,1.2,0.4,1.9c0.5,0.7,1.1,1.3,1.8,1.7l-0.9,0.6
		c-0.4-0.2-0.7-0.5-1-0.8S241.3,97.1,241,96.6z M246.6,92.5c-0.3-0.5-0.8-0.8-1.3-0.9c-0.5-0.1-1.1,0.1-1.7,0.4l2.2,3.3
		c0.6-0.4,1-0.9,1.1-1.3C247.1,93.5,247,93,246.6,92.5z"/>
	<path d="M253.4,102.1l-0.6,0.4l-0.8-1.1c-0.1,0.2-0.2,0.4-0.4,0.6c-0.2,0.2-0.4,0.4-0.7,0.6c-0.7,0.4-1.3,0.4-1.9,0.2
		c-0.6-0.2-1.2-0.7-1.6-1.5c-0.1-0.2-0.2-0.4-0.3-0.6c-0.5-0.3-0.9-0.4-1.2-0.2c-0.2,0.1-0.3,0.3-0.3,0.5c0,0.2,0.1,0.5,0.3,0.8
		l0.7,1.2c0.4,0.7,0.6,1.4,0.5,1.9c-0.1,0.6-0.4,1-1,1.3c-0.7,0.4-1.5,0.4-2.2,0.1c-0.7-0.4-1.4-1.1-2.1-2.3
		c-0.5-0.9-0.7-1.6-0.7-2.3c0.1-0.7,0.4-1.2,1-1.5c0.4-0.2,0.8-0.3,1.3-0.2c0.4,0.1,0.8,0.3,1.2,0.7c0-0.2,0-0.4,0.1-0.6
		c0.1-0.2,0.3-0.4,0.5-0.5c0.2-0.1,0.5-0.2,0.7-0.2c0.3,0,0.5,0.1,0.9,0.3c-0.1-0.4,0-0.8,0.2-1.3c0.2-0.4,0.5-0.7,1-1
		c0.7-0.4,1.4-0.5,2.1-0.3s1.2,0.7,1.6,1.5c0.2,0.3,0.3,0.7,0.4,1L253.4,102.1z M242.6,101.2c-0.4,0.2-0.5,0.5-0.6,0.9
		s0.1,0.9,0.5,1.5c0.5,0.8,1,1.4,1.4,1.7c0.5,0.3,0.9,0.3,1.4,0c0.4-0.2,0.5-0.5,0.6-0.8s-0.2-0.8-0.5-1.4l-0.7-1.2
		c-0.3-0.5-0.6-0.8-0.9-0.9C243.4,100.9,243,101,242.6,101.2z M248.6,98.5c-0.5,0.3-0.7,0.6-0.8,1c-0.1,0.4,0,0.8,0.3,1.3
		c0.6,1,1.3,1.2,2.3,0.7c1-0.6,1.2-1.4,0.6-2.3c-0.3-0.5-0.6-0.8-1-0.9C249.5,98.2,249.1,98.2,248.6,98.5z"/>
	<path d="M254.9,107.3l-0.9-1.7l-6.1,3l-0.5-1l6.1-3l-0.6-1.2l0.5-0.2l1,1l0.4-0.2c1.7-0.8,2.9-0.5,3.6,1c0.2,0.4,0.3,0.8,0.4,1.4
		l-1,0.1c-0.1-0.5-0.2-0.8-0.3-1.1c-0.2-0.4-0.5-0.6-0.8-0.7c-0.4-0.1-0.8,0.1-1.4,0.3l-0.4,0.2l0.9,1.7L254.9,107.3z"/>
	<path d="M250.6,114.7c-0.2-0.5-0.3-0.9-0.3-1.4c0-0.5,0.1-0.9,0.4-1.3l0-0.1c-0.4,0.2-0.8,0.4-1.1,0.6l-2.9,1.2l-0.4-1.1l10.2-4.2
		l0.4,0.9l-0.9,0.5l0,0.1c0.5,0.1,0.9,0.3,1.2,0.6s0.6,0.7,0.8,1.2c0.4,0.9,0.4,1.8-0.1,2.6c-0.4,0.8-1.2,1.4-2.4,1.9
		c-1.2,0.5-2.2,0.6-3,0.3C251.6,116.2,251,115.6,250.6,114.7z M257,111.9c-0.3-0.7-0.7-1.2-1.2-1.3s-1.2-0.1-2.1,0.3l-0.2,0.1
		c-1,0.4-1.6,0.9-1.9,1.4c-0.3,0.5-0.3,1.1,0,1.9c0.3,0.6,0.7,1,1.3,1.1s1.4,0,2.3-0.3c0.9-0.4,1.5-0.8,1.8-1.4
		C257.2,113.1,257.3,112.5,257,111.9z"/>
</g>
<g>
	<path d="M447.5,118.9c0.1-0.2,0.1-0.4,0.2-0.6c0-0.2,0.1-0.3,0.1-0.5l0.8,0.3c0,0.1,0,0.3-0.1,0.6c-0.1,0.2-0.1,0.5-0.2,0.6
		c-0.5,1.4-1.5,1.8-3,1.2l-4.2-1.7l-0.4,1l-0.5-0.2l0-1.2l-1.3-1.1l0.2-0.6l1.6,0.7l0.8-2.1l0.8,0.3l-0.8,2.1l4.2,1.7
		c0.4,0.2,0.8,0.2,1.1,0.1C447.2,119.5,447.4,119.3,447.5,118.9z"/>
	<path d="M450.7,114.1c-0.5,1-1.2,1.7-2.1,2c-0.9,0.3-1.9,0.2-3-0.3c-1.1-0.5-1.9-1.2-2.3-2.1c-0.4-0.9-0.4-1.8,0.1-2.7
		c0.4-0.9,1-1.4,1.8-1.7c0.8-0.2,1.7-0.1,2.6,0.3l0.7,0.3l-2.2,4.8c0.8,0.4,1.5,0.4,2.1,0.3c0.6-0.2,1.1-0.6,1.4-1.3
		c0.3-0.7,0.5-1.6,0.6-2.4l0.9,0.4c0,0.4-0.1,0.9-0.2,1.2S450.9,113.7,450.7,114.1z M444.3,111.5c-0.3,0.6-0.3,1.1-0.1,1.6
		c0.2,0.5,0.6,0.9,1.2,1.3l1.7-3.6c-0.7-0.3-1.2-0.4-1.7-0.3C444.9,110.6,444.5,110.9,444.3,111.5z"/>
	<path d="M453.1,107.4c0.1-0.2,0.2-0.4,0.2-0.5c0.1-0.2,0.1-0.3,0.1-0.4l0.8,0.4c0,0.1-0.1,0.3-0.1,0.6c-0.1,0.2-0.2,0.4-0.3,0.6
		c-0.7,1.3-1.8,1.6-3.1,0.8l-4-2.2l-0.5,1l-0.5-0.3l0.1-1.2l-1.2-1.2l0.3-0.6l1.6,0.9l1.1-1.9l0.8,0.4l-1.1,1.9l3.9,2.2
		c0.4,0.2,0.8,0.3,1.1,0.2S452.9,107.7,453.1,107.4z"/>
	<path d="M455.6,95.3c1.4,0.9,2.2,1.9,2.5,3.1c0.3,1.2,0.1,2.4-0.7,3.7c-0.8,1.3-1.8,2-3.1,2.2c-1.2,0.2-2.5-0.2-3.9-1.1
		c-1.4-0.9-2.2-2-2.6-3.1c-0.3-1.2-0.1-2.4,0.8-3.7c0.8-1.2,1.8-1.9,3-2.1C453,94,454.3,94.4,455.6,95.3z M451.2,102.1
		c1.2,0.8,2.2,1.1,3.1,1s1.7-0.6,2.3-1.6c0.6-0.9,0.8-1.9,0.5-2.7c-0.3-0.9-1-1.7-2.2-2.4c-1.1-0.8-2.2-1.1-3.1-1s-1.7,0.6-2.3,1.6
		c-0.6,0.9-0.8,1.9-0.5,2.7C449.3,100.5,450,101.4,451.2,102.1z"/>
	<path d="M486.1,64.3c0.6,0.9,0.7,1.7,0.4,2.6c-0.3,0.9-1,1.6-2.1,2.4l-1,0.7l2.2,3.4l-1,0.7l-5.6-8.5l2.2-1.4
		C483.4,62.5,485,62.7,486.1,64.3z M482.8,69l0.9-0.6c0.9-0.6,1.4-1.1,1.6-1.7s0.1-1.1-0.3-1.8c-0.4-0.6-0.8-0.9-1.4-0.9
		s-1.2,0.2-2,0.7l-1.1,0.7L482.8,69z"/>
	<path d="M497,66.5l-5.9,3.2l-0.5-0.9l1.1-3.7c0.3-1.1,0.5-1.9,0.6-2.3c0.1-0.4,0.1-0.8,0-1.2c0-0.4-0.2-0.7-0.3-1
		c-0.3-0.5-0.6-0.8-1.1-0.9c-0.4-0.1-0.9,0-1.4,0.2c-0.4,0.2-0.7,0.5-1,0.8c-0.3,0.3-0.5,0.7-0.7,1.3l-0.9-0.4
		c0.5-1.1,1.2-2,2.1-2.5c0.8-0.5,1.6-0.6,2.3-0.4c0.7,0.2,1.3,0.6,1.7,1.3c0.3,0.6,0.5,1.2,0.4,1.9c0,0.7-0.2,1.8-0.6,3.1l-0.9,3
		l0,0l4.6-2.5L497,66.5z"/>
	<path d="M497,55.1c0.8-0.4,1.6-0.5,2.3-0.3s1.2,0.6,1.5,1.3c0.2,0.5,0.3,0.9,0.1,1.4s-0.4,1.1-0.9,1.6c0.9,0,1.6,0.2,2.1,0.4
		c0.5,0.3,0.9,0.6,1.1,1.2c0.3,0.8,0.4,1.5,0,2.2c-0.3,0.7-1,1.3-1.9,1.7c-1,0.4-1.9,0.6-2.6,0.4c-0.7-0.2-1.3-0.7-1.6-1.5
		c-0.5-1.1-0.2-2.2,0.8-3.4c-0.7-0.1-1.3-0.2-1.7-0.5s-0.7-0.6-1-1.1c-0.3-0.7-0.3-1.3,0-2C495.6,56,496.1,55.5,497,55.1z M497.4,56
		c-0.5,0.2-0.9,0.6-1.1,0.9c-0.2,0.4-0.2,0.8,0,1.2c0.2,0.4,0.5,0.7,0.8,0.8s1,0.2,1.8,0.2c0.5-0.5,0.8-1,0.9-1.4s0.1-0.8-0.1-1.2
		c-0.2-0.4-0.5-0.7-0.9-0.8C498.4,55.7,497.9,55.7,497.4,56z M498.1,63.1c0.2,0.5,0.6,0.8,1.1,1c0.5,0.1,1,0,1.7-0.2
		c0.6-0.3,1.1-0.7,1.3-1.1c0.2-0.5,0.2-0.9,0-1.5c-0.2-0.4-0.5-0.7-1-0.9c-0.5-0.2-1.2-0.2-2.2-0.2c-0.5,0.6-0.8,1.1-1,1.5
		C497.9,62.2,497.9,62.6,498.1,63.1z"/>
	<path d="M532.9,55.3c0.2,0,0.4-0.1,0.6-0.1c0.2-0.1,0.3-0.1,0.4-0.1L534,56c-0.1,0.1-0.3,0.1-0.5,0.2c-0.2,0.1-0.5,0.1-0.6,0.1
		c-1.5,0.2-2.3-0.5-2.5-2.1l-0.5-4.5l-1.1,0.1l-0.1-0.6l1-0.6l0.3-1.7l0.7-0.1l0.2,1.8l2.2-0.2l0.1,0.9l-2.2,0.2l0.5,4.5
		c0,0.5,0.2,0.8,0.4,1C532.2,55.3,532.5,55.4,532.9,55.3z"/>
	<path d="M538.7,55.9c-1.1,0.1-2-0.3-2.7-0.9c-0.7-0.7-1.1-1.6-1.1-2.8c-0.1-1.2,0.2-2.2,0.8-3c0.6-0.8,1.4-1.2,2.4-1.2
		c1,0,1.7,0.2,2.3,0.8c0.6,0.6,0.9,1.4,1,2.5l0,0.7l-5.3,0.2c0.1,0.9,0.3,1.6,0.8,2c0.5,0.4,1.1,0.6,1.8,0.6c0.8,0,1.6-0.2,2.4-0.6
		l0,1c-0.4,0.2-0.8,0.3-1.1,0.4C539.6,55.8,539.2,55.9,538.7,55.9z M538,49c-0.6,0-1.1,0.3-1.4,0.7c-0.3,0.4-0.5,1-0.6,1.7l4-0.2
		c0-0.7-0.2-1.3-0.6-1.7S538.6,48.9,538,49z"/>
	<path d="M545.8,54.9c0.2,0,0.4,0,0.6,0c0.2,0,0.3-0.1,0.5-0.1l0,0.9c-0.1,0.1-0.3,0.1-0.6,0.1c-0.2,0-0.5,0.1-0.7,0
		c-1.5,0-2.2-0.8-2.2-2.4l0.1-4.6l-1.1,0l0-0.6l1.1-0.5l0.5-1.6l0.7,0l0,1.8l2.2,0l0,0.9l-2.2,0l-0.1,4.5c0,0.5,0.1,0.8,0.3,1.1
		C545.1,54.7,545.4,54.9,545.8,54.9z"/>
	<path d="M557.6,51.4c-0.1,1.6-0.7,2.9-1.6,3.7c-0.9,0.9-2.1,1.2-3.6,1.1c-1.5-0.1-2.6-0.7-3.3-1.7c-0.7-1-1-2.3-0.9-4
		c0.2-1.7,0.7-2.9,1.6-3.7c0.9-0.8,2.1-1.2,3.6-1c1.5,0.1,2.6,0.7,3.3,1.7C557.5,48.5,557.8,49.8,557.6,51.4z M549.5,50.7
		c-0.1,1.4,0.1,2.4,0.6,3.2c0.5,0.8,1.3,1.2,2.5,1.3c1.1,0.1,2-0.2,2.6-0.8c0.6-0.7,1-1.7,1.2-3.1c0.1-1.4-0.1-2.4-0.6-3.2
		c-0.5-0.8-1.3-1.2-2.4-1.3c-1.1-0.1-2,0.2-2.7,0.8S549.7,49.3,549.5,50.7z"/>
	<path d="M625,95.1L625,95.1c-1,0-1.8-0.4-2.4-1.2c-0.6-0.8-0.8-1.6-0.7-2.5c0.2-0.9,0.8-1.7,1.8-2.5c1-0.8,1.9-1.2,2.8-1.2
		c0.9,0,1.7,0.4,2.3,1.2c0.6,0.8,0.8,1.7,0.6,2.6l0.1,0.1l0.4-0.4l0.4-0.4l2.4-1.9l0.7,0.9l-8.5,6.8l-0.6-0.7L625,95.1z M623.4,93.5
		c0.5,0.6,1,0.9,1.6,0.9s1.2-0.3,2-0.9l0.2-0.2c0.8-0.7,1.3-1.3,1.5-1.9c0.1-0.6,0-1.2-0.5-1.8c-0.4-0.5-1-0.8-1.6-0.7
		c-0.6,0-1.3,0.4-2.1,1c-0.8,0.6-1.2,1.2-1.4,1.8C622.8,92.3,623,92.9,623.4,93.5z"/>
	<path d="M627.9,101.2c-0.6-0.9-0.8-1.9-0.6-2.8c0.2-0.9,0.8-1.7,1.8-2.4c1-0.7,2-1,2.9-0.9s1.7,0.6,2.3,1.4
		c0.5,0.8,0.7,1.6,0.5,2.4c-0.2,0.8-0.7,1.5-1.6,2.1l-0.6,0.4l-2.9-4.4c-0.7,0.5-1.2,1.1-1.3,1.7s0,1.2,0.4,1.9
		c0.5,0.7,1.1,1.3,1.8,1.7l-0.9,0.6c-0.4-0.2-0.7-0.5-1-0.8C628.5,102,628.2,101.7,627.9,101.2z M633.5,97.1
		c-0.3-0.5-0.8-0.8-1.3-0.9c-0.5-0.1-1.1,0.1-1.7,0.4l2.2,3.3c0.6-0.4,1-0.9,1.1-1.3C633.9,98.1,633.8,97.6,633.5,97.1z"/>
	<path d="M640.3,106.7l-0.6,0.4l-0.8-1.1c-0.1,0.2-0.2,0.4-0.4,0.6c-0.2,0.2-0.4,0.4-0.7,0.6c-0.7,0.4-1.3,0.4-1.9,0.2
		c-0.6-0.2-1.2-0.7-1.6-1.5c-0.1-0.2-0.2-0.4-0.3-0.6c-0.5-0.3-0.9-0.4-1.2-0.2c-0.2,0.1-0.3,0.3-0.3,0.5c0,0.2,0.1,0.5,0.3,0.8
		l0.7,1.2c0.4,0.7,0.6,1.4,0.5,1.9c-0.1,0.6-0.4,1-1,1.3c-0.7,0.4-1.5,0.4-2.2,0.1c-0.7-0.4-1.4-1.1-2.1-2.3
		c-0.5-0.9-0.7-1.6-0.7-2.3s0.4-1.2,1-1.5c0.4-0.2,0.8-0.3,1.3-0.2c0.4,0.1,0.8,0.3,1.2,0.7c0-0.2,0-0.4,0.1-0.6
		c0.1-0.2,0.3-0.4,0.5-0.5c0.2-0.1,0.5-0.2,0.7-0.2c0.3,0,0.5,0.1,0.9,0.3c-0.1-0.4,0-0.8,0.2-1.3c0.2-0.4,0.5-0.7,1-1
		c0.7-0.4,1.4-0.5,2.1-0.3c0.6,0.2,1.2,0.7,1.6,1.5c0.2,0.3,0.3,0.7,0.4,1L640.3,106.7z M629.5,105.8c-0.4,0.2-0.5,0.5-0.6,0.9
		s0.1,0.9,0.5,1.5c0.5,0.8,1,1.4,1.4,1.7s0.9,0.3,1.4,0c0.4-0.2,0.5-0.5,0.6-0.8s-0.2-0.8-0.5-1.4l-0.7-1.2
		c-0.3-0.5-0.6-0.8-0.9-0.9C630.3,105.5,629.9,105.6,629.5,105.8z M635.4,103.1c-0.5,0.3-0.7,0.6-0.8,1c-0.1,0.4,0,0.8,0.3,1.3
		c0.6,1,1.3,1.2,2.3,0.7c1-0.6,1.2-1.4,0.6-2.3c-0.3-0.5-0.6-0.8-1-0.9C636.4,102.7,635.9,102.8,635.4,103.1z"/>
	<path d="M641.8,111.9l-0.9-1.7l-6.1,3l-0.5-1l6.1-3l-0.6-1.2l0.5-0.2l1,1l0.4-0.2c1.7-0.8,2.9-0.5,3.6,1c0.2,0.4,0.3,0.8,0.4,1.4
		l-1,0.1c-0.1-0.5-0.2-0.8-0.3-1.1c-0.2-0.4-0.5-0.6-0.8-0.7c-0.4-0.1-0.8,0.1-1.4,0.3l-0.4,0.2l0.9,1.7L641.8,111.9z"/>
	<path d="M637.5,119.3c-0.2-0.5-0.3-0.9-0.3-1.4c0-0.5,0.1-0.9,0.4-1.3l0-0.1c-0.4,0.2-0.8,0.4-1.1,0.6l-2.9,1.2l-0.4-1.1l10.2-4.2
		l0.4,0.9l-0.9,0.5l0,0.1c0.5,0.1,0.9,0.3,1.2,0.6c0.3,0.3,0.6,0.7,0.8,1.2c0.4,0.9,0.4,1.8-0.1,2.6c-0.4,0.8-1.2,1.4-2.4,1.9
		c-1.2,0.5-2.2,0.6-3,0.3C638.5,120.8,637.9,120.2,637.5,119.3z M643.9,116.5c-0.3-0.7-0.7-1.2-1.2-1.3s-1.2-0.1-2.1,0.3l-0.2,0.1
		c-1,0.4-1.6,0.9-1.9,1.4c-0.3,0.5-0.3,1.1,0,1.9c0.3,0.6,0.7,1,1.3,1.1s1.4,0,2.3-0.3c0.9-0.4,1.5-0.8,1.8-1.4
		C644.1,117.7,644.1,117.1,643.9,116.5z"/>
</g>
</svg>
