<?xml version="1.0" encoding="utf-8"?>
<!-- Generator: Adobe Illustrator 25.2.1, SVG Export Plug-In . SVG Version: 6.00 Build 0)  -->
<svg version="1.1" id="图层_1" xmlns="http://www.w3.org/2000/svg" xmlns:xlink="http://www.w3.org/1999/xlink" x="0px" y="0px"
	 viewBox="0 0 2501 669.6" style="enable-background:new 0 0 2501 669.6;" xml:space="preserve">
<style type="text/css">
	.st0{fill:#D7DCE3;}
	.st1{fill:none;stroke:#000000;stroke-width:0.25;stroke-miterlimit:10;}
	.st2{fill:#F6CCC0;}
	.st3{fill:#C5DBED;}
	.st4{fill:none;}
	.st5{font-family:'ArialMT';}
	.st6{font-size:12px;}
	.st7{fill:#FE9895;}
	.st8{font-family:'OpenSans-Bold';}
	.st9{font-size:18px;}
	.st10{fill:#FAE5A2;}
	.st11{fill:#CBDEB7;}
	.st12{fill:#C2D8CC;}
	.st13{fill:none;stroke:#000000;stroke-miterlimit:10;}
	.st14{stroke:#000000;stroke-miterlimit:10;}
	.st15{font-size:24px;}
	.st16{fill:#C2D7EC;}
	.st17{font-family:'OpenSans-Regular';}
	.st18{font-size:16px;}
	.st19{font-family:'OpenSans-SemiBold';}
	.st20{fill:#8896AE;}
	.st21{font-family:'Times-Bold';}
	.st22{fill:none;stroke:#444444;stroke-miterlimit:10;}
	.st23{fill:#F9D878;stroke:#000000;stroke-miterlimit:10;}
	.st24{stroke:#444444;stroke-miterlimit:10;}
	.st25{fill:#7DAA54;}
	.st26{font-size:72px;}
</style>
<defs>
    <filter id="f1" x="0" y="0" width="200%" height="200%">
      <feOffset result="offOut" in="SourceGraphic" dx="0" dy="0" />
      <feGaussianBlur result="blurOut" in="offOut" stdDeviation="15" />
      <feBlend in="SourceGraphic" in2="blurOut" mode="normal" />
    </filter>
  </defs>
<path class="st0" d="M1251.2,202.1c-64.5,0-116.9,52.3-116.9,116.9s52.3,116.9,116.9,116.9c64.5,0,116.9-52.3,116.9-116.9
	S1315.8,202.1,1251.2,202.1z M1251.2,417.6c-54.5,0-98.7-44.2-98.7-98.7s44.2-98.7,98.7-98.7s98.7,44.2,98.7,98.7
	C1349.9,373.5,1305.7,417.6,1251.2,417.6z"/>
<path class="st0" d="M172.4,51.1c-64.5,0-116.9,52.3-116.9,116.9s52.3,116.9,116.9,116.9S289.3,232.6,289.3,168
	S236.9,51.1,172.4,51.1z M172.4,266.6c-54.5,0-98.7-44.2-98.7-98.7s44.2-98.7,98.7-98.7s98.7,44.2,98.7,98.7
	C271.1,222.4,226.9,266.6,172.4,266.6z"/>
<path class="st1" d="M299.7,109"/>
<path class="st2" d="M229.2,64.3l-10,16.7c-0.8,1.4-0.4,3.1,0.9,4c27,17.3,44.8,47.5,44.8,81.9c0,52.7-42,95.6-94.3,97.1
	c-1.6,0-2.8,1.4-2.8,2.9v19.5c0,1.7,1.4,3,3,2.9c66.2-1.6,119.4-55.8,119.4-122.4c0-43.6-22.7-81.8-57-103.5
	C232,62.4,230.1,62.9,229.2,64.3z"/>
<path class="st3" d="M172.4,73.2c9.8,0,19.2,1.5,28.1,4.2c1.9,0.6,3.8-0.4,4.5-2.3l5.6-16c0.7-1.9-0.4-4-2.3-4.7
	C196.9,51,184.9,49,172.4,49c-17.9,0-34.9,4-50.2,11.1c-1.9,0.9-2.6,3.1-1.7,4.9l7.6,15.1c0.9,1.7,3,2.5,4.7,1.7
	C144.9,76.3,158.3,73.2,172.4,73.2z"/>
<path id="SVGID_x5F_1_x5F_" class="st4" d="M277.6,170.8c0,58.1-47.1,105.2-105.2,105.2S67.1,229,67.1,170.8S114.2,65.6,172.4,65.6
	S277.6,112.7,277.6,170.8z"/>
<text class="st5 st6"> </text>
<path id="SVGID_x5F_2_x5F_" class="st4" d="M273.1,170.8c0,58.1-47.1,105.2-105.2,105.2S62.7,229,62.7,170.8S109.8,65.6,167.9,65.6
	S273.1,112.7,273.1,170.8z"/>
<text transform="matrix(0.8736 -0.4867 0.4867 0.8736 115.2704 79.6542)" class="st5 st6"> </text>
<text class="st5 st6"> </text>
<path class="st7" d="M121.6,94.1l-2.5,1.4c-0.5,0.3-1.1,0.1-1.4-0.4l-16.1-27.9c-0.3-0.5-0.1-1.1,0.4-1.4l2.5-1.4
	c0.5-0.3,1.1-0.1,1.4,0.4L122,92.7C122.2,93.2,122,93.8,121.6,94.1z"/>
<path class="st7" d="M154.3,293.2l-2.8-0.3c-0.5-0.1-0.9-0.6-0.9-1.1l3.9-32c0.1-0.5,0.6-0.9,1.1-0.9l2.8,0.3
	c0.5,0.1,0.9,0.6,0.9,1.1l-3.9,32C155.4,292.9,154.9,293.3,154.3,293.2z"/>
<text transform="matrix(1 0 0 1 136.9491 170.8)" class="st8 st9">spCas9</text>
<path class="st0" d="M172.4,576.2c64.5,0,116.9-52.3,116.9-116.9c0-64.5-52.3-116.9-116.9-116.9S55.5,394.8,55.5,459.3
	S107.8,576.2,172.4,576.2z M172.4,360.6c54.5,0,98.7,44.2,98.7,98.7S226.9,558,172.4,558s-98.7-44.2-98.7-98.7
	S117.9,360.6,172.4,360.6z"/>
<path class="st10" d="M270.4,455.7l18.4-0.6c1.8-0.1,3.2-1.6,3.1-3.5c-3.2-50-37-91.7-83-106.4c-1.7-0.6-3.6,0.4-4.1,2.2l-5.1,17.7
	c-0.5,1.7,0.4,3.4,2.1,4c36,11.7,62.6,44.4,65.3,83.6C267.2,454.4,268.6,455.7,270.4,455.7z"/>
<path class="st11" d="M75,461.9c1.4,0,2.4-1.2,2.4-2.5l0,0c0-43.5,29.3-80.2,69.3-91.4c1.3-0.4,2.1-1.7,1.8-3l-4.9-19.3
	c-0.3-1.4-1.7-2.2-3.1-1.8c-50.7,13.9-88,60.4-88,115.5c0,0.2,0,0.5,0,0.7c0,1.4,1.2,2.5,2.6,2.5L75,461.9z"/>
<line class="st4" x1="172.5" y1="458.8" x2="172.4" y2="459.3"/>
<path class="st12" d="M267.2,456c0-0.1,0-0.1,0-0.2"/>
<polygon class="st12" points="172.2,458.8 172.4,459.3 172.5,458.8 "/>
<path class="st12" d="M267.2,456l24.9-0.9V455l-24.9,0.8C267.2,455.8,267.2,455.9,267.2,456z"/>
<path class="st12" d="M77.5,461.8l-24.9,0.8v0.1l24.9-0.7C77.5,461.9,77.5,461.9,77.5,461.8z"/>
<path id="SVGID_x5F_3_x5F_" class="st4" d="M201.9,558.4c-55,16.2-112.8-15.2-129-70.3s15.2-112.8,70.3-129
	c55-16.2,112.8,15.2,129,70.3C288.4,484.4,256.9,542.2,201.9,558.4z"/>
<text transform="matrix(0.7904 -0.6126 0.6126 0.7904 107.5353 377.6411)" class="st5 st6"> </text>
<text class="st5 st6"> </text>
<path id="SVGID_x5F_4_x5F_" class="st4" d="M67.1,460.6c0-57.4,46.5-103.9,103.9-103.9s103.9,46.5,103.9,103.9
	S228.4,564.5,171,564.5S67.1,518,67.1,460.6z"/>
<text transform="matrix(0.3645 0.9312 -0.9312 0.3645 267.1774 421.1666)" class="st5 st6"> </text>
<text class="st5 st6"> </text>
<path class="st7" d="M262.5,471.4l0.3-2.8c0.1-0.5,0.6-0.9,1.1-0.9l32,3.9c0.5,0.1,0.9,0.6,0.9,1.1l-0.3,2.8
	c-0.1,0.5-0.6,0.9-1.1,0.9l-32-3.9C262.8,472.4,262.4,471.9,262.5,471.4z"/>
<path class="st7" d="M82.2,474.9l-0.5-2.8c-0.1-0.5-0.6-0.9-1.2-0.8l-31.8,5.5c-0.5,0.1-0.9,0.6-0.8,1.2l0.5,2.8
	c0.1,0.5,0.6,0.9,1.2,0.8l31.8-5.5C81.9,476,82.2,475.5,82.2,474.9z"/>
<path class="st13" d="M323.9,170.8h35.8c7.1,0,12.9,7.9,12.9,17.6v267.5c0,8.9-5.3,16.2-11.8,16.2h-36.9"/>
<polyline class="st14" points="448.2,321.7 448.2,327.6 465.8,321.7 448.2,315.3 448.2,321.7 372.6,321.7 "/>
<text transform="matrix(1 0 0 1 146.0875 467.6997)" class="st8 st9">puc57</text>
<rect x="381.2" y="289.8" class="st4" width="60.2" height="29.7"/>
<text transform="matrix(1 0 0 1 388.1865 310.3571)" class="st8 st15">PCR</text>
<path class="st0" d="M911.8,285.5H546.9c-1.6,0-3-1.3-3-3V266c0-1.6,1.3-3,3-3h364.9c1.6,0,3,1.3,3,3v16.6
	C914.7,284.2,913.4,285.5,911.8,285.5z"/>
<path class="st0" d="M911.8,382.1H546.9c-1.6,0-3-1.3-3-3v-16.6c0-1.6,1.3-3,3-3h364.9c1.6,0,3,1.3,3,3v16.6
	C914.7,380.8,913.4,382.1,911.8,382.1z"/>
<path class="st2" d="M741.8,290H566.6c-2.3,0-4.2-1.9-4.2-4.2v-23.1c0-2.3,1.9-4.2,4.2-4.2h175.2c2.3,0,4.2,1.9,4.2,4.2v23.1
	C746,288.1,744.1,290,741.8,290z"/>
<path class="st16" d="M898.6,290H774.3c-2,0-3.6-1.6-3.6-3.6V262c0-2,1.6-3.6,3.6-3.6h124.3c2,0,3.6,1.6,3.6,3.6v24.4
	C902.2,288.4,900.6,290,898.6,290z"/>
<path class="st10" d="M715.3,386.6H566.6c-2.3,0-4.2-1.9-4.2-4.2v-23.1c0-2.3,1.9-4.2,4.2-4.2h148.7c2.3,0,4.2,1.9,4.2,4.2v23.1
	C719.5,384.8,717.6,386.6,715.3,386.6z"/>
<path class="st11" d="M895,386.6H748.1c-2.4,0-4.4-2-4.4-4.4v-22.7c0-2.4,2-4.4,4.4-4.4H895c2.4,0,4.4,2,4.4,4.4v22.7
	C899.4,384.7,897.4,386.6,895,386.6z"/>
<rect x="606.1" y="266.5" class="st4" width="88" height="27.6"/>
<text transform="matrix(1 0 0 1 623.5495 280.1886)" class="st17 st18">spCas9</text>
<rect x="792.4" y="266.5" class="st4" width="88" height="27.6"/>
<text transform="matrix(1 0 0 1 802.819 280.2555)" class="st17 st18">tracrRNA</text>
<rect x="593.4" y="360.9" class="st4" width="95.2" height="19.8"/>
<text transform="matrix(1 0 0 1 618.1993 374.6606)" class="st17 st18">P15A Ori</text>
<rect x="778.1" y="360.9" class="st4" width="95.2" height="19.8"/>
<text transform="matrix(1 0 0 1 808.2644 374.6606)" class="st17 st18">CmR</text>
<rect x="471.5" y="266.8" class="st4" width="58.1" height="15"/>
<text transform="matrix(1 0 0 1 477.9463 281.7999)" class="st19 st18">spCas9:</text>
<rect x="471.5" y="363.4" class="st4" width="58.1" height="15"/>
<text transform="matrix(1 0 0 1 476.634 377.09)" class="st19 st18">puc57:</text>
<path class="st3" d="M1286.8,230.5c9.1,3.7,17.3,8.5,24.5,14.5c1.5,1.3,3.7,1,5-0.4l11.1-12.7c1.4-1.6,1.1-3.9-0.5-5.2
	c-9.2-7.5-19.6-13.9-31.2-18.5c-16.6-6.7-33.9-9.4-50.7-8.5c-2.1,0.2-3.6,1.9-3.5,3.9l1.5,16.9c0.2,2,1.9,3.4,3.8,3.3
	C1260.2,223.1,1273.7,225.3,1286.8,230.5z"/>
<path class="st10" d="M1213.9,227.2l-7.1-17.3c-0.7-1.7-2.6-2.4-4.2-1.7c-45.9,20.5-73.1,67-70.6,115.3c0.1,1.7,1.6,3.1,3.3,2.9
	l18.7-1.4c1.7-0.2,3-1.5,2.9-3.2c-1.8-37.9,19.6-74.4,55.5-90.7C1213.8,230.5,1214.5,228.8,1213.9,227.2z"/>
<path class="st11" d="M1254.8,414.7L1254.8,414.7c0,0-0.1,0-0.1,0c-43.4,2.1-81.6-25.3-94.7-64.6c-0.4-1.3-1.8-2-3-1.6l-19.2,5.9
	c-1.3,0.4-2,1.8-1.6,3.1c16.5,50,64.7,84.9,119.9,82.1c0.3,0,0.6,0,0.8-0.1c1.4-0.1,2.4-1.3,2.3-2.6l-1.7-19.9
	C1257.3,415.5,1256.1,414.6,1254.8,414.7z"/>
<path id="SVGID_x5F_5_x5F_" class="st4" d="M1147.1,313.9c3.1-56.7,52.1-100.1,109.4-96.9c57.3,3.2,101.2,51.7,98.1,108.4
	s-52.1,100.1-109.4,96.9C1187.8,419.2,1143.9,370.7,1147.1,313.9z"/>
<text class="st5 st6"> </text>
<polyline class="st14" points="1083.6,323 1083.6,329 1104.4,323 1083.6,316.6 1083.6,323 934.7,323 "/>
<rect x="905.1" y="293.8" class="st4" width="204.9" height="57.9"/>
<text transform="matrix(1 0 0 1 956.1444 314.4078)" class="st8 st15">one step </text>
<text transform="matrix(1 0 0 1 964.0444 343.2078)" class="st8 st15">cloning</text>
<polyline class="st14" points="1539.8,323.3 1539.8,329.3 1560.6,323.3 1539.8,316.9 1539.8,323.3 1398,323.3 "/>
<rect x="1400.5" y="295.8" class="st4" width="137.4" height="53"/>
<text transform="matrix(1 0 0 1 1404.4957 316.4131)" class="st8 st15">transfer to </text>
<text transform="matrix(1 0 0 1 1436.9957 345.2131)" class="st8 st15">DH5a</text>
<circle class="st0" cx="1923.2" cy="133.8" r="66"/>
<circle class="st20" cx="1923.2" cy="133.8" r="52.8"/>
<path class="st13" d="M921.7,274.3h7.7c3,0,5.4,2.4,5.4,5.4l-0.1,85.8c0,3-2.4,5.4-5.4,5.4h-7.6"/>
<g>
	<g>
		<path d="M1900.2,109.3c1.9,0,1.9-3,0-3C1898.2,106.3,1898.2,109.3,1900.2,109.3L1900.2,109.3z"/>
	</g>
</g>
<g>
	<g>
		<path d="M1924.7,114c1.9,0,1.9-3,0-3S1922.8,114,1924.7,114L1924.7,114z"/>
	</g>
</g>
<g>
	<g>
		<path d="M1913,149.1c1.9,0,1.9-3,0-3S1911.1,149.1,1913,149.1L1913,149.1z"/>
	</g>
</g>
<g>
	<g>
		<path d="M1930.6,139.6c1.9,0,1.9-3,0-3C1928.6,136.6,1928.6,139.6,1930.6,139.6L1930.6,139.6z"/>
	</g>
</g>
<g>
	<g>
		<path d="M1908.3,133.9c1.9,0,1.9-3,0-3S1906.4,133.9,1908.3,133.9L1908.3,133.9z"/>
	</g>
</g>
<g>
	<g>
		<path d="M1887.3,130.2c1.9,0,1.9-3,0-3S1885.4,130.2,1887.3,130.2L1887.3,130.2z"/>
	</g>
</g>
<g>
	<g>
		<path d="M1890.8,152.6c1.9,0,1.9-3,0-3S1888.9,152.6,1890.8,152.6L1890.8,152.6z"/>
	</g>
</g>
<g>
	<g>
		<path d="M1915.4,172.4c1.9,0,1.9-3,0-3C1913.4,169.4,1913.4,172.4,1915.4,172.4L1915.4,172.4z"/>
	</g>
</g>
<g>
	<g>
		<path d="M1927.1,160.8c1.9,0,1.9-3,0-3C1925.1,157.8,1925.1,160.8,1927.1,160.8L1927.1,160.8z"/>
	</g>
</g>
<g>
	<g>
		<path d="M1929.4,174.8c1.9,0,1.9-3,0-3S1927.5,174.8,1929.4,174.8L1929.4,174.8z"/>
	</g>
</g>
<g>
	<g>
		<path d="M1945.8,161.9c1.9,0,1.9-3,0-3C1943.8,158.9,1943.8,161.9,1945.8,161.9L1945.8,161.9z"/>
	</g>
</g>
<g>
	<g>
		<path d="M1950.4,128c1.9,0,1.9-3,0-3S1948.5,128,1950.4,128L1950.4,128z"/>
	</g>
</g>
<g>
	<g>
		<path d="M1943.4,149.1c1.9,0,1.9-3,0-3S1941.5,149.1,1943.4,149.1L1943.4,149.1z"/>
	</g>
</g>
<g>
	<g>
		<path d="M1955.1,147.9c1.9,0,1.9-3,0-3S1953.2,147.9,1955.1,147.9L1955.1,147.9z"/>
	</g>
</g>
<g>
	<g>
		<path d="M1941.1,116.3c1.9,0,1.9-3,0-3S1939.2,116.3,1941.1,116.3L1941.1,116.3z"/>
	</g>
</g>
<g>
	<g>
		<path d="M1929.4,94.1c1.9,0,1.9-3,0-3S1927.5,94.1,1929.4,94.1L1929.4,94.1z"/>
	</g>
</g>
<g>
	<g>
		<path d="M1913,99.9c1.9,0,1.9-3,0-3S1911.1,99.9,1913,99.9L1913,99.9z"/>
	</g>
</g>
<g>
	<g>
		<path d="M1910.7,119.8c1.9,0,1.9-3,0-3S1908.7,119.8,1910.7,119.8L1910.7,119.8z"/>
	</g>
</g>
<g>
	<g>
		<path d="M1899,125.7c1.9,0,1.9-3,0-3S1897.1,125.7,1899,125.7L1899,125.7z"/>
	</g>
</g>
<g>
	<g>
		<path d="M1899,144.4c1.9,0,1.9-3,0-3S1897.1,144.4,1899,144.4L1899,144.4z"/>
	</g>
</g>
<g>
	<g>
		<path d="M1903.7,161.9c1.9,0,1.9-3,0-3C1901.7,158.9,1901.7,161.9,1903.7,161.9L1903.7,161.9z"/>
	</g>
</g>
<g>
	<g>
		<path d="M1964.5,132.6c1.9,0,1.9-3,0-3C1962.5,129.6,1962.5,132.6,1964.5,132.6L1964.5,132.6z"/>
	</g>
</g>
<g>
	<g>
		<path d="M1952.8,114c1.9,0,1.9-3,0-3C1950.8,111,1950.8,114,1952.8,114L1952.8,114z"/>
	</g>
</g>
<g>
	<g>
		<path d="M1942.3,103.5c1.9,0,1.9-3,0-3C1940.3,100.5,1940.3,103.5,1942.3,103.5L1942.3,103.5z"/>
	</g>
</g>
<g>
	<g>
		<path d="M1953.9,161.9c1.9,0,1.9-3,0-3S1952,161.9,1953.9,161.9L1953.9,161.9z"/>
	</g>
</g>
<circle class="st0" cx="1922.7" cy="320.5" r="66"/>
<circle class="st20" cx="1922.7" cy="320.5" r="52.8"/>
<circle class="st0" cx="1924.7" cy="520.4" r="66"/>
<circle class="st20" cx="1924.7" cy="520.4" r="52.8"/>
<rect x="1870" y="214.1" class="st4" width="106.4" height="25.9"/>
<text transform="matrix(1 0 0 1 1896.6227 227.864)" class="st17 st18">spCas9</text>
<rect x="1883.4" y="412.1" class="st4" width="87.3" height="30"/>
<text transform="matrix(1 0 0 1 1892.5793 425.7432)" class="st17 st18">fragment</text>
<rect x="1887.5" y="602" class="st4" width="85.9" height="25.9"/>
<text transform="matrix(1 0 0 1 1907.207 615.6374)" class="st17 st18">vector</text>
<polyline class="st14" points="2136.6,335 2136.6,341 2157.4,335 2136.6,328.6 2136.6,335 2017.3,335 "/>
<rect x="1965.7" y="304.7" class="st4" width="162.5" height="25.5"/>
<text transform="matrix(1 0 0 1 2037.2941 327.5623)" class="st8 st15">cloning </text>
<text transform="matrix(1 0 0 1 2060.7939 356.3623)" class="st8 st15">PCR</text>
<path id="SVGID_x5F_6_x5F_" class="st4" d="M1299.3,224.3c50.9,26.5,70.6,89.3,44.1,140.2s-89.3,70.6-140.2,44.1
	c-50.9-26.5-70.6-89.3-44.1-140.2S1248.4,197.8,1299.3,224.3z"/>
<text class="st5 st6"> </text>
<text transform="matrix(1 0 0 1 1209.2322 324.9673)" class="st8 st15">spCas9</text>
<polyline class="st14" points="1818.5,326.1 1818.5,332 1839.2,326.1 1818.5,319.7 1818.5,326.1 1676.7,326.1 "/>
<rect x="1679.1" y="298.6" class="st4" width="137.4" height="53"/>
<text transform="matrix(1 0 0 1 1721.3379 319.1471)" class="st8 st15">37</text>
<text transform="matrix(1 0 0 1 1748.7379 319.1471)" class="st21 st15">℃</text>
<text transform="matrix(1 0 0 1 1683.8379 347.9471)" class="st8 st15">incubating</text>
<rect x="1438.9" y="303.7" class="st4" width="137.4" height="20.1"/>
<path class="st22" d="M1562.6,230.8c0.9-0.5,1.8-1,2.8-1.1c7.9-1.2,15.8-3.1,23.8-3.2c24.7-0.3,49.3,0.1,74,0.2c0.7,0,1.3,0,2.3,0
	c0.2,6.2-2,9.4-7.4,10.9c0,2.5,0.6,5.2-0.2,7.4c-0.7,1.7-3.1,2.7-4.8,4c-0.3-0.3-0.7-0.5-1-0.8c0,1.2,0,2.4,0,3.7
	c0,18.5-0.4,37,0.1,55.5c0.4,15.5-1.9,30.6-4.4,45.7c-3.2,19.8-6,39.6-9.2,59.4c-1.3,7.8-2.6,15.7-4.8,23.3
	c-2.6,8.8-7.3,11.4-16.3,10.1c-3.8-0.5-8.4-2.2-9.6-6c-2-6.5-2.7-13.2-3.8-20c-4.4-26.6-8.6-53.2-12.6-79.9
	c-1.2-8.3-2-16.7-2.2-25.1c-0.3-18.7-0.1-37.4-0.1-56.2c0-3.4,0-6.9,0-10.4c-2.8-0.7-6.9,0.9-7.2-4.1c-5.5,0-10.7,0.1-16-0.1
	c-1.4,0-2.8-0.9-4-1.7"/>
<path class="st22" d="M1593.1,294.7c-1.4,0-2.5-1.1-2.5-2.4c0-19.7,0-20.5,0.1-41.9c0-0.7,0.1-1.4,0.1-2h59.7c0,1.2,0,2.5,0,3.8
	c0,16.9,0.1,33.7,0.1,39.8c0,1.4-1.1,2.5-2.5,2.5c-7,0.1-19.7-0.5-19.7-0.5h-7.9L1593.1,294.7z"/>
<path class="st22" d="M1620.2,237.2c-11,0-22.1,0.1-33.1-0.1c-2.7,0-3.8,0.8-3.4,3.6c0.1,0.8,0.1,1.6,0,2.4
	c-0.3,2.8,0.9,3.6,3.5,3.6c21.9-0.1,43.9-0.1,65.8,0c4.5,0,3.5-2.9,3.7-5.6c0.2-2.9-0.7-4.1-3.8-4
	C1642.1,237.3,1631.2,237.2,1620.2,237.2z"/>
<path class="st22" d="M1664,228.5c-0.4-0.1-0.6-0.2-0.8-0.2c-25.9-0.2-51.8-0.5-77.7-0.6c-5.8,0-5.8,0.3-5.6,6.1
	c0,0.6,0.1,1.1,0.2,2c1.4,0,2.6,0,3.8,0c24.2,0,48.4,0,72.6,0C1661.7,235.8,1663.3,234.2,1664,228.5z"/>
<path class="st22" d="M1617.3,277c-0.6,0.1-1.1,0.2-1.6,0.3c-1,0.2-0.7,0.4,0.8,0.5c0.5,0,1.1,0,1.7,0c8.9,0,17.8,0,26.6,0
	c0.5,0,1.1,0,1.5,0c0.6-0.1,1.3-0.1,1.5-0.2s-0.3-0.2-0.6-0.3c-0.4-0.1-1-0.2-1.6-0.3C1636.2,277,1626.6,277,1617.3,277z"/>
<path class="st23" d="M1590.6,296.5c-0.2,1.2,0.8,25.4,0.8,26.1c0,2.1,15.1,118.3,20.1,119.1c0,0,3.7,2.4,7,2.4s10.5,1.8,13.7-10.2
	c7.6-28.7,18-112.7,18-112.7s0.5-19.4,0.5-24.8c-4.5,0.2-25.6,0-30,0C1616.2,296.4,1595.1,296.8,1590.6,296.5z"/>
<path class="st22" d="M1562.6,236.9c-0.1-2.8,2-3.3,4-3.8c1.1-0.3,2.2-0.1,3.4-0.1c2.7,0,5.4,0,8.2,0c-0.1-1.2-0.1-2.1-0.2-3.4
	c-4.6,0.6-8.7,1-12.8,1.8c-2.6,0.5-4.9,2-5,5.3"/>
<path class="st22" d="M1560.3,236.6c0,3.4,2.2,5.5,5.2,5.9c4.5,0.6,9.1,0.5,13.7,0.5c0.8,0,1.6-1,2.4-1.6c-0.9-0.3-1.8-0.8-2.8-0.8
	c-4-0.1-8.1,0.1-12.1-0.1c-2-0.1-4-0.9-4.1-3.7"/>
<path class="st22" d="M1564.2,236.6c0.1,0.8,1,2.2,1.6,2.2c5.5,0.2,11,0.1,16.5,0.1c0-0.5,0.1-0.9,0.1-1.4c-1.2-0.2-2.4-0.3-3.3-0.4
	c-0.7-1-1.2-2.5-1.8-2.5c-3.8-0.1-7.6,0-11.4,0.3C1565.2,234.9,1564.1,236,1564.2,236.6"/>
<path class="st22" d="M1617.3,293.6c-0.6,0.1-1.1,0.2-1.6,0.3c-1,0.2-0.7,0.4,0.8,0.5c0.5,0,1.1,0,1.7,0c8.9,0,17.8,0,26.6,0
	c0.5,0,1.1,0,1.5,0c0.6-0.1,1.3-0.1,1.5-0.2s-0.3-0.2-0.6-0.3c-0.4-0.1-1-0.2-1.6-0.3C1636.2,293.6,1626.6,293.6,1617.3,293.6z"/>
<path class="st22" d="M1617.3,311.3c-0.6,0.1-1.1,0.2-1.6,0.3c-1,0.2-0.7,0.4,0.8,0.5c0.5,0,1.1,0,1.7,0c8.9,0,17.8,0,26.6,0
	c0.5,0,1.1,0,1.5,0c0.6-0.1,1.3-0.1,1.5-0.2s-0.3-0.2-0.6-0.3c-0.4-0.1-1-0.2-1.6-0.3C1636.2,311.3,1626.6,311.3,1617.3,311.3z"/>
<path class="st24" d="M1656.5,235.8"/>
<path class="st24" d="M1663.2,228.3"/>
<path class="st22" d="M1648.1,323.5"/>
<path class="st22" d="M1591.4,322.6"/>
<g>
	<g>
		<g>
			<text transform="matrix(1 0 0 1 2174.8916 356.0378)" filter="url(#f1)" class="st25 st8 st26">success!</text>
		</g>
	</g>
</g>
<path id="SVGID_x5F_1_x5F__1_" class="st4" d="M1147.7,311.6c3.1-55.7,51.6-98.4,108.4-95.2s100.3,50.9,97.2,106.6
	s-51.6,98.4-108.4,95.2S1144.6,367.3,1147.7,311.6z"/>
<text class="st5 st6"> </text>
<path id="SVGID_x5F_2_x5F__1_" class="st4" d="M1147.7,308.4c3.1-55.7,51.6-98.4,108.4-95.2s100.3,50.9,97.2,106.6
	s-51.6,98.4-108.4,95.2S1144.6,364.1,1147.7,308.4z"/>
<text class="st5 st6"> </text>
<path id="SVGID_x5F_1_x5F__2_" class="st4" d="M1153.6,352.2c-18.4-53.9,10.4-112.6,64.4-131s112.6,10.4,131,64.4
	s-10.4,112.6-64.4,131S1172,406.1,1153.6,352.2z"/>
<text class="st5 st6"> </text>
<path id="SVGID_x5F_2_x5F__2_" class="st4" d="M71.6,189.2C59.9,133.4,95.6,78.7,151.4,67s110.5,24,122.2,79.8
	c11.7,55.8-24,110.5-79.8,122.2S83.3,245,71.6,189.2z"/>
<text class="st5 st6"> </text>
<path id="SVGID_x5F_3_x5F__1_" class="st4" d="M151.8,357.7c55.8-11.4,110.3,24.6,121.7,80.4S249,548.5,193.2,559.9
	S82.9,535.3,71.5,479.5S96,369.1,151.8,357.7z"/>
<text class="st5 st6"> </text>
<path class="st3" d="M1291.1,267.2"/>
<g>
	<path class="st2" d="M1368.6,297.4c-3.2-17.3-9.9-33.1-19.3-46.8c-1.3-1.8-3.8-2.2-5.6-0.8L1330,261c-1.5,1.2-1.9,3.4-0.8,5.1
		c7,10.6,12.1,22.7,14.6,36c9.3,50.1-21.8,98.4-70.1,111.4c-1.6,0.4-2.6,2.1-2.2,3.7l3.8,17.1c0.6,2.5,3.1,4.1,5.6,3.4
		C1341.5,420.9,1380.3,360.4,1368.6,297.4z"/>
</g>
<g>
	<path d="M1194.1,413.7c1,0.6,1.9,0.7,2.8,0.4c0.9-0.3,1.7-1,2.3-2.1c0.7-1.1,0.9-2.2,0.7-3.1c-0.2-0.9-0.8-1.7-1.7-2.2
		c-0.6-0.3-1.4-0.6-2.3-0.9l0.5-0.9c0.7,0.1,1.5,0.4,2.4,0.9c1.3,0.7,2,1.7,2.3,2.9c0.2,1.2,0,2.5-0.9,3.9c-0.5,0.9-1.1,1.6-1.9,2.1
		c-0.7,0.5-1.5,0.7-2.3,0.7c-0.8,0-1.7-0.2-2.5-0.7c-0.9-0.5-1.6-1.2-2.1-1.9l0.9-0.6C1192.9,412.7,1193.5,413.3,1194.1,413.7z"/>
	<path d="M1187.4,398.1l-2.9,3.9c-0.4,0.5-0.5,0.9-0.5,1.3c0,0.4,0.3,0.7,0.7,1.1c0.6,0.4,1.1,0.6,1.6,0.4c0.5-0.1,1-0.5,1.5-1.2
		l2.5-3.4l0.9,0.7l-2.9,3.9c-0.4,0.5-0.5,0.9-0.5,1.3c0,0.4,0.3,0.7,0.7,1.1c0.6,0.4,1.1,0.6,1.6,0.4c0.5-0.1,1.1-0.6,1.6-1.4
		l2.3-3.2l0.9,0.7l-4.4,6.1l-0.7-0.5l0.5-0.9l0,0c-0.4,0.2-0.8,0.2-1.2,0.2c-0.4-0.1-0.8-0.2-1.2-0.5c-0.9-0.7-1.3-1.5-1.1-2.4l0,0
		c-0.4,0.2-0.9,0.2-1.3,0.2c-0.5-0.1-0.9-0.3-1.4-0.6c-0.7-0.5-1.1-1-1.2-1.7c-0.1-0.6,0.2-1.3,0.7-2.1l2.9-3.9L1187.4,398.1z"/>
	<path d="M1181.1,398.2l2.8-3.1l0.9,0.8l-6.7,7.4l-2-1.8c-0.9-0.8-1.4-1.6-1.5-2.3s0.1-1.5,0.8-2.2c0.9-1,2-1.2,3.3-0.6l1-5.2l1,0.9
		l-1,4.7L1181.1,398.2z M1180.5,398.9l-1.2-1.1c-0.6-0.5-1.2-0.8-1.7-0.8c-0.5,0-1,0.2-1.4,0.7c-0.4,0.5-0.6,1-0.5,1.5
		c0.1,0.5,0.5,1,1.1,1.6l1.1,1L1180.5,398.9z"/>
	<path d="M1147,287.1c1,0.3,1.6,0.8,2,1.6c0.3,0.8,0.3,1.8,0,3.1l-0.3,1.1l3.8,1l-0.3,1.1l-9.6-2.6l0.7-2.5
		C1143.9,287.5,1145.1,286.6,1147,287.1z M1147.7,292.7l0.3-1c0.3-1,0.3-1.8,0.1-2.3c-0.2-0.5-0.7-0.9-1.4-1.1
		c-0.6-0.2-1.2-0.1-1.6,0.2c-0.4,0.3-0.8,0.9-1,1.8l-0.3,1.3L1147.7,292.7z"/>
	<path d="M1155.7,283.9l-0.4,1l-6.7-2.4c-0.6-0.2-1.1-0.4-1.6-0.6c0.1,0.1,0.1,0.3,0.2,0.4c0.1,0.1,0.3,0.8,0.7,2l-0.9,0.3l-1-3.2
		l0.3-0.9L1155.7,283.9z"/>
	<path d="M1152.6,275.1c0.4-1,1-1.6,1.7-1.9s1.5-0.3,2.3,0.1c0.9,0.4,1.5,1.1,1.8,1.9c0.3,0.8,0.2,1.8-0.3,2.8c-0.5,1-1,1.7-1.6,2.1
		l-1-0.4c0.3-0.2,0.6-0.5,0.9-0.9c0.3-0.4,0.5-0.8,0.7-1.2c0.3-0.7,0.4-1.4,0.3-1.9c-0.2-0.6-0.6-1-1.2-1.3c-1.3-0.6-2.3-0.1-3,1.5
		c-0.2,0.4-0.4,0.9-0.5,1.7l-0.6,0.4l-4.1-2.3l2-4.5l1,0.4l-1.6,3.6l2.6,1.5C1152.3,276.1,1152.4,275.6,1152.6,275.1z"/>
	<path d="M1163.5,267.3l-3.4-0.4l-1.9,3.5l2.2,2.6l-0.6,1l-6.9-8.3l0.5-0.9l10.7,1.4L1163.5,267.3z M1159.1,266.6l-3.3-0.5
		c-0.4-0.1-0.9-0.2-1.5-0.3c0.3,0.3,0.7,0.7,1.1,1.1l2.1,2.5L1159.1,266.6z"/>
	<path d="M1167.8,252.3c1.3,0.9,2.1,2,2.3,3.2c0.3,1.2,0,2.4-0.9,3.5c-0.9,1.2-1.9,1.8-3.1,1.9c-1.2,0.1-2.5-0.3-3.8-1.3
		c-1.3-1-2.1-2-2.3-3.2c-0.2-1.2,0.1-2.4,0.9-3.5c0.9-1.2,1.9-1.8,3.1-1.9C1165.2,250.9,1166.5,251.3,1167.8,252.3z M1163.1,258.7
		c1.1,0.8,2.1,1.2,3,1.1c0.9,0,1.7-0.5,2.3-1.4c0.7-0.9,0.9-1.8,0.6-2.6c-0.2-0.9-0.9-1.7-2-2.5c-1.1-0.8-2.1-1.2-3-1.1
		c-0.9,0-1.7,0.5-2.3,1.4c-0.7,0.9-0.9,1.8-0.7,2.7C1161.3,257.1,1162,257.9,1163.1,258.7z"/>
	<path d="M1169.5,246.3c0.2-0.3,0.4-0.5,0.6-0.6l0.7,0.8c-0.3,0.2-0.5,0.4-0.6,0.6c-0.4,0.5-0.6,1-0.5,1.7c0.1,0.6,0.4,1.2,1,1.7
		l3,2.6l-0.7,0.9l-5.7-4.9l0.6-0.7l1.1,0.8l0,0c-0.2-0.5-0.3-1-0.2-1.5C1169.1,247.1,1169.2,246.7,1169.5,246.3z"/>
	<path d="M1169.8,243.2c-0.2-0.2-0.3-0.4-0.3-0.5c0-0.2,0.1-0.3,0.2-0.5c0.1-0.1,0.3-0.2,0.5-0.2c0.2,0,0.4,0.1,0.5,0.2
		c0.2,0.2,0.3,0.4,0.3,0.5c0,0.2-0.1,0.3-0.2,0.5c-0.1,0.1-0.3,0.2-0.5,0.2C1170.2,243.5,1170,243.4,1169.8,243.2z M1177.6,248.9
		l-0.8,0.8l-5.4-5.2l0.8-0.8L1177.6,248.9z"/>
	<path d="M1259.1,217.4c0.2,0,0.4,0,0.6,0c0.2,0,0.3,0,0.5-0.1l-0.1,0.9c-0.1,0-0.3,0.1-0.6,0.1c-0.2,0-0.5,0-0.6,0
		c-1.4-0.1-2.1-0.9-2-2.4l0.3-4.4l-1.1-0.1l0-0.5l1.1-0.4l0.6-1.6l0.7,0l-0.1,1.7l2.2,0.2l-0.1,0.9l-2.2-0.2l-0.3,4.4
		c0,0.5,0,0.8,0.2,1.1C1258.4,217.2,1258.7,217.3,1259.1,217.4z"/>
	<path d="M1265.8,211.3c0.3,0,0.6,0.1,0.9,0.2l-0.3,1c-0.3-0.1-0.6-0.2-0.8-0.2c-0.6-0.1-1.1,0.1-1.6,0.5c-0.5,0.4-0.8,1-0.9,1.7
		l-0.5,4l-1.1-0.1l0.9-7.4l0.9,0.1l0,1.4l0.1,0c0.3-0.4,0.7-0.8,1.1-1C1264.9,211.3,1265.3,211.2,1265.8,211.3z"/>
	<path d="M1271.5,220l0-1.1l-0.1,0c-0.5,0.4-0.9,0.6-1.3,0.7c-0.4,0.1-0.9,0.1-1.4,0c-0.7-0.1-1.3-0.4-1.6-0.9
		c-0.3-0.5-0.4-1-0.3-1.7c0.3-1.5,1.6-2,4-1.6l1.3,0.2l0.1-0.5c0.1-0.6,0.1-1-0.1-1.3c-0.2-0.3-0.6-0.5-1.1-0.6
		c-0.6-0.1-1.3-0.1-2.2,0.2l-0.2-0.9c0.4-0.1,0.8-0.2,1.3-0.2c0.5,0,0.9,0,1.3,0.1c0.9,0.2,1.5,0.5,1.8,1c0.3,0.5,0.4,1.1,0.3,2
		l-1,5L1271.5,220z M1269.1,218.7c0.7,0.1,1.3,0,1.7-0.3c0.5-0.3,0.8-0.8,0.9-1.5l0.1-0.7l-1.1-0.2c-0.9-0.1-1.6-0.1-2,0
		c-0.4,0.2-0.7,0.5-0.8,1c-0.1,0.4,0,0.7,0.2,1C1268.3,218.5,1268.7,218.6,1269.1,218.7z"/>
	<path d="M1277.3,221.6c-1-0.3-1.8-0.8-2.2-1.6c-0.4-0.8-0.4-1.8-0.1-3c0.3-1.2,0.9-2.1,1.6-2.6c0.8-0.5,1.7-0.6,2.8-0.3
		c0.3,0.1,0.7,0.2,1,0.4c0.3,0.2,0.6,0.3,0.7,0.5l-0.6,0.8c-0.2-0.2-0.5-0.3-0.7-0.5c-0.3-0.1-0.5-0.2-0.7-0.3
		c-1.5-0.4-2.5,0.3-3,2.2c-0.2,0.9-0.2,1.6,0,2.2c0.2,0.6,0.7,1,1.4,1.1c0.6,0.2,1.3,0.2,2,0.1l-0.3,1
		C1278.6,221.8,1278,221.8,1277.3,221.6z"/>
	<path d="M1286.3,216.3c0.3,0.1,0.6,0.2,0.8,0.4l-0.5,0.9c-0.3-0.2-0.5-0.3-0.7-0.4c-0.6-0.2-1.1-0.1-1.7,0.2
		c-0.6,0.3-1,0.8-1.2,1.5l-1.3,3.8l-1.1-0.4l2.4-7.1l0.9,0.3l-0.3,1.4l0.1,0c0.4-0.4,0.9-0.6,1.3-0.8
		C1285.5,216.1,1285.9,216.1,1286.3,216.3z"/>
	<path d="M1288.8,220.9l-1.6,3.8l-1.1-0.4l3.8-9.2l2.5,1c1.1,0.5,1.9,1,2.2,1.7c0.4,0.7,0.4,1.4,0,2.3c-0.5,1.2-1.5,1.8-2.9,1.7
		l0.8,5.2l-1.3-0.5l-0.7-4.8L1288.8,220.9z M1289.1,219.9l1.5,0.6c0.8,0.3,1.4,0.4,1.9,0.2c0.5-0.2,0.8-0.5,1.1-1.1
		c0.3-0.6,0.3-1.1,0-1.5c-0.2-0.4-0.8-0.8-1.6-1.1l-1.4-0.6L1289.1,219.9z"/>
	<path d="M1300.8,231.2l-1.2-0.6l-1-10l0,0c-0.4,0.9-0.8,1.7-1.2,2.4l-2.6,5l-1-0.5l4.6-8.9l1.2,0.6l1,9.9l0,0
		c0-0.1,0.2-0.5,0.5-1.1c0.3-0.6,0.5-1,0.6-1.3l2.7-5.1l1,0.5L1300.8,231.2z"/>
	<path d="M1308.2,235.9l0.7-3.3l-3.4-2.2l-2.8,2l-1-0.6l8.8-6.3l0.8,0.5l-2.2,10.6L1308.2,235.9z M1309.2,231.5l0.7-3.2
		c0.1-0.4,0.2-0.9,0.4-1.5c-0.3,0.3-0.7,0.6-1.1,1l-2.7,2L1309.2,231.5z"/>
	<path d="M1357,347.4c0.3-1.1,0.1-2-0.4-2.8c-0.6-0.8-1.4-1.4-2.7-1.7c-1.3-0.3-2.3-0.3-3.2,0.1s-1.4,1.2-1.7,2.3
		c-0.2,0.7-0.2,1.5-0.2,2.4l-1-0.3c-0.1-0.7,0-1.6,0.3-2.6c0.4-1.4,1.1-2.4,2.1-3s2.4-0.6,4-0.2c1,0.3,1.8,0.7,2.5,1.2
		c0.7,0.6,1.1,1.3,1.3,2.1s0.2,1.7,0,2.6c-0.3,1-0.7,1.9-1.2,2.5l-0.8-0.7C1356.4,348.8,1356.8,348.1,1357,347.4z"/>
	<path d="M1345.5,353.5l1.1,0.1l0-0.1c-0.3-0.5-0.5-1-0.5-1.4c0-0.4,0-0.9,0.2-1.4c0.2-0.7,0.6-1.2,1.1-1.5c0.5-0.3,1.1-0.3,1.8-0.1
		c1.4,0.5,1.8,1.9,1.1,4.2l-0.4,1.2l0.4,0.2c0.6,0.2,1,0.2,1.4,0.1c0.3-0.1,0.6-0.5,0.8-1c0.2-0.6,0.3-1.3,0.1-2.2l0.9,0
		c0.1,0.4,0.1,0.8,0.1,1.3s-0.1,0.9-0.3,1.3c-0.3,0.8-0.7,1.4-1.2,1.7c-0.5,0.3-1.2,0.3-2,0l-4.8-1.7L1345.5,353.5z M1347.1,351.4
		c-0.2,0.7-0.2,1.3,0,1.8c0.2,0.5,0.7,0.9,1.3,1.1l0.6,0.2l0.3-1.1c0.3-0.9,0.3-1.5,0.2-2s-0.4-0.8-0.9-0.9c-0.4-0.1-0.7-0.1-1,0
		C1347.5,350.6,1347.3,350.9,1347.1,351.4z"/>
	<path d="M1344.5,361.6c-0.6-0.3-1-0.7-1.2-1.3c-0.1-0.6,0-1.4,0.3-2.2c0.4-0.9,0.8-1.6,1.3-2l1,0.4c-0.3,0.3-0.6,0.6-0.8,0.9
		c-0.3,0.3-0.5,0.7-0.6,1c-0.2,0.5-0.3,1-0.3,1.4c0,0.4,0.3,0.6,0.6,0.8c0.3,0.1,0.5,0.1,0.8-0.1s0.7-0.5,1.3-1.1
		c0.5-0.5,0.9-0.9,1.2-1.1c0.3-0.2,0.6-0.3,0.9-0.3c0.3,0,0.6,0,0.9,0.1c0.6,0.2,0.9,0.7,1,1.2c0.1,0.6,0,1.3-0.3,2.1
		c-0.3,0.7-0.8,1.4-1.4,2l-0.7-0.7c0.6-0.6,1-1.1,1.2-1.7c0.2-0.5,0.3-0.9,0.2-1.2c0-0.3-0.2-0.5-0.5-0.6c-0.2-0.1-0.4-0.1-0.5-0.1
		c-0.2,0-0.4,0.1-0.6,0.3c-0.2,0.2-0.5,0.5-1,1c-0.6,0.7-1.2,1.1-1.6,1.3C1345.4,361.8,1344.9,361.8,1344.5,361.6z"/>
	<path d="M1344.2,370.3c-3.5-1.8-4.5-4-3.2-6.7c0.2-0.5,0.5-0.8,0.7-1.1l0.9,0.4c-0.3,0.3-0.5,0.6-0.7,1c-0.5,1-0.6,1.9-0.2,2.7
		s1.1,1.5,2.4,2.2l0-0.1c-0.2-0.4-0.3-0.8-0.3-1.3c0-0.5,0.1-0.9,0.4-1.4c0.4-0.8,1-1.3,1.7-1.5c0.7-0.2,1.5-0.1,2.3,0.3
		c0.9,0.5,1.5,1.1,1.8,1.9c0.3,0.8,0.2,1.6-0.2,2.5c-0.3,0.6-0.7,1.1-1.3,1.3c-0.5,0.3-1.2,0.4-1.9,0.4
		C1345.8,370.9,1345,370.7,1344.2,370.3z M1348.8,368.9c0.3-0.6,0.3-1.1,0.1-1.6c-0.2-0.5-0.7-0.9-1.3-1.3c-0.6-0.3-1.1-0.4-1.6-0.3
		c-0.5,0.1-0.9,0.5-1.2,1.1c-0.2,0.4-0.3,0.7-0.3,1.1c0,0.4,0.1,0.7,0.2,1c0.2,0.3,0.4,0.5,0.7,0.7c0.4,0.2,0.9,0.3,1.3,0.4
		s0.8-0.1,1.2-0.3C1348.3,369.5,1348.6,369.2,1348.8,368.9z"/>
</g>
<g>
	<path d="M139.5,70c0.2-0.1,0.4-0.1,0.5-0.2c0.2-0.1,0.3-0.2,0.4-0.2l0.3,0.8c-0.1,0.1-0.3,0.2-0.5,0.3s-0.4,0.2-0.6,0.2
		c-1.4,0.4-2.3-0.1-2.7-1.6l-1.3-4.3l-1,0.3l-0.2-0.5l0.9-0.8l0-1.7l0.6-0.2l0.5,1.7l2.1-0.6l0.3,0.8l-2.1,0.6l1.3,4.2
		c0.1,0.4,0.3,0.7,0.6,0.9C138.8,70.1,139.1,70.2,139.5,70z"/>
	<path d="M143.5,61.9c0.3-0.1,0.6-0.1,0.9-0.1l0.1,1.1c-0.3,0-0.6,0-0.8,0.1c-0.6,0.1-1,0.5-1.3,1.1c-0.3,0.6-0.4,1.2-0.2,1.9l1,3.9
		l-1.1,0.3l-1.8-7.3l0.9-0.2l0.5,1.3l0.1,0c0.2-0.5,0.4-1,0.7-1.3C142.6,62.3,143,62.1,143.5,61.9z"/>
	<path d="M151.9,68.1l-0.4-1l-0.1,0c-0.3,0.5-0.6,0.9-0.9,1.1c-0.3,0.2-0.8,0.4-1.3,0.5c-0.7,0.1-1.3,0-1.8-0.3
		c-0.5-0.3-0.8-0.8-0.9-1.5c-0.3-1.5,0.8-2.5,3.2-3l1.2-0.3l-0.1-0.5c-0.1-0.6-0.3-1-0.6-1.2c-0.3-0.2-0.7-0.3-1.3-0.2
		c-0.6,0.1-1.3,0.4-2,0.9l-0.5-0.8c0.3-0.3,0.7-0.5,1.1-0.7c0.4-0.2,0.8-0.3,1.3-0.4c0.9-0.2,1.6-0.1,2.1,0.2c0.5,0.3,0.8,0.9,1,1.8
		l0.9,5L151.9,68.1z M149.3,67.7c0.7-0.1,1.2-0.4,1.5-0.9c0.3-0.5,0.4-1,0.3-1.7l-0.1-0.7l-1.1,0.2c-0.9,0.2-1.5,0.4-1.8,0.8
		c-0.3,0.3-0.5,0.7-0.4,1.2c0.1,0.4,0.2,0.7,0.5,0.9C148.5,67.8,148.8,67.8,149.3,67.7z"/>
	<path d="M157.9,67.4c-1.1,0.1-1.9-0.1-2.6-0.7c-0.7-0.6-1.1-1.5-1.2-2.7c-0.1-1.2,0.1-2.2,0.6-3c0.5-0.7,1.3-1.2,2.5-1.3
		c0.4,0,0.7,0,1.1,0c0.4,0,0.7,0.1,0.9,0.2l-0.2,1c-0.3-0.1-0.5-0.1-0.8-0.2c-0.3,0-0.6,0-0.8,0c-1.5,0.2-2.2,1.2-2,3.1
		c0.1,0.9,0.4,1.6,0.8,2c0.4,0.5,1,0.6,1.7,0.6c0.6-0.1,1.2-0.3,1.9-0.6l0.1,1C159.3,67.2,158.7,67.4,157.9,67.4z"/>
	<path d="M164.5,59.2c0.3,0,0.6,0,0.9,0l-0.1,1.1c-0.3-0.1-0.6-0.1-0.8-0.1c-0.6,0-1.1,0.3-1.5,0.8c-0.4,0.5-0.6,1.1-0.6,1.9l0.2,4
		l-1.1,0.1l-0.4-7.5l0.9,0l0.2,1.4l0.1,0c0.3-0.5,0.6-0.9,1-1.2C163.6,59.4,164,59.3,164.5,59.2z"/>
	<path d="M168.4,62.7l-0.1,4.2l-1.2,0l0.2-10l2.7,0.1c1.2,0,2.1,0.3,2.7,0.8c0.6,0.5,0.9,1.2,0.8,2.1c0,1.3-0.7,2.2-2.1,2.6l2.6,4.5
		l-1.4,0l-2.3-4.2L168.4,62.7z M168.4,61.7l1.6,0c0.8,0,1.4-0.1,1.8-0.4c0.4-0.3,0.6-0.8,0.6-1.5c0-0.7-0.2-1.1-0.6-1.4
		c-0.4-0.3-1-0.5-1.9-0.5l-1.5,0L168.4,61.7z"/>
	<path d="M183.3,67.9l-1.3-0.2l-4.5-9l-0.1,0c0,1-0.1,1.9-0.2,2.7l-0.6,5.6l-1.1-0.1l1.1-9.9l1.3,0.1l4.5,8.9l0.1,0
		c0-0.1,0-0.5,0.1-1.2s0.1-1.1,0.1-1.4l0.6-5.7l1.1,0.1L183.3,67.9z"/>
	<path d="M191.9,69.7l-0.6-3.4l-3.9-0.8l-1.9,2.9l-1.2-0.2l5.9-9l1,0.2l1.8,10.6L191.9,69.7z M191.2,65.2l-0.5-3.3
		c-0.1-0.4-0.1-0.9-0.2-1.5c-0.2,0.4-0.4,0.8-0.7,1.3l-1.8,2.8L191.2,65.2z"/>
	<path d="M278.1,167.8c0-1.1-0.4-2-1.1-2.6c-0.7-0.6-1.7-0.9-3-0.9c-1.3,0-2.3,0.3-3,1s-1.1,1.5-1,2.6c0,0.7,0.1,1.5,0.4,2.4l-1,0
		c-0.3-0.7-0.4-1.5-0.4-2.6c0-1.5,0.4-2.6,1.3-3.4c0.9-0.8,2.1-1.2,3.8-1.2c1,0,1.9,0.2,2.7,0.5c0.8,0.4,1.4,0.9,1.8,1.6
		c0.4,0.7,0.6,1.6,0.7,2.6c0,1-0.2,2-0.5,2.8l-1-0.5C278,169.3,278.1,168.6,278.1,167.8z"/>
	<path d="M268.7,176.7l1.1-0.2l0-0.1c-0.4-0.4-0.7-0.8-0.9-1.2c-0.1-0.4-0.2-0.9-0.2-1.4c0.1-0.7,0.3-1.3,0.7-1.7s1-0.6,1.7-0.5
		c1.5,0.1,2.2,1.4,2.1,3.8l0,1.3l0.5,0c0.6,0,1-0.1,1.3-0.3c0.3-0.2,0.5-0.6,0.5-1.2c0-0.6-0.1-1.3-0.4-2.2l0.9-0.3
		c0.2,0.4,0.3,0.8,0.4,1.2c0.1,0.4,0.1,0.9,0.1,1.3c-0.1,0.9-0.3,1.5-0.7,1.9c-0.4,0.4-1.1,0.6-1.9,0.5l-5.1-0.3L268.7,176.7z
		 M269.6,174.2c0,0.7,0.1,1.3,0.5,1.7c0.4,0.4,0.9,0.7,1.6,0.7l0.7,0l0-1.1c0-0.9-0.1-1.6-0.3-2c-0.2-0.4-0.6-0.6-1.1-0.7
		c-0.4,0-0.7,0.1-1,0.3C269.8,173.4,269.7,173.7,269.6,174.2z"/>
	<path d="M269.7,184.7c-0.7-0.1-1.2-0.4-1.5-1c-0.3-0.6-0.4-1.3-0.3-2.2c0.1-1,0.4-1.7,0.8-2.2l1,0.1c-0.2,0.3-0.4,0.7-0.6,1.1
		s-0.3,0.8-0.3,1.2c-0.1,0.6,0,1.1,0.1,1.4c0.1,0.3,0.4,0.5,0.8,0.6c0.3,0,0.6-0.1,0.8-0.3c0.2-0.2,0.5-0.7,0.9-1.4
		c0.4-0.7,0.6-1.1,0.9-1.4c0.2-0.3,0.5-0.5,0.7-0.6c0.3-0.1,0.6-0.1,0.9-0.1c0.6,0.1,1,0.4,1.3,0.9s0.4,1.2,0.2,2.1
		c-0.1,0.8-0.4,1.6-0.8,2.3l-0.9-0.5c0.4-0.7,0.7-1.4,0.7-2c0.1-0.5,0-0.9-0.1-1.2c-0.1-0.3-0.3-0.5-0.6-0.5c-0.2,0-0.4,0-0.5,0.1
		c-0.2,0.1-0.3,0.2-0.5,0.4c-0.2,0.2-0.4,0.6-0.7,1.2c-0.4,0.8-0.8,1.4-1.2,1.7C270.6,184.7,270.2,184.8,269.7,184.7z"/>
	<path d="M271.8,193.2c-3.8-0.8-5.4-2.7-4.8-5.6c0.1-0.5,0.2-0.9,0.4-1.2l1,0.2c-0.2,0.3-0.3,0.7-0.4,1.2c-0.2,1.1-0.1,1.9,0.5,2.6
		c0.5,0.7,1.5,1.2,2.9,1.5l0-0.1c-0.3-0.3-0.5-0.7-0.6-1.2c-0.1-0.4-0.1-0.9,0-1.4c0.2-0.9,0.6-1.5,1.2-1.9c0.6-0.4,1.4-0.5,2.3-0.3
		c1,0.2,1.8,0.7,2.2,1.4c0.5,0.7,0.6,1.5,0.4,2.4c-0.1,0.7-0.4,1.2-0.9,1.6c-0.4,0.4-1,0.7-1.7,0.8
		C273.5,193.4,272.7,193.4,271.8,193.2z M275.8,190.6c0.1-0.6,0-1.2-0.3-1.6c-0.3-0.4-0.9-0.7-1.6-0.9c-0.6-0.1-1.2-0.1-1.6,0.2
		c-0.4,0.2-0.7,0.7-0.9,1.3c-0.1,0.4-0.1,0.8,0,1.2c0.1,0.4,0.3,0.7,0.5,0.9c0.2,0.3,0.5,0.4,0.8,0.5c0.5,0.1,0.9,0.1,1.4,0
		c0.4-0.1,0.8-0.3,1.1-0.6C275.6,191.4,275.7,191,275.8,190.6z"/>
</g>
<g>
	<path d="M76.2,405.5c-0.5,1-0.6,1.9-0.3,2.8c0.3,0.9,1.1,1.7,2.2,2.3c1.1,0.6,2.2,0.8,3.1,0.6c0.9-0.2,1.6-0.8,2.2-1.8
		c0.3-0.6,0.6-1.4,0.8-2.3l0.9,0.5c-0.1,0.7-0.4,1.5-0.9,2.4c-0.7,1.3-1.6,2.1-2.8,2.3c-1.2,0.3-2.5,0-3.9-0.8
		c-0.9-0.5-1.6-1.1-2.1-1.8c-0.5-0.7-0.8-1.5-0.8-2.3s0.2-1.7,0.7-2.6c0.5-0.9,1.1-1.6,1.8-2.1l0.6,0.9
		C77,404.2,76.5,404.8,76.2,405.5z"/>
	<path d="M91.6,398.3l-4-2.8c-0.5-0.3-0.9-0.5-1.3-0.4c-0.4,0-0.7,0.3-1,0.7c-0.4,0.6-0.5,1.1-0.4,1.6c0.1,0.5,0.6,1,1.3,1.5
		l3.4,2.4l-0.6,0.9l-4-2.8c-0.5-0.3-0.9-0.5-1.3-0.4s-0.7,0.3-1,0.7c-0.4,0.6-0.5,1.1-0.4,1.6c0.2,0.5,0.6,1,1.4,1.6l3.2,2.2
		l-0.6,0.9l-6.2-4.3l0.5-0.8l0.9,0.4l0,0c-0.2-0.4-0.2-0.8-0.2-1.2c0.1-0.4,0.2-0.9,0.5-1.3c0.7-1,1.5-1.4,2.4-1.2l0,0
		c-0.2-0.4-0.3-0.8-0.2-1.3c0.1-0.5,0.2-0.9,0.5-1.4c0.5-0.7,1-1.1,1.6-1.2c0.6-0.1,1.3,0.1,2.1,0.7l4,2.8L91.6,398.3z"/>
	<path d="M91.3,392.1l3.2,2.7l-0.8,0.9l-7.6-6.5l1.8-2.1c0.8-0.9,1.6-1.5,2.3-1.6c0.7-0.1,1.5,0.1,2.2,0.7c1,0.9,1.2,2,0.7,3.3
		l5.2,0.9l-0.9,1l-4.7-0.9L91.3,392.1z M90.6,391.4l1-1.2c0.5-0.6,0.8-1.2,0.8-1.7c0-0.5-0.2-1-0.7-1.4c-0.5-0.4-1-0.6-1.5-0.5
		c-0.5,0.1-1,0.5-1.6,1.1l-1,1.1L90.6,391.4z"/>
	<path d="M244.4,378.5c-0.6,0.8-1.4,1.2-2.3,1.1c-0.9,0-1.8-0.5-2.8-1.3l-0.9-0.8l-2.5,3l-0.9-0.7l6.4-7.7l2,1.7
		C245.3,375.5,245.7,377,244.4,378.5z M239.1,376.8l0.8,0.7c0.8,0.7,1.5,1,2,1.1s1.1-0.2,1.6-0.8c0.4-0.5,0.6-1,0.5-1.5
		c-0.1-0.5-0.5-1.1-1.2-1.7l-1-0.8L239.1,376.8z"/>
	<path d="M243.8,387.7l-0.8-0.8l5-5.1c0.4-0.4,0.8-0.8,1.2-1.2c-0.1,0-0.3,0-0.4,0c-0.2,0-0.9-0.1-2.1-0.2l0.1-1l3.3,0.4l0.7,0.7
		L243.8,387.7z"/>
	<path d="M253,388.6c0.7,0.8,1,1.6,1,2.4c0,0.8-0.3,1.5-1,2.1c-0.8,0.7-1.6,1-2.5,0.9c-0.9-0.1-1.7-0.6-2.5-1.5
		c-0.7-0.8-1.2-1.6-1.3-2.3l0.8-0.7c0.1,0.4,0.2,0.8,0.4,1.2c0.2,0.4,0.5,0.8,0.8,1.2c0.5,0.6,1.1,0.9,1.7,1
		c0.6,0.1,1.1-0.1,1.7-0.6c1.1-0.9,1-2-0.1-3.3c-0.3-0.3-0.7-0.7-1.3-1.2l-0.1-0.7l3.8-2.8l3.3,3.7l-0.8,0.7l-2.6-3l-2.4,1.8
		C252.3,387.8,252.7,388.2,253,388.6z"/>
	<path d="M255.6,401.8l1.8-2.9l-2.4-3.2l-3.3,0.9l-0.7-0.9l10.4-2.8l0.6,0.8l-5.7,9.1L255.6,401.8z M258.1,398l1.8-2.8
		c0.2-0.4,0.5-0.8,0.9-1.2c-0.4,0.2-0.9,0.3-1.4,0.5l-3.2,0.9L258.1,398z"/>
	<path d="M267.5,411.9c-1.4,0.8-2.7,1-3.9,0.8c-1.2-0.3-2.1-1-2.8-2.3c-0.7-1.3-0.9-2.5-0.5-3.6c0.4-1.1,1.3-2.1,2.8-2.9
		c1.4-0.8,2.7-1.1,3.9-0.8c1.2,0.3,2.1,1,2.8,2.3c0.7,1.3,0.8,2.5,0.4,3.6C269.8,410.1,268.9,411.1,267.5,411.9z M263.6,404.9
		c-1.2,0.7-1.9,1.4-2.3,2.2c-0.3,0.8-0.2,1.7,0.3,2.7c0.5,1,1.2,1.5,2.1,1.7c0.9,0.2,1.9-0.1,3.1-0.8c1.2-0.7,1.9-1.4,2.3-2.2
		c0.3-0.8,0.2-1.7-0.3-2.7c-0.5-1-1.3-1.5-2.1-1.7C265.8,404,264.8,404.3,263.6,404.9z"/>
	<path d="M272.2,416c0.1,0.3,0.2,0.6,0.3,0.8l-1,0.3c-0.1-0.3-0.1-0.6-0.2-0.8c-0.3-0.6-0.7-0.9-1.3-1.1c-0.6-0.2-1.3-0.1-1.9,0.2
		l-3.7,1.7l-0.5-1l6.8-3.1l0.4,0.9l-1.2,0.7l0,0.1c0.6,0.1,1,0.2,1.4,0.4S272,415.5,272.2,416z"/>
	<path d="M266.5,422.2l-0.4-1.1l7-2.8l0.4,1.1L266.5,422.2z M274.9,417.5c0.2-0.1,0.4-0.1,0.6,0c0.2,0.1,0.3,0.2,0.3,0.4
		c0.1,0.2,0.1,0.3,0,0.5c-0.1,0.2-0.2,0.3-0.5,0.4c-0.2,0.1-0.4,0.1-0.6,0c-0.2-0.1-0.3-0.2-0.3-0.4c-0.1-0.2-0.1-0.3,0-0.5
		C274.5,417.8,274.6,417.6,274.9,417.5z"/>
</g>
</svg>
