<?xml version="1.0" encoding="utf-8"?>
<!-- Generator: Adobe Illustrator 25.2.1, SVG Export Plug-In . SVG Version: 6.00 Build 0)  -->
<svg version="1.1" id="图层_1" xmlns="http://www.w3.org/2000/svg" xmlns:xlink="http://www.w3.org/1999/xlink" x="0px" y="0px"
	 viewBox="0 0 2253.7 768" style="enable-background:new 0 0 2253.7 768;" xml:space="preserve">
<style type="text/css">
	.st0{fill:#D7DCE3;}
	.st1{fill:#C2D7EC;}
	.st2{fill:#FAE5A2;}
	.st3{fill:none;}
	.st4{fill:#C2D8CC;}
	.st5{font-family:'ArialMT';}
	.st6{font-size:12px;}
	.st7{font-family:'OpenSans-Regular';}
	.st8{font-size:11.8467px;}
	.st9{fill:#FE9895;}
	.st10{fill:#CBDEB7;}
	.st11{fill:#F9BD9D;}
	.st12{stroke:#000000;stroke-miterlimit:10;}
	.st13{font-size:16px;}
	.st14{fill:none;stroke:#000000;stroke-miterlimit:10;}
	.st15{font-family:'OpenSans-Bold';}
	.st16{font-size:24px;}
	.st17{font-size:14px;}
	.st18{fill:#8896AE;}
	.st19{font-size:18px;}
	.st20{fill:none;stroke:#444444;stroke-miterlimit:10;}
	.st21{fill:#F9D878;stroke:#000000;stroke-miterlimit:10;}
	.st22{stroke:#444444;stroke-miterlimit:10;}
	.st23{fill:#7DAA54;}
	.st24{font-size:72px;}
</style>
<defs>
    <filter id="f1" x="0" y="0" width="200%" height="200%">
      <feOffset result="offOut" in="SourceGraphic" dx="0" dy="0" />
      <feGaussianBlur result="blurOut" in="offOut" stdDeviation="15" />
      <feBlend in="SourceGraphic" in2="blurOut" mode="normal" />
    </filter>
  </defs>
<path class="st0" d="M195,660.3c64.5,0,116.9-52.3,116.9-116.9c0-64.5-52.3-116.9-116.9-116.9S78.2,478.8,78.2,543.4
	C78.2,607.9,130.5,660.3,195,660.3z M195,444.7c54.5,0,98.7,44.2,98.7,98.7s-44.2,98.7-98.7,98.7s-98.7-44.2-98.7-98.7
	C96.4,488.9,140.5,444.7,195,444.7z"/>
<path class="st1" d="M295.5,545.4l18.4,0.6c1.8,0.1,3.3-1.4,3.4-3.3c0.1-50.1-30.9-93.9-75.8-111.6c-1.7-0.7-3.6,0.2-4.3,1.9
	l-6.3,17.3c-0.6,1.6,0.2,3.5,1.8,4.1c35.2,14.1,59.5,48.4,59.6,87.7C292.4,543.9,293.8,545.3,295.5,545.4z"/>
<path class="st2" d="M98.4,523.5c1.3,0.3,2.6-0.6,2.9-1.9l0,0c9.7-42.4,46.4-71.7,87.9-73.7c1.4-0.1,2.4-1.2,2.4-2.6l-0.5-19.9
	c0-1.4-1.2-2.5-2.6-2.4C136,425.2,89.3,462.2,77,516c-0.1,0.2-0.1,0.5-0.2,0.7c-0.3,1.4,0.6,2.7,2,3L98.4,523.5z"/>
<line class="st3" x1="195.2" y1="542.9" x2="195" y2="543.4"/>
<path class="st4" d="M289.9,540c0-0.1,0-0.1,0-0.2"/>
<polygon class="st4" points="194.9,542.9 195,543.4 195.2,542.9 "/>
<path class="st4" d="M289.9,540l24.9-0.9V539l-24.9,0.8C289.9,539.9,289.9,540,289.9,540z"/>
<path class="st4" d="M100.2,545.9l-24.9,0.8v0.1l24.9-0.7C100.2,546,100.2,545.9,100.2,545.9z"/>
<path id="SVGID_x5F_1_x5F_" class="st3" d="M224.6,642.5c-55,16.2-112.8-15.2-129-70.3s15.2-112.8,70.3-129
	c55-16.2,112.8,15.2,129,70.3C311.1,568.5,279.6,626.3,224.6,642.5z"/>
<text transform="matrix(0.6901 -0.7237 0.7237 0.6901 116.8776 471.2893)" class="st5 st6"> </text>
<text transform="matrix(0.7121 -0.7021 0.7021 0.7121 119.1797 468.8771)" class="st7 st8">J</text>
<text transform="matrix(0.7438 -0.6684 0.6684 0.7438 121.4049 466.6245)" class="st7 st8">2</text>
<text transform="matrix(0.7853 -0.6191 0.6191 0.7853 126.4453 462.0954)" class="st7 st8">3</text>
<text transform="matrix(0.8239 -0.5668 0.5668 0.8239 131.7662 457.9002)" class="st7 st8">1</text>
<text transform="matrix(0.8592 -0.5117 0.5117 0.8592 137.3489 454.0597)" class="st7 st8">1</text>
<text transform="matrix(0.8537 -0.5208 0.5208 0.8537 143.5566 450.6209)" class="st7 st8">9</text>
<text class="st5 st6"> </text>
<path id="SVGID_x5F_2_x5F_" class="st3" d="M94.5,546.8c0-57.4,46.5-103.9,103.9-103.9s103.9,46.5,103.9,103.9
	s-46.5,103.9-103.9,103.9S94.5,604.2,94.5,546.8z"/>
<text transform="matrix(0.4981 0.8671 -0.8671 0.4981 277.1837 474.0179)" class="st5 st6"> </text>
<text transform="matrix(0.4562 0.8899 -0.8899 0.4562 278.8777 476.8914)" class="st7 st8">g</text>
<text transform="matrix(0.3956 0.9184 -0.9184 0.3956 281.8528 482.6635)" class="st7 st8">R</text>
<text transform="matrix(0.3222 0.9467 -0.9467 0.3222 284.7803 489.3819)" class="st7 st8">N</text>
<text transform="matrix(0.3633 0.9317 -0.9317 0.3633 289.3258 497.4617)" class="st7 st8">A</text>
<text class="st5 st6"> </text>
<path class="st9" d="M285.2,559.8l0.3-2.8c0.1-0.5,0.6-0.9,1.1-0.9l32,3.9c0.5,0.1,0.9,0.6,0.9,1.1l-0.3,2.8
	c-0.1,0.5-0.6,0.9-1.1,0.9l-32-3.9C285.5,560.9,285.1,560.4,285.2,559.8z"/>
<path class="st9" d="M217.4,422.1l-2.8-0.3c-0.5-0.1-1,0.3-1.1,0.9l-3.9,32c-0.1,0.5,0.3,1,0.9,1.1l2.8,0.3c0.5,0.1,1-0.3,1.1-0.9
	l3.9-32C218.3,422.7,217.9,422.2,217.4,422.1z"/>
<path class="st0" d="M192.8,346.2c64.5,0,116.9-52.3,116.9-116.9s-52.3-116.9-116.9-116.9S76,164.8,76,229.4
	S128.3,346.2,192.8,346.2z M192.8,130.7c54.5,0,98.7,44.2,98.7,98.7s-44.2,98.7-98.7,98.7s-98.7-44.2-98.7-98.7
	S138.3,130.7,192.8,130.7z"/>
<path class="st10" d="M293.3,231.4l18.4,0.6c1.8,0.1,3.3-1.4,3.4-3.3c0.1-50.1-30.9-93.9-75.8-111.6c-1.7-0.7-3.6,0.2-4.3,1.9
	l-6.3,17.3c-0.6,1.6,0.2,3.5,1.8,4.1c35.2,14.1,59.5,48.4,59.6,87.7C290.2,229.9,291.6,231.3,293.3,231.4z"/>
<path class="st11" d="M96.2,209.4c1.3,0.3,2.6-0.6,2.9-1.9l0,0c9.7-42.4,46.4-71.7,87.9-73.7c1.4-0.1,2.4-1.2,2.4-2.6l-0.5-19.9
	c0-1.4-1.2-2.5-2.6-2.4c-52.5,2.3-99.2,39.3-111.5,93c-0.1,0.2-0.1,0.5-0.2,0.7c-0.3,1.4,0.6,2.7,2,3L96.2,209.4z"/>
<line class="st3" x1="193" y1="228.8" x2="192.8" y2="229.4"/>
<path class="st4" d="M287.7,226c0-0.1,0-0.1,0-0.2"/>
<polygon class="st4" points="192.7,228.9 192.8,229.4 193,228.8 "/>
<path class="st4" d="M287.7,226l24.9-0.9V225l-24.9,0.8C287.7,225.9,287.7,226,287.7,226z"/>
<path class="st4" d="M98,231.9l-24.9,0.8v0.1l24.9-0.7C98,232,98,231.9,98,231.9z"/>
<path id="SVGID_x5F_3_x5F_" class="st3" d="M222.4,328.5c-55,16.2-112.8-15.2-129-70.3s15.2-112.8,70.3-129s112.8,15.2,129,70.3
	C308.9,254.5,277.4,312.3,222.4,328.5z"/>
<text transform="matrix(0.7238 -0.6901 0.6901 0.7238 114.4818 158.0559)" class="st5 st6"> </text>
<text transform="matrix(0.7581 -0.6521 0.6521 0.7581 116.8603 155.7159)" class="st7 st8">C</text>
<text transform="matrix(0.8004 -0.5995 0.5995 0.8004 122.5349 150.8485)" class="st7 st8">X</text>
<text transform="matrix(0.8394 -0.5435 0.5435 0.8394 128.0035 146.7388)" class="st7 st8">C</text>
<text transform="matrix(0.8732 -0.4874 0.4874 0.8732 134.2894 142.694)" class="st7 st8">L</text>
<text transform="matrix(0.9019 -0.432 0.432 0.9019 139.6562 139.6867)" class="st7 st8">9</text>
<text class="st5 st6"> </text>
<path id="SVGID_x5F_4_x5F_" class="st3" d="M92.3,232.8c0-57.4,46.5-103.9,103.9-103.9s103.9,46.5,103.9,103.9
	s-46.5,103.9-103.9,103.9S92.3,290.2,92.3,232.8z"/>
<text transform="matrix(0.67 0.7423 -0.7423 0.67 270.7382 157.2279)" class="st5 st6"> </text>
<text transform="matrix(0.6168 0.7871 -0.7871 0.6168 273.0753 159.62)" class="st7 st8">m</text>
<text transform="matrix(0.5445 0.8388 -0.8388 0.5445 279.8086 168.3469)" class="st7 st8">R</text>
<text transform="matrix(0.477 0.8789 -0.8789 0.477 283.825 174.4764)" class="st7 st8">N</text>
<text transform="matrix(0.3968 0.9179 -0.9179 0.3968 287.8988 182.408)" class="st7 st8">A</text>
<text class="st5 st6"> </text>
<path class="st9" d="M68.5,231.4l0.1-2.9c0-0.6,0.5-1,1-0.9l32.2,1.5c0.6,0,1,0.5,0.9,1l-0.1,2.9c0,0.6-0.5,1-1,0.9l-32.2-1.5
	C68.9,232.4,68.4,231.9,68.5,231.4z"/>
<path class="st9" d="M215.2,108.1l-2.8-0.3c-0.5-0.1-1,0.3-1.1,0.9l-3.9,32c-0.1,0.5,0.3,1,0.9,1.1l2.8,0.3c0.5,0.1,1-0.3,1.1-0.9
	l3.9-32C216.1,108.7,215.7,108.2,215.2,108.1z"/>
<polyline class="st12" points="384.4,225 384.4,230.9 405.1,225 384.4,218.6 384.4,225 339.4,225 "/>
<polyline class="st12" points="384.4,546.3 384.4,552.2 405.1,546.3 384.4,539.9 384.4,546.3 339.4,546.3 "/>
<path class="st0" d="M748.9,235.3H432c-1.4,0-2.6-1.3-2.6-3v-16.6c0-1.6,1.1-3,2.6-3h316.9c1.4,0,2.6,1.3,2.6,3v16.6
	C751.5,234,750.2,235.3,748.9,235.3z"/>
<path class="st11" d="M576.6,239.8H451c-1.6,0-3-1.9-3-4.2v-23.1c0-2.3,1.4-4.2,3-4.2h125.7c1.6,0,3,1.9,3,4.2v23.1
	C579.6,237.9,578.3,239.8,576.6,239.8z"/>
<rect x="491.6" y="216.2" class="st3" width="88" height="27.6"/>
<text transform="matrix(1 0 0 1 491.6491 230.0062)" class="st7 st13">CXCL9</text>
<rect x="728.1" y="219" class="st3" width="88" height="27.6"/>
<g>
	<path class="st3" d="M623.1,460l-1,8.4c-0.1,0.5-0.6,0.9-1.1,0.9l-2.8-0.3c-0.5-0.1-0.9-0.6-0.9-1.1l1.1-8.7
		c-5-0.8-10.2-1.2-15.5-1.2c-1.2,0-2.3,0-3.5,0.1v0.5c0,1.4-1,2.5-2.4,2.6c-41.4,2-78.2,31.2-87.9,73.7l0,0
		c-0.3,1.3-1.6,2.2-2.9,1.9c-1.3,6.4-2,13.1-2,19.9c0,0.9,0,1.7,0,2.6l3.8-0.1c0,0.1,0,0.1,0,0.2l-3.8,0.1
		c1.5,53.2,45.1,95.9,98.6,95.9c48.2,0,88.4-34.6,97-80.4l-6-0.7c-0.5-0.1-0.9-0.6-0.9-1.1 M602.9,556.6l-0.1-0.5h0.3L602.9,556.6z"
		/>
	<g>
		<path class="st0" d="M504.2,556.6c0-6.8,0.7-13.5,2-19.9l0,0l-17.8-3.5c-1.5,7.6-2.3,15.4-2.3,23.4c0,1.1,0,2.1,0,3.2l18.2-0.6
			C504.2,558.3,504.2,557.5,504.2,556.6z"/>
		<path class="st0" d="M699.8,574.9c-8.6,45.8-48.7,80.4-97,80.4c-53.6,0-97.2-42.7-98.6-95.9l-18.2,0.5
			c1.8,63,53.4,113.5,116.8,113.5c57.5,0,105.4-41.6,115.1-96.3L699.8,574.9z"/>
		<path class="st0" d="M602.9,457.9c5.3,0,10.4,0.4,15.5,1.2l2.2-18.1c-5.8-0.9-11.7-1.3-17.7-1.3c-1.3,0-2.6,0-3.9,0.1l0.4,18.2
			C600.5,458,601.7,457.9,602.9,457.9z"/>
	</g>
	<path class="st2" d="M598.9,439.8v-1.2c0-1.4-1.2-2.5-2.6-2.4c-52.5,2.3-99.2,39.3-111.5,93c-0.1,0.2-0.1,0.5-0.2,0.7
		c-0.3,1.4,0.6,2.7,2,3l1.7,0.3C498.9,481.1,544.2,441.6,598.9,439.8z"/>
	<path class="st2" d="M509.1,534.8C509.1,534.7,509.1,534.7,509.1,534.8c9.7-42.5,46.4-71.7,87.9-73.7c1.4-0.1,2.4-1.2,2.4-2.6V458
		c-46.1,1.6-84.2,34.8-93.2,78.7C507.5,536.9,508.8,536.1,509.1,534.8z"/>
	<path class="st2" d="M506.2,536.7c9-43.9,47.1-77.1,93.2-78.7l-0.4-18.2c-54.8,1.8-100,41.3-110.6,93.4L506.2,536.7L506.2,536.7z"
		/>
	<polygon class="st4" points="602.9,556.6 603,556.1 602.7,556.1 	"/>
	<path class="st4" d="M483.1,559.9L483.1,559.9h2.9v-0.1L483.1,559.9z"/>
	<path class="st4" d="M508,559.1l-3.8,0.1c0,0.1,0,0.1,0,0.2l3.8-0.1C508,559.2,508,559.2,508,559.1z"/>
	<path class="st4" d="M504.2,559.2l-18.2,0.6v0.1l18.2-0.5C504.2,559.4,504.2,559.3,504.2,559.2z"/>
	<path class="st9" d="M699.8,574.9l18.1,2.2"/>
</g>
<path id="SVGID_x5F_5_x5F_" class="st3" d="M632.4,655.7c-55,16.2-112.8-15.2-129-70.3c-16.2-55,15.2-112.8,70.3-129
	c55-16.2,112.8,15.2,129,70.3C718.9,581.7,687.4,639.5,632.4,655.7z"/>
<text transform="matrix(0.6885 -0.7252 0.7252 0.6885 525.5439 484.4562)" class="st5 st6"> </text>
<text transform="matrix(0.7106 -0.7036 0.7036 0.7106 527.8411 482.0389)" class="st7 st8">J</text>
<text transform="matrix(0.7425 -0.6698 0.6698 0.7425 530.0612 479.7816)" class="st7 st8">2</text>
<text transform="matrix(0.7841 -0.6206 0.6206 0.7841 535.0922 475.2432)" class="st7 st8">3</text>
<text transform="matrix(0.8228 -0.5684 0.5684 0.8228 540.4052 471.0365)" class="st7 st8">1</text>
<text transform="matrix(0.8582 -0.5134 0.5134 0.8582 545.9802 467.1861)" class="st7 st8">1</text>
<text transform="matrix(0.89 -0.456 0.456 0.89 551.7955 463.7068)" class="st7 st8">9</text>
<text class="st5 st6"> </text>
<path class="st14" d="M773.9,224h35.8c7.1,0,12.9,8.4,12.9,18.8v286.7c0,9.6-5.3,17.3-11.8,17.3h-36.9"/>
<polyline class="st12" points="945.6,388 945.6,393.9 966.4,388 945.6,381.6 945.6,388 822.6,388 "/>
<text transform="matrix(1 0 0 1 832.6124 379.2247)" class="st15 st16">one step </text>
<text transform="matrix(1 0 0 1 843.6124 408.0247)" class="st15 st16">cloning</text>
<path class="st0" d="M1102.9,507.4c64.5,0,116.9-52.3,116.9-116.9s-52.3-116.9-116.9-116.9c-64.5,0-116.9,52.3-116.9,116.9
	S1038.3,507.4,1102.9,507.4z M1102.9,291.9c54.5,0,98.7,44.2,98.7,98.7s-44.2,98.7-98.7,98.7s-98.7-44.2-98.7-98.7
	C1004.2,336,1048.4,291.9,1102.9,291.9z"/>
<path class="st11" d="M1203.3,392.6l18.4,0.6c1.8,0.1,3.3-1.4,3.4-3.3c0.1-50.1-30.9-93.9-75.8-111.6c-1.7-0.7-3.6,0.2-4.3,1.9
	l-6.3,17.3c-0.6,1.6,0.2,3.5,1.8,4.1c35.2,14.1,59.5,48.4,59.6,87.7C1200.2,391.1,1201.6,392.5,1203.3,392.6z"/>
<path class="st2" d="M1006.2,370.6c1.3,0.3,2.6-0.6,2.9-1.9l0,0c9.7-42.4,46.4-71.7,87.9-73.7c1.4-0.1,2.4-1.2,2.4-2.6l-0.5-19.9
	c0-1.4-1.2-2.5-2.6-2.4c-52.5,2.3-99.2,39.3-111.5,93c-0.1,0.2-0.1,0.5-0.2,0.7c-0.3,1.4,0.6,2.7,2,3L1006.2,370.6z"/>
<line class="st3" x1="1103" y1="390" x2="1102.9" y2="390.5"/>
<path class="st4" d="M1197.7,387.2c0-0.1,0-0.1,0-0.2"/>
<polygon class="st4" points="1102.7,390 1102.9,390.5 1103,390 "/>
<path class="st4" d="M1197.7,387.2l24.9-0.9v-0.1l-24.9,0.8C1197.7,387.1,1197.7,387.1,1197.7,387.2z"/>
<path class="st4" d="M1008,393l-24.9,0.8v0.1l24.9-0.7C1008,393.2,1008,393.1,1008,393z"/>
<path id="SVGID_x5F_6_x5F_" class="st3" d="M1132.4,489.7c-55,16.2-112.8-15.2-129-70.3s15.2-112.8,70.3-129
	c55-16.2,112.8,15.2,129,70.3C1218.9,415.7,1187.4,473.4,1132.4,489.7z"/>
<text transform="matrix(0.6666 -0.7454 0.7454 0.6666 1023.3402 323.9907)" class="st5 st6"> </text>
<text transform="matrix(0.6893 -0.7245 0.7245 0.6893 1025.5638 321.506)" class="st7 st8">J</text>
<text transform="matrix(0.7221 -0.6918 0.6918 0.7221 1027.7164 319.1838)" class="st7 st8">2</text>
<text transform="matrix(0.7651 -0.6439 0.6439 0.7651 1032.6096 314.4962)" class="st7 st8">3</text>
<text transform="matrix(0.8054 -0.5928 0.5928 0.8054 1037.7942 310.1336)" class="st7 st8">1</text>
<text transform="matrix(0.8424 -0.5389 0.5389 0.8424 1043.2511 306.1169)" class="st7 st8">1</text>
<text transform="matrix(0.8759 -0.4825 0.4825 0.8759 1048.9597 302.4649)" class="st7 st8">9</text>
<text class="st5 st6"> </text>
<path id="SVGID_x5F_7_x5F_" class="st3" d="M1002.3,393.9c0-57.4,46.5-103.9,103.9-103.9s103.9,46.5,103.9,103.9
	s-46.5,103.9-103.9,103.9S1002.3,451.3,1002.3,393.9z"/>
<text transform="matrix(0.8821 0.4711 -0.4711 0.8821 1154.0411 301.7739)" class="st5 st6"> </text>
<text transform="matrix(0.8657 0.5006 -0.5006 0.8657 1156.9833 303.3426)" class="st7 st17"> </text>
<text transform="matrix(0.8475 0.5309 -0.5309 0.8475 1160.1318 305.1643)" class="st7 st17"> </text>
<text transform="matrix(0.8282 0.5604 -0.5604 0.8282 1163.2146 307.0942)" class="st7 st17"> </text>
<text transform="matrix(0.8079 0.5893 -0.5893 0.8079 1166.2266 309.1326)" class="st7 st17"> </text>
<text transform="matrix(0.7867 0.6173 -0.6173 0.7867 1169.1654 311.2757)" class="st7 st17"> </text>
<text transform="matrix(0.7645 0.6446 -0.6446 0.7645 1172.0261 313.521)" class="st7 st17"> </text>
<text transform="matrix(0.7415 0.671 -0.671 0.7415 1174.806 315.8662)" class="st7 st17"> </text>
<text transform="matrix(0.7001 0.714 -0.714 0.7001 1177.5586 318.2512)" class="st7 st17">C</text>
<text transform="matrix(0.6408 0.7677 -0.7677 0.6408 1183.7338 324.5714)" class="st7 st17">X</text>
<text transform="matrix(0.5771 0.8167 -0.8167 0.5771 1188.9261 330.7686)" class="st7 st17">C</text>
<text transform="matrix(0.5122 0.8589 -0.8589 0.5122 1194 338.0016)" class="st7 st17">L</text>
<text transform="matrix(0.4474 0.8943 -0.8943 0.4474 1197.7358 344.239)" class="st7 st17">9</text>
<text class="st5 st6"> </text>
<polyline class="st12" points="1351.9,390.2 1351.9,396.2 1372.7,390.2 1351.9,383.8 1351.9,390.2 1245.5,391.9 "/>
<rect x="1245.5" y="371.8" class="st3" width="137.4" height="20.1"/>
<text transform="matrix(1 0 0 1 1248.2192 384.1388)" class="st15 st16">transfer </text>
<polyline class="st12" points="1538.5,391.8 1538.5,397.7 1559.2,391.8 1538.5,385.4 1538.5,391.8 1482.7,391.8 "/>
<circle class="st0" cx="1645.6" cy="395.1" r="66"/>
<circle class="st18" cx="1645.6" cy="395.1" r="52.8"/>
<g>
	<g>
		<path d="M1622.5,370.6c1.9,0,1.9-3,0-3S1620.6,370.6,1622.5,370.6L1622.5,370.6z"/>
	</g>
</g>
<g>
	<g>
		<path d="M1647.1,375.3c1.9,0,1.9-3,0-3C1645.1,372.3,1645.1,375.3,1647.1,375.3L1647.1,375.3z"/>
	</g>
</g>
<g>
	<g>
		<path d="M1635.4,410.3c1.9,0,1.9-3,0-3C1633.4,407.3,1633.4,410.3,1635.4,410.3L1635.4,410.3z"/>
	</g>
</g>
<g>
	<g>
		<path d="M1652.9,401c1.9,0,1.9-3,0-3S1651,401,1652.9,401L1652.9,401z"/>
	</g>
</g>
<g>
	<g>
		<path d="M1630.7,395.1c1.9,0,1.9-3,0-3S1628.8,395.1,1630.7,395.1L1630.7,395.1z"/>
	</g>
</g>
<g>
	<g>
		<path d="M1609.7,391.6c1.9,0,1.9-3,0-3C1607.7,388.6,1607.7,391.6,1609.7,391.6L1609.7,391.6z"/>
	</g>
</g>
<g>
	<g>
		<path d="M1613.2,413.9c1.9,0,1.9-3,0-3C1611.2,410.9,1611.2,413.9,1613.2,413.9L1613.2,413.9z"/>
	</g>
</g>
<g>
	<g>
		<path d="M1637.7,433.7c1.9,0,1.9-3,0-3S1635.8,433.7,1637.7,433.7L1637.7,433.7z"/>
	</g>
</g>
<g>
	<g>
		<path d="M1649.4,422c1.9,0,1.9-3,0-3S1647.5,422,1649.4,422L1649.4,422z"/>
	</g>
</g>
<g>
	<g>
		<path d="M1651.7,436.1c1.9,0,1.9-3,0-3S1649.8,436.1,1651.7,436.1L1651.7,436.1z"/>
	</g>
</g>
<g>
	<g>
		<path d="M1668.1,423.2c1.9,0,1.9-3,0-3S1666.2,423.2,1668.1,423.2L1668.1,423.2z"/>
	</g>
</g>
<g>
	<g>
		<path d="M1672.8,389.3c1.9,0,1.9-3,0-3S1670.9,389.3,1672.8,389.3L1672.8,389.3z"/>
	</g>
</g>
<g>
	<g>
		<path d="M1665.8,410.3c1.9,0,1.9-3,0-3C1663.8,407.3,1663.8,410.3,1665.8,410.3L1665.8,410.3z"/>
	</g>
</g>
<g>
	<g>
		<path d="M1677.5,409.2c1.9,0,1.9-3,0-3C1675.5,406.2,1675.5,409.2,1677.5,409.2L1677.5,409.2z"/>
	</g>
</g>
<g>
	<g>
		<path d="M1663.4,377.6c1.9,0,1.9-3,0-3S1661.5,377.6,1663.4,377.6L1663.4,377.6z"/>
	</g>
</g>
<g>
	<g>
		<path d="M1651.7,355.4c1.9,0,1.9-3,0-3S1649.8,355.4,1651.7,355.4L1651.7,355.4z"/>
	</g>
</g>
<g>
	<g>
		<path d="M1635.4,361.2c1.9,0,1.9-3,0-3C1633.4,358.2,1633.4,361.2,1635.4,361.2L1635.4,361.2z"/>
	</g>
</g>
<g>
	<g>
		<path d="M1633,381.1c1.9,0,1.9-3,0-3S1631.1,381.1,1633,381.1L1633,381.1z"/>
	</g>
</g>
<g>
	<g>
		<path d="M1621.3,387c1.9,0,1.9-3,0-3S1619.4,387,1621.3,387L1621.3,387z"/>
	</g>
</g>
<g>
	<g>
		<path d="M1621.3,405.7c1.9,0,1.9-3,0-3S1619.4,405.7,1621.3,405.7L1621.3,405.7z"/>
	</g>
</g>
<g>
	<g>
		<path d="M1626,423.2c1.9,0,1.9-3,0-3S1624.1,423.2,1626,423.2L1626,423.2z"/>
	</g>
</g>
<g>
	<g>
		<path d="M1686.8,394c1.9,0,1.9-3,0-3S1684.9,394,1686.8,394L1686.8,394z"/>
	</g>
</g>
<g>
	<g>
		<path d="M1675.1,375.3c1.9,0,1.9-3,0-3S1673.2,375.3,1675.1,375.3L1675.1,375.3z"/>
	</g>
</g>
<g>
	<g>
		<path d="M1664.6,364.7c1.9,0,1.9-3,0-3S1662.7,364.7,1664.6,364.7L1664.6,364.7z"/>
	</g>
</g>
<g>
	<g>
		<path d="M1676.3,423.2c1.9,0,1.9-3,0-3S1674.4,423.2,1676.3,423.2L1676.3,423.2z"/>
	</g>
</g>
<path class="st10" d="M729.1,239.8H603.5c-1.6,0-3-1.9-3-4.2v-23.1c0-2.3,1.4-4.2,3-4.2h125.7c1.6,0,3,1.9,3,4.2v23.1
	C732.1,237.9,730.8,239.8,729.1,239.8z"/>
<text transform="matrix(1 0 0 1 645.5795 229.3704)" class="st7 st13">mRNA</text>
<text transform="matrix(1 0 0 1 137.3335 232.7778)" class="st15 st19">CXCL9-mRNA</text>
<text transform="matrix(1 0 0 1 136.8875 552.1785)" class="st15 st19">J23119-gRNA</text>
<path class="st20" d="M1369.2,298.9c0.9-0.5,1.8-1,2.8-1.1c7.9-1.2,15.8-3.1,23.8-3.2c24.7-0.3,49.3,0.1,74,0.2c0.7,0,1.3,0,2.3,0
	c0.2,6.2-2,9.4-7.4,10.9c0,2.5,0.6,5.2-0.2,7.4c-0.7,1.7-3.1,2.7-4.8,4c-0.3-0.3-0.7-0.5-1-0.8c0,1.2,0,2.4,0,3.7
	c0,18.5-0.4,37,0.1,55.5c0.4,15.5-1.9,30.6-4.4,45.7c-3.2,19.8-6,39.6-9.2,59.4c-1.3,7.8-2.6,15.7-4.8,23.3
	c-2.6,8.8-7.3,11.4-16.3,10.1c-3.8-0.5-8.4-2.2-9.6-6c-2-6.5-2.7-13.2-3.8-20c-4.4-26.6-8.6-53.2-12.6-79.9
	c-1.2-8.3-2-16.7-2.2-25.1c-0.3-18.7-0.1-37.4-0.1-56.2c0-3.4,0-6.9,0-10.4c-2.8-0.7-6.9,0.9-7.2-4.1c-5.5,0-10.7,0.1-16-0.1
	c-1.4,0-2.8-0.9-4-1.7"/>
<path class="st20" d="M1399.7,362.8c-1.4,0-2.5-1.1-2.5-2.4c0-19.7,0-20.5,0.1-41.9c0-0.7,0.1-1.4,0.1-2h59.7c0,1.2,0,2.5,0,3.8
	c0,16.9,0.1,33.7,0.1,39.8c0,1.4-1.1,2.5-2.5,2.5c-7,0.1-19.7-0.5-19.7-0.5h-7.9L1399.7,362.8z"/>
<path class="st20" d="M1426.9,305.3c-11,0-22.1,0.1-33.1-0.1c-2.7,0-3.8,0.8-3.4,3.6c0.1,0.8,0.1,1.6,0,2.4
	c-0.3,2.8,0.9,3.6,3.5,3.6c21.9-0.1,43.9-0.1,65.8,0c4.5,0,3.5-2.9,3.7-5.6c0.2-2.9-0.7-4.1-3.8-4
	C1448.7,305.4,1437.8,305.3,1426.9,305.3z"/>
<path class="st20" d="M1470.6,296.6c-0.4-0.1-0.6-0.2-0.8-0.2c-25.9-0.2-51.8-0.5-77.7-0.6c-5.8,0-5.8,0.3-5.6,6.1
	c0,0.6,0.1,1.1,0.2,2c1.4,0,2.6,0,3.8,0c24.2,0,48.4,0,72.6,0C1468.3,303.8,1470,302.3,1470.6,296.6z"/>
<path class="st20" d="M1423.9,345.1c-0.6,0.1-1.1,0.2-1.6,0.3c-1,0.2-0.7,0.4,0.8,0.5c0.5,0,1.1,0,1.7,0c8.9,0,17.8,0,26.6,0
	c0.5,0,1.1,0,1.5,0c0.6-0.1,1.3-0.1,1.5-0.2s-0.3-0.2-0.6-0.3c-0.4-0.1-1-0.2-1.6-0.3C1442.9,345.1,1433.2,345.1,1423.9,345.1z"/>
<path class="st21" d="M1397.2,364.5c-0.2,1.2,0.8,25.4,0.8,26.1c0,2.1,15.1,118.3,20.1,119.1c0,0,3.7,2.4,7,2.4s10.5,1.8,13.7-10.2
	c7.6-28.7,18-112.7,18-112.7s0.5-19.4,0.5-24.8c-4.5,0.2-25.6,0-30,0C1422.8,364.5,1401.7,364.8,1397.2,364.5z"/>
<path class="st20" d="M1369.3,304.9c-0.1-2.8,2-3.3,4-3.8c1.1-0.3,2.2-0.1,3.4-0.1c2.7,0,5.4,0,8.2,0c-0.1-1.2-0.1-2.1-0.2-3.4
	c-4.6,0.6-8.7,1-12.8,1.8c-2.6,0.5-4.9,2-5,5.3"/>
<path class="st20" d="M1367,304.6c0,3.4,2.2,5.5,5.2,5.9c4.5,0.6,9.1,0.5,13.7,0.5c0.8,0,1.6-1,2.4-1.6c-0.9-0.3-1.8-0.8-2.8-0.8
	c-4-0.1-8.1,0.1-12.1-0.1c-2-0.1-4-0.9-4.1-3.7"/>
<path class="st20" d="M1370.8,304.6c0.1,0.8,1,2.2,1.6,2.2c5.5,0.2,11,0.1,16.5,0.1c0-0.5,0.1-0.9,0.1-1.4c-1.2-0.2-2.4-0.3-3.3-0.4
	c-0.7-1-1.2-2.5-1.8-2.5c-3.8-0.1-7.6,0-11.4,0.3C1371.9,303,1370.8,304.1,1370.8,304.6"/>
<path class="st20" d="M1423.9,361.6c-0.6,0.1-1.1,0.2-1.6,0.3c-1,0.2-0.7,0.4,0.8,0.5c0.5,0,1.1,0,1.7,0c8.9,0,17.8,0,26.6,0
	c0.5,0,1.1,0,1.5,0c0.6-0.1,1.3-0.1,1.5-0.2s-0.3-0.2-0.6-0.3c-0.4-0.1-1-0.2-1.6-0.3C1442.9,361.6,1433.2,361.6,1423.9,361.6z"/>
<path class="st20" d="M1423.9,379.3c-0.6,0.1-1.1,0.2-1.6,0.3c-1,0.2-0.7,0.4,0.8,0.5c0.5,0,1.1,0,1.7,0c8.9,0,17.8,0,26.6,0
	c0.5,0,1.1,0,1.5,0c0.6-0.1,1.3-0.1,1.5-0.2s-0.3-0.2-0.6-0.3c-0.4-0.1-1-0.2-1.6-0.3C1442.9,379.3,1433.2,379.3,1423.9,379.3z"/>
<path class="st22" d="M1463.1,303.8"/>
<path class="st22" d="M1469.8,296.3"/>
<rect x="1560.5" y="488" class="st3" width="170.2" height="22.3"/>
<text transform="matrix(1 0 0 1 1569.6827 508.5762)" class="st15 st16">combination</text>
<polyline class="st12" points="1886.5,395.3 1886.5,401.2 1907.2,395.3 1886.5,388.9 1886.5,395.3 1744.7,395.3 "/>
<rect x="1732.1" y="367.1" class="st3" width="162.5" height="25.5"/>
<text transform="matrix(1 0 0 1 1743.6227 387.6364)" class="st15 st16">cloning PCR</text>
<g>
	
	<g>
		<text transform="matrix(1 0 0 1 1923.7183 414.3145)" class="st23 st15 st24" filter="url(#f1)">success!</text>
	</g>
</g>
<path class="st20" d="M1454.8,391.6"/>
<path class="st20" d="M1398,390.7"/>
</svg>
