<?xml version="1.0" encoding="utf-8"?>
<!-- Generator: Adobe Illustrator 25.2.1, SVG Export Plug-In . SVG Version: 6.00 Build 0)  -->
<svg version="1.1" id="图层_1" xmlns="http://www.w3.org/2000/svg" xmlns:xlink="http://www.w3.org/1999/xlink" x="0px" y="0px"
	 viewBox="0 0 2412.4 768" style="enable-background:new 0 0 2412.4 768;" xml:space="preserve">
<style type="text/css">
	.st0{fill:#D7DCE3;}
	.st1{fill:#EFCCB0;}
	.st2{fill:#CDE5C9;}
	.st3{fill:#ECC2CE;}
	.st4{fill:#FAE5A2;}
	.st5{fill:#B7C6E4;}
	.st6{fill:#B1D9D5;}
	.st7{fill:none;stroke:#000000;stroke-width:0.25;stroke-miterlimit:10;}
	.st8{fill:#CEC4DC;}
	.st9{fill:#F8BE95;}
	.st10{font-family:'ArialMT';}
	.st11{font-size:12px;}
	.st12{fill:none;}
	.st13{font-family:'OpenSans-Bold';}
	.st14{font-size:24px;}
	.st15{fill:none;stroke:#000000;stroke-miterlimit:10;}
	.st16{stroke:#000000;stroke-miterlimit:10;}
	.st17{font-family:'OpenSans-Regular';}
	.st18{font-size:16px;}
	.st19{font-family:'Times-Bold';}
	.st20{fill:none;stroke:#444444;stroke-miterlimit:10;}
	.st21{fill:#F9D878;stroke:#000000;stroke-miterlimit:10;}
	.st22{stroke:#444444;stroke-miterlimit:10;}
	.st23{fill:#8896AE;}
	.st24{fill:#7DAA54;}
	.st25{font-size:72px;}
</style>
<defs>
    <filter id="f1" x="0" y="0" width="200%" height="200%">
      <feOffset result="offOut" in="SourceGraphic" dx="0" dy="0" />
      <feGaussianBlur result="blurOut" in="offOut" stdDeviation="15" />
      <feBlend in="SourceGraphic" in2="blurOut" mode="normal" />
    </filter>
  </defs>
<path class="st0" d="M195.9,72.6C131.4,72.6,79,124.9,79,189.5c0,64.5,52.3,116.9,116.9,116.9s116.9-52.3,116.9-116.9
	S260.5,72.6,195.9,72.6z M195.9,288.1c-54.5,0-98.7-44.2-98.7-98.7s44.2-98.7,98.7-98.7s98.7,44.2,98.7,98.7
	C294.6,243.9,250.4,288.1,195.9,288.1z"/>
<path class="st1" d="M287.5,158.7l20.8-7c2.1-0.7,3.2-3,2.4-5c-10.3-27.6-30.3-50.5-55.9-64.5c-1.9-1.1-4.3-0.3-5.3,1.6l-9.9,19.5
	c-1,1.9-0.3,4.2,1.6,5.2c18.9,10.5,33.7,27.5,41.5,48C283.4,158.3,285.6,159.3,287.5,158.7z"/>
<path class="st2" d="M105.6,203.4c-3.9-28.2,5.3-55.3,23.1-74.9c1.3-1.5,1.3-3.7-0.2-5.1l-15.9-15.5c-1.5-1.5-3.9-1.4-5.4,0.2
	C83.5,134,71,170,76.1,207.5c1.6,11.6,4.8,22.5,9.2,32.6c0.8,1.9,3.1,2.8,5,1.9l20-9.6c1.8-0.9,2.6-3,1.8-4.8
	C109.1,220,106.8,211.9,105.6,203.4z"/>
<path class="st3" d="M284.1,228.3l21,9.3c1.7,0.8,3.8-0.1,4.5-1.8c9.8-23.8,11.5-49,6.4-72.6c-0.4-1.9-2.2-3-4.1-2.6l-22.3,5.5
	c-1.7,0.4-2.8,2.2-2.5,3.9c3.7,17.5,2.4,36.3-4.8,54C281.6,225.7,282.4,227.6,284.1,228.3z"/>
<path class="st4" d="M113.6,240.8l-19.2,11.9c-1.7,1-2.2,3.3-1.1,5c21.9,33.2,58.9,53.9,99,54.9c2,0.1,3.6-1.6,3.6-3.5l-0.1-22.6
	c0-1.9-1.5-3.4-3.4-3.5c-29.9-0.9-57.5-16.4-74.1-41.1C117.3,240.3,115.2,239.8,113.6,240.8z"/>
<path class="st5" d="M281,239.7c-1.8-1-4.1-0.4-5.2,1.4c-10.4,16.8-26.2,30.4-46.1,38c-6,2.2-11.9,3.9-18,4.9
	c-2.1,0.3-3.5,2.3-3.3,4.3l2.6,21.6c0.3,2.2,2.3,3.8,4.5,3.4c8.3-1.3,16.5-3.4,24.6-6.5c26.5-10.1,47.5-28.4,61.2-50.9
	c1.2-1.9,0.5-4.4-1.4-5.5L281,239.7z"/>
<path class="st6" d="M239.5,85.1l-9.9-22.7c-0.4-1-1.9-0.9-2.2,0.2l-1.8,7.7c-0.1,0.6-0.8,1-1.4,0.9c-7.1-1.7-16.9-3.3-28.6-2.7
	c-11.2,0.5-20.4,2.9-27.1,5.1c-0.6,0.2-0.9,0.8-0.7,1.4c1.6,6.5,3.3,13,4.9,19.5c0.2,0.6,0.8,1,1.4,0.8c5.9-1.6,13.5-3.1,22.5-3.5
	c8.4-0.3,15.6,0.4,21.4,1.5c0.7,0.1,1.1,0.8,0.9,1.4l-1.6,5.6c-0.3,1.1,0.9,1.9,1.8,1.2l20-15C239.6,86.2,239.7,85.6,239.5,85.1z"/>
<path class="st0" d="M244.2,597.5c59.8-24.1,88.9-92.1,64.8-152.1c-24.1-59.8-92.1-88.9-152.1-64.8C97,404.7,68,472.7,92.1,532.7
	C116.4,592.5,184.4,621.5,244.2,597.5z M163.8,397.5c50.6-20.3,108.1,4.2,128.4,54.7c20.3,50.6-4.2,108.1-54.7,128.4
	c-50.6,20.3-108.1-4.2-128.4-54.7S113.3,417.9,163.8,397.5z"/>
<path class="st7" d="M104.5,591.2"/>
<path class="st8" d="M186.6,606.4l3-19.2c0.2-1.6-0.8-3-2.3-3.4c-31.5-6-59.3-27.4-72.1-59.3c-19.7-48.9,3.3-104.4,51.3-125.3
	c1.5-0.6,2.1-2.3,1.5-3.7l-7.3-18.1c-0.6-1.6-2.4-2.3-3.9-1.6C96,402,66.9,472.2,91.7,534c16.3,40.5,51.6,67.4,91.5,74.8
	C184.7,609.2,186.3,608,186.6,606.4z"/>
<path class="st9" d="M236,578.1c-9.1,3.7-18.4,5.8-27.6,6.6c-2,0.2-3.4,1.8-3.3,3.8l0.8,16.9c0.1,2,1.9,3.6,3.9,3.5
	c11.8-0.9,23.7-3.6,35.3-8.3c16.6-6.7,30.9-16.7,42.4-29c1.4-1.5,1.3-3.8-0.3-5.2l-12.7-11.2c-1.5-1.2-3.7-1.2-5,0.2
	C260.4,564.9,249.1,572.8,236,578.1z"/>
<g>
	<path d="M198,79.4c0,0.8-0.3,1.5-0.8,1.9c-0.6,0.5-1.4,0.7-2.4,0.7h-1v3.3h-1l-0.1-8.3h2.1C197,77,198,77.8,198,79.4z M193.8,81.3
		h0.9c0.8,0,1.5-0.2,1.8-0.4s0.6-0.7,0.6-1.3c0-0.5-0.2-1-0.5-1.2c-0.4-0.3-0.9-0.4-1.7-0.4h-1.1V81.3z"/>
	<path d="M200.2,85.4l3.8-7.2l-4.5-0.3l0.1-0.9l5.5,0.3v0.8l-3.8,7.3L200.2,85.4z"/>
	<path d="M211.5,82.3c-0.2,1.4-0.5,2.5-1.1,3.1s-1.3,0.9-2.2,0.8s-1.5-0.6-1.9-1.3c-0.4-0.8-0.5-1.9-0.3-3.3s0.5-2.5,1.1-3.1
		c0.5-0.6,1.2-0.9,2.2-0.8c0.9,0.1,1.5,0.6,1.9,1.3S211.7,80.9,211.5,82.3z M207.1,81.8c-0.1,1.2-0.1,2.1,0.1,2.7s0.6,0.9,1.2,1
		c0.6,0.1,1.1-0.1,1.4-0.7c0.3-0.5,0.6-1.4,0.7-2.6c0.1-1.2,0.1-2.1-0.1-2.7s-0.6-0.9-1.2-1c-0.6-0.1-1.1,0.1-1.4,0.6
		C207.4,79.7,207.2,80.6,207.1,81.8z"/>
	<path d="M274.5,118.3c-0.4,0.4-0.9,0.7-1.4,0.8c-0.5,0.1-1,0.1-1.4,0c-0.5-0.2-0.9-0.4-1.3-0.9c-0.6-0.7-0.9-1.3-0.8-2.1
		c0.1-0.7,0.5-1.4,1.2-2.1c1.6-1.5,3.2-1.4,4.7,0.3l1.9,2.1l-0.6,0.5l-1-1.1C275.7,116.7,275.3,117.6,274.5,118.3z M271.4,114.8
		c-0.5,0.5-0.9,1-0.9,1.5c-0.1,0.5,0.1,1,0.5,1.4s0.9,0.7,1.3,0.6c0.5,0,1-0.3,1.5-0.7c0.8-0.7,1.2-1.5,1.2-2.5l-0.2-0.3
		c-0.6-0.6-1.1-0.9-1.7-0.9S272,114.2,271.4,114.8z"/>
	<path d="M276.5,125.4l-3.4-4.2l0.6-0.5l3.1,0.3c0.9,0.1,1.6,0.1,1.9,0.1s0.7-0.1,1-0.2s0.5-0.2,0.8-0.4c0.3-0.3,0.5-0.6,0.6-1
		c0-0.4-0.1-0.7-0.4-1.1c-0.2-0.3-0.5-0.5-0.7-0.7s-0.7-0.3-1.1-0.4l0.2-0.8c1,0.2,1.7,0.6,2.3,1.3c0.5,0.6,0.7,1.2,0.7,1.8
		c0,0.6-0.3,1.1-0.8,1.5c-0.4,0.3-0.9,0.5-1.5,0.6s-1.4,0.1-2.6-0.1l-2.5-0.3l0,0l2.7,3.3L276.5,125.4z"/>
	<path d="M285.6,123.6c0.4,0.6,0.6,1.2,0.6,1.8c0,0.6-0.3,1-0.8,1.4c-0.3,0.2-0.7,0.3-1.1,0.3s-0.9-0.2-1.4-0.5
		c0.1,0.7,0.1,1.3,0,1.8c-0.1,0.4-0.4,0.8-0.8,1.1c-0.6,0.4-1.2,0.5-1.8,0.4c-0.6-0.2-1.2-0.6-1.6-1.3c-0.5-0.7-0.7-1.4-0.7-2
		s0.4-1.1,0.9-1.5c0.8-0.5,1.7-0.5,2.8,0.1c-0.1-0.6,0-1.1,0.1-1.5c0.2-0.4,0.4-0.7,0.7-0.9c0.5-0.3,1-0.4,1.6-0.3
		S285.2,123,285.6,123.6z M279.4,125.8c-0.4,0.3-0.6,0.6-0.6,1s0.1,0.8,0.4,1.3s0.7,0.7,1.1,0.8s0.8,0,1.2-0.2
		c0.3-0.2,0.5-0.5,0.5-0.9s0-1-0.2-1.7c-0.5-0.3-1-0.5-1.4-0.5C280.1,125.5,279.8,125.6,279.4,125.8z M285,124
		c-0.3-0.4-0.6-0.6-0.9-0.7s-0.7,0-1,0.2s-0.5,0.5-0.5,0.8c-0.1,0.3,0,0.8,0.1,1.4c0.5,0.3,0.9,0.5,1.3,0.5c0.3,0,0.7-0.1,0.9-0.3
		c0.3-0.2,0.5-0.5,0.5-0.9C285.4,124.8,285.3,124.4,285,124z"/>
	<path d="M303,196.3c-0.8,0-1.5-0.4-1.9-1s-0.6-1.4-0.5-2.5l0.1-1l-3.3-0.2l0.1-1l8.3,0.5l-0.1,2.1
		C305.5,195.4,304.6,196.3,303,196.3z M301.4,191.9v0.9c0,0.8,0.1,1.5,0.3,1.9c0.3,0.4,0.7,0.6,1.3,0.6c0.5,0,1-0.1,1.3-0.5
		c0.3-0.3,0.5-0.9,0.5-1.6l0.1-1.1L301.4,191.9z"/>
	<path d="M296.4,202.4l0.7-5.4l0.8,0.1l1.9,2.4c0.6,0.7,1,1.2,1.3,1.5s0.5,0.4,0.8,0.6c0.3,0.1,0.5,0.2,0.9,0.3s0.8,0,1.1-0.3
		c0.3-0.2,0.5-0.6,0.5-1.1c0-0.3,0-0.7-0.1-1s-0.2-0.7-0.5-1.1l0.7-0.4c0.5,0.8,0.8,1.7,0.6,2.6c-0.1,0.8-0.4,1.3-0.8,1.7
		s-1,0.5-1.7,0.5c-0.5-0.1-1-0.3-1.5-0.6c-0.5-0.4-1.1-1-1.7-1.9l-1.5-2l0,0l-0.5,4.2L296.4,202.4z"/>
	<path d="M304,207.6c-0.1,0.7-0.4,1.3-0.8,1.7s-0.9,0.5-1.6,0.4c-0.4-0.1-0.7-0.3-1-0.6s-0.5-0.8-0.7-1.4c-0.4,0.6-0.9,1-1.3,1.2
		s-0.8,0.3-1.3,0.2c-0.7-0.1-1.2-0.5-1.5-1s-0.4-1.2-0.2-2c0.2-0.9,0.5-1.5,0.9-1.9c0.5-0.4,1.1-0.5,1.8-0.4
		c0.9,0.2,1.6,0.9,1.9,2.1c0.4-0.5,0.8-0.8,1.1-0.9c0.4-0.2,0.8-0.2,1.2-0.1c0.6,0.1,1,0.4,1.3,0.9
		C304.1,206.3,304.1,206.9,304,207.6z M298.1,204.7c-0.4-0.1-0.8,0-1.1,0.3c-0.3,0.3-0.5,0.7-0.6,1.2c-0.1,0.6-0.1,1,0.2,1.4
		c0.2,0.4,0.5,0.6,1,0.7c0.4,0.1,0.7,0,1-0.3c0.3-0.2,0.7-0.7,1.1-1.4c-0.1-0.6-0.3-1-0.6-1.3C298.8,205,298.5,204.8,298.1,204.7z
		 M303.2,207.5c0.1-0.5,0-0.8-0.1-1.1c-0.2-0.3-0.4-0.5-0.8-0.6c-0.3-0.1-0.7,0-0.9,0.2s-0.6,0.5-1,1.1c0.1,0.6,0.3,1,0.5,1.3
		s0.5,0.4,0.8,0.5c0.4,0.1,0.7,0,1-0.2C303,208.3,303.1,207.9,303.2,207.5z"/>
	<path d="M258.6,268.4c-0.1,0.1-0.2,0.2-0.4,0.3s-0.2,0.2-0.2,0.3l-0.4-0.6c0-0.1,0.1-0.2,0.3-0.4c0.1-0.1,0.3-0.3,0.4-0.4
		c0.9-0.7,1.8-0.6,2.6,0.4l2.3,2.9l0.7-0.6l0.3,0.4l-0.4,0.9l0.5,1.3l-0.4,0.3l-0.9-1.1l-1.4,1.1l-0.5-0.6l1.4-1.1l-2.3-2.9
		c-0.2-0.3-0.5-0.5-0.7-0.5C259.1,268.2,258.9,268.2,258.6,268.4z"/>
	<path d="M254.5,270.6c0.7-0.5,1.5-0.7,2.2-0.6c0.8,0.1,1.4,0.6,2,1.4s0.8,1.6,0.8,2.4c-0.1,0.8-0.4,1.4-1.1,1.9
		c-0.6,0.5-1.3,0.6-1.9,0.4s-1.2-0.6-1.7-1.3l-0.3-0.5l3.5-2.5c-0.4-0.6-0.9-0.9-1.4-1s-1,0-1.5,0.4s-1,0.9-1.4,1.5l-0.5-0.7
		c0.2-0.3,0.4-0.6,0.6-0.8C253.9,271,254.1,270.8,254.5,270.6z M258,275c0.4-0.3,0.6-0.7,0.7-1.1s-0.1-0.9-0.4-1.4l-2.6,1.9
		c0.3,0.5,0.7,0.8,1.1,0.9S257.6,275.3,258,275z"/>
	<path d="M250.1,274.4c-0.1,0.1-0.3,0.2-0.4,0.3c-0.1,0.1-0.2,0.2-0.3,0.3l-0.4-0.6c0.1-0.1,0.2-0.2,0.3-0.3
		c0.1-0.1,0.3-0.2,0.4-0.3c1-0.6,1.9-0.4,2.5,0.6l2,3.1l0.7-0.5l0.2,0.4l-0.5,0.8l0.4,1.3l-0.5,0.3l-0.8-1.2l-1.5,1l-0.4-0.6l1.5-1
		l-2-3.1c-0.2-0.3-0.4-0.5-0.7-0.6C250.6,274.2,250.4,274.3,250.1,274.4z"/>
	<path d="M248.8,278.5l-1.7-3l0.8-0.5l4.1,7.2l-2,1.1c-0.9,0.5-1.6,0.7-2.2,0.6c-0.6-0.1-1.1-0.5-1.5-1.2c-0.5-1-0.4-1.9,0.3-2.8
		l-3.8-2.1l1-0.6l3.4,2L248.8,278.5z M249.2,279.2l-1.1,0.6c-0.6,0.3-1,0.7-1.1,1.1s-0.1,0.8,0.2,1.3s0.6,0.7,1,0.8
		c0.4,0.1,0.9-0.1,1.5-0.4l1.1-0.6L249.2,279.2z"/>
	<path d="M158.8,290.3c0.9,0.3,1.6,0.3,2.3-0.1s1.2-1.1,1.6-2.1c0.4-1,0.4-1.9,0.1-2.6c-0.3-0.7-0.9-1.2-1.7-1.6
		c-0.5-0.2-1.2-0.3-2-0.4l0.3-0.8c0.6,0,1.3,0.1,2.1,0.4c1.1,0.4,1.9,1.1,2.3,2s0.3,2-0.1,3.3c-0.3,0.8-0.7,1.5-1.2,2
		s-1.1,0.8-1.8,0.9s-1.4,0.1-2.2-0.2c-0.8-0.3-1.5-0.7-2-1.2l0.7-0.6C157.7,289.8,158.2,290.1,158.8,290.3z"/>
	<path d="M151.9,282.7c0.4-0.9,1-1.6,1.6-1.9c0.7-0.3,1.5-0.3,2.3,0.1c0.5,0.2,0.9,0.5,1.2,0.9s0.4,0.9,0.5,1.4
		c0,0.5-0.1,1.1-0.4,1.7c-0.4,0.9-1,1.6-1.6,1.9s-1.4,0.3-2.3-0.1c-0.8-0.3-1.3-0.9-1.5-1.6S151.5,283.6,151.9,282.7z M156.2,284.6
		c0.3-0.7,0.4-1.3,0.3-1.9c-0.1-0.5-0.5-0.9-1-1.1s-1.1-0.2-1.5,0s-0.8,0.7-1.2,1.5c-0.3,0.7-0.4,1.3-0.3,1.8c0.1,0.5,0.5,0.9,1,1.1
		c0.6,0.2,1.1,0.2,1.5,0C155.5,285.8,155.9,285.3,156.2,284.6z"/>
	<path d="M148.3,286.3c-0.1,0.2-0.2,0.3-0.4,0.4c-0.1,0-0.3,0-0.4,0c-0.1-0.1-0.2-0.2-0.3-0.3c-0.1-0.1,0-0.3,0.1-0.5
		s0.2-0.3,0.4-0.4c0.1,0,0.3,0,0.4,0c0.1,0.1,0.2,0.2,0.3,0.3C148.5,285.9,148.4,286.1,148.3,286.3z M150.9,278.7l0.8,0.4l-2.8,5.6
		l-0.8-0.4L150.9,278.7z"/>
	<path d="M145.1,275.6l4,2.2l-4,7.3l-4-2.2l0.4-0.8l3.2,1.8l1.3-2.3l-3-1.6l0.4-0.7l3,1.6l1.5-2.7l-3.2-1.8L145.1,275.6z"/>
	<path d="M135.4,274.3c0.7-1.1,1.6-1.8,2.6-2.1c1-0.3,2-0.1,3,0.6s1.6,1.5,1.7,2.5c0.1,1-0.2,2.1-0.9,3.2s-1.6,1.8-2.5,2.1
		c-1,0.3-2,0.1-3-0.6c-1-0.6-1.6-1.5-1.7-2.5C134.4,276.5,134.6,275.5,135.4,274.3z M140.9,277.9c0.6-0.9,0.9-1.8,0.8-2.5
		c-0.1-0.7-0.5-1.4-1.3-1.9s-1.5-0.6-2.2-0.4s-1.4,0.8-2,1.8c-0.6,0.9-0.9,1.8-0.8,2.5c0.1,0.7,0.5,1.4,1.3,1.9s1.5,0.6,2.2,0.4
		C139.6,279.4,140.3,278.9,140.9,277.9z"/>
	<path d="M130.3,273.3c-0.2-0.2-0.4-0.3-0.5-0.5l0.6-0.6c0.2,0.2,0.3,0.4,0.5,0.5c0.4,0.3,0.9,0.4,1.4,0.3s1-0.4,1.3-0.9l2-2.7
		l0.7,0.6l-3.7,5l-0.6-0.5l0.6-1l0,0c-0.4,0.2-0.8,0.3-1.2,0.3C131,273.6,130.7,273.5,130.3,273.3z"/>
	<path d="M127.8,273.3c-0.1,0.2-0.3,0.3-0.4,0.3s-0.3,0-0.4-0.1s-0.2-0.2-0.2-0.4c0-0.1,0-0.3,0.2-0.5c0.1-0.2,0.3-0.3,0.4-0.3
		c0.2,0,0.3,0,0.4,0.1s0.2,0.2,0.2,0.4C128,272.9,127.9,273.1,127.8,273.3z M132,266.5l0.7,0.6l-3.9,4.8l-0.7-0.6L132,266.5z"/>
	<path d="M95.6,173.4l-2.7,0.7l-0.4,3.3l2.5,1.3l-0.1,1l-7.9-4.2l0.1-0.8l8.6-2.3L95.6,173.4z M92,174.4l-2.7,0.7
		c-0.3,0.1-0.7,0.2-1.2,0.2c0.4,0.1,0.7,0.3,1.2,0.5l2.4,1.2L92,174.4z"/>
	<path d="M97.3,163.9l-4-0.8c-0.5-0.1-0.9-0.1-1.2,0.1c-0.3,0.2-0.5,0.5-0.6,0.9c-0.1,0.6,0,1,0.2,1.4s0.8,0.6,1.4,0.7l3.4,0.7
		l-0.2,0.9l-4-0.8c-0.5-0.1-0.9-0.1-1.2,0.1c-0.3,0.2-0.5,0.5-0.6,0.9c-0.1,0.6,0,1,0.3,1.4c0.3,0.3,0.8,0.6,1.6,0.7l3.2,0.6
		l-0.2,0.9l-6.1-1.2l0.1-0.7h0.9l0,0c-0.3-0.2-0.4-0.5-0.5-0.9c-0.1-0.3-0.1-0.7,0-1.1c0.2-0.9,0.7-1.5,1.4-1.7l0,0
		c-0.3-0.2-0.5-0.6-0.6-0.9c-0.1-0.4-0.1-0.8,0-1.2c0.1-0.7,0.4-1.2,0.8-1.4c0.4-0.3,1-0.3,1.8-0.2l4,0.8L97.3,163.9z"/>
	<path d="M93.9,154.5c0.8,0.2,1.3,0.7,1.6,1.4c0.3,0.7,0.3,1.5,0,2.5l-0.3,0.9l3.1,0.9l-0.3,0.9l-8-2.3l0.6-2.1
		C91.3,154.8,92.3,154.1,93.9,154.5z M94.4,159.1l0.2-0.8c0.2-0.8,0.3-1.4,0.1-1.9s-0.5-0.7-1.1-0.9c-0.5-0.2-1-0.1-1.3,0.2
		c-0.4,0.3-0.6,0.8-0.9,1.5l-0.3,1L94.4,159.1z"/>
</g>
<text transform="matrix(-0.1786 -0.9839 0.9839 -0.1786 103.407 511.8833)" class="st10 st11"> </text>
<text class="st10 st11"> </text>
<g>
	<path d="M264.7,579.9c-0.5-0.7-0.7-1.4-0.4-2.1c0.2-0.7,0.8-1.4,1.7-2.1l0.8-0.6l-2-2.7l0.8-0.6l5,7l-1.8,1.3
		C267,581.3,265.6,581.2,264.7,579.9z M267.2,575.8l-0.7,0.5c-0.7,0.5-1.2,1-1.3,1.5s0,0.9,0.3,1.5c0.3,0.5,0.7,0.7,1.2,0.7
		s1-0.2,1.7-0.7l0.9-0.7L267.2,575.8z"/>
	<path d="M257.2,577.4l0.8-0.5l3.2,5.2c0.3,0.4,0.5,0.8,0.7,1.2c0-0.1,0.1-0.2,0.1-0.4c0-0.1,0.2-0.7,0.6-1.7l0.8,0.3l-1,2.7
		l-0.7,0.4L257.2,577.4z"/>
	<path d="M254.6,584.9c-0.8,0.4-1.5,0.6-2.2,0.4c-0.7-0.2-1.2-0.6-1.5-1.3c-0.4-0.8-0.5-1.5-0.2-2.2s0.8-1.3,1.7-1.8
		s1.6-0.7,2.2-0.6l0.4,0.8c-0.3,0-0.7,0-1.1,0.1c-0.4,0.1-0.8,0.2-1.1,0.4c-0.6,0.3-1,0.7-1.2,1.2s-0.1,1,0.2,1.5
		c0.6,1.1,1.5,1.2,2.8,0.5c0.3-0.2,0.7-0.5,1.2-0.8h0.6l1.6,3.7l-3.8,2l-0.4-0.8l3-1.6l-1-2.4C255.4,584.5,255,584.7,254.6,584.9z"
		/>
	<path d="M243.1,584.6l2.1,2.1l3.1-1.4l-0.1-2.9l0.9-0.4l0.4,9.2l-0.8,0.3l-6.6-6.5L243.1,584.6z M245.8,587.4l2,2
		c0.3,0.3,0.5,0.6,0.9,1c-0.1-0.4-0.1-0.8-0.2-1.3l-0.2-2.8L245.8,587.4z"/>
	<path d="M235.6,591.9c-0.5-1.3-0.5-2.4-0.1-3.4s1.2-1.7,2.3-2.1c1.2-0.4,2.2-0.4,3.1,0.1c0.9,0.5,1.6,1.4,2,2.7
		c0.5,1.3,0.5,2.5,0.1,3.4c-0.4,1-1.2,1.6-2.4,2.1c-1.2,0.4-2.2,0.4-3.1-0.2C236.7,594.1,236.1,593.2,235.6,591.9z M242.1,589.6
		c-0.4-1.1-0.9-1.8-1.6-2.2c-0.7-0.4-1.4-0.5-2.3-0.1c-0.9,0.3-1.5,0.8-1.7,1.6s-0.2,1.6,0.2,2.7c0.4,1.1,0.9,1.8,1.5,2.2
		c0.7,0.4,1.4,0.5,2.3,0.1c0.9-0.3,1.5-0.8,1.7-1.6C242.5,591.6,242.4,590.7,242.1,589.6z"/>
	<path d="M231.5,595.3c-0.3,0.1-0.5,0.1-0.8,0.1l-0.1-0.9c0.3,0,0.5,0,0.7-0.1c0.5-0.1,0.9-0.5,1.1-1c0.2-0.5,0.3-1.1,0.1-1.7
		l-0.9-3.3l0.9-0.3l1.7,6.2l-0.8,0.2l-0.4-1.1l0,0c-0.1,0.5-0.3,0.9-0.6,1.2C232.2,595,231.9,595.2,231.5,595.3z"/>
	<path d="M227,589.7l0.9-0.2l1.4,6.3l-0.9,0.2L227,589.7z M229.9,597.4c0,0.2,0,0.4-0.1,0.5s-0.2,0.2-0.4,0.2s-0.3,0-0.4-0.1
		c-0.1-0.1-0.2-0.2-0.3-0.4c0-0.2,0-0.4,0.1-0.5s0.2-0.2,0.4-0.2s0.3,0,0.4,0.1C229.7,597,229.8,597.2,229.9,597.4z"/>
	<path d="M96.7,501.7c0.1,0.9,0.5,1.6,1.2,2.1s1.6,0.6,2.7,0.5s1.9-0.5,2.5-1.1c0.5-0.6,0.8-1.4,0.6-2.3c-0.1-0.6-0.3-1.3-0.6-2
		l0.9-0.1c0.3,0.6,0.5,1.3,0.6,2.1c0.2,1.3-0.1,2.3-0.8,3s-1.7,1.2-3.1,1.4c-0.9,0.1-1.7,0-2.4-0.2c-0.7-0.2-1.3-0.7-1.7-1.2
		s-0.7-1.3-0.8-2.1c-0.1-0.9,0-1.7,0.2-2.4l0.9,0.3C96.7,500.3,96.7,501,96.7,501.7z"/>
	<path d="M103.8,489l-4.2,0.1c-0.5,0-0.9,0.1-1.1,0.4c-0.2,0.2-0.4,0.6-0.3,1c0,0.6,0.2,1,0.6,1.3s0.9,0.4,1.6,0.4l3.6-0.1v1
		l-4.2,0.1c-0.5,0-0.9,0.1-1.1,0.4c-0.2,0.2-0.4,0.6-0.3,1c0,0.6,0.2,1,0.6,1.3s1,0.4,1.8,0.4l3.4-0.1v1l-6.4,0.2v-0.8l0.9-0.2l0,0
		c-0.3-0.2-0.6-0.4-0.8-0.8c-0.2-0.3-0.3-0.7-0.3-1.1c0-1,0.3-1.7,1-2l0,0c-0.3-0.2-0.6-0.4-0.8-0.8c-0.2-0.4-0.3-0.8-0.3-1.2
		c0-0.7,0.1-1.3,0.5-1.7c0.4-0.4,1-0.6,1.8-0.6l4.2-0.1L103.8,489z"/>
	<path d="M100.3,484.8l3.6,0.2l-0.1,1l-8.6-0.4l0.1-2.3c0.1-1,0.3-1.8,0.7-2.3c0.4-0.5,1-0.7,1.9-0.7c1.1,0.1,1.9,0.7,2.2,1.8l4-2.1
		l-0.1,1.2l-3.7,1.9V484.8z M99.5,484.8l0.1-1.4c0-0.7-0.1-1.2-0.3-1.6c-0.3-0.3-0.7-0.5-1.2-0.6c-0.6,0-1,0.1-1.2,0.4
		s-0.4,0.8-0.5,1.6l-0.1,1.3L99.5,484.8z"/>
</g>
<rect x="149.5" y="473.4" class="st12" width="106.7" height="33.4"/>
<text transform="matrix(1 0 0 1 167.5195 493.999)" class="st13 st14">puc57</text>
<path class="st15" d="M330.3,184.4h35.8c7.1,0,12.9,7.9,12.9,17.6v267.5c0,8.9-5.3,16.2-11.8,16.2h-36.9"/>
<polyline class="st16" points="454.6,335.3 454.6,341.2 472.2,335.3 454.6,328.9 454.6,335.3 379,335.3 "/>
<rect x="387.6" y="303.4" class="st12" width="60.2" height="29.7"/>
<text transform="matrix(1 0 0 1 394.6046 323.9571)" class="st13 st14">PCR</text>
<path class="st0" d="M858,298.1H493.1c-1.6,0-3-1.3-3-3v-16.5c0-1.6,1.3-3,3-3H858c1.6,0,3,1.3,3,3v16.6
	C860.9,296.8,859.6,298.1,858,298.1z"/>
<path class="st0" d="M858,394.7H493.1c-1.6,0-3-1.3-3-3v-16.6c0-1.6,1.3-3,3-3H858c1.6,0,3,1.3,3,3v16.6
	C860.9,393.4,859.6,394.7,858,394.7z"/>
<path class="st6" d="M568.1,302.6h-55.4c-2.2,0-4-1.8-4-4v-23.5c0-2.2,1.8-4,4-4h55.4c2.2,0,4,1.8,4,4v23.5
	C572.1,300.8,570.3,302.6,568.1,302.6z"/>
<path class="st3" d="M736.4,303.9h-78.1c-1.3,0-2.3-1.6-2.3-3.6v-24.4c0-2,1-3.6,2.3-3.6h78.1c1.3,0,2.3,1.6,2.3,3.6v24.4
	C738.6,302.3,737.6,303.9,736.4,303.9z"/>
<path class="st8" d="M661.5,399.2H512.8c-2.3,0-4.2-1.9-4.2-4.2v-23.1c0-2.3,1.9-4.2,4.2-4.2h148.7c2.3,0,4.2,1.9,4.2,4.2V395
	C665.7,397.4,663.8,399.2,661.5,399.2z"/>
<path class="st9" d="M841.2,399.2H694.3c-2.4,0-4.4-2-4.4-4.4v-22.7c0-2.4,2-4.4,4.4-4.4h146.9c2.4,0,4.4,2,4.4,4.4v22.7
	C845.6,397.3,843.6,399.2,841.2,399.2z"/>
<text transform="matrix(1 0 0 1 526.6498 292.9655)" class="st17 st18">P70</text>
<rect x="738.6" y="279.1" class="st12" width="88" height="27.6"/>
<rect x="539.6" y="373.5" class="st12" width="95.2" height="19.8"/>
<text transform="matrix(1 0 0 1 749.0369 387.2106)" class="st17 st18">puc57</text>
<rect x="724.3" y="373.5" class="st12" width="95.2" height="19.8"/>
<text transform="matrix(1 0 0 1 567.5915 390.3652)" class="st17 st18">CmR</text>
<path class="st5" d="M832.3,303.9h-78.1c-1.3,0-2.3-1.6-2.3-3.6v-24.4c0-2,1-3.6,2.3-3.6h78.1c1.3,0,2.3,1.6,2.3,3.6v24.4
	C834.5,302.3,833.5,303.9,832.3,303.9z"/>
<path class="st1" d="M640,302.6h-48.5c-2.3,0-4.2-1.9-4.2-4.2v-23c0-2.3,1.9-4.2,4.2-4.2H640c2.3,0,4.2,1.9,4.2,4.2v23
	C644.2,300.7,642.3,302.6,640,302.6z"/>
<text transform="matrix(1 0 0 1 601.4565 292.8057)" class="st17 st18">σ28</text>
<text transform="matrix(1 0 0 1 683.0002 292.8054)" class="st17 st18">P28</text>
<text transform="matrix(1 0 0 1 779.5267 293.1257)" class="st17 st18">tetR</text>
<polyline class="st16" points="1033.9,335.5 1033.9,341.5 1054.7,335.5 1033.9,329 1033.9,335.5 885,335.5 "/>
<rect x="855.4" y="306.2" class="st12" width="204.9" height="57.9"/>
<text transform="matrix(1 0 0 1 906.4778 326.8578)" class="st13 st14">one step </text>
<text transform="matrix(1 0 0 1 914.3777 355.6578)" class="st13 st14">cloning</text>
<path class="st15" d="M872,286.8h7.7c3,0,5.4,2.4,5.4,5.4L885,378c0,3-2.4,5.4-5.4,5.4H872"/>
<path class="st0" d="M1188.3,217.7c-64.5,0-116.9,52.3-116.9,116.9c0,64.5,52.3,116.9,116.9,116.9s116.9-52.3,116.9-116.9
	S1252.9,217.7,1188.3,217.7z M1188.3,433.2c-54.5,0-98.7-44.2-98.7-98.7s44.2-98.7,98.7-98.7s98.7,44.2,98.7,98.7
	S1242.8,433.2,1188.3,433.2z"/>
<path class="st12" d="M1230.3,251.7l-41.9,82.8l88-29.6C1268.5,281.8,1251.8,262.7,1230.3,251.7z"/>
<path class="st12" d="M1095.5,334.5c0,51.3,41.6,92.8,92.8,92.8c22.6,0,43.4-8.1,59.5-21.5l-59.5-71.3v-92.8
	C1137.1,241.7,1095.5,283.3,1095.5,334.5z"/>
<path class="st1" d="M1279.8,303.8l20.8-7c2.1-0.7,3.2-3,2.4-5c-10.3-27.6-30.3-50.5-55.9-64.5c-1.9-1.1-4.3-0.3-5.3,1.6l-9.9,19.5
	c-1,1.9-0.3,4.2,1.6,5.2c18.9,10.5,33.7,27.5,41.5,48C1275.8,303.5,1277.9,304.5,1279.8,303.8z"/>
<path class="st3" d="M1276.4,373.5l21,9.3c1.7,0.8,3.8-0.1,4.5-1.8c9.8-23.8,11.5-49,6.4-72.6c-0.4-1.9-2.2-3-4.1-2.6l-22.3,5.5
	c-1.7,0.4-2.8,2.2-2.5,3.9c3.7,17.5,2.4,36.3-4.8,54C1274,370.8,1274.7,372.7,1276.4,373.5z"/>
<path class="st4" d="M1105.9,385.9l-19.2,11.9c-1.7,1-2.2,3.3-1.1,5c21.9,33.2,58.9,53.9,99,54.9c2,0.1,3.6-1.6,3.6-3.5l-0.1-22.6
	c0-1.9-1.5-3.4-3.4-3.5c-29.9-0.9-57.5-16.4-74.1-41.1C1109.7,385.4,1107.6,384.9,1105.9,385.9z"/>
<path class="st5" d="M1273.3,384.8c-1.8-1-4.1-0.4-5.2,1.4c-10.4,16.8-26.2,30.4-46.1,38c-6,2.2-11.9,3.9-18,4.9
	c-2.1,0.3-3.5,2.3-3.3,4.3l2.6,21.6c0.3,2.2,2.3,3.8,4.5,3.4c8.3-1.3,16.5-3.4,24.6-6.5c26.5-10.1,47.5-28.4,61.2-50.9
	c1.2-1.9,0.5-4.4-1.4-5.5L1273.3,384.8z"/>
<path class="st6" d="M1231.9,230.2l-9.9-22.7c-0.4-1-1.9-0.9-2.2,0.2l-1.8,7.7c-0.1,0.6-0.8,1-1.4,0.9c-7.1-1.7-16.9-3.3-28.6-2.7
	c-11.2,0.5-20.4,2.9-27.1,5.1c-0.6,0.2-0.9,0.8-0.7,1.4c1.6,6.5,3.3,13,4.9,19.5c0.2,0.6,0.8,1,1.4,0.8c5.9-1.6,13.5-3.1,22.5-3.5
	c8.4-0.3,15.6,0.4,21.4,1.5c0.7,0.1,1.1,0.8,0.9,1.4l-1.6,5.6c-0.3,1.1,0.9,1.9,1.8,1.2l20-15C1232,231.3,1232.1,230.7,1231.9,230.2
	z"/>
<g>
	<path class="st8" d="M1091.4,266.8c-25.1,35.7-28.6,79.9-13.1,117.5c0.5,1.5,2.4,2.2,3.9,1.6l17.8-7.9c1.5-0.7,2.1-2.3,1.6-3.8
		c-12.1-29.7-9.2-64.7,10.6-92.7c9.4-13.4,21.6-23.6,35.2-30.6c2.3-1.2,3.4-3.9,2.5-6.3l-5.5-14.3c-1.1-2.8-4.3-4-7-2.7
		C1119.5,236.3,1103.6,249.5,1091.4,266.8z"/>
</g>
<g>
	<path d="M1190.4,224.6c0,0.8-0.3,1.5-0.8,1.9c-0.6,0.5-1.4,0.7-2.4,0.7h-1v3.3h-1l-0.1-8.3h2.1
		C1189.3,222.2,1190.3,223,1190.4,224.6z M1186.1,226.4h0.9c0.8,0,1.5-0.2,1.8-0.4c0.4-0.3,0.6-0.7,0.6-1.3c0-0.5-0.2-1-0.5-1.2
		c-0.4-0.3-0.9-0.4-1.7-0.4h-1.1L1186.1,226.4z"/>
	<path d="M1192.5,230.6l3.8-7.2l-4.5-0.3l0.1-0.9l5.5,0.3v0.8l-3.8,7.3L1192.5,230.6z"/>
	<path d="M1203.9,227.4c-0.2,1.4-0.5,2.5-1.1,3.1c-0.5,0.6-1.3,0.9-2.2,0.8c-0.9-0.1-1.5-0.6-1.9-1.3c-0.4-0.8-0.5-1.9-0.3-3.3
		c0.2-1.4,0.5-2.5,1.1-3.1c0.5-0.6,1.2-0.9,2.2-0.8c0.9,0.1,1.5,0.6,1.9,1.3C1203.9,225,1204,226.1,1203.9,227.4z M1199.4,226.9
		c-0.1,1.2-0.1,2.1,0.1,2.7c0.2,0.6,0.6,0.9,1.2,1s1.1-0.1,1.4-0.7c0.3-0.5,0.6-1.4,0.7-2.6c0.1-1.2,0.1-2.1-0.1-2.7s-0.6-0.9-1.2-1
		s-1.1,0.1-1.4,0.6C1199.8,224.8,1199.5,225.7,1199.4,226.9z"/>
	<path d="M1266.8,263.4c-0.4,0.4-0.9,0.7-1.4,0.8c-0.5,0.1-1,0.1-1.4,0c-0.5-0.2-0.9-0.4-1.3-0.9c-0.6-0.7-0.9-1.3-0.8-2.1
		c0.1-0.7,0.5-1.4,1.2-2.1c1.6-1.5,3.2-1.4,4.7,0.3l1.9,2.1l-0.6,0.5l-1-1.1C1268,261.9,1267.6,262.7,1266.8,263.4z M1263.7,259.9
		c-0.5,0.5-0.8,1-0.9,1.5s0.1,1,0.5,1.4s0.9,0.7,1.3,0.6c0.5,0,1-0.3,1.5-0.7c0.8-0.7,1.2-1.5,1.2-2.5l-0.2-0.3
		c-0.6-0.6-1.1-0.9-1.7-0.9C1264.9,259,1264.3,259.3,1263.7,259.9z"/>
	<path d="M1268.9,270.5l-3.4-4.2l0.6-0.5l3.1,0.3c0.9,0.1,1.6,0.1,1.9,0.1s0.7-0.1,1-0.2s0.5-0.2,0.8-0.4c0.3-0.3,0.5-0.6,0.6-1
		c0-0.4-0.1-0.7-0.4-1.1c-0.2-0.3-0.5-0.5-0.7-0.7s-0.7-0.3-1.1-0.4l0.2-0.8c1,0.2,1.7,0.6,2.3,1.3c0.5,0.6,0.7,1.2,0.7,1.8
		c0,0.6-0.3,1.1-0.8,1.5c-0.4,0.3-0.9,0.5-1.5,0.6s-1.4,0.1-2.6-0.1l-2.5-0.3l0,0l2.7,3.3L1268.9,270.5z"/>
	<path d="M1278,268.8c0.4,0.6,0.6,1.2,0.6,1.8s-0.3,1-0.8,1.4c-0.3,0.2-0.7,0.3-1.1,0.3s-0.9-0.2-1.4-0.5c0.1,0.7,0.1,1.3,0,1.8
		c-0.1,0.4-0.4,0.8-0.8,1.1c-0.6,0.4-1.2,0.5-1.8,0.4s-1.2-0.6-1.6-1.3c-0.5-0.7-0.7-1.4-0.7-2s0.4-1.1,0.9-1.5
		c0.8-0.5,1.7-0.5,2.8,0.1c-0.1-0.6,0-1.1,0.1-1.5c0.2-0.4,0.4-0.7,0.7-0.9c0.5-0.3,1-0.4,1.6-0.3S1277.5,268.1,1278,268.8z
		 M1271.8,270.9c-0.4,0.3-0.6,0.6-0.6,1s0.1,0.8,0.4,1.3s0.7,0.7,1.1,0.8c0.4,0.1,0.8,0,1.2-0.2c0.3-0.2,0.5-0.5,0.5-0.9
		s0-1-0.2-1.7c-0.5-0.3-1-0.5-1.4-0.5S1272.1,270.7,1271.8,270.9z M1277.3,269.2c-0.3-0.4-0.6-0.6-0.9-0.7s-0.7,0-1,0.2
		s-0.5,0.5-0.5,0.8c-0.1,0.3,0,0.8,0.1,1.4c0.5,0.3,0.9,0.5,1.3,0.5c0.3,0,0.7-0.1,0.9-0.3c0.3-0.2,0.5-0.5,0.5-0.9
		C1277.7,269.9,1277.6,269.6,1277.3,269.2z"/>
	<path d="M1295.3,341.4c-0.8,0-1.5-0.4-1.9-1s-0.6-1.4-0.5-2.5l0.1-1l-3.3-0.2l0.1-1l8.3,0.5l-0.1,2.1
		C1297.8,340.5,1296.9,341.5,1295.3,341.4z M1293.8,337v0.9c0,0.8,0.1,1.5,0.3,1.9s0.7,0.6,1.3,0.6c0.5,0,1-0.1,1.3-0.5
		c0.3-0.3,0.5-0.9,0.5-1.6l0.1-1.1L1293.8,337z"/>
	<path d="M1288.7,347.5l0.7-5.4l0.8,0.1l1.9,2.4c0.6,0.7,1,1.2,1.3,1.5c0.3,0.2,0.5,0.4,0.8,0.6c0.3,0.1,0.5,0.2,0.9,0.3
		c0.4,0.1,0.8,0,1.1-0.3c0.3-0.2,0.5-0.6,0.5-1.1c0-0.3,0-0.7-0.1-1s-0.2-0.7-0.5-1.1l0.7-0.4c0.5,0.8,0.8,1.7,0.6,2.6
		c-0.1,0.8-0.4,1.3-0.8,1.7c-0.5,0.4-1,0.5-1.7,0.5c-0.5-0.1-1-0.3-1.5-0.6c-0.5-0.4-1.1-1-1.7-1.9l-1.5-2l0,0l-0.5,4.2
		L1288.7,347.5z"/>
	<path d="M1296.3,352.8c-0.1,0.7-0.4,1.3-0.8,1.7s-0.9,0.5-1.6,0.4c-0.4-0.1-0.7-0.3-1-0.6c-0.3-0.3-0.5-0.8-0.7-1.4
		c-0.4,0.6-0.9,1-1.3,1.2s-0.8,0.3-1.3,0.2c-0.7-0.1-1.2-0.5-1.5-1s-0.4-1.2-0.2-2c0.2-0.9,0.5-1.5,0.9-1.9c0.5-0.4,1.1-0.5,1.8-0.4
		c0.9,0.2,1.6,0.9,1.9,2.1c0.4-0.5,0.8-0.8,1.1-0.9c0.4-0.2,0.8-0.2,1.2-0.1c0.6,0.1,1,0.4,1.3,0.9
		C1296.4,351.4,1296.5,352,1296.3,352.8z M1290.4,349.8c-0.4-0.1-0.8,0-1.1,0.3c-0.3,0.3-0.5,0.7-0.6,1.2c-0.1,0.6-0.1,1,0.2,1.4
		c0.2,0.4,0.5,0.6,1,0.7c0.4,0.1,0.7,0,1-0.3c0.3-0.2,0.7-0.7,1.1-1.4c-0.1-0.6-0.3-1-0.6-1.3S1290.8,349.9,1290.4,349.8z
		 M1295.6,352.6c0.1-0.5,0-0.8-0.1-1.1c-0.2-0.3-0.4-0.5-0.8-0.6c-0.3-0.1-0.7,0-0.9,0.2s-0.6,0.5-1,1.1c0.1,0.6,0.3,1,0.5,1.3
		s0.5,0.4,0.8,0.5c0.4,0.1,0.7,0,1-0.2C1295.3,353.4,1295.5,353.1,1295.6,352.6z"/>
	<path d="M1251,413.6c-0.1,0.1-0.2,0.2-0.4,0.3s-0.2,0.2-0.2,0.3l-0.4-0.6c0-0.1,0.1-0.2,0.3-0.4c0.1-0.1,0.3-0.3,0.4-0.4
		c0.9-0.7,1.8-0.6,2.6,0.4l2.3,2.9l0.7-0.6l0.3,0.4l-0.4,0.9l0.5,1.3l-0.4,0.3l-0.9-1.1l-1.4,1.1l-0.5-0.6l1.4-1.1l-2.3-2.9
		c-0.2-0.3-0.5-0.5-0.7-0.5C1251.5,413.3,1251.2,413.4,1251,413.6z"/>
	<path d="M1246.8,415.7c0.7-0.5,1.5-0.7,2.2-0.6s1.4,0.6,2,1.4s0.8,1.6,0.8,2.4c-0.1,0.8-0.4,1.4-1.1,1.9c-0.6,0.5-1.3,0.6-1.9,0.4
		c-0.7-0.2-1.2-0.6-1.7-1.3l-0.3-0.5l3.5-2.5c-0.4-0.6-0.9-0.9-1.4-1s-1,0-1.5,0.4s-1,0.9-1.4,1.5l-0.5-0.7c0.2-0.3,0.4-0.6,0.6-0.8
		C1246.2,416.2,1246.5,415.9,1246.8,415.7z M1250.3,420.2c0.4-0.3,0.6-0.7,0.7-1.1c0-0.4-0.1-0.9-0.4-1.4l-2.6,1.9
		c0.3,0.5,0.7,0.8,1.1,0.9C1249.5,420.5,1249.9,420.4,1250.3,420.2z"/>
	<path d="M1242.4,419.6c-0.1,0.1-0.3,0.2-0.4,0.3c-0.1,0.1-0.2,0.2-0.3,0.3l-0.4-0.6c0.1-0.1,0.2-0.2,0.3-0.3
		c0.1-0.1,0.3-0.2,0.4-0.3c1-0.6,1.9-0.4,2.5,0.6l2,3.1l0.7-0.5l0.2,0.4l-0.5,0.8l0.4,1.3l-0.5,0.3l-0.8-1.2l-1.5,1l-0.4-0.6l1.5-1
		l-2-3.1c-0.2-0.3-0.4-0.5-0.7-0.6C1242.9,419.3,1242.7,419.4,1242.4,419.6z"/>
	<path d="M1241.2,423.6l-1.7-3l0.8-0.5l4.1,7.2l-2,1.1c-0.9,0.5-1.6,0.7-2.2,0.6s-1.1-0.5-1.5-1.2c-0.5-1-0.4-1.9,0.3-2.8l-3.8-2.1
		l1-0.6l3.4,2L1241.2,423.6z M1241.6,424.3l-1.1,0.6c-0.6,0.3-1,0.7-1.1,1.1s-0.1,0.8,0.2,1.3c0.3,0.5,0.6,0.7,1,0.8
		c0.4,0.1,0.9-0.1,1.5-0.4l1.1-0.6L1241.6,424.3z"/>
	<path d="M1150.1,433.3c0.3-0.8,0.8-1.3,1.5-1.5s1.5-0.2,2.5,0.2l0.9,0.3l1.1-3.1l0.9,0.3l-2.8,7.8l-2-0.7
		C1150.2,436,1149.5,434.9,1150.1,433.3z M1154.7,433.1l-0.8-0.3c-0.8-0.3-1.4-0.4-1.9-0.2c-0.5,0.1-0.8,0.5-1,1.1
		c-0.2,0.5-0.2,1,0.1,1.3c0.2,0.4,0.7,0.7,1.4,0.9l1,0.4L1154.7,433.1z"/>
	<path d="M1147.9,426l0.8,0.4l-2.3,5.4c-0.2,0.5-0.4,0.9-0.6,1.3c0.1,0,0.2-0.1,0.3-0.1c0.1,0,0.7-0.2,1.7-0.5l0.2,0.8l-2.7,0.7
		l-0.7-0.3L1147.9,426z"/>
	<path d="M1140.6,428.2c-0.8-0.4-1.3-0.9-1.5-1.5s-0.2-1.3,0.1-1.9c0.4-0.8,0.9-1.2,1.6-1.4c0.7-0.2,1.5-0.1,2.3,0.4
		c0.8,0.4,1.4,0.9,1.7,1.4l-0.4,0.8c-0.2-0.3-0.4-0.5-0.7-0.8c-0.3-0.3-0.6-0.5-1-0.7c-0.6-0.3-1.1-0.4-1.6-0.3s-0.8,0.4-1.1,1
		c-0.5,1-0.2,1.9,1.1,2.5c0.3,0.2,0.8,0.3,1.4,0.5l0.3,0.5l-2,3.3l-3.7-1.9l0.4-0.8l2.9,1.5l1.3-2.1
		C1141.3,428.5,1140.9,428.4,1140.6,428.2z"/>
	<path d="M1134.4,418.9l-0.5,2.8l2.8,1.7l2.2-1.8l0.8,0.5l-7.1,5.5l-0.7-0.4l1.5-8.8L1134.4,418.9z M1133.8,422.6l-0.5,2.7
		c-0.1,0.3-0.2,0.8-0.3,1.2c0.3-0.3,0.6-0.6,0.9-0.8l2.1-1.7L1133.8,422.6z"/>
	<path d="M1124.5,417.1c0.8-1.1,1.6-1.7,2.6-2c1-0.2,2,0,2.9,0.7c1,0.7,1.5,1.5,1.6,2.5s-0.2,2-1,3.2c-0.8,1.1-1.7,1.8-2.6,2
		c-1,0.2-2,0-2.9-0.7c-1-0.7-1.5-1.5-1.6-2.5C1123.4,419.3,1123.7,418.2,1124.5,417.1z M1129.9,420.9c0.6-0.9,0.9-1.8,0.9-2.5
		c-0.1-0.7-0.4-1.4-1.2-1.9c-0.7-0.5-1.5-0.7-2.2-0.5s-1.4,0.8-2.1,1.7c-0.6,0.9-0.9,1.7-0.9,2.5c0,0.7,0.4,1.4,1.2,1.9
		c0.7,0.5,1.5,0.7,2.2,0.5C1128.6,422.4,1129.2,421.8,1129.9,420.9z"/>
	<path d="M1119.6,415.9c-0.2-0.2-0.4-0.3-0.5-0.5l0.7-0.6c0.2,0.2,0.3,0.4,0.5,0.5c0.4,0.3,0.8,0.4,1.4,0.3c0.5-0.1,1-0.4,1.4-0.9
		l2.1-2.6l0.7,0.6l-3.9,4.8l-0.6-0.5l0.6-1l0,0c-0.4,0.2-0.8,0.2-1.2,0.2S1119.9,416.1,1119.6,415.9z"/>
	<path d="M1117,415.8c-0.1,0.2-0.3,0.2-0.4,0.3s-0.3,0-0.4-0.1s-0.2-0.2-0.2-0.4c0-0.1,0-0.3,0.2-0.5c0.1-0.2,0.3-0.2,0.4-0.2
		c0.2,0,0.3,0,0.4,0.1s0.2,0.2,0.2,0.4C1117.2,415.5,1117.1,415.6,1117,415.8z M1121.4,409.2l0.7,0.6l-4.1,4.7l-0.7-0.6
		L1121.4,409.2z"/>
	<path d="M1086.4,294c-0.3,0.9-0.3,1.6,0.1,2.3c0.4,0.7,1.1,1.2,2.1,1.6s1.9,0.4,2.6,0.1s1.3-0.8,1.6-1.7c0.2-0.5,0.3-1.2,0.4-2
		l0.8,0.3c0,0.6-0.1,1.3-0.4,2.1c-0.4,1.1-1.1,1.9-2,2.3s-2,0.3-3.3-0.1c-0.8-0.3-1.5-0.7-2-1.2s-0.8-1.1-0.9-1.8
		c-0.1-0.7,0-1.4,0.2-2.2c0.3-0.8,0.7-1.5,1.2-2l0.6,0.7C1087,292.9,1086.6,293.4,1086.4,294z"/>
	<path d="M1098,286.2l-3.7-1.7c-0.4-0.2-0.8-0.3-1.1-0.2c-0.3,0.1-0.6,0.3-0.8,0.7c-0.2,0.5-0.3,1-0.1,1.4c0.2,0.4,0.6,0.7,1.2,1
		l3.2,1.5l-0.4,0.8l-3.7-1.7c-0.4-0.2-0.8-0.3-1.1-0.2c-0.3,0.1-0.6,0.3-0.8,0.7c-0.2,0.5-0.3,1-0.1,1.4c0.2,0.4,0.7,0.8,1.4,1.1
		l3,1.4l-0.4,0.8l-5.6-2.6l0.3-0.7l0.8,0.2l0,0c-0.2-0.3-0.3-0.6-0.3-1s0.1-0.7,0.2-1.1c0.4-0.9,1-1.3,1.8-1.3l0,0
		c-0.2-0.3-0.3-0.7-0.4-1.1s0.1-0.8,0.2-1.2c0.3-0.6,0.7-1,1.2-1.2s1.1-0.1,1.8,0.3l3.7,1.7L1098,286.2z"/>
	<path d="M1096.8,281.1l3,1.7l-0.5,0.8l-7.2-4.1l1.1-2c0.5-0.9,1-1.4,1.6-1.7c0.6-0.2,1.2-0.1,1.9,0.2c1,0.5,1.3,1.4,1.1,2.5
		l4.4-0.1l-0.6,1h-4L1096.8,281.1z M1096.1,280.7l0.7-1.1c0.3-0.6,0.5-1.1,0.4-1.5s-0.4-0.7-0.8-1c-0.5-0.3-0.9-0.3-1.3-0.2
		s-0.7,0.5-1.1,1.2l-0.6,1.1L1096.1,280.7z"/>
</g>
<path id="SVGID_x5F_1_x5F_" class="st12" d="M1257.3,415.8c-45.3,34.4-109.5,26.2-143.3-18.3s-24.5-108.5,20.8-142.9
	s109.5-26.2,143.3,18.3"/>
<text class="st10 st11"> </text>
<polyline class="st16" points="1463.6,342.7 1463.6,348.7 1484.4,342.7 1463.6,336.3 1463.6,342.7 1321.8,342.7 "/>
<rect x="1324.3" y="315.2" class="st12" width="137.4" height="53"/>
<text transform="matrix(1 0 0 1 1328.3185 335.7682)" class="st13 st14">transfer to </text>
<text transform="matrix(1 0 0 1 1360.8185 364.5682)" class="st13 st14">DH5a</text>
<polyline class="st16" points="1742.3,345.5 1742.3,351.4 1763,345.5 1742.3,339.1 1742.3,345.5 1600.5,345.5 "/>
<rect x="1602.9" y="318" class="st12" width="137.4" height="53"/>
<text transform="matrix(1 0 0 1 1645.1606 338.5022)" class="st13 st14">37</text>
<text transform="matrix(1 0 0 1 1672.5607 338.5022)" class="st19 st14">℃</text>
<text transform="matrix(1 0 0 1 1607.6606 367.3022)" class="st13 st14">incubating</text>
<rect x="1362.7" y="323.1" class="st12" width="137.4" height="20.1"/>
<path class="st20" d="M1486.4,250.2c0.9-0.5,1.8-1,2.8-1.1c7.9-1.2,15.8-3.1,23.8-3.2c24.7-0.3,49.3,0.1,74,0.2c0.7,0,1.3,0,2.3,0
	c0.2,6.2-2,9.4-7.4,10.9c0,2.5,0.6,5.2-0.2,7.4c-0.7,1.7-3.1,2.7-4.8,4c-0.3-0.3-0.7-0.5-1-0.8c0,1.2,0,2.4,0,3.7
	c0,18.5-0.4,37,0.1,55.5c0.4,15.5-1.9,30.6-4.4,45.7c-3.2,19.8-6,39.6-9.2,59.4c-1.3,7.8-2.6,15.7-4.8,23.3
	c-2.6,8.8-7.3,11.4-16.3,10.1c-3.8-0.5-8.4-2.2-9.6-6c-2-6.5-2.7-13.2-3.8-20c-4.4-26.6-8.6-53.2-12.6-79.9
	c-1.2-8.3-2-16.7-2.2-25.1c-0.3-18.7-0.1-37.4-0.1-56.2c0-3.4,0-6.9,0-10.4c-2.8-0.7-6.9,0.9-7.2-4.1c-5.5,0-10.7,0.1-16-0.1
	c-1.4,0-2.8-0.9-4-1.7"/>
<path class="st20" d="M1516.9,314.1c-1.4,0-2.5-1.1-2.5-2.4c0-19.7,0-20.5,0.1-41.9c0-0.7,0.1-1.4,0.1-2h59.7c0,1.2,0,2.5,0,3.8
	c0,16.9,0.1,33.7,0.1,39.8c0,1.4-1.1,2.5-2.5,2.5c-7,0.1-19.7-0.5-19.7-0.5h-7.9L1516.9,314.1z"/>
<path class="st20" d="M1544,256.6c-11,0-22.1,0.1-33.1-0.1c-2.7,0-3.8,0.8-3.4,3.6c0.1,0.8,0.1,1.6,0,2.4c-0.3,2.8,0.9,3.6,3.5,3.6
	c21.9-0.1,43.9-0.1,65.8,0c4.5,0,3.5-2.9,3.7-5.6c0.2-2.9-0.7-4.1-3.8-4C1565.9,256.7,1555,256.6,1544,256.6z"/>
<path class="st20" d="M1587.8,247.9c-0.4-0.1-0.6-0.2-0.8-0.2c-25.9-0.2-51.8-0.5-77.7-0.6c-5.8,0-5.8,0.3-5.6,6.1
	c0,0.6,0.1,1.1,0.2,2c1.4,0,2.6,0,3.8,0c24.2,0,48.4,0,72.6,0C1585.5,255.2,1587.1,253.6,1587.8,247.9z"/>
<path class="st20" d="M1541.1,296.4c-0.6,0.1-1.1,0.2-1.6,0.3c-1,0.2-0.7,0.4,0.8,0.5c0.5,0,1.1,0,1.7,0c8.9,0,17.8,0,26.6,0
	c0.5,0,1.1,0,1.5,0c0.6-0.1,1.3-0.1,1.5-0.2s-0.3-0.2-0.6-0.3c-0.4-0.1-1-0.2-1.6-0.3C1560,296.4,1550.4,296.4,1541.1,296.4z"/>
<path class="st21" d="M1514.4,315.9c-0.2,1.2,0.8,25.4,0.8,26.1c0,2.1,15.1,118.3,20.1,119.1c0,0,3.7,2.4,7,2.4s10.5,1.8,13.7-10.2
	c7.6-28.7,18-112.7,18-112.7s0.5-19.4,0.5-24.8c-4.5,0.2-25.6,0-30,0C1540,315.8,1518.9,316.2,1514.4,315.9z"/>
<path class="st20" d="M1486.4,256.3c-0.1-2.8,2-3.3,4-3.8c1.1-0.3,2.2-0.1,3.4-0.1c2.7,0,5.4,0,8.2,0c-0.1-1.2-0.1-2.1-0.2-3.4
	c-4.6,0.6-8.7,1-12.8,1.8c-2.6,0.5-4.9,2-5,5.3"/>
<path class="st20" d="M1484.1,256c0,3.4,2.2,5.5,5.2,5.9c4.5,0.6,9.1,0.5,13.7,0.5c0.8,0,1.6-1,2.4-1.6c-0.9-0.3-1.8-0.8-2.8-0.8
	c-4-0.1-8.1,0.1-12.1-0.1c-2-0.1-4-0.9-4.1-3.7"/>
<path class="st20" d="M1488,256c0.1,0.8,1,2.2,1.6,2.2c5.5,0.2,11,0.1,16.5,0.1c0-0.5,0.1-0.9,0.1-1.4c-1.2-0.2-2.4-0.3-3.3-0.4
	c-0.7-1-1.2-2.5-1.8-2.5c-3.8-0.1-7.6,0-11.4,0.3C1489,254.3,1487.9,255.4,1488,256"/>
<path class="st20" d="M1541.1,313c-0.6,0.1-1.1,0.2-1.6,0.3c-1,0.2-0.7,0.4,0.8,0.5c0.5,0,1.1,0,1.7,0c8.9,0,17.8,0,26.6,0
	c0.5,0,1.1,0,1.5,0c0.6-0.1,1.3-0.1,1.5-0.2s-0.3-0.2-0.6-0.3c-0.4-0.1-1-0.2-1.6-0.3C1560,313,1550.4,313,1541.1,313z"/>
<path class="st20" d="M1541.1,330.7c-0.6,0.1-1.1,0.2-1.6,0.3c-1,0.2-0.7,0.4,0.8,0.5c0.5,0,1.1,0,1.7,0c8.9,0,17.8,0,26.6,0
	c0.5,0,1.1,0,1.5,0c0.6-0.1,1.3-0.1,1.5-0.2s-0.3-0.2-0.6-0.3c-0.4-0.1-1-0.2-1.6-0.3C1560,330.7,1550.4,330.7,1541.1,330.7z"/>
<path class="st22" d="M1580.3,255.2"/>
<path class="st22" d="M1587,247.7"/>
<path class="st20" d="M1571.9,342.9"/>
<path class="st20" d="M1515.2,342"/>
<circle class="st0" cx="1840.7" cy="141.6" r="66"/>
<circle class="st23" cx="1840.7" cy="141.6" r="52.8"/>
<g>
	<g>
		<path d="M1817.7,117.1c1.9,0,1.9-3,0-3C1815.7,114.1,1815.7,117.1,1817.7,117.1L1817.7,117.1z"/>
	</g>
</g>
<g>
	<g>
		<path d="M1842.2,121.8c1.9,0,1.9-3,0-3S1840.3,121.8,1842.2,121.8L1842.2,121.8z"/>
	</g>
</g>
<g>
	<g>
		<path d="M1830.5,156.9c1.9,0,1.9-3,0-3S1828.6,156.9,1830.5,156.9L1830.5,156.9z"/>
	</g>
</g>
<g>
	<g>
		<path d="M1848.1,147.4c1.9,0,1.9-3,0-3C1846.1,144.4,1846.1,147.4,1848.1,147.4L1848.1,147.4z"/>
	</g>
</g>
<g>
	<g>
		<path d="M1825.8,141.7c1.9,0,1.9-3,0-3S1823.9,141.7,1825.8,141.7L1825.8,141.7z"/>
	</g>
</g>
<g>
	<g>
		<path d="M1804.8,138c1.9,0,1.9-3,0-3S1802.9,138,1804.8,138L1804.8,138z"/>
	</g>
</g>
<g>
	<g>
		<path d="M1808.3,160.4c1.9,0,1.9-3,0-3S1806.4,160.4,1808.3,160.4L1808.3,160.4z"/>
	</g>
</g>
<g>
	<g>
		<path d="M1832.9,180.2c1.9,0,1.9-3,0-3C1830.9,177.2,1830.9,180.2,1832.9,180.2L1832.9,180.2z"/>
	</g>
</g>
<g>
	<g>
		<path d="M1844.6,168.6c1.9,0,1.9-3,0-3C1842.6,165.6,1842.6,168.6,1844.6,168.6L1844.6,168.6z"/>
	</g>
</g>
<g>
	<g>
		<path d="M1846.9,182.6c1.9,0,1.9-3,0-3S1845,182.6,1846.9,182.6L1846.9,182.6z"/>
	</g>
</g>
<g>
	<g>
		<path d="M1863.3,169.7c1.9,0,1.9-3,0-3C1861.3,166.7,1861.3,169.7,1863.3,169.7L1863.3,169.7z"/>
	</g>
</g>
<g>
	<g>
		<path d="M1867.9,135.8c1.9,0,1.9-3,0-3S1866,135.8,1867.9,135.8L1867.9,135.8z"/>
	</g>
</g>
<g>
	<g>
		<path d="M1860.9,156.9c1.9,0,1.9-3,0-3S1859,156.9,1860.9,156.9L1860.9,156.9z"/>
	</g>
</g>
<g>
	<g>
		<path d="M1872.6,155.7c1.9,0,1.9-3,0-3S1870.7,155.7,1872.6,155.7L1872.6,155.7z"/>
	</g>
</g>
<g>
	<g>
		<path d="M1858.6,124.1c1.9,0,1.9-3,0-3S1856.7,124.1,1858.6,124.1L1858.6,124.1z"/>
	</g>
</g>
<g>
	<g>
		<path d="M1846.9,101.9c1.9,0,1.9-3,0-3S1845,101.9,1846.9,101.9L1846.9,101.9z"/>
	</g>
</g>
<g>
	<g>
		<path d="M1830.5,107.7c1.9,0,1.9-3,0-3S1828.6,107.7,1830.5,107.7L1830.5,107.7z"/>
	</g>
</g>
<g>
	<g>
		<path d="M1828.2,127.6c1.9,0,1.9-3,0-3S1826.2,127.6,1828.2,127.6L1828.2,127.6z"/>
	</g>
</g>
<g>
	<g>
		<path d="M1816.5,133.5c1.9,0,1.9-3,0-3S1814.6,133.5,1816.5,133.5L1816.5,133.5z"/>
	</g>
</g>
<g>
	<g>
		<path d="M1816.5,152.2c1.9,0,1.9-3,0-3S1814.6,152.2,1816.5,152.2L1816.5,152.2z"/>
	</g>
</g>
<g>
	<g>
		<path d="M1821.2,169.7c1.9,0,1.9-3,0-3C1819.2,166.7,1819.2,169.7,1821.2,169.7L1821.2,169.7z"/>
	</g>
</g>
<g>
	<g>
		<path d="M1882,140.4c1.9,0,1.9-3,0-3C1880,137.4,1880,140.4,1882,140.4L1882,140.4z"/>
	</g>
</g>
<g>
	<g>
		<path d="M1870.3,121.8c1.9,0,1.9-3,0-3C1868.3,118.8,1868.3,121.8,1870.3,121.8L1870.3,121.8z"/>
	</g>
</g>
<g>
	<g>
		<path d="M1859.8,111.3c1.9,0,1.9-3,0-3C1857.8,108.3,1857.8,111.3,1859.8,111.3L1859.8,111.3z"/>
	</g>
</g>
<g>
	<g>
		<path d="M1871.4,169.7c1.9,0,1.9-3,0-3S1869.5,169.7,1871.4,169.7L1871.4,169.7z"/>
	</g>
</g>
<circle class="st0" cx="1840.2" cy="328.3" r="66"/>
<circle class="st23" cx="1840.2" cy="328.3" r="52.8"/>
<circle class="st0" cx="1842.2" cy="528.2" r="66"/>
<circle class="st23" cx="1842.2" cy="528.2" r="52.8"/>
<rect x="1787.5" y="221.9" class="st12" width="106.4" height="25.9"/>
<text transform="matrix(1 0 0 1 1794.5938 235.6718)" class="st17 st18">aimed plasmid</text>
<rect x="1800.9" y="419.9" class="st12" width="87.3" height="30"/>
<text transform="matrix(1 0 0 1 1810.0895 433.551)" class="st17 st18">fragment</text>
<rect x="1805" y="609.8" class="st12" width="85.9" height="25.9"/>
<text transform="matrix(1 0 0 1 1824.7172 623.4452)" class="st17 st18">vector</text>
<polyline class="st16" points="2054.1,342.8 2054.1,348.8 2074.9,342.8 2054.1,336.4 2054.1,342.8 1934.8,342.8 "/>
<rect x="1883.2" y="312.5" class="st12" width="162.5" height="25.5"/>
<text transform="matrix(1 0 0 1 1954.8042 335.3701)" class="st13 st14">cloning </text>
<text transform="matrix(1 0 0 1 1978.3041 364.17)" class="st13 st14">PCR</text>
<g>
	<g>
		<g>
			<g>
				<text transform="matrix(1 0 0 1 2092.4016 363.8456)" class="st24 st13 st25" filter="url(#f1)">success!</text>
			</g>
		</g>
	</g>
</g>
<text transform="matrix(1 0 0 1 1773.5101 673.1997)" class="st13 st14">plate of Amp</text>
</svg>
