<?xml version="1.0" encoding="utf-8"?>
<!-- Generator: Adobe Illustrator 25.2.1, SVG Export Plug-In . SVG Version: 6.00 Build 0)  -->
<svg version="1.1" id="图层_1" xmlns="http://www.w3.org/2000/svg" xmlns:xlink="http://www.w3.org/1999/xlink" x="0px" y="0px"
	 viewBox="0 0 422.1 330.2" style="enable-background:new 0 0 422.1 330.2;" xml:space="preserve">
<style type="text/css">
	.st0{fill:#D9E7EC;}
	.st1{fill:none;stroke:#FFFFFF;stroke-width:3;stroke-miterlimit:10;}
	.st2{fill:#FFFFFF;stroke:#FFFFFF;stroke-width:3;stroke-miterlimit:10;}
</style>
<path class="st0" d="M305.6,306.2H116.5c-6.2,0-11.2-5-11.2-11.2V35.1c0-6.2,5-11.2,11.2-11.2h189.1c6.2,0,11.2,5,11.2,11.2V295
	C316.8,301.2,311.8,306.2,305.6,306.2z"/>
<g>
	<line class="st1" x1="126.1" y1="186.8" x2="296" y2="186.8"/>
	<line class="st1" x1="126.1" y1="214.9" x2="296" y2="214.9"/>
	<line class="st1" x1="126.1" y1="158.6" x2="296" y2="158.6"/>
	<line class="st1" x1="126.1" y1="130.5" x2="296" y2="130.5"/>
</g>
<g>
	<circle class="st1" cx="211.1" cy="66.4" r="9.7"/>
	<path class="st1" d="M218.9,76.1l15,23.5c6.1-6,9.9-14.3,9.9-23.5c0-18.1-14.7-32.9-32.9-32.9S178.2,58,178.2,76.1
		c0,9.6,4.1,18.2,10.7,24.2l15.5-24.2"/>
	<path class="st2" d="M207.5,83.6l-3.1-7.5l-15.5,24.2c5.8,5.4,13.6,8.6,22.2,8.6c8.9,0,17-3.6,22.9-9.4L219,76l-3.8,7.8
		C213.6,87.1,208.9,87,207.5,83.6z"/>
</g>
<polygon class="st1" points="162.5,256.8 165.8,249.2 169.8,256.5 178.1,257.4 172.3,263.4 174.1,271.5 166.6,268 159.4,272.1 
	160.5,263.9 154.3,258.3 "/>
<polygon class="st2" points="206.6,256.8 210,249.2 213.9,256.5 222.2,257.4 216.5,263.4 218.2,271.5 210.7,268 203.5,272.1 
	204.6,263.9 198.4,258.3 "/>
<polygon class="st2" points="252.2,256.8 255.6,249.2 259.5,256.5 267.8,257.4 262.1,263.4 263.8,271.5 256.3,268 249.1,272.1 
	250.2,263.9 244,258.3 "/>
</svg>
