<?xml version="1.0" encoding="utf-8"?>
<!-- Generator: Adobe Illustrator 25.2.1, SVG Export Plug-In . SVG Version: 6.00 Build 0)  -->
<svg version="1.1" id="图层_1" xmlns="http://www.w3.org/2000/svg" xmlns:xlink="http://www.w3.org/1999/xlink" x="0px" y="0px"
	 viewBox="0 0 422.1 330.2" style="enable-background:new 0 0 422.1 330.2;" xml:space="preserve">
<style type="text/css">
	.st0{fill:#FAD3C1;}
	.st1{fill:none;stroke:#FFFFFF;stroke-width:3;stroke-miterlimit:10;}
	.st2{fill:#EFE2D2;}
	.st3{fill:#FFFFFF;}
	.st4{fill:#FDECDC;}
</style>
<path class="st0" d="M172.5,109.6h182.9c7.9,0,14.3,6.4,14.3,14.3v95.7c0,7.9-6.4,14.3-14.3,14.3h-36.2l10.3,30.8l-41-30.8h-116
	c-7.9,0-14.3-6.4-14.3-14.3v-95.7C158.2,116,164.6,109.6,172.5,109.6z"/>
<g>
	<line class="st1" x1="335.2" y1="142.9" x2="192.8" y2="142.9"/>
	<line class="st1" x1="335.2" y1="170.9" x2="192.8" y2="170.9"/>
	<line class="st1" x1="335.2" y1="198.9" x2="192.8" y2="198.9"/>
</g>
<path class="st2" d="M249.6,65.4H66.8c-7.9,0-14.3,6.4-14.3,14.3v95.7c0,7.9,6.4,14.3,14.3,14.3H103l-10.3,30.8l41-30.8h115.9
	c7.9,0,14.3-6.4,14.3-14.3V79.7C264,71.8,257.6,65.4,249.6,65.4z"/>
<circle class="st3" cx="105.7" cy="132.3" r="12.7"/>
<circle class="st3" cx="158.2" cy="132.3" r="12.7"/>
<circle class="st3" cx="210.7" cy="132.3" r="12.7"/>
<circle class="st4" cx="357" cy="78.1" r="12.7"/>
<circle class="st4" cx="65.1" cy="228" r="12.7"/>
</svg>
