<?xml version="1.0" encoding="utf-8"?>
<!-- Generator: Adobe Illustrator 25.2.1, SVG Export Plug-In . SVG Version: 6.00 Build 0)  -->
<svg version="1.1" id="图层_1" xmlns="http://www.w3.org/2000/svg" xmlns:xlink="http://www.w3.org/1999/xlink" x="0px" y="0px"
	 viewBox="0 0 422.1 330.2" style="enable-background:new 0 0 422.1 330.2;" xml:space="preserve">
<style type="text/css">
	.st0{fill:#CADFAB;}
	.st1{fill:#FFFFFF;}
	.st2{fill:#EFECC5;}
</style>
<g>
	<path class="st0" d="M182.6,128.5l5-3.8c2.4-1.8,5.8-1.4,7.6,1l17.2,22.6c0.9,1.2,2.7,1.4,3.9,0.5l16-12.2c1.2-0.9,1.4-2.7,0.5-3.9
		l-68.9-90.1c-0.9-1.2-2.7-1.4-3.9-0.5l-50,38.2c-1.2,0.9-1.4,2.7-0.5,3.9l68.9,90.1c0.9,1.2,2.7,1.4,3.9,0.5l16-12.2
		c1.2-0.9,1.4-2.7,0.5-3.9l-17.2-22.6C179.8,133.7,180.2,130.3,182.6,128.5z"/>
	<path class="st0" d="M242.4,196.3l-5.1,3.9c-2.3,1.8-5.7,1.3-7.5-1l-14.3-18.7c-0.9-1.2-2.6-1.4-3.8-0.5l-16.1,12.3
		c-1.2,0.9-1.4,2.6-0.5,3.8l69,90.3c0.9,1.2,2.6,1.4,3.8,0.5l50.2-38.3c1.2-0.9,1.4-2.6,0.5-3.8l-69-90.3c-0.9-1.2-2.6-1.4-3.8-0.5
		l-16.1,12.3c-1.2,0.9-1.4,2.6-0.5,3.8l14.3,18.7C245.2,191.1,244.7,194.5,242.4,196.3z"/>
	
		<rect x="205.4" y="153.4" transform="matrix(0.7946 -0.6071 0.6071 0.7946 -55.8629 163.6802)" class="st1" width="17.1" height="22"/>
	<path class="st1" d="M193.5,123.5c-0.9-1.2-2.5-1.4-3.7-0.5l-9.4,7.2c-1.2,0.9-1.4,2.5-0.5,3.7l20.6,27l13.6-10.4L193.5,123.5z"/>
	<path class="st1" d="M231.4,201.3c0.9,1.2,2.5,1.4,3.7,0.5l9.4-7.2c1.2-0.9,1.4-2.5,0.5-3.7l-17.6-23l-13.6,10.4L231.4,201.3z"/>
</g>
<path class="st0" d="M280.2,110.6l3.8,5c1.8,2.4,1.3,5.8-1.1,7.6l-22.7,17.1c-1.2,0.9-1.5,2.7-0.5,3.9l12.1,16.1
	c0.9,1.2,2.7,1.5,3.9,0.5l90.6-68.3c1.2-0.9,1.5-2.7,0.5-3.9l-37.9-50.3c-0.9-1.2-2.7-1.5-3.9-0.5l-90.5,68.3
	c-1.2,0.9-1.5,2.7-0.5,3.9l12.1,16.1c0.9,1.2,2.7,1.5,3.9,0.5l22.7-17.1C275,107.8,278.4,108.2,280.2,110.6z"/>
<path class="st0" d="M146,216.7l-3.9-5.2c-1.8-2.3-1.3-5.7,1-7.5l18.8-14.2c1.2-0.9,1.4-2.6,0.5-3.8l-12.2-16.2
	c-0.9-1.2-2.6-1.4-3.8-0.5l-90.7,68.4c-1.2,0.9-1.4,2.6-0.5,3.8l38,50.4c0.9,1.2,2.6,1.4,3.8,0.5l90.7-68.4c1.2-0.9,1.4-2.6,0.5-3.8
	l-12.1-16.1c-0.9-1.2-2.6-1.4-3.8-0.5l-18.8,14.2C151.1,219.5,147.8,219.1,146,216.7z"/>
<circle class="st2" cx="124.5" cy="156.1" r="12.7"/>
<ellipse transform="matrix(0.1602 -0.9871 0.9871 0.1602 79.2642 443.7682)" class="st2" cx="300.4" cy="175.3" rx="12.7" ry="12.7"/>
</svg>
