<?xml version="1.0" encoding="utf-8"?>
<!-- Generator: Adobe Illustrator 25.2.1, SVG Export Plug-In . SVG Version: 6.00 Build 0)  -->
<svg version="1.1" id="图层_1" xmlns="http://www.w3.org/2000/svg" xmlns:xlink="http://www.w3.org/1999/xlink" x="0px" y="0px"
	 viewBox="0 0 1790.1 492.1" style="enable-background:new 0 0 1790.1 492.1;" xml:space="preserve">
<style type="text/css">
	.st0{fill:#E0EBF5;}
	.st1{fill:#EDEDEC;}
	.st2{fill:none;stroke:#F5CEBA;stroke-width:10;stroke-miterlimit:10;}
	.st3{fill:none;}
	.st4{font-family:'OpenSans-Bold';}
	.st5{font-size:36px;}
	.st6{opacity:0.54;fill:none;stroke:#F5CEBA;stroke-width:10;stroke-miterlimit:10;}
	.st7{fill:#ACDCEA;}
	.st8{fill:none;stroke:#F5CEBA;stroke-width:9;stroke-linecap:square;stroke-miterlimit:10;}
	.st9{fill:none;stroke:#29ABE2;stroke-width:5;stroke-linecap:round;stroke-miterlimit:10;}
	.st10{fill:none;stroke:#000000;stroke-width:5;stroke-linecap:round;stroke-miterlimit:10;}
	.st11{fill:none;stroke:#CFCECF;stroke-width:5;stroke-linecap:round;stroke-miterlimit:10;}
	.st12{fill:#CFCECF;stroke:#CFCECF;stroke-width:5;stroke-linecap:round;stroke-miterlimit:10;}
	.st13{fill:#FDEEEB;}
	.st14{fill:#FFFFFF;stroke:#909ABF;stroke-width:3;stroke-miterlimit:10;}
	.st15{fill:#99D1EE;}
	.st16{fill:none;stroke:#FDEEEB;stroke-width:16;stroke-linecap:round;stroke-miterlimit:10;}
	.st17{fill:#FAE5A2;stroke:#8896AE;stroke-width:2;stroke-miterlimit:10;}
	.st18{fill:#FAE5A2;stroke:#909ABF;stroke-miterlimit:10;}
	.st19{opacity:0.75;fill:#FFFFFF;stroke:#909ABF;stroke-miterlimit:10;}
	.st20{opacity:0.72;fill:#2EFF2E;}
	.st21{fill:#FFFFFF;stroke:#CBDEB7;stroke-width:5;stroke-miterlimit:10;}
	.st22{fill:none;stroke:#80D6FF;stroke-width:5;stroke-linecap:round;stroke-miterlimit:10;}
	.st23{fill:#80D6FF;stroke:#80D6FF;stroke-width:5;stroke-linecap:round;stroke-miterlimit:10;}
	.st24{font-family:'OpenSans-Regular';}
	.st25{font-size:18.0377px;}
	.st26{fill:none;stroke:#F9D878;stroke-width:5;stroke-linecap:round;stroke-miterlimit:10;}
	.st27{fill:#FDA594;}
	.st28{fill:none;stroke:#4AD66D;stroke-width:5;stroke-linecap:round;stroke-miterlimit:10;}
	.st29{fill:#4AD66D;stroke:#4AD66D;stroke-width:5;stroke-linecap:round;stroke-miterlimit:10;}
	.st30{font-size:18.04px;}
	.st31{font-size:17px;}
	.st32{fill:none;stroke:#E3696D;stroke-width:8;stroke-linecap:round;stroke-miterlimit:10;}
	.st33{fill:#F9D878;stroke:#F9D878;stroke-width:5;stroke-linecap:round;stroke-miterlimit:10;}
	.st34{fill:#C0C9E6;stroke:#C0C9E6;stroke-miterlimit:10;}
	.st35{fill:#C0C9E6;stroke:#C0C9E6;stroke-width:5;stroke-linecap:round;stroke-miterlimit:10;}
	.st36{font-size:18px;}
	.st37{fill:none;stroke:#EFCCB0;stroke-width:5;stroke-linecap:round;stroke-miterlimit:10;}
	.st38{fill:#FFB48A;}
	.st39{fill:#DEDEDE;}
	.st40{fill:none;stroke:#FFFFFF;stroke-miterlimit:10;}
	.st41{fill:#FFFFFF;}
	.st42{fill:#FFFFFF;stroke:#000000;stroke-linecap:round;stroke-miterlimit:10;}
	.st43{fill:#FFFFFF;stroke:#000000;stroke-width:4;stroke-miterlimit:10;}
	.st44{fill:#EFCCB0;stroke:#EFCCB0;stroke-width:5;stroke-linecap:round;stroke-miterlimit:10;}
</style>
<path class="st0" d="M1331.4,148.3h-253.2c-6,0-10.9-4.9-10.9-10.9V58.2c0-6,4.9-10.9,10.9-10.9h253.2c6,0,10.9,4.9,10.9,10.9v79.2
	C1342.3,143.4,1337.4,148.3,1331.4,148.3z"/>
<path class="st0" d="M640.9,145.4H387.7c-6,0-10.9-4.9-10.9-10.9V55.2c0-6,4.9-10.9,10.9-10.9h253.2c6,0,10.9,4.9,10.9,10.9v79.2
	C651.9,140.5,647,145.4,640.9,145.4z"/>
<path class="st1" d="M1686.1,123.5H1405c-6,0-10.9-4.9-10.9-10.9V75.9c0-6,4.9-10.9,10.9-10.9h281.1c6,0,10.9,4.9,10.9,10.9v36.7
	C1697,118.6,1692.1,123.5,1686.1,123.5z"/>
<path class="st1" d="M314.1,123.5H60.9c-6,0-10.9-4.9-10.9-10.9V75.9c0-6,4.9-10.9,10.9-10.9h253.2c6,0,10.9,4.9,10.9,10.9v36.7
	C325,118.6,320.1,123.5,314.1,123.5z"/>
<path class="st2" d="M103.7,175.6l13.6,33.4c0.7,1.7,2.7,2.1,3.9,1c1.5-1.5,3.4-2.8,5.6-3.6c7.9-2.9,17,1.4,20.7,9.7
	c4.1,9.1,0.3,19.4-8.1,22.9c-2.4,1-4.9,1.3-7.3,1c-1-0.1-1.7,0.9-1.3,2l14.8,36.3"/>
<path class="st2" d="M161.7,190.8l33.4,13.6c1.7,0.7,3.4-0.4,3.4-2.1c0-2.2,0.4-4.4,1.4-6.5c3.5-7.7,12.9-11.2,21.4-8.1
	c9.3,3.4,14.2,13.3,10.7,21.8c-1,2.4-2.5,4.4-4.4,5.9c-0.8,0.7-0.5,1.9,0.5,2.3l36.3,14.8"/>
<path class="st2" d="M177.4,339.2l9.8-34.7c0.5-1.7-0.8-3.3-2.5-3.1c-2.2,0.3-4.4,0.1-6.6-0.6c-8-2.6-12.6-11.6-10.4-20.4
	c2.4-9.7,11.7-15.5,20.5-13.1c2.5,0.7,4.6,2,6.4,3.7c0.7,0.7,2,0.3,2.3-0.7l10.6-37.7"/>
<rect x="70" y="73.9" class="st3" width="235" height="43.6"/>
<text transform="matrix(1 0 0 1 80.2254 104.7962)" class="st4 st5">Input Signal</text>
<path class="st6" d="M298.2,236.8l-30.9,18.7c-1.5,0.9-1.7,3-0.3,4c1.8,1.3,3.3,2.9,4.4,5c4.1,7.3,1.3,17-6.3,22
	c-8.3,5.5-19.1,3.4-23.9-4.4c-1.3-2.2-2-4.6-2.2-7c-0.1-1-1.2-1.6-2.1-1l-33.5,20.4"/>
<path class="st2" d="M157.8,375.1l-15.4-32.6c-0.8-1.6-2.8-2-3.9-0.7c-1.5,1.6-3.3,3-5.4,3.9c-7.7,3.3-17.1-0.5-21.2-8.5
	c-4.6-8.8-1.4-19.4,6.9-23.3c2.3-1.1,4.8-1.5,7.2-1.4c1,0,1.7-1,1.2-2l-16.7-35.5"/>
<path class="st2" d="M186.6,406.2l22-28.6c1.1-1.4,0.5-3.4-1.1-3.8c-2.1-0.5-4.1-1.5-5.9-3c-6.5-5.4-7.4-15.4-2.1-22.8
	c5.8-8.1,16.6-10.1,23.9-4.5c2,1.6,3.6,3.6,4.6,5.8c0.4,0.9,1.7,1,2.4,0.2l23.9-31.1"/>
<rect x="396.8" y="53.9" class="st3" width="235" height="81.8"/>
<text transform="matrix(1 0 0 1 407.619 84.7493)"><tspan x="0" y="0" class="st4 st5">Recognition</tspan><tspan x="32.5" y="43.2" class="st4 st5">Element</tspan></text>
<rect x="1087.9" y="54.4" class="st3" width="235" height="86.8"/>
<text transform="matrix(1 0 0 1 1117.4927 85.2252)"><tspan x="0" y="0" class="st4 st5">Detection </tspan><tspan x="22.7" y="43.2" class="st4 st5">System</tspan></text>
<rect x="1394" y="75.6" class="st3" width="303" height="49.4"/>
<text transform="matrix(1 0 0 1 1408.8302 106.4957)" class="st4 st5">Demonstration</text>
<path class="st7" d="M577.1,355.6c0-18.6-22.3-33.7-49.8-33.7c-27.5,0-49.8,15.1-49.8,33.7c0,10.8,7.4,20.3,19,26.5
	c-1.3,2.2-2.1,4.6-2.1,7.2c0,8.8,8.5,15.9,19,15.9c10.5,0,19-7.1,19-15.9c0-0.1,0-0.1,0-0.2C557.6,387.5,577.1,373.1,577.1,355.6z"
	/>
<path class="st8" d="M432.9,183.4V230c0,2.6-1.6,4.9-4.1,5.8c-14,5.1-23.6,15.8-23.6,28.2c0,12.2,9.5,22.8,23.3,28
	c2.7,1,4.5,3.5,4.5,6.4v65.1"/>
<path class="st9" d="M785.7,340.8"/>
<path class="st9" d="M785.7,340.8"/>
<path class="st10" d="M804.6,296.1"/>
<path class="st9" d="M790.4,340.8"/>
<path class="st9" d="M790.4,340.8"/>
<path class="st9" d="M778.7,340.8"/>
<path class="st9" d="M778.7,340.8"/>
<path class="st9" d="M785.7,340.8"/>
<path class="st9" d="M785.7,340.8"/>
<line class="st11" x1="367.7" y1="362.4" x2="312.9" y2="362.4"/>
<polygon class="st12" points="378.8,362.5 368,357 368,367.8 "/>
<rect x="1272.4" y="236.6" transform="matrix(-0.9366 0.3505 -0.3505 -0.9366 2591.9568 56.9925)" class="st13" width="36.9" height="52.8"/>
<rect x="1263.2" y="226.3" transform="matrix(-0.9366 0.3505 -0.3505 -0.9366 2537.3699 11.8126)" class="st13" width="8.8" height="18.5"/>
<path class="st14" d="M1200.3,377.3l87.2-32.6c7.7-2.9,11.6-11.4,8.7-19.1l-55.6-148.4c-2.9-7.7-11.4-11.6-19.1-8.7l-87.2,32.6
	c-7.7,2.9-11.6,11.4-8.7,19.1l55.6,148.4C1184.1,376.2,1192.7,380.1,1200.3,377.3z"/>
<path class="st15" d="M1336,282.5l-11.6,4.3c-3.3,1.2-7-0.4-8.3-3.8l-19.4-51.8c-1.2-3.3,0.4-7,3.8-8.3l11.6-4.3
	c3.3-1.2,7,0.4,8.3,3.8l19.4,51.8C1341,277.6,1339.3,281.3,1336,282.5z"/>
<path class="st16" d="M1278.5,244.1l-1.9-9.6c-0.9-4.5-5-7.7-9.6-7.6l-26.6,0.9"/>
<path class="st17" d="M1238,215.9l-84.8,31.8c-2.3,0.8-4.8-0.3-5.6-2.6l-9.9-26.3c-0.8-2.3,0.3-4.8,2.6-5.6l84.8-31.8
	c2.3-0.8,4.8,0.3,5.6,2.6l9.9,26.3C1241.4,212.6,1240.3,215.1,1238,215.9z"/>
<path class="st18" d="M1150.6,167.6"/>
<g>
	<g>
		<path class="st19" d="M1156.2,207.3l2.3,14.4c0.1,0.5,0,0.9-0.1,1.4l-0.9,2.3c-0.6,1.5-2.3,2.1-3.7,1.4l-2.7-1.3
			c-0.4-0.2-0.8-0.6-1.1-1l-7.5-12.1L1156.2,207.3z"/>
		<path class="st19" d="M1173,201.1l2.3,14.4c0.1,0.5,0,0.9-0.1,1.4l-0.9,2.3c-0.6,1.5-2.3,2.1-3.7,1.4l-2.7-1.3
			c-0.4-0.2-0.8-0.6-1.1-1l-7.5-12.1L1173,201.1z"/>
		<path class="st19" d="M1189.8,194.9l2.3,14.4c0.1,0.5,0,0.9-0.1,1.4l-0.9,2.3c-0.6,1.5-2.3,2.1-3.7,1.4l-2.7-1.3
			c-0.4-0.2-0.8-0.6-1.1-1l-7.5-12.1L1189.8,194.9z"/>
	</g>
	<path class="st19" d="M1206.9,188.3l2.3,14.4c0.1,0.5,0,0.9-0.1,1.4l-0.9,2.3c-0.6,1.5-2.3,2.1-3.7,1.4l-2.7-1.3
		c-0.4-0.2-0.8-0.6-1.1-1l-7.5-12.1L1206.9,188.3z"/>
	<path class="st19" d="M1223.7,182.2l2.3,14.4c0.1,0.5,0,0.9-0.1,1.4l-0.9,2.3c-0.6,1.5-2.3,2.1-3.7,1.4l-2.7-1.3
		c-0.4-0.2-0.8-0.6-1.1-1l-7.5-12.1L1223.7,182.2z"/>
</g>
<path class="st20" d="M1150.8,223.3l6.4-2.4v2c0,0.3-0.1,0.5-0.2,0.7l-0.7,1.4c-0.3,0.6-1,0.9-1.6,0.7l-1.7-0.6
	c-0.4-0.1-0.7-0.4-1-0.7L1150.8,223.3z"/>
<path class="st20" d="M1167.6,217.1l6.4-2.4v2c0,0.3-0.1,0.5-0.2,0.7l-0.7,1.4c-0.3,0.6-1,0.9-1.6,0.7l-1.7-0.6
	c-0.4-0.1-0.7-0.4-1-0.7L1167.6,217.1z"/>
<path class="st20" d="M1184.4,211l6.4-2.4v2c0,0.3-0.1,0.5-0.2,0.7l-0.7,1.4c-0.3,0.6-1,0.9-1.6,0.7l-1.7-0.6
	c-0.4-0.1-0.7-0.4-1-0.7L1184.4,211z"/>
<path class="st20" d="M1201.6,204.4l6.4-2.4v2c0,0.3-0.1,0.5-0.2,0.7l-0.7,1.4c-0.3,0.6-1,0.9-1.6,0.7l-1.7-0.6
	c-0.4-0.1-0.7-0.4-1-0.7L1201.6,204.4z"/>
<path class="st20" d="M1218.2,198.2l6.4-2.4v2c0,0.3-0.1,0.5-0.2,0.7l-0.7,1.4c-0.3,0.6-1,0.9-1.6,0.7l-1.7-0.6
	c-0.4-0.1-0.7-0.4-1-0.7L1218.2,198.2z"/>
<path class="st21" d="M1060.1,184c-37.7-64-114.3-99.3-191.4-80C782,125.8,725.6,212.1,740.4,300.3c16.2,96.5,108.7,160,204.1,141.3
	c77.9-15.3,133.1-80.7,139.1-156.1c0.5-6.9,3.9-13.3,9.4-17.6l55-43.6c2.9-2.3,2-6.9-1.6-7.9l-69.5-19.5
	C1069.8,194.9,1063.8,190.2,1060.1,184z"/>
<g>
	<g>
		<line class="st22" x1="812" y1="222.5" x2="849.8" y2="222.5"/>
		<polyline class="st22" points="812,222.5 812,184.6 844.4,184.6 		"/>
		<polyline class="st22" points="833.6,175 844.4,184.6 833.6,195.5 		"/>
	</g>
	<g>
		<line class="st22" x1="849.8" y1="222.5" x2="893.1" y2="222.5"/>
	</g>
	<g>
		<line class="st22" x1="958.1" y1="222.5" x2="1001.3" y2="222.5"/>
		<line class="st22" x1="964.9" y1="207.2" x2="997.4" y2="207.2"/>
		<line class="st22" x1="979.7" y1="207.2" x2="979.7" y2="222.5"/>
	</g>
	<g>
		<path class="st23" d="M898.5,210v25c0,2.1,1.7,3.7,3.7,3.7h32.6c1,0,1.9-0.4,2.6-1.1l12.5-12.5c1.5-1.5,1.5-3.8,0-5.3l-12.5-12.5
			c-0.7-0.7-1.6-1.1-2.6-1.1h-32.6C900.2,206.3,898.5,208,898.5,210z"/>
		<line class="st22" x1="893.1" y1="222.5" x2="898.5" y2="222.5"/>
		<line class="st22" x1="958.1" y1="222.5" x2="952.6" y2="222.5"/>
	</g>
</g>
<text transform="matrix(1 0 0 1 905.5978 227.9561)" class="st24 st25">σ28</text>
<path class="st23" d="M850.6,222.5c0-10.5,8.5-18.9,18.9-18.9c10.4,0,18.9,8.5,18.9,18.9"/>
<text transform="matrix(1 0 0 1 811.9589 247.7337)" class="st24 st25">P70</text>
<line class="st26" x1="849.7" y1="335.3" x2="893.1" y2="335.3"/>
<line class="st26" x1="855.7" y1="320.3" x2="888.1" y2="320.3"/>
<line class="st26" x1="871.3" y1="320.3" x2="871.3" y2="335.3"/>
<path class="st9" d="M853.7,340.8"/>
<path class="st9" d="M820.2,340.8"/>
<path class="st9" d="M820.2,340.8"/>
<path class="st9" d="M858.4,340.8"/>
<line class="st26" x1="823.6" y1="335.1" x2="818.2" y2="335.1"/>
<path class="st9" d="M853.7,340.8"/>
<path class="st9" d="M820.2,340.8"/>
<path class="st9" d="M820.2,340.8"/>
<circle class="st27" cx="831.1" cy="335.1" r="17.7"/>
<polyline class="st28" points="918.8,335.2 918.8,297.2 951.2,297.2 "/>
<polyline class="st28" points="940.4,286.4 951.2,297.2 940.4,308.2 "/>
<polyline class="st28" points="999.9,335.2 956.6,335.2 918.8,335.2 "/>
<line class="st28" x1="1064.9" y1="335.2" x2="1108.1" y2="335.2"/>
<line class="st28" x1="1071.7" y1="319.9" x2="1104.2" y2="319.9"/>
<line class="st28" x1="1086.5" y1="319.9" x2="1086.5" y2="335.2"/>
<path class="st29" d="M1005.3,322.7v25c0,2,1.6,3.7,3.7,3.7l0,0h32.6c1,0,1.9-0.4,2.6-1.1l12.5-12.5c1.5-1.4,1.5-3.7,0.1-5.2
	l-0.1-0.1l-12.5-12.6c-0.7-0.7-1.6-1.1-2.6-1.1H1009C1007,319,1005.4,320.6,1005.3,322.7z"/>
<line class="st28" x1="999.9" y1="335.2" x2="1005.3" y2="335.2"/>
<line class="st28" x1="1064.9" y1="335.2" x2="1059.4" y2="335.2"/>
<text transform="matrix(1 0 0 1 913.3433 362.3102)" class="st24 st30">P28-tetO</text>
<text transform="matrix(1 0 0 1 1003.5022 341.0216)" class="st24 st31">deGFP</text>
<path class="st29" d="M953.6,335.2c0-10.4,8.4-18.9,18.9-18.9c10.4,0,18.9,8.4,18.9,18.9l0,0"/>
<polyline class="st22" points="918.8,252.8 918.8,265.8 794.5,265.8 794.5,298.6 "/>
<polyline class="st22" points="1031.6,298.6 1031.6,266 918.8,265.8 "/>
<polygon class="st23" points="1031.3,304.1 1037,293.3 1026.2,293.2 "/>
<polyline class="st11" points="813.7,364.2 813.7,387.9 972.5,387.9 972.5,375.7 "/>
<line class="st11" x1="988.7" y1="375.7" x2="956.2" y2="375.7"/>
<path class="st1" d="M986.1,148.4H732.9c-6,0-10.9-4.9-10.9-10.9V58.3c0-6,4.9-10.9,10.9-10.9h253.2c6,0,10.9,4.9,10.9,10.9v79.2
	C997.1,143.5,992.2,148.4,986.1,148.4z"/>
<line class="st32" x1="858.4" y1="375.7" x2="893.1" y2="405.3"/>
<line class="st32" x1="893.1" y1="375.7" x2="858.4" y2="405.3"/>
<rect x="738.2" y="56.4" class="st3" width="235" height="82.7"/>
<text transform="matrix(1 0 0 1 754.2044 87.287)"><tspan x="0" y="0" class="st4 st5">Transducer</tspan><tspan x="-3.4" y="43.2" class="st4 st5">Component</tspan></text>
<line class="st26" x1="682.2" y1="335.1" x2="720" y2="335.1"/>
<polyline class="st26" points="682.2,335.1 682.2,297.3 714.6,297.3 "/>
<polyline class="st26" points="703.8,286.5 714.6,297.3 703.8,308.1 "/>
<line class="st26" x1="720" y1="335.1" x2="763.3" y2="335.1"/>
<path class="st33" d="M716.8,333.8c0-10.4,8.4-18.9,18.9-18.9c10.4,0,18.9,8.4,18.9,18.9l0,0"/>
<path class="st34" d="M713.5,217.1h-33.9c-2.6,0-4.7-2.1-4.7-4.7l0,0v-12.3c0-2.6,2.1-4.7,4.7-4.7l0,0h33.9c2.6,0,4.7,2.1,4.7,4.7
	l0,0v12.3C718.2,214.9,716.1,217,713.5,217.1L713.5,217.1z"/>
<text transform="matrix(1 0 0 1 680.7141 184.6119)" class="st24 st30">σ70</text>
<polyline class="st35" points="732.8,206.3 777.7,206.3 777.7,206.3 "/>
<path class="st8" d="M453.6,183.4v45.5c0,2.8,1.9,5.3,4.6,6.1c15.4,4.7,26.3,15.9,26.3,29c0,13.8-12.1,25.6-28.9,29.8
	c-1.2,0.3-2,1.3-2,2.5v67.2h169.9"/>
<text transform="matrix(1 0 0 1 678.4858 358.3879)" class="st24 st30">P28</text>
<text transform="matrix(1 0 0 1 654.1948 377.8514)" class="st4 st36">cleavage</text>
<text transform="matrix(1 0 0 1 571.2681 349.4107)" class="st4 st36">igRNA</text>
<polyline class="st37" points="794.5,368 794.5,387.9 601.8,387.9 601.8,375.7 "/>
<path class="st33" d="M768,321.7v26.9c0,1.5,1.3,2.8,2.8,2.8h33.9l2-0.8l13.4-13.4c1.1-1,1.1-2.8,0.1-3.8c0,0,0,0-0.1-0.1
	l-13.4-13.4l-2-0.8h-33.9c-1.4-0.2-2.6,0.8-2.8,2.2C768,321.4,768,321.5,768,321.7z"/>
<text transform="matrix(1 0 0 1 770.2154 340.7601)" class="st24 st30">tetR-ssrA</text>
<line class="st11" x1="1457.6" y1="271.8" x2="1368.8" y2="271.8"/>
<polygon class="st12" points="1468.4,271.9 1457.6,266.4 1457.6,277.2 "/>
<rect x="1364.1" y="248.6" class="st3" width="91.4" height="17.6"/>
<text transform="matrix(1 0 0 1 1390.6852 263.992)" class="st4 st36">WiFi</text>
<rect x="1360.7" y="281.8" class="st3" width="105" height="17.6"/>
<text transform="matrix(1 0 0 1 1368.3242 297.2603)" class="st4 st36">Bluetooth</text>
<path class="st38" d="M793.8,358.3l-3-2.3c-0.7-0.5-0.8-1.5-0.3-2.2l30.6-40.5c0.5-0.7,1.5-0.8,2.2-0.3l3,2.3
	c0.7,0.5,0.8,1.5,0.3,2.2L796,358c-0.5,0.7-1.4,0.9-2.1,0.4C793.9,358.3,793.8,358.3,793.8,358.3z"/>
<path class="st39" d="M1587.2,364.4h-81.3c-4.8,0-8.7-3.9-8.7-8.7v-160c0-4.8,3.9-8.7,8.7-8.7h81.3c4.8,0,8.7,3.9,8.7,8.7v160
	C1595.9,360.5,1592.1,364.4,1587.2,364.4z"/>
<circle class="st40" cx="1546.6" cy="351.9" r="6.5"/>
<path class="st41" d="M1587.2,339.2H1506c-1.3,0-2.3-1-2.3-2.3V196c0-1.3,1-2.3,2.3-2.3h81.1c1.3,0,2.3,1,2.3,2.3v140.9
	C1589.5,338.2,1588.4,339.2,1587.2,339.2z"/>
<line class="st42" x1="1511.8" y1="299" x2="1580.2" y2="299"/>
<line class="st42" x1="1511.8" y1="307.4" x2="1580.2" y2="307.4"/>
<line class="st42" x1="1511.8" y1="316.3" x2="1580.2" y2="316.3"/>
<line class="st42" x1="1511.8" y1="325.1" x2="1580.2" y2="325.1"/>
<line class="st42" x1="1512.4" y1="290.3" x2="1580.8" y2="290.3"/>
<circle cx="1531.6" cy="277.8" r="3.9"/>
<circle cx="1545.5" cy="277.8" r="3.9"/>
<circle cx="1560.4" cy="277.8" r="3.9"/>
<line class="st42" x1="1512.4" y1="265.3" x2="1580.8" y2="265.3"/>
<line class="st42" x1="1512.4" y1="256.6" x2="1580.8" y2="256.6"/>
<g>
	<path d="M1524.4,229.8h-8c-0.8,0-1.5-0.7-1.5-1.5v-8c0-0.8,0.7-1.5,1.5-1.5h8c0.8,0,1.5,0.7,1.5,1.5v8
		C1525.9,229.1,1525.3,229.8,1524.4,229.8z"/>
	<path d="M1542,229.8h-8c-0.8,0-1.5-0.7-1.5-1.5v-8c0-0.8,0.7-1.5,1.5-1.5h8c0.8,0,1.5,0.7,1.5,1.5v8
		C1543.5,229.1,1542.8,229.8,1542,229.8z"/>
	<path d="M1559.4,229.8h-8c-0.8,0-1.5-0.7-1.5-1.5v-8c0-0.8,0.7-1.5,1.5-1.5h8c0.8,0,1.5,0.7,1.5,1.5v8
		C1560.9,229.1,1560.2,229.8,1559.4,229.8z"/>
	<path d="M1576.8,229.8h-8c-0.8,0-1.5-0.7-1.5-1.5v-8c0-0.8,0.7-1.5,1.5-1.5h8c0.8,0,1.5,0.7,1.5,1.5v8
		C1578.3,229.1,1577.6,229.8,1576.8,229.8z"/>
</g>
<line class="st42" x1="1512.4" y1="247.8" x2="1580.8" y2="247.8"/>
<line class="st42" x1="1512.4" y1="239" x2="1580.8" y2="239"/>
<line class="st43" x1="1512.4" y1="204.9" x2="1580.8" y2="204.9"/>
<polygon class="st35" points="790.7,206.3 779.9,200.8 779.9,211.6 "/>
<text transform="matrix(1 0 0 1 311.8631 349.601)" class="st4 st36">mRNA</text>
<text transform="matrix(1 0 0 1 506.6051 349.2309)" class="st4 st36">Cas9</text>
<polyline class="st44" points="799.9,378.7 794.5,368 789.1,378.9 "/>
<polygon class="st23" points="794.3,298.6 799.9,287.9 789.1,287.8 "/>
</svg>
